<?xml version="1.0" encoding="UTF-8" standalone="no"?>
<svg
   version="1.1"
   width="10.779677mm"
   height="22.811832mm"
   viewBox="0 0 10.779677 22.811833"
   id="svg3538"
   sodipodi:docname="convolvulus.svg"
   xml:space="preserve"
   inkscape:version="1.2.2 (b0a8486541, 2022-12-01)"
   xmlns:inkscape="http://www.inkscape.org/namespaces/inkscape"
   xmlns:sodipodi="http://sodipodi.sourceforge.net/DTD/sodipodi-0.dtd"
   xmlns="http://www.w3.org/2000/svg"
   xmlns:svg="http://www.w3.org/2000/svg"><defs
     id="defs3542" /><sodipodi:namedview
     id="namedview3540"
     pagecolor="#ffffff"
     bordercolor="#666666"
     borderopacity="1.0"
     inkscape:showpageshadow="2"
     inkscape:pageopacity="0.0"
     inkscape:pagecheckerboard="0"
     inkscape:deskcolor="#d1d1d1"
     inkscape:document-units="mm"
     showgrid="false"
     inkscape:zoom="4.7731023"
     inkscape:cx="6.4947278"
     inkscape:cy="44.415558"
     inkscape:window-width="1920"
     inkscape:window-height="1048"
     inkscape:window-x="0"
     inkscape:window-y="0"
     inkscape:window-maximized="1"
     inkscape:current-layer="layer1" /><title
     id="title2">SVG Image created as epi_ESP32_PD-B_Cu.svg date 2024/10/10 21:09:19 </title><desc
     id="desc4">Image generated by PCBNEW </desc><g
     inkscape:groupmode="layer"
     id="layer1"
     inkscape:label="Layer 1"
     transform="translate(-6.7438581,-6.6793586)"><path
       style="fill:none;stroke:#000000;stroke-width:0.2;stroke-linecap:round;stroke-linejoin:round;stroke-dasharray:none;stroke-opacity:1"
       d="m 11.723844,24.953143 c 0.90516,-0.946946 1.231929,-3.100811 0.433266,-4.534421 C 10.60968,17.64109 8.2038147,17.060299 7.9728578,13.08293 7.8304166,10.629908 8.5407341,8.5925073 9.8894362,6.7601782"
       id="path303"
       sodipodi:nodetypes="cssc" /><path
       style="fill:none;stroke:#000000;stroke-width:0.2;stroke-linecap:butt;stroke-linejoin:miter;stroke-dasharray:none;stroke-opacity:1"
       d="m 13.011709,23.502241 c -0.0202,-0.288962 0.259682,-0.439624 0.169294,-0.588746 0.08872,-0.150142 -0.192797,-0.297645 -0.175868,-0.586816 0.627285,0.305895 1.763218,-0.145682 2.311315,0.574815 -0.539971,0.726609 -1.6809,0.287828 -2.304709,0.600757 z"
       id="path6873"
       sodipodi:nodetypes="cccccc" /><path
       style="fill:none;stroke:#000000;stroke-width:0.2;stroke-linecap:round;stroke-linejoin:miter;stroke-dasharray:none;stroke-opacity:1"
       d="m 13.180979,22.913488 0.531772,-0.003"
       id="path7655"
       sodipodi:nodetypes="cc" /><path
       style="fill:none;stroke:#000000;stroke-width:0.2;stroke-linecap:round;stroke-linejoin:miter;stroke-dasharray:none;stroke-opacity:1"
       d="m 13.180979,22.913488 c -0.289179,-0.01184 -0.49468,0.06001 -0.635243,0.196782"
       id="path7657"
       sodipodi:nodetypes="cc" /><path
       style="fill:none;stroke:#000000;stroke-width:0.2;stroke-linecap:butt;stroke-linejoin:miter;stroke-dasharray:none;stroke-opacity:1"
       d="m 10.270659,17.538509 c 0.01032,-0.289482 0.304484,-0.409869 0.23028,-0.567673 0.10402,-0.139978 -0.160416,-0.316274 -0.113163,-0.60206 0.591629,0.370182 1.768763,0.0406 2.238026,0.814753 -0.613406,0.665778 -1.70185,0.109417 -2.355116,0.354992 z"
       id="path6873-6"
       sodipodi:nodetypes="cccccc" /><path
       style="fill:none;stroke:#000000;stroke-width:0.2;stroke-linecap:round;stroke-linejoin:miter;stroke-dasharray:none;stroke-opacity:1"
       d="m 10.50092,16.970828 0.529134,0.05297"
       id="path7655-2"
       sodipodi:nodetypes="cc" /><path
       style="fill:none;stroke:#000000;stroke-width:0.2;stroke-linecap:round;stroke-linejoin:miter;stroke-dasharray:none;stroke-opacity:1"
       d="m 10.50092,16.970828 c -0.286328,-0.04219 -0.6221607,-0.01167 -0.7143494,0.351214"
       id="path7657-9"
       sodipodi:nodetypes="cc" /><path
       style="fill:none;stroke:#000000;stroke-width:0.2;stroke-linecap:butt;stroke-linejoin:miter;stroke-dasharray:none;stroke-opacity:1"
       d="M 8.4998897,8.8049932 C 8.4244269,8.6131234 8.198469,8.6019613 8.2109184,8.4784683 8.1079442,8.4091526 8.2437137,8.2281939 8.1443383,8.0475507 7.8348588,8.4361033 6.9666882,8.4935641 6.8349843,9.1243065 7.4043539,9.4259724 8.0032368,8.7948311 8.499876,8.8050068 Z"
       id="path6873-6-6"
       sodipodi:nodetypes="cccccc" /><path
       style="fill:none;stroke:#000000;stroke-width:0.2;stroke-linecap:round;stroke-linejoin:miter;stroke-dasharray:none;stroke-opacity:1"
       d="M 8.2109281,8.4784595 7.8682953,8.6392928"
       id="path7655-2-0"
       sodipodi:nodetypes="cc" /><path
       style="fill:none;stroke:#000000;stroke-width:0.2;stroke-linecap:round;stroke-linejoin:miter;stroke-dasharray:none;stroke-opacity:1"
       d="M 8.2109281,8.4784595 C 8.3931315,8.382346 8.6257844,8.323329 8.7735793,8.5450798"
       id="path7657-9-6"
       sodipodi:nodetypes="cc" /><path
       style="fill:none;stroke:#000000;stroke-width:0.2;stroke-linecap:butt;stroke-linejoin:miter;stroke-dasharray:none;stroke-opacity:1"
       d="m 9.8616118,6.9971655 c 0.1256903,-0.034517 0.2169672,0.075575 0.2747352,0.022504 0.07409,0.025844 0.114229,-0.1114273 0.243297,-0.1295877 -0.07937,0.3038417 0.220521,0.7649573 -0.04877,1.0706038 C 9.962474,7.7868625 10.05494,7.2446431 9.861607,6.9971727 Z"
       id="path6873-6-6-2"
       sodipodi:nodetypes="cccccc" /><path
       style="fill:none;stroke:#000000;stroke-width:0.2;stroke-linecap:round;stroke-linejoin:miter;stroke-dasharray:none;stroke-opacity:1"
       d="m 10.136347,7.0196667 0.04844,0.2343338"
       id="path7655-2-0-6"
       sodipodi:nodetypes="cc" /><path
       style="fill:none;stroke:#000000;stroke-width:0.2;stroke-linecap:round;stroke-linejoin:miter;stroke-dasharray:none;stroke-opacity:1"
       d="M 10.136347,7.0196667 C 10.115943,6.8910436 10.057658,6.7509455 9.8894362,6.7601782"
       id="path7657-9-6-1"
       sodipodi:nodetypes="cc" /><path
       style="fill:none;stroke:#000000;stroke-width:0.2;stroke-linecap:butt;stroke-linejoin:miter;stroke-dasharray:none;stroke-opacity:1"
       d="m 11.614199,20.580233 c -0.05959,-0.283472 -0.369997,-0.351863 -0.323829,-0.520017 -0.126396,-0.12016 0.104061,-0.33902 0.0087,-0.612542 -0.519735,0.465763 -1.7358556,0.342005 -2.0660514,1.184914 0.7180757,0.551268 1.6955434,-0.182766 2.3811454,-0.05234 z"
       id="path6873-5"
       sodipodi:nodetypes="cccccc" /><path
       style="fill:none;stroke:#000000;stroke-width:0.2;stroke-linecap:round;stroke-linejoin:miter;stroke-dasharray:none;stroke-opacity:1"
       d="m 11.290392,20.060202 -0.51232,0.142545"
       id="path7655-3"
       sodipodi:nodetypes="cc" /><path
       style="fill:none;stroke:#000000;stroke-width:0.2;stroke-linecap:round;stroke-linejoin:miter;stroke-dasharray:none;stroke-opacity:1"
       d="m 11.290392,20.060202 c 0.274921,-0.09046 0.492236,-0.07755 0.664837,0.01558"
       id="path7657-5"
       sodipodi:nodetypes="cc" /><path
       style="fill:none;stroke:#000000;stroke-width:0.2;stroke-linecap:butt;stroke-linejoin:miter;stroke-dasharray:none;stroke-opacity:1"
       d="M 8.3022301,14.71111 C 8.031005,14.609404 7.8068308,14.834741 7.6896514,14.705639 7.5204503,14.747896 7.4592916,14.436014 7.1772865,14.369833 7.2917342,15.058281 6.5351631,16.01842 7.0695868,16.749116 7.9199469,16.438607 7.8245029,15.219943 8.3022285,14.71118 Z"
       id="path6873-5-1"
       sodipodi:nodetypes="cccccc" /><path
       style="fill:none;stroke:#000000;stroke-width:0.2;stroke-linecap:round;stroke-linejoin:miter;stroke-dasharray:none;stroke-opacity:1"
       d="M 7.6896514,14.705579 7.5352532,15.214451"
       id="path7655-3-2"
       sodipodi:nodetypes="cc" /><path
       style="fill:none;stroke:#000000;stroke-width:0.2;stroke-linecap:round;stroke-linejoin:miter;stroke-dasharray:none;stroke-opacity:1"
       d="M 7.6896514,14.705579 C 7.7607131,14.425018 7.8881438,14.24851 8.0593065,14.152761"
       id="path7657-5-7"
       sodipodi:nodetypes="cc" /><path
       style="fill:none;stroke:#000000;stroke-width:0.2;stroke-linecap:butt;stroke-linejoin:miter;stroke-dasharray:none;stroke-opacity:1"
       d="m 8.1955499,11.685596 c 0.1583303,-0.215299 0.4451396,-0.154156 0.4706098,-0.313 0.1520528,-0.05262 0.042121,-0.324461 0.2266829,-0.517742 0.2585528,0.589692 1.3271344,0.950325 1.2824394,1.784341 C 9.3616501,12.827846 8.8211726,11.838 8.1955748,11.685631 Z"
       id="path6873-5-1-0"
       sodipodi:nodetypes="cccccc" /><path
       style="fill:none;stroke:#000000;stroke-width:0.2;stroke-linecap:round;stroke-linejoin:miter;stroke-dasharray:none;stroke-opacity:1"
       d="m 8.6661412,11.372567 0.3757957,0.315419"
       id="path7655-3-2-9"
       sodipodi:nodetypes="cc" /><path
       style="fill:none;stroke:#000000;stroke-width:0.2;stroke-linecap:round;stroke-linejoin:miter;stroke-dasharray:none;stroke-opacity:1"
       d="M 8.6661412,11.372567 C 8.469818,11.191577 8.28238,11.119407 8.1018518,11.131684"
       id="path7657-5-7-3"
       sodipodi:nodetypes="cc" /></g></svg>
