%TF.GenerationSoftware,KiCad,Pcbnew,8.0.5-8.0.5-0~ubuntu24.04.1*%
%TF.CreationDate,2024-10-10T17:44:54+02:00*%
%TF.ProjectId,epi_ESP32_PD,6570695f-4553-4503-9332-5f50442e6b69,1_1*%
%TF.SameCoordinates,Original*%
%TF.FileFunction,Legend,Bot*%
%TF.FilePolarity,Positive*%
%FSLAX46Y46*%
G04 Gerber Fmt 4.6, Leading zero omitted, Abs format (unit mm)*
G04 Created by KiCad (PCBNEW 8.0.5-8.0.5-0~ubuntu24.04.1) date 2024-10-10 17:44:54*
%MOMM*%
%LPD*%
G01*
G04 APERTURE LIST*
%ADD10C,0.160000*%
%ADD11C,0.120000*%
G04 APERTURE END LIST*
D10*
X107100000Y-50950000D02*
X107100000Y-50450000D01*
X108300000Y-82400000D02*
X108300000Y-81900000D01*
X105500000Y-51250000D02*
X106100000Y-51250000D01*
X106800000Y-50650000D02*
X106800000Y-51250000D01*
X105800000Y-50950000D02*
X106300000Y-50950000D01*
X108600000Y-82700000D02*
X108600000Y-82100000D01*
X107800000Y-82400000D02*
X108300000Y-82400000D01*
X105800000Y-50450000D02*
X105800000Y-50950000D01*
X105800000Y-50950000D02*
X105300000Y-50950000D01*
X108300000Y-82400000D02*
X108300000Y-82900000D01*
X107100000Y-50950000D02*
X107100000Y-51450000D01*
X107600000Y-50950000D02*
X107100000Y-50950000D01*
X107580451Y-62774975D02*
X107047117Y-62774975D01*
X107047117Y-62774975D02*
X107389975Y-63574975D01*
X100242356Y-50151165D02*
X100204260Y-50113070D01*
X100204260Y-50113070D02*
X100128070Y-50074975D01*
X100128070Y-50074975D02*
X99937594Y-50074975D01*
X99937594Y-50074975D02*
X99861403Y-50113070D01*
X99861403Y-50113070D02*
X99823308Y-50151165D01*
X99823308Y-50151165D02*
X99785213Y-50227356D01*
X99785213Y-50227356D02*
X99785213Y-50303546D01*
X99785213Y-50303546D02*
X99823308Y-50417832D01*
X99823308Y-50417832D02*
X100280451Y-50874975D01*
X100280451Y-50874975D02*
X99785213Y-50874975D01*
X99289974Y-50074975D02*
X99213784Y-50074975D01*
X99213784Y-50074975D02*
X99137593Y-50113070D01*
X99137593Y-50113070D02*
X99099498Y-50151165D01*
X99099498Y-50151165D02*
X99061403Y-50227356D01*
X99061403Y-50227356D02*
X99023308Y-50379737D01*
X99023308Y-50379737D02*
X99023308Y-50570213D01*
X99023308Y-50570213D02*
X99061403Y-50722594D01*
X99061403Y-50722594D02*
X99099498Y-50798784D01*
X99099498Y-50798784D02*
X99137593Y-50836880D01*
X99137593Y-50836880D02*
X99213784Y-50874975D01*
X99213784Y-50874975D02*
X99289974Y-50874975D01*
X99289974Y-50874975D02*
X99366165Y-50836880D01*
X99366165Y-50836880D02*
X99404260Y-50798784D01*
X99404260Y-50798784D02*
X99442355Y-50722594D01*
X99442355Y-50722594D02*
X99480451Y-50570213D01*
X99480451Y-50570213D02*
X99480451Y-50379737D01*
X99480451Y-50379737D02*
X99442355Y-50227356D01*
X99442355Y-50227356D02*
X99404260Y-50151165D01*
X99404260Y-50151165D02*
X99366165Y-50113070D01*
X99366165Y-50113070D02*
X99289974Y-50074975D01*
X104042356Y-47169965D02*
X104004260Y-47131870D01*
X104004260Y-47131870D02*
X103928070Y-47093775D01*
X103928070Y-47093775D02*
X103737594Y-47093775D01*
X103737594Y-47093775D02*
X103661403Y-47131870D01*
X103661403Y-47131870D02*
X103623308Y-47169965D01*
X103623308Y-47169965D02*
X103585213Y-47246156D01*
X103585213Y-47246156D02*
X103585213Y-47322346D01*
X103585213Y-47322346D02*
X103623308Y-47436632D01*
X103623308Y-47436632D02*
X104080451Y-47893775D01*
X104080451Y-47893775D02*
X103585213Y-47893775D01*
X104080451Y-50224975D02*
X103585213Y-50224975D01*
X103585213Y-50224975D02*
X103851879Y-50529737D01*
X103851879Y-50529737D02*
X103737594Y-50529737D01*
X103737594Y-50529737D02*
X103661403Y-50567832D01*
X103661403Y-50567832D02*
X103623308Y-50605927D01*
X103623308Y-50605927D02*
X103585213Y-50682118D01*
X103585213Y-50682118D02*
X103585213Y-50872594D01*
X103585213Y-50872594D02*
X103623308Y-50948784D01*
X103623308Y-50948784D02*
X103661403Y-50986880D01*
X103661403Y-50986880D02*
X103737594Y-51024975D01*
X103737594Y-51024975D02*
X103966165Y-51024975D01*
X103966165Y-51024975D02*
X104042356Y-50986880D01*
X104042356Y-50986880D02*
X104080451Y-50948784D01*
X107123308Y-52614975D02*
X107504260Y-52614975D01*
X107504260Y-52614975D02*
X107542356Y-52995927D01*
X107542356Y-52995927D02*
X107504260Y-52957832D01*
X107504260Y-52957832D02*
X107428070Y-52919737D01*
X107428070Y-52919737D02*
X107237594Y-52919737D01*
X107237594Y-52919737D02*
X107161403Y-52957832D01*
X107161403Y-52957832D02*
X107123308Y-52995927D01*
X107123308Y-52995927D02*
X107085213Y-53072118D01*
X107085213Y-53072118D02*
X107085213Y-53262594D01*
X107085213Y-53262594D02*
X107123308Y-53338784D01*
X107123308Y-53338784D02*
X107161403Y-53376880D01*
X107161403Y-53376880D02*
X107237594Y-53414975D01*
X107237594Y-53414975D02*
X107428070Y-53414975D01*
X107428070Y-53414975D02*
X107504260Y-53376880D01*
X107504260Y-53376880D02*
X107542356Y-53338784D01*
X106856641Y-52614975D02*
X106589974Y-53414975D01*
X106589974Y-53414975D02*
X106323308Y-52614975D01*
X99480451Y-57771165D02*
X99442355Y-57733070D01*
X99442355Y-57733070D02*
X99366165Y-57694975D01*
X99366165Y-57694975D02*
X99175689Y-57694975D01*
X99175689Y-57694975D02*
X99099498Y-57733070D01*
X99099498Y-57733070D02*
X99061403Y-57771165D01*
X99061403Y-57771165D02*
X99023308Y-57847356D01*
X99023308Y-57847356D02*
X99023308Y-57923546D01*
X99023308Y-57923546D02*
X99061403Y-58037832D01*
X99061403Y-58037832D02*
X99518546Y-58494975D01*
X99518546Y-58494975D02*
X99023308Y-58494975D01*
X110206224Y-43918546D02*
X109406224Y-43651879D01*
X109406224Y-43651879D02*
X110206224Y-43385213D01*
X109406224Y-43118546D02*
X110206224Y-43118546D01*
X109406224Y-42737594D02*
X110206224Y-42737594D01*
X110206224Y-42737594D02*
X109406224Y-42280451D01*
X109406224Y-42280451D02*
X110206224Y-42280451D01*
X99289974Y-52614975D02*
X99213784Y-52614975D01*
X99213784Y-52614975D02*
X99137593Y-52653070D01*
X99137593Y-52653070D02*
X99099498Y-52691165D01*
X99099498Y-52691165D02*
X99061403Y-52767356D01*
X99061403Y-52767356D02*
X99023308Y-52919737D01*
X99023308Y-52919737D02*
X99023308Y-53110213D01*
X99023308Y-53110213D02*
X99061403Y-53262594D01*
X99061403Y-53262594D02*
X99099498Y-53338784D01*
X99099498Y-53338784D02*
X99137593Y-53376880D01*
X99137593Y-53376880D02*
X99213784Y-53414975D01*
X99213784Y-53414975D02*
X99289974Y-53414975D01*
X99289974Y-53414975D02*
X99366165Y-53376880D01*
X99366165Y-53376880D02*
X99404260Y-53338784D01*
X99404260Y-53338784D02*
X99442355Y-53262594D01*
X99442355Y-53262594D02*
X99480451Y-53110213D01*
X99480451Y-53110213D02*
X99480451Y-52919737D01*
X99480451Y-52919737D02*
X99442355Y-52767356D01*
X99442355Y-52767356D02*
X99404260Y-52691165D01*
X99404260Y-52691165D02*
X99366165Y-52653070D01*
X99366165Y-52653070D02*
X99289974Y-52614975D01*
X107389975Y-60577832D02*
X107466165Y-60539737D01*
X107466165Y-60539737D02*
X107504260Y-60501641D01*
X107504260Y-60501641D02*
X107542356Y-60425451D01*
X107542356Y-60425451D02*
X107542356Y-60387356D01*
X107542356Y-60387356D02*
X107504260Y-60311165D01*
X107504260Y-60311165D02*
X107466165Y-60273070D01*
X107466165Y-60273070D02*
X107389975Y-60234975D01*
X107389975Y-60234975D02*
X107237594Y-60234975D01*
X107237594Y-60234975D02*
X107161403Y-60273070D01*
X107161403Y-60273070D02*
X107123308Y-60311165D01*
X107123308Y-60311165D02*
X107085213Y-60387356D01*
X107085213Y-60387356D02*
X107085213Y-60425451D01*
X107085213Y-60425451D02*
X107123308Y-60501641D01*
X107123308Y-60501641D02*
X107161403Y-60539737D01*
X107161403Y-60539737D02*
X107237594Y-60577832D01*
X107237594Y-60577832D02*
X107389975Y-60577832D01*
X107389975Y-60577832D02*
X107466165Y-60615927D01*
X107466165Y-60615927D02*
X107504260Y-60654022D01*
X107504260Y-60654022D02*
X107542356Y-60730213D01*
X107542356Y-60730213D02*
X107542356Y-60882594D01*
X107542356Y-60882594D02*
X107504260Y-60958784D01*
X107504260Y-60958784D02*
X107466165Y-60996880D01*
X107466165Y-60996880D02*
X107389975Y-61034975D01*
X107389975Y-61034975D02*
X107237594Y-61034975D01*
X107237594Y-61034975D02*
X107161403Y-60996880D01*
X107161403Y-60996880D02*
X107123308Y-60958784D01*
X107123308Y-60958784D02*
X107085213Y-60882594D01*
X107085213Y-60882594D02*
X107085213Y-60730213D01*
X107085213Y-60730213D02*
X107123308Y-60654022D01*
X107123308Y-60654022D02*
X107161403Y-60615927D01*
X107161403Y-60615927D02*
X107237594Y-60577832D01*
X101206224Y-78704260D02*
X102006224Y-78704260D01*
X102006224Y-78170927D02*
X102006224Y-78018546D01*
X102006224Y-78018546D02*
X101968129Y-77942356D01*
X101968129Y-77942356D02*
X101891939Y-77866165D01*
X101891939Y-77866165D02*
X101739558Y-77828070D01*
X101739558Y-77828070D02*
X101472891Y-77828070D01*
X101472891Y-77828070D02*
X101320510Y-77866165D01*
X101320510Y-77866165D02*
X101244320Y-77942356D01*
X101244320Y-77942356D02*
X101206224Y-78018546D01*
X101206224Y-78018546D02*
X101206224Y-78170927D01*
X101206224Y-78170927D02*
X101244320Y-78247118D01*
X101244320Y-78247118D02*
X101320510Y-78323308D01*
X101320510Y-78323308D02*
X101472891Y-78361404D01*
X101472891Y-78361404D02*
X101739558Y-78361404D01*
X101739558Y-78361404D02*
X101891939Y-78323308D01*
X101891939Y-78323308D02*
X101968129Y-78247118D01*
X101968129Y-78247118D02*
X102006224Y-78170927D01*
X102006224Y-77561404D02*
X102006224Y-77066166D01*
X102006224Y-77066166D02*
X101701462Y-77332832D01*
X101701462Y-77332832D02*
X101701462Y-77218547D01*
X101701462Y-77218547D02*
X101663367Y-77142356D01*
X101663367Y-77142356D02*
X101625272Y-77104261D01*
X101625272Y-77104261D02*
X101549081Y-77066166D01*
X101549081Y-77066166D02*
X101358605Y-77066166D01*
X101358605Y-77066166D02*
X101282415Y-77104261D01*
X101282415Y-77104261D02*
X101244320Y-77142356D01*
X101244320Y-77142356D02*
X101206224Y-77218547D01*
X101206224Y-77218547D02*
X101206224Y-77447118D01*
X101206224Y-77447118D02*
X101244320Y-77523309D01*
X101244320Y-77523309D02*
X101282415Y-77561404D01*
X101510986Y-76723308D02*
X101510986Y-76113785D01*
X102006224Y-75351880D02*
X102006224Y-75732832D01*
X102006224Y-75732832D02*
X101625272Y-75770928D01*
X101625272Y-75770928D02*
X101663367Y-75732832D01*
X101663367Y-75732832D02*
X101701462Y-75656642D01*
X101701462Y-75656642D02*
X101701462Y-75466166D01*
X101701462Y-75466166D02*
X101663367Y-75389975D01*
X101663367Y-75389975D02*
X101625272Y-75351880D01*
X101625272Y-75351880D02*
X101549081Y-75313785D01*
X101549081Y-75313785D02*
X101358605Y-75313785D01*
X101358605Y-75313785D02*
X101282415Y-75351880D01*
X101282415Y-75351880D02*
X101244320Y-75389975D01*
X101244320Y-75389975D02*
X101206224Y-75466166D01*
X101206224Y-75466166D02*
X101206224Y-75656642D01*
X101206224Y-75656642D02*
X101244320Y-75732832D01*
X101244320Y-75732832D02*
X101282415Y-75770928D01*
X102006224Y-75085213D02*
X101206224Y-74818546D01*
X101206224Y-74818546D02*
X102006224Y-74551880D01*
X107047117Y-55954975D02*
X107313784Y-55574022D01*
X107504260Y-55954975D02*
X107504260Y-55154975D01*
X107504260Y-55154975D02*
X107199498Y-55154975D01*
X107199498Y-55154975D02*
X107123308Y-55193070D01*
X107123308Y-55193070D02*
X107085213Y-55231165D01*
X107085213Y-55231165D02*
X107047117Y-55307356D01*
X107047117Y-55307356D02*
X107047117Y-55421641D01*
X107047117Y-55421641D02*
X107085213Y-55497832D01*
X107085213Y-55497832D02*
X107123308Y-55535927D01*
X107123308Y-55535927D02*
X107199498Y-55574022D01*
X107199498Y-55574022D02*
X107504260Y-55574022D01*
X106742356Y-55916880D02*
X106628070Y-55954975D01*
X106628070Y-55954975D02*
X106437594Y-55954975D01*
X106437594Y-55954975D02*
X106361403Y-55916880D01*
X106361403Y-55916880D02*
X106323308Y-55878784D01*
X106323308Y-55878784D02*
X106285213Y-55802594D01*
X106285213Y-55802594D02*
X106285213Y-55726403D01*
X106285213Y-55726403D02*
X106323308Y-55650213D01*
X106323308Y-55650213D02*
X106361403Y-55612118D01*
X106361403Y-55612118D02*
X106437594Y-55574022D01*
X106437594Y-55574022D02*
X106589975Y-55535927D01*
X106589975Y-55535927D02*
X106666165Y-55497832D01*
X106666165Y-55497832D02*
X106704260Y-55459737D01*
X106704260Y-55459737D02*
X106742356Y-55383546D01*
X106742356Y-55383546D02*
X106742356Y-55307356D01*
X106742356Y-55307356D02*
X106704260Y-55231165D01*
X106704260Y-55231165D02*
X106666165Y-55193070D01*
X106666165Y-55193070D02*
X106589975Y-55154975D01*
X106589975Y-55154975D02*
X106399498Y-55154975D01*
X106399498Y-55154975D02*
X106285213Y-55193070D01*
X106056641Y-55154975D02*
X105599498Y-55154975D01*
X105828070Y-55954975D02*
X105828070Y-55154975D01*
X99099498Y-63041641D02*
X99099498Y-63574975D01*
X99289974Y-62736880D02*
X99480451Y-63308308D01*
X99480451Y-63308308D02*
X98985212Y-63308308D01*
X99518546Y-60234975D02*
X99023308Y-60234975D01*
X99023308Y-60234975D02*
X99289974Y-60539737D01*
X99289974Y-60539737D02*
X99175689Y-60539737D01*
X99175689Y-60539737D02*
X99099498Y-60577832D01*
X99099498Y-60577832D02*
X99061403Y-60615927D01*
X99061403Y-60615927D02*
X99023308Y-60692118D01*
X99023308Y-60692118D02*
X99023308Y-60882594D01*
X99023308Y-60882594D02*
X99061403Y-60958784D01*
X99061403Y-60958784D02*
X99099498Y-60996880D01*
X99099498Y-60996880D02*
X99175689Y-61034975D01*
X99175689Y-61034975D02*
X99404260Y-61034975D01*
X99404260Y-61034975D02*
X99480451Y-60996880D01*
X99480451Y-60996880D02*
X99518546Y-60958784D01*
X103806224Y-78704260D02*
X104606224Y-78704260D01*
X104606224Y-78170927D02*
X104606224Y-78018546D01*
X104606224Y-78018546D02*
X104568129Y-77942356D01*
X104568129Y-77942356D02*
X104491939Y-77866165D01*
X104491939Y-77866165D02*
X104339558Y-77828070D01*
X104339558Y-77828070D02*
X104072891Y-77828070D01*
X104072891Y-77828070D02*
X103920510Y-77866165D01*
X103920510Y-77866165D02*
X103844320Y-77942356D01*
X103844320Y-77942356D02*
X103806224Y-78018546D01*
X103806224Y-78018546D02*
X103806224Y-78170927D01*
X103806224Y-78170927D02*
X103844320Y-78247118D01*
X103844320Y-78247118D02*
X103920510Y-78323308D01*
X103920510Y-78323308D02*
X104072891Y-78361404D01*
X104072891Y-78361404D02*
X104339558Y-78361404D01*
X104339558Y-78361404D02*
X104491939Y-78323308D01*
X104491939Y-78323308D02*
X104568129Y-78247118D01*
X104568129Y-78247118D02*
X104606224Y-78170927D01*
X104530034Y-77523309D02*
X104568129Y-77485213D01*
X104568129Y-77485213D02*
X104606224Y-77409023D01*
X104606224Y-77409023D02*
X104606224Y-77218547D01*
X104606224Y-77218547D02*
X104568129Y-77142356D01*
X104568129Y-77142356D02*
X104530034Y-77104261D01*
X104530034Y-77104261D02*
X104453843Y-77066166D01*
X104453843Y-77066166D02*
X104377653Y-77066166D01*
X104377653Y-77066166D02*
X104263367Y-77104261D01*
X104263367Y-77104261D02*
X103806224Y-77561404D01*
X103806224Y-77561404D02*
X103806224Y-77066166D01*
X104110986Y-76723308D02*
X104110986Y-76113785D01*
X104606224Y-75351880D02*
X104606224Y-75732832D01*
X104606224Y-75732832D02*
X104225272Y-75770928D01*
X104225272Y-75770928D02*
X104263367Y-75732832D01*
X104263367Y-75732832D02*
X104301462Y-75656642D01*
X104301462Y-75656642D02*
X104301462Y-75466166D01*
X104301462Y-75466166D02*
X104263367Y-75389975D01*
X104263367Y-75389975D02*
X104225272Y-75351880D01*
X104225272Y-75351880D02*
X104149081Y-75313785D01*
X104149081Y-75313785D02*
X103958605Y-75313785D01*
X103958605Y-75313785D02*
X103882415Y-75351880D01*
X103882415Y-75351880D02*
X103844320Y-75389975D01*
X103844320Y-75389975D02*
X103806224Y-75466166D01*
X103806224Y-75466166D02*
X103806224Y-75656642D01*
X103806224Y-75656642D02*
X103844320Y-75732832D01*
X103844320Y-75732832D02*
X103882415Y-75770928D01*
X104606224Y-75085213D02*
X103806224Y-74818546D01*
X103806224Y-74818546D02*
X104606224Y-74551880D01*
X107599975Y-37374727D02*
X107333309Y-37374727D01*
X107219023Y-37793775D02*
X107599975Y-37793775D01*
X107599975Y-37793775D02*
X107599975Y-36993775D01*
X107599975Y-36993775D02*
X107219023Y-36993775D01*
X106876165Y-37260441D02*
X106876165Y-38060441D01*
X106876165Y-37298537D02*
X106799975Y-37260441D01*
X106799975Y-37260441D02*
X106647594Y-37260441D01*
X106647594Y-37260441D02*
X106571403Y-37298537D01*
X106571403Y-37298537D02*
X106533308Y-37336632D01*
X106533308Y-37336632D02*
X106495213Y-37412822D01*
X106495213Y-37412822D02*
X106495213Y-37641394D01*
X106495213Y-37641394D02*
X106533308Y-37717584D01*
X106533308Y-37717584D02*
X106571403Y-37755680D01*
X106571403Y-37755680D02*
X106647594Y-37793775D01*
X106647594Y-37793775D02*
X106799975Y-37793775D01*
X106799975Y-37793775D02*
X106876165Y-37755680D01*
X106152355Y-37793775D02*
X106152355Y-37260441D01*
X106152355Y-36993775D02*
X106190451Y-37031870D01*
X106190451Y-37031870D02*
X106152355Y-37069965D01*
X106152355Y-37069965D02*
X106114260Y-37031870D01*
X106114260Y-37031870D02*
X106152355Y-36993775D01*
X106152355Y-36993775D02*
X106152355Y-37069965D01*
X105771403Y-37489013D02*
X105161880Y-37489013D01*
X104323784Y-37717584D02*
X104361880Y-37755680D01*
X104361880Y-37755680D02*
X104476165Y-37793775D01*
X104476165Y-37793775D02*
X104552356Y-37793775D01*
X104552356Y-37793775D02*
X104666642Y-37755680D01*
X104666642Y-37755680D02*
X104742832Y-37679489D01*
X104742832Y-37679489D02*
X104780927Y-37603299D01*
X104780927Y-37603299D02*
X104819023Y-37450918D01*
X104819023Y-37450918D02*
X104819023Y-37336632D01*
X104819023Y-37336632D02*
X104780927Y-37184251D01*
X104780927Y-37184251D02*
X104742832Y-37108060D01*
X104742832Y-37108060D02*
X104666642Y-37031870D01*
X104666642Y-37031870D02*
X104552356Y-36993775D01*
X104552356Y-36993775D02*
X104476165Y-36993775D01*
X104476165Y-36993775D02*
X104361880Y-37031870D01*
X104361880Y-37031870D02*
X104323784Y-37069965D01*
X104057118Y-36993775D02*
X103561880Y-36993775D01*
X103561880Y-36993775D02*
X103828546Y-37298537D01*
X103828546Y-37298537D02*
X103714261Y-37298537D01*
X103714261Y-37298537D02*
X103638070Y-37336632D01*
X103638070Y-37336632D02*
X103599975Y-37374727D01*
X103599975Y-37374727D02*
X103561880Y-37450918D01*
X103561880Y-37450918D02*
X103561880Y-37641394D01*
X103561880Y-37641394D02*
X103599975Y-37717584D01*
X103599975Y-37717584D02*
X103638070Y-37755680D01*
X103638070Y-37755680D02*
X103714261Y-37793775D01*
X103714261Y-37793775D02*
X103942832Y-37793775D01*
X103942832Y-37793775D02*
X104019023Y-37755680D01*
X104019023Y-37755680D02*
X104057118Y-37717584D01*
X103219022Y-37489013D02*
X102609499Y-37489013D01*
X102228546Y-37793775D02*
X102228546Y-36993775D01*
X102228546Y-36993775D02*
X101923784Y-36993775D01*
X101923784Y-36993775D02*
X101847594Y-37031870D01*
X101847594Y-37031870D02*
X101809499Y-37069965D01*
X101809499Y-37069965D02*
X101771403Y-37146156D01*
X101771403Y-37146156D02*
X101771403Y-37260441D01*
X101771403Y-37260441D02*
X101809499Y-37336632D01*
X101809499Y-37336632D02*
X101847594Y-37374727D01*
X101847594Y-37374727D02*
X101923784Y-37412822D01*
X101923784Y-37412822D02*
X102228546Y-37412822D01*
X101428546Y-37793775D02*
X101428546Y-36993775D01*
X101428546Y-36993775D02*
X101238070Y-36993775D01*
X101238070Y-36993775D02*
X101123784Y-37031870D01*
X101123784Y-37031870D02*
X101047594Y-37108060D01*
X101047594Y-37108060D02*
X101009499Y-37184251D01*
X101009499Y-37184251D02*
X100971403Y-37336632D01*
X100971403Y-37336632D02*
X100971403Y-37450918D01*
X100971403Y-37450918D02*
X101009499Y-37603299D01*
X101009499Y-37603299D02*
X101047594Y-37679489D01*
X101047594Y-37679489D02*
X101123784Y-37755680D01*
X101123784Y-37755680D02*
X101238070Y-37793775D01*
X101238070Y-37793775D02*
X101428546Y-37793775D01*
X107237594Y-58075927D02*
X107123308Y-58114022D01*
X107123308Y-58114022D02*
X107085213Y-58152118D01*
X107085213Y-58152118D02*
X107047117Y-58228308D01*
X107047117Y-58228308D02*
X107047117Y-58342594D01*
X107047117Y-58342594D02*
X107085213Y-58418784D01*
X107085213Y-58418784D02*
X107123308Y-58456880D01*
X107123308Y-58456880D02*
X107199498Y-58494975D01*
X107199498Y-58494975D02*
X107504260Y-58494975D01*
X107504260Y-58494975D02*
X107504260Y-57694975D01*
X107504260Y-57694975D02*
X107237594Y-57694975D01*
X107237594Y-57694975D02*
X107161403Y-57733070D01*
X107161403Y-57733070D02*
X107123308Y-57771165D01*
X107123308Y-57771165D02*
X107085213Y-57847356D01*
X107085213Y-57847356D02*
X107085213Y-57923546D01*
X107085213Y-57923546D02*
X107123308Y-57999737D01*
X107123308Y-57999737D02*
X107161403Y-58037832D01*
X107161403Y-58037832D02*
X107237594Y-58075927D01*
X107237594Y-58075927D02*
X107504260Y-58075927D01*
X106551879Y-57694975D02*
X106399498Y-57694975D01*
X106399498Y-57694975D02*
X106323308Y-57733070D01*
X106323308Y-57733070D02*
X106247117Y-57809260D01*
X106247117Y-57809260D02*
X106209022Y-57961641D01*
X106209022Y-57961641D02*
X106209022Y-58228308D01*
X106209022Y-58228308D02*
X106247117Y-58380689D01*
X106247117Y-58380689D02*
X106323308Y-58456880D01*
X106323308Y-58456880D02*
X106399498Y-58494975D01*
X106399498Y-58494975D02*
X106551879Y-58494975D01*
X106551879Y-58494975D02*
X106628070Y-58456880D01*
X106628070Y-58456880D02*
X106704260Y-58380689D01*
X106704260Y-58380689D02*
X106742356Y-58228308D01*
X106742356Y-58228308D02*
X106742356Y-57961641D01*
X106742356Y-57961641D02*
X106704260Y-57809260D01*
X106704260Y-57809260D02*
X106628070Y-57733070D01*
X106628070Y-57733070D02*
X106551879Y-57694975D01*
X105713784Y-57694975D02*
X105561403Y-57694975D01*
X105561403Y-57694975D02*
X105485213Y-57733070D01*
X105485213Y-57733070D02*
X105409022Y-57809260D01*
X105409022Y-57809260D02*
X105370927Y-57961641D01*
X105370927Y-57961641D02*
X105370927Y-58228308D01*
X105370927Y-58228308D02*
X105409022Y-58380689D01*
X105409022Y-58380689D02*
X105485213Y-58456880D01*
X105485213Y-58456880D02*
X105561403Y-58494975D01*
X105561403Y-58494975D02*
X105713784Y-58494975D01*
X105713784Y-58494975D02*
X105789975Y-58456880D01*
X105789975Y-58456880D02*
X105866165Y-58380689D01*
X105866165Y-58380689D02*
X105904261Y-58228308D01*
X105904261Y-58228308D02*
X105904261Y-57961641D01*
X105904261Y-57961641D02*
X105866165Y-57809260D01*
X105866165Y-57809260D02*
X105789975Y-57733070D01*
X105789975Y-57733070D02*
X105713784Y-57694975D01*
X105142356Y-57694975D02*
X104685213Y-57694975D01*
X104913785Y-58494975D02*
X104913785Y-57694975D01*
X100242356Y-47611165D02*
X100204260Y-47573070D01*
X100204260Y-47573070D02*
X100128070Y-47534975D01*
X100128070Y-47534975D02*
X99937594Y-47534975D01*
X99937594Y-47534975D02*
X99861403Y-47573070D01*
X99861403Y-47573070D02*
X99823308Y-47611165D01*
X99823308Y-47611165D02*
X99785213Y-47687356D01*
X99785213Y-47687356D02*
X99785213Y-47763546D01*
X99785213Y-47763546D02*
X99823308Y-47877832D01*
X99823308Y-47877832D02*
X100280451Y-48334975D01*
X100280451Y-48334975D02*
X99785213Y-48334975D01*
X99023308Y-48334975D02*
X99480451Y-48334975D01*
X99251879Y-48334975D02*
X99251879Y-47534975D01*
X99251879Y-47534975D02*
X99328070Y-47649260D01*
X99328070Y-47649260D02*
X99404260Y-47725451D01*
X99404260Y-47725451D02*
X99480451Y-47763546D01*
X104125272Y-73437594D02*
X104087177Y-73323308D01*
X104087177Y-73323308D02*
X104049081Y-73285213D01*
X104049081Y-73285213D02*
X103972891Y-73247117D01*
X103972891Y-73247117D02*
X103858605Y-73247117D01*
X103858605Y-73247117D02*
X103782415Y-73285213D01*
X103782415Y-73285213D02*
X103744320Y-73323308D01*
X103744320Y-73323308D02*
X103706224Y-73399498D01*
X103706224Y-73399498D02*
X103706224Y-73704260D01*
X103706224Y-73704260D02*
X104506224Y-73704260D01*
X104506224Y-73704260D02*
X104506224Y-73437594D01*
X104506224Y-73437594D02*
X104468129Y-73361403D01*
X104468129Y-73361403D02*
X104430034Y-73323308D01*
X104430034Y-73323308D02*
X104353843Y-73285213D01*
X104353843Y-73285213D02*
X104277653Y-73285213D01*
X104277653Y-73285213D02*
X104201462Y-73323308D01*
X104201462Y-73323308D02*
X104163367Y-73361403D01*
X104163367Y-73361403D02*
X104125272Y-73437594D01*
X104125272Y-73437594D02*
X104125272Y-73704260D01*
X107580451Y-46493775D02*
X107085213Y-46493775D01*
X107085213Y-46493775D02*
X107351879Y-46798537D01*
X107351879Y-46798537D02*
X107237594Y-46798537D01*
X107237594Y-46798537D02*
X107161403Y-46836632D01*
X107161403Y-46836632D02*
X107123308Y-46874727D01*
X107123308Y-46874727D02*
X107085213Y-46950918D01*
X107085213Y-46950918D02*
X107085213Y-47141394D01*
X107085213Y-47141394D02*
X107123308Y-47217584D01*
X107123308Y-47217584D02*
X107161403Y-47255680D01*
X107161403Y-47255680D02*
X107237594Y-47293775D01*
X107237594Y-47293775D02*
X107466165Y-47293775D01*
X107466165Y-47293775D02*
X107542356Y-47255680D01*
X107542356Y-47255680D02*
X107580451Y-47217584D01*
X106704260Y-47255680D02*
X106704260Y-47293775D01*
X106704260Y-47293775D02*
X106742355Y-47369965D01*
X106742355Y-47369965D02*
X106780451Y-47408060D01*
X106437594Y-46493775D02*
X105942356Y-46493775D01*
X105942356Y-46493775D02*
X106209022Y-46798537D01*
X106209022Y-46798537D02*
X106094737Y-46798537D01*
X106094737Y-46798537D02*
X106018546Y-46836632D01*
X106018546Y-46836632D02*
X105980451Y-46874727D01*
X105980451Y-46874727D02*
X105942356Y-46950918D01*
X105942356Y-46950918D02*
X105942356Y-47141394D01*
X105942356Y-47141394D02*
X105980451Y-47217584D01*
X105980451Y-47217584D02*
X106018546Y-47255680D01*
X106018546Y-47255680D02*
X106094737Y-47293775D01*
X106094737Y-47293775D02*
X106323308Y-47293775D01*
X106323308Y-47293775D02*
X106399499Y-47255680D01*
X106399499Y-47255680D02*
X106437594Y-47217584D01*
X105713784Y-46493775D02*
X105447117Y-47293775D01*
X105447117Y-47293775D02*
X105180451Y-46493775D01*
X99023308Y-55954975D02*
X99480451Y-55954975D01*
X99251879Y-55954975D02*
X99251879Y-55154975D01*
X99251879Y-55154975D02*
X99328070Y-55269260D01*
X99328070Y-55269260D02*
X99404260Y-55345451D01*
X99404260Y-55345451D02*
X99480451Y-55383546D01*
X107106224Y-75918546D02*
X106306224Y-75651879D01*
X106306224Y-75651879D02*
X107106224Y-75385213D01*
X107106224Y-74966165D02*
X107106224Y-74813784D01*
X107106224Y-74813784D02*
X107068129Y-74737594D01*
X107068129Y-74737594D02*
X106991939Y-74661403D01*
X106991939Y-74661403D02*
X106839558Y-74623308D01*
X106839558Y-74623308D02*
X106572891Y-74623308D01*
X106572891Y-74623308D02*
X106420510Y-74661403D01*
X106420510Y-74661403D02*
X106344320Y-74737594D01*
X106344320Y-74737594D02*
X106306224Y-74813784D01*
X106306224Y-74813784D02*
X106306224Y-74966165D01*
X106306224Y-74966165D02*
X106344320Y-75042356D01*
X106344320Y-75042356D02*
X106420510Y-75118546D01*
X106420510Y-75118546D02*
X106572891Y-75156642D01*
X106572891Y-75156642D02*
X106839558Y-75156642D01*
X106839558Y-75156642D02*
X106991939Y-75118546D01*
X106991939Y-75118546D02*
X107068129Y-75042356D01*
X107068129Y-75042356D02*
X107106224Y-74966165D01*
X107106224Y-74280451D02*
X106458605Y-74280451D01*
X106458605Y-74280451D02*
X106382415Y-74242356D01*
X106382415Y-74242356D02*
X106344320Y-74204261D01*
X106344320Y-74204261D02*
X106306224Y-74128070D01*
X106306224Y-74128070D02*
X106306224Y-73975689D01*
X106306224Y-73975689D02*
X106344320Y-73899499D01*
X106344320Y-73899499D02*
X106382415Y-73861404D01*
X106382415Y-73861404D02*
X106458605Y-73823308D01*
X106458605Y-73823308D02*
X107106224Y-73823308D01*
X107106224Y-73556642D02*
X107106224Y-73099499D01*
X106306224Y-73328071D02*
X107106224Y-73328071D01*
X107161403Y-65314975D02*
X107313784Y-65314975D01*
X107313784Y-65314975D02*
X107389975Y-65353070D01*
X107389975Y-65353070D02*
X107428070Y-65391165D01*
X107428070Y-65391165D02*
X107504260Y-65505451D01*
X107504260Y-65505451D02*
X107542356Y-65657832D01*
X107542356Y-65657832D02*
X107542356Y-65962594D01*
X107542356Y-65962594D02*
X107504260Y-66038784D01*
X107504260Y-66038784D02*
X107466165Y-66076880D01*
X107466165Y-66076880D02*
X107389975Y-66114975D01*
X107389975Y-66114975D02*
X107237594Y-66114975D01*
X107237594Y-66114975D02*
X107161403Y-66076880D01*
X107161403Y-66076880D02*
X107123308Y-66038784D01*
X107123308Y-66038784D02*
X107085213Y-65962594D01*
X107085213Y-65962594D02*
X107085213Y-65772118D01*
X107085213Y-65772118D02*
X107123308Y-65695927D01*
X107123308Y-65695927D02*
X107161403Y-65657832D01*
X107161403Y-65657832D02*
X107237594Y-65619737D01*
X107237594Y-65619737D02*
X107389975Y-65619737D01*
X107389975Y-65619737D02*
X107466165Y-65657832D01*
X107466165Y-65657832D02*
X107504260Y-65695927D01*
X107504260Y-65695927D02*
X107542356Y-65772118D01*
X99061403Y-65314975D02*
X99442355Y-65314975D01*
X99442355Y-65314975D02*
X99480451Y-65695927D01*
X99480451Y-65695927D02*
X99442355Y-65657832D01*
X99442355Y-65657832D02*
X99366165Y-65619737D01*
X99366165Y-65619737D02*
X99175689Y-65619737D01*
X99175689Y-65619737D02*
X99099498Y-65657832D01*
X99099498Y-65657832D02*
X99061403Y-65695927D01*
X99061403Y-65695927D02*
X99023308Y-65772118D01*
X99023308Y-65772118D02*
X99023308Y-65962594D01*
X99023308Y-65962594D02*
X99061403Y-66038784D01*
X99061403Y-66038784D02*
X99099498Y-66076880D01*
X99099498Y-66076880D02*
X99175689Y-66114975D01*
X99175689Y-66114975D02*
X99366165Y-66114975D01*
X99366165Y-66114975D02*
X99442355Y-66076880D01*
X99442355Y-66076880D02*
X99480451Y-66038784D01*
X102006224Y-73880451D02*
X101206224Y-73689975D01*
X101206224Y-73689975D02*
X101777653Y-73537594D01*
X101777653Y-73537594D02*
X101206224Y-73385213D01*
X101206224Y-73385213D02*
X102006224Y-73194737D01*
X103585213Y-44793775D02*
X104042356Y-44793775D01*
X103813784Y-44793775D02*
X103813784Y-43993775D01*
X103813784Y-43993775D02*
X103889975Y-44108060D01*
X103889975Y-44108060D02*
X103966165Y-44184251D01*
X103966165Y-44184251D02*
X104042356Y-44222346D01*
X107068129Y-78285213D02*
X107106224Y-78361403D01*
X107106224Y-78361403D02*
X107106224Y-78475689D01*
X107106224Y-78475689D02*
X107068129Y-78589975D01*
X107068129Y-78589975D02*
X106991939Y-78666165D01*
X106991939Y-78666165D02*
X106915748Y-78704260D01*
X106915748Y-78704260D02*
X106763367Y-78742356D01*
X106763367Y-78742356D02*
X106649081Y-78742356D01*
X106649081Y-78742356D02*
X106496700Y-78704260D01*
X106496700Y-78704260D02*
X106420510Y-78666165D01*
X106420510Y-78666165D02*
X106344320Y-78589975D01*
X106344320Y-78589975D02*
X106306224Y-78475689D01*
X106306224Y-78475689D02*
X106306224Y-78399498D01*
X106306224Y-78399498D02*
X106344320Y-78285213D01*
X106344320Y-78285213D02*
X106382415Y-78247117D01*
X106382415Y-78247117D02*
X106649081Y-78247117D01*
X106649081Y-78247117D02*
X106649081Y-78399498D01*
X106306224Y-77904260D02*
X107106224Y-77904260D01*
X107106224Y-77904260D02*
X106306224Y-77447117D01*
X106306224Y-77447117D02*
X107106224Y-77447117D01*
X106306224Y-77066165D02*
X107106224Y-77066165D01*
X107106224Y-77066165D02*
X107106224Y-76875689D01*
X107106224Y-76875689D02*
X107068129Y-76761403D01*
X107068129Y-76761403D02*
X106991939Y-76685213D01*
X106991939Y-76685213D02*
X106915748Y-76647118D01*
X106915748Y-76647118D02*
X106763367Y-76609022D01*
X106763367Y-76609022D02*
X106649081Y-76609022D01*
X106649081Y-76609022D02*
X106496700Y-76647118D01*
X106496700Y-76647118D02*
X106420510Y-76685213D01*
X106420510Y-76685213D02*
X106344320Y-76761403D01*
X106344320Y-76761403D02*
X106306224Y-76875689D01*
X106306224Y-76875689D02*
X106306224Y-77066165D01*
D11*
%TO.C,JP4*%
X102900000Y-55850000D02*
X102900000Y-54450000D01*
X103600000Y-53750000D02*
X104200000Y-53750000D01*
X104200000Y-56550000D02*
X103600000Y-56550000D01*
X104900000Y-54450000D02*
X104900000Y-55850000D01*
X102900000Y-54450000D02*
G75*
G02*
X103600000Y-53750000I699999J1D01*
G01*
X103600000Y-56550000D02*
G75*
G02*
X102900000Y-55850000I0J700000D01*
G01*
X104200000Y-53750000D02*
G75*
G02*
X104900000Y-54450000I1J-699999D01*
G01*
X104900000Y-55850000D02*
G75*
G02*
X104200000Y-56550000I-700000J0D01*
G01*
%TO.C,JP3*%
X100500000Y-44700000D02*
X100500000Y-44100000D01*
X101200000Y-43400000D02*
X102600000Y-43400000D01*
X102600000Y-45400000D02*
X101200000Y-45400000D01*
X103300000Y-44100000D02*
X103300000Y-44700000D01*
X100500000Y-44100000D02*
G75*
G02*
X101200000Y-43400000I700000J0D01*
G01*
X101200000Y-45400000D02*
G75*
G02*
X100500000Y-44700000I0J700000D01*
G01*
X102600000Y-43400000D02*
G75*
G02*
X103300000Y-44100000I1J-699999D01*
G01*
X103300000Y-44700000D02*
G75*
G02*
X102600000Y-45400000I-699999J-1D01*
G01*
%TO.C,JP1*%
X100500000Y-50900000D02*
X100500000Y-50300000D01*
X101200000Y-49600000D02*
X102600000Y-49600000D01*
X102600000Y-51600000D02*
X101200000Y-51600000D01*
X103300000Y-50300000D02*
X103300000Y-50900000D01*
X100500000Y-50300000D02*
G75*
G02*
X101200000Y-49600000I699999J1D01*
G01*
X101200000Y-51600000D02*
G75*
G02*
X100500000Y-50900000I-1J699999D01*
G01*
X102600000Y-49600000D02*
G75*
G02*
X103300000Y-50300000I0J-700000D01*
G01*
X103300000Y-50900000D02*
G75*
G02*
X102600000Y-51600000I-700000J0D01*
G01*
%TO.C,JP2*%
X100500000Y-47800000D02*
X100500000Y-47200000D01*
X101200000Y-46500000D02*
X102600000Y-46500000D01*
X102600000Y-48500000D02*
X101200000Y-48500000D01*
X103300000Y-47200000D02*
X103300000Y-47800000D01*
X100500000Y-47200000D02*
G75*
G02*
X101200000Y-46500000I699999J1D01*
G01*
X101200000Y-48500000D02*
G75*
G02*
X100500000Y-47800000I-1J699999D01*
G01*
X102600000Y-46500000D02*
G75*
G02*
X103300000Y-47200000I0J-700000D01*
G01*
X103300000Y-47800000D02*
G75*
G02*
X102600000Y-48500000I-700000J0D01*
G01*
%TO.C,J4*%
X104470000Y-47570000D02*
X104470000Y-50230000D01*
X104470000Y-47570000D02*
X107070000Y-47570000D01*
X104470000Y-50230000D02*
X107070000Y-50230000D01*
X107070000Y-47570000D02*
X107070000Y-50230000D01*
%TD*%
M02*
