%TF.GenerationSoftware,KiCad,Pcbnew,8.0.5-8.0.5-0~ubuntu24.04.1*%
%TF.CreationDate,2024-10-10T17:44:54+02:00*%
%TF.ProjectId,epi_ESP32_PD,6570695f-4553-4503-9332-5f50442e6b69,1_1*%
%TF.SameCoordinates,Original*%
%TF.FileFunction,Legend,Top*%
%TF.FilePolarity,Positive*%
%FSLAX46Y46*%
G04 Gerber Fmt 4.6, Leading zero omitted, Abs format (unit mm)*
G04 Created by KiCad (PCBNEW 8.0.5-8.0.5-0~ubuntu24.04.1) date 2024-10-10 17:44:54*
%MOMM*%
%LPD*%
G01*
G04 APERTURE LIST*
%ADD10C,0.160000*%
%ADD11C,0.120000*%
%ADD12C,0.250000*%
G04 APERTURE END LIST*
D10*
X100962405Y-62274727D02*
X101076691Y-62312822D01*
X101076691Y-62312822D02*
X101114786Y-62350918D01*
X101114786Y-62350918D02*
X101152882Y-62427108D01*
X101152882Y-62427108D02*
X101152882Y-62541394D01*
X101152882Y-62541394D02*
X101114786Y-62617584D01*
X101114786Y-62617584D02*
X101076691Y-62655680D01*
X101076691Y-62655680D02*
X101000501Y-62693775D01*
X101000501Y-62693775D02*
X100695739Y-62693775D01*
X100695739Y-62693775D02*
X100695739Y-61893775D01*
X100695739Y-61893775D02*
X100962405Y-61893775D01*
X100962405Y-61893775D02*
X101038596Y-61931870D01*
X101038596Y-61931870D02*
X101076691Y-61969965D01*
X101076691Y-61969965D02*
X101114786Y-62046156D01*
X101114786Y-62046156D02*
X101114786Y-62122346D01*
X101114786Y-62122346D02*
X101076691Y-62198537D01*
X101076691Y-62198537D02*
X101038596Y-62236632D01*
X101038596Y-62236632D02*
X100962405Y-62274727D01*
X100962405Y-62274727D02*
X100695739Y-62274727D01*
X100452882Y-59993775D02*
X100186215Y-59612822D01*
X99995739Y-59993775D02*
X99995739Y-59193775D01*
X99995739Y-59193775D02*
X100300501Y-59193775D01*
X100300501Y-59193775D02*
X100376691Y-59231870D01*
X100376691Y-59231870D02*
X100414786Y-59269965D01*
X100414786Y-59269965D02*
X100452882Y-59346156D01*
X100452882Y-59346156D02*
X100452882Y-59460441D01*
X100452882Y-59460441D02*
X100414786Y-59536632D01*
X100414786Y-59536632D02*
X100376691Y-59574727D01*
X100376691Y-59574727D02*
X100300501Y-59612822D01*
X100300501Y-59612822D02*
X99995739Y-59612822D01*
X100757643Y-59955680D02*
X100871929Y-59993775D01*
X100871929Y-59993775D02*
X101062405Y-59993775D01*
X101062405Y-59993775D02*
X101138596Y-59955680D01*
X101138596Y-59955680D02*
X101176691Y-59917584D01*
X101176691Y-59917584D02*
X101214786Y-59841394D01*
X101214786Y-59841394D02*
X101214786Y-59765203D01*
X101214786Y-59765203D02*
X101176691Y-59689013D01*
X101176691Y-59689013D02*
X101138596Y-59650918D01*
X101138596Y-59650918D02*
X101062405Y-59612822D01*
X101062405Y-59612822D02*
X100910024Y-59574727D01*
X100910024Y-59574727D02*
X100833834Y-59536632D01*
X100833834Y-59536632D02*
X100795739Y-59498537D01*
X100795739Y-59498537D02*
X100757643Y-59422346D01*
X100757643Y-59422346D02*
X100757643Y-59346156D01*
X100757643Y-59346156D02*
X100795739Y-59269965D01*
X100795739Y-59269965D02*
X100833834Y-59231870D01*
X100833834Y-59231870D02*
X100910024Y-59193775D01*
X100910024Y-59193775D02*
X101100501Y-59193775D01*
X101100501Y-59193775D02*
X101214786Y-59231870D01*
X101443358Y-59193775D02*
X101900501Y-59193775D01*
X101671929Y-59993775D02*
X101671929Y-59193775D01*
D11*
%TO.C,U1*%
X103890000Y-67447500D02*
X103890000Y-66972500D01*
X104365000Y-67447500D02*
X103890000Y-67447500D01*
X108635000Y-62227500D02*
X109110000Y-62227500D01*
X108635000Y-67447500D02*
X109110000Y-67447500D01*
X109110000Y-62227500D02*
X109110000Y-62702500D01*
X109110000Y-67447500D02*
X109110000Y-66972500D01*
D12*
X104125000Y-62337500D02*
G75*
G02*
X103875000Y-62337500I-125000J0D01*
G01*
X103875000Y-62337500D02*
G75*
G02*
X104125000Y-62337500I125000J0D01*
G01*
D11*
%TO.C,R10*%
X102436359Y-74620000D02*
X102743641Y-74620000D01*
X102436359Y-75380000D02*
X102743641Y-75380000D01*
%TO.C,R11*%
X106253641Y-74620000D02*
X105946359Y-74620000D01*
X106253641Y-75380000D02*
X105946359Y-75380000D01*
%TO.C,Q4*%
X106247536Y-76337500D02*
X106247536Y-75537500D01*
X106247536Y-76337500D02*
X106247536Y-77137500D01*
X109367536Y-76337500D02*
X109367536Y-75537500D01*
X109367536Y-76337500D02*
X109367536Y-77137500D01*
X106297536Y-77637500D02*
X105967536Y-77877500D01*
X105967536Y-77397500D01*
X106297536Y-77637500D01*
G36*
X106297536Y-77637500D02*
G01*
X105967536Y-77877500D01*
X105967536Y-77397500D01*
X106297536Y-77637500D01*
G37*
%TO.C,R15*%
X99846359Y-46020000D02*
X100153641Y-46020000D01*
X99846359Y-46780000D02*
X100153641Y-46780000D01*
%TO.C,Q6*%
X99247536Y-76337500D02*
X99247536Y-75537500D01*
X99247536Y-76337500D02*
X99247536Y-77137500D01*
X102367536Y-76337500D02*
X102367536Y-75537500D01*
X102367536Y-76337500D02*
X102367536Y-77137500D01*
X99297536Y-77637500D02*
X98967536Y-77877500D01*
X98967536Y-77397500D01*
X99297536Y-77637500D01*
G36*
X99297536Y-77637500D02*
G01*
X98967536Y-77877500D01*
X98967536Y-77397500D01*
X99297536Y-77637500D01*
G37*
%TO.C,L2*%
X100040000Y-47715000D02*
X100240000Y-47715000D01*
X100040000Y-52235000D02*
X100040000Y-47715000D01*
X100040000Y-52235000D02*
X100240000Y-52235000D01*
X104560000Y-47715000D02*
X104360000Y-47715000D01*
X104560000Y-52235000D02*
X104360000Y-52235000D01*
X104560000Y-52235000D02*
X104560000Y-47715000D01*
%TO.C,Q2*%
X102747536Y-76337500D02*
X102747536Y-75537500D01*
X102747536Y-76337500D02*
X102747536Y-77137500D01*
X105867536Y-76337500D02*
X105867536Y-75537500D01*
X105867536Y-76337500D02*
X105867536Y-77137500D01*
X102797536Y-77637500D02*
X102467536Y-77877500D01*
X102467536Y-77397500D01*
X102797536Y-77637500D01*
G36*
X102797536Y-77637500D02*
G01*
X102467536Y-77877500D01*
X102467536Y-77397500D01*
X102797536Y-77637500D01*
G37*
%TO.C,Y1*%
X105850000Y-58700000D02*
X105850000Y-61000000D01*
X105850000Y-61000000D02*
X108550000Y-61000000D01*
%TO.C,R7*%
X99836359Y-45020000D02*
X100143641Y-45020000D01*
X99836359Y-45780000D02*
X100143641Y-45780000D01*
%TO.C,C2*%
X102940000Y-60592164D02*
X102940000Y-60807836D01*
X103660000Y-60592164D02*
X103660000Y-60807836D01*
%TO.C,R9*%
X102446359Y-70520000D02*
X102753641Y-70520000D01*
X102446359Y-71280000D02*
X102753641Y-71280000D01*
%TO.C,U2*%
X104890000Y-55800000D02*
X104890000Y-55000000D01*
X104890000Y-55800000D02*
X104890000Y-56600000D01*
X108010000Y-55800000D02*
X108010000Y-55000000D01*
X108010000Y-55800000D02*
X108010000Y-56600000D01*
X104940000Y-57100000D02*
X104610000Y-57340000D01*
X104610000Y-56860000D01*
X104940000Y-57100000D01*
G36*
X104940000Y-57100000D02*
G01*
X104610000Y-57340000D01*
X104610000Y-56860000D01*
X104940000Y-57100000D01*
G37*
%TO.C,C13*%
X103440000Y-57927836D02*
X103440000Y-57712164D01*
X104160000Y-57927836D02*
X104160000Y-57712164D01*
%TO.C,Q5*%
X102747536Y-72237500D02*
X102747536Y-71437500D01*
X102747536Y-72237500D02*
X102747536Y-73037500D01*
X105867536Y-72237500D02*
X105867536Y-71437500D01*
X105867536Y-72237500D02*
X105867536Y-73037500D01*
X102797536Y-73537500D02*
X102467536Y-73777500D01*
X102467536Y-73297500D01*
X102797536Y-73537500D01*
G36*
X102797536Y-73537500D02*
G01*
X102467536Y-73777500D01*
X102467536Y-73297500D01*
X102797536Y-73537500D01*
G37*
%TO.C,R12*%
X98920000Y-81253641D02*
X98920000Y-80946359D01*
X99680000Y-81253641D02*
X99680000Y-80946359D01*
%TO.C,C7*%
X104792164Y-68140000D02*
X105007836Y-68140000D01*
X104792164Y-68860000D02*
X105007836Y-68860000D01*
%TO.C,C15*%
X99140000Y-51607836D02*
X99140000Y-51392164D01*
X99860000Y-51607836D02*
X99860000Y-51392164D01*
%TO.C,R3*%
X108920000Y-45953641D02*
X108920000Y-45646359D01*
X109680000Y-45953641D02*
X109680000Y-45646359D01*
%TO.C,R2*%
X104920000Y-60546359D02*
X104920000Y-60853641D01*
X105680000Y-60546359D02*
X105680000Y-60853641D01*
%TO.C,C4*%
X103940000Y-60567164D02*
X103940000Y-60782836D01*
X104660000Y-60567164D02*
X104660000Y-60782836D01*
%TO.C,Q1*%
X106247536Y-72237500D02*
X106247536Y-71437500D01*
X106247536Y-72237500D02*
X106247536Y-73037500D01*
X109367536Y-72237500D02*
X109367536Y-71437500D01*
X109367536Y-72237500D02*
X109367536Y-73037500D01*
X106297536Y-73537500D02*
X105967536Y-73777500D01*
X105967536Y-73297500D01*
X106297536Y-73537500D01*
G36*
X106297536Y-73537500D02*
G01*
X105967536Y-73777500D01*
X105967536Y-73297500D01*
X106297536Y-73537500D01*
G37*
%TO.C,L1*%
X101289940Y-63322659D02*
X101072659Y-63539940D01*
X101827341Y-63860060D02*
X101610060Y-64077341D01*
%TO.C,C17*%
X106765000Y-50961252D02*
X106765000Y-50438748D01*
X108235000Y-50961252D02*
X108235000Y-50438748D01*
%TO.C,C1*%
X108240000Y-69007836D02*
X108240000Y-68792164D01*
X108960000Y-69007836D02*
X108960000Y-68792164D01*
%TO.C,C11*%
X108340000Y-54972164D02*
X108340000Y-55187836D01*
X109060000Y-54972164D02*
X109060000Y-55187836D01*
%TO.C,C10*%
X102965000Y-54638748D02*
X102965000Y-55161252D01*
X104435000Y-54638748D02*
X104435000Y-55161252D01*
%TO.C,R4*%
X107046359Y-69220000D02*
X107353641Y-69220000D01*
X107046359Y-69980000D02*
X107353641Y-69980000D01*
%TO.C,R1*%
X108353641Y-47120000D02*
X108046359Y-47120000D01*
X108353641Y-47880000D02*
X108046359Y-47880000D01*
%TO.C,C5*%
X102440000Y-65507836D02*
X102440000Y-65292164D01*
X103160000Y-65507836D02*
X103160000Y-65292164D01*
%TO.C,C3*%
X104692164Y-58940000D02*
X104907836Y-58940000D01*
X104692164Y-59660000D02*
X104907836Y-59660000D01*
%TO.C,R8*%
X108036359Y-48120000D02*
X108343641Y-48120000D01*
X108036359Y-48880000D02*
X108343641Y-48880000D01*
%TO.C,C14*%
X106440580Y-52590000D02*
X106159420Y-52590000D01*
X106440580Y-53610000D02*
X106159420Y-53610000D01*
%TO.C,R6*%
X108320000Y-57153641D02*
X108320000Y-56846359D01*
X109080000Y-57153641D02*
X109080000Y-56846359D01*
%TO.C,C6*%
X102490000Y-62512164D02*
X102490000Y-62727836D01*
X103210000Y-62512164D02*
X103210000Y-62727836D01*
%TO.C,R13*%
X108620000Y-79146359D02*
X108620000Y-79453641D01*
X109380000Y-79146359D02*
X109380000Y-79453641D01*
%TO.C,J6*%
X99400000Y-66400000D02*
X100200000Y-66400000D01*
X99400000Y-66600000D02*
X99400000Y-66400000D01*
X99400000Y-69400000D02*
X99400000Y-69200000D01*
X100200000Y-66400000D02*
X100200000Y-65900000D01*
X100200000Y-69400000D02*
X99400000Y-69400000D01*
X101600000Y-66400000D02*
X101600000Y-65900000D01*
X101600000Y-66400000D02*
X102200000Y-66400000D01*
X102200000Y-66400000D02*
X102400000Y-66600000D01*
X102400000Y-69200000D02*
X102400000Y-69400000D01*
X102400000Y-69400000D02*
X101600000Y-69400000D01*
%TO.C,U5*%
X99440000Y-54500000D02*
X99440000Y-53700000D01*
X99440000Y-54500000D02*
X99440000Y-55300000D01*
X102560000Y-54500000D02*
X102560000Y-53700000D01*
X102560000Y-54500000D02*
X102560000Y-55300000D01*
X99490000Y-55800000D02*
X99160000Y-56040000D01*
X99160000Y-55560000D01*
X99490000Y-55800000D01*
G36*
X99490000Y-55800000D02*
G01*
X99160000Y-56040000D01*
X99160000Y-55560000D01*
X99490000Y-55800000D01*
G37*
%TO.C,R5*%
X105146359Y-69220000D02*
X105453641Y-69220000D01*
X105146359Y-69980000D02*
X105453641Y-69980000D01*
%TO.C,C8*%
X99265000Y-42938748D02*
X99265000Y-43461252D01*
X100735000Y-42938748D02*
X100735000Y-43461252D01*
%TO.C,Q3*%
X99247536Y-72237500D02*
X99247536Y-71437500D01*
X99247536Y-72237500D02*
X99247536Y-73037500D01*
X102367536Y-72237500D02*
X102367536Y-71437500D01*
X102367536Y-72237500D02*
X102367536Y-73037500D01*
X99297536Y-73537500D02*
X98967536Y-73777500D01*
X98967536Y-73297500D01*
X99297536Y-73537500D01*
G36*
X99297536Y-73537500D02*
G01*
X98967536Y-73777500D01*
X98967536Y-73297500D01*
X99297536Y-73537500D01*
G37*
%TO.C,RV2*%
X108920000Y-43646359D02*
X108920000Y-43953641D01*
X109680000Y-43646359D02*
X109680000Y-43953641D01*
%TO.C,R14*%
X98920000Y-79046359D02*
X98920000Y-79353641D01*
X99680000Y-79046359D02*
X99680000Y-79353641D01*
%TO.C,J7*%
X101180000Y-80902929D02*
X101180000Y-81357071D01*
X101940000Y-80902929D02*
X101940000Y-81357071D01*
X103720000Y-80902929D02*
X103720000Y-81357071D01*
X104480000Y-80902929D02*
X104480000Y-81357071D01*
X106260000Y-80970000D02*
X106260000Y-81357071D01*
X106640000Y-78590000D02*
X107910000Y-78590000D01*
X107020000Y-80970000D02*
X107020000Y-81357071D01*
X107910000Y-78590000D02*
X107910000Y-79860000D01*
%TO.C,U3*%
X105037500Y-41540000D02*
X103087500Y-41540000D01*
X105037500Y-41540000D02*
X106987500Y-41540000D01*
X105037500Y-46660000D02*
X103087500Y-46660000D01*
X105037500Y-46660000D02*
X106987500Y-46660000D01*
X107977500Y-46990000D02*
X107497500Y-46990000D01*
X107737500Y-46660000D01*
X107977500Y-46990000D01*
G36*
X107977500Y-46990000D02*
G01*
X107497500Y-46990000D01*
X107737500Y-46660000D01*
X107977500Y-46990000D01*
G37*
%TO.C,C12*%
X109240000Y-68792164D02*
X109240000Y-69007836D01*
X109960000Y-68792164D02*
X109960000Y-69007836D01*
%TO.C,RV3*%
X108920000Y-42053641D02*
X108920000Y-41746359D01*
X109680000Y-42053641D02*
X109680000Y-41746359D01*
%TO.C,J2*%
X99670000Y-32580000D02*
X108830000Y-32580000D01*
X99670000Y-34285000D02*
X99670000Y-32580000D01*
X99670000Y-36295000D02*
X99670000Y-38215000D01*
X108830000Y-32580000D02*
X108830000Y-34285000D01*
X108830000Y-38215000D02*
X108830000Y-36295000D01*
%TO.C,C16*%
X104765000Y-50961252D02*
X104765000Y-50438748D01*
X106235000Y-50961252D02*
X106235000Y-50438748D01*
%TD*%
M02*
