%TF.GenerationSoftware,KiCad,Pcbnew,8.0.5-8.0.5-0~ubuntu24.04.1*%
%TF.CreationDate,2024-10-10T17:44:54+02:00*%
%TF.ProjectId,epi_ESP32_PD,6570695f-4553-4503-9332-5f50442e6b69,1_1*%
%TF.SameCoordinates,Original*%
%TF.FileFunction,Copper,L1,Top*%
%TF.FilePolarity,Positive*%
%FSLAX46Y46*%
G04 Gerber Fmt 4.6, Leading zero omitted, Abs format (unit mm)*
G04 Created by KiCad (PCBNEW 8.0.5-8.0.5-0~ubuntu24.04.1) date 2024-10-10 17:44:54*
%MOMM*%
%LPD*%
G01*
G04 APERTURE LIST*
G04 Aperture macros list*
%AMRoundRect*
0 Rectangle with rounded corners*
0 $1 Rounding radius*
0 $2 $3 $4 $5 $6 $7 $8 $9 X,Y pos of 4 corners*
0 Add a 4 corners polygon primitive as box body*
4,1,4,$2,$3,$4,$5,$6,$7,$8,$9,$2,$3,0*
0 Add four circle primitives for the rounded corners*
1,1,$1+$1,$2,$3*
1,1,$1+$1,$4,$5*
1,1,$1+$1,$6,$7*
1,1,$1+$1,$8,$9*
0 Add four rect primitives between the rounded corners*
20,1,$1+$1,$2,$3,$4,$5,0*
20,1,$1+$1,$4,$5,$6,$7,0*
20,1,$1+$1,$6,$7,$8,$9,0*
20,1,$1+$1,$8,$9,$2,$3,0*%
G04 Aperture macros list end*
%TA.AperFunction,SMDPad,CuDef*%
%ADD10RoundRect,0.062500X-0.375000X-0.062500X0.375000X-0.062500X0.375000X0.062500X-0.375000X0.062500X0*%
%TD*%
%TA.AperFunction,SMDPad,CuDef*%
%ADD11RoundRect,0.062500X-0.062500X-0.375000X0.062500X-0.375000X0.062500X0.375000X-0.062500X0.375000X0*%
%TD*%
%TA.AperFunction,SMDPad,CuDef*%
%ADD12R,2.000000X2.000000*%
%TD*%
%TA.AperFunction,SMDPad,CuDef*%
%ADD13RoundRect,0.135000X-0.135000X-0.185000X0.135000X-0.185000X0.135000X0.185000X-0.135000X0.185000X0*%
%TD*%
%TA.AperFunction,SMDPad,CuDef*%
%ADD14RoundRect,0.135000X0.135000X0.185000X-0.135000X0.185000X-0.135000X-0.185000X0.135000X-0.185000X0*%
%TD*%
%TA.AperFunction,SMDPad,CuDef*%
%ADD15C,0.500000*%
%TD*%
%TA.AperFunction,SMDPad,CuDef*%
%ADD16RoundRect,0.150000X0.150000X-0.512500X0.150000X0.512500X-0.150000X0.512500X-0.150000X-0.512500X0*%
%TD*%
%TA.AperFunction,SMDPad,CuDef*%
%ADD17R,3.600000X1.500000*%
%TD*%
%TA.AperFunction,SMDPad,CuDef*%
%ADD18R,0.900000X0.800000*%
%TD*%
%TA.AperFunction,SMDPad,CuDef*%
%ADD19RoundRect,0.140000X-0.170000X0.140000X-0.170000X-0.140000X0.170000X-0.140000X0.170000X0.140000X0*%
%TD*%
%TA.AperFunction,SMDPad,CuDef*%
%ADD20RoundRect,0.140000X0.170000X-0.140000X0.170000X0.140000X-0.170000X0.140000X-0.170000X-0.140000X0*%
%TD*%
%TA.AperFunction,SMDPad,CuDef*%
%ADD21RoundRect,0.135000X0.185000X-0.135000X0.185000X0.135000X-0.185000X0.135000X-0.185000X-0.135000X0*%
%TD*%
%TA.AperFunction,SMDPad,CuDef*%
%ADD22RoundRect,0.140000X-0.140000X-0.170000X0.140000X-0.170000X0.140000X0.170000X-0.140000X0.170000X0*%
%TD*%
%TA.AperFunction,SMDPad,CuDef*%
%ADD23R,0.550000X1.300000*%
%TD*%
%TA.AperFunction,SMDPad,CuDef*%
%ADD24RoundRect,0.135000X-0.185000X0.135000X-0.185000X-0.135000X0.185000X-0.135000X0.185000X0.135000X0*%
%TD*%
%TA.AperFunction,SMDPad,CuDef*%
%ADD25RoundRect,0.135000X-0.035355X0.226274X-0.226274X0.035355X0.035355X-0.226274X0.226274X-0.035355X0*%
%TD*%
%TA.AperFunction,SMDPad,CuDef*%
%ADD26RoundRect,0.250000X0.475000X-0.250000X0.475000X0.250000X-0.475000X0.250000X-0.475000X-0.250000X0*%
%TD*%
%TA.AperFunction,ComponentPad*%
%ADD27C,1.700000*%
%TD*%
%TA.AperFunction,ComponentPad*%
%ADD28O,1.700000X1.700000*%
%TD*%
%TA.AperFunction,ComponentPad*%
%ADD29R,1.700000X1.700000*%
%TD*%
%TA.AperFunction,SMDPad,CuDef*%
%ADD30RoundRect,0.250000X-0.475000X0.250000X-0.475000X-0.250000X0.475000X-0.250000X0.475000X0.250000X0*%
%TD*%
%TA.AperFunction,SMDPad,CuDef*%
%ADD31RoundRect,0.225000X0.225000X0.250000X-0.225000X0.250000X-0.225000X-0.250000X0.225000X-0.250000X0*%
%TD*%
%TA.AperFunction,SMDPad,CuDef*%
%ADD32R,1.000000X1.000000*%
%TD*%
%TA.AperFunction,SMDPad,CuDef*%
%ADD33R,1.050000X2.200000*%
%TD*%
%TA.AperFunction,SMDPad,CuDef*%
%ADD34RoundRect,0.500000X0.500000X1.000000X-0.500000X1.000000X-0.500000X-1.000000X0.500000X-1.000000X0*%
%TD*%
%TA.AperFunction,SMDPad,CuDef*%
%ADD35RoundRect,0.150000X0.637500X0.150000X-0.637500X0.150000X-0.637500X-0.150000X0.637500X-0.150000X0*%
%TD*%
%TA.AperFunction,SMDPad,CuDef*%
%ADD36R,0.600000X1.240000*%
%TD*%
%TA.AperFunction,SMDPad,CuDef*%
%ADD37R,0.300000X1.240000*%
%TD*%
%TA.AperFunction,ComponentPad*%
%ADD38O,1.000000X2.100000*%
%TD*%
%TA.AperFunction,ComponentPad*%
%ADD39O,1.000000X1.800000*%
%TD*%
%TA.AperFunction,ViaPad*%
%ADD40C,0.600000*%
%TD*%
%TA.AperFunction,Conductor*%
%ADD41C,1.000000*%
%TD*%
%TA.AperFunction,Conductor*%
%ADD42C,0.250000*%
%TD*%
%TA.AperFunction,Conductor*%
%ADD43C,0.130000*%
%TD*%
%TA.AperFunction,Conductor*%
%ADD44C,0.350000*%
%TD*%
%TA.AperFunction,Conductor*%
%ADD45C,0.200000*%
%TD*%
%TA.AperFunction,Conductor*%
%ADD46C,0.243000*%
%TD*%
%TA.AperFunction,Conductor*%
%ADD47C,0.500000*%
%TD*%
G04 APERTURE END LIST*
D10*
%TO.P,U1,1,LNA_IN*%
%TO.N,Net-(U1-LNA_IN)*%
X104062500Y-63087500D03*
%TO.P,U1,2,VDD3P3*%
%TO.N,+3.3V*%
X104062500Y-63587500D03*
%TO.P,U1,3,VDD3P3*%
X104062500Y-64087500D03*
%TO.P,U1,4,XTAL_32K_P/ADC1_CH0*%
%TO.N,IO0*%
X104062500Y-64587500D03*
%TO.P,U1,5,XTAL_32K_N/ADC1_CH1*%
%TO.N,IO1*%
X104062500Y-65087500D03*
%TO.P,U1,6,GPIO2/ADC1_CH2*%
%TO.N,IO2*%
X104062500Y-65587500D03*
%TO.P,U1,7,CHIP_EN*%
%TO.N,EN*%
X104062500Y-66087500D03*
%TO.P,U1,8,GPIO3/ADC1_CH3*%
%TO.N,IO3*%
X104062500Y-66587500D03*
D11*
%TO.P,U1,9,MTMS/GPIO4/ADC1_CH4*%
%TO.N,IO4*%
X104750000Y-67275000D03*
%TO.P,U1,10,MTDI/GPIO5/ADC2_CH0*%
%TO.N,IO5*%
X105250000Y-67275000D03*
%TO.P,U1,11,VDD3P3_RTC*%
%TO.N,+3.3V*%
X105750000Y-67275000D03*
%TO.P,U1,12,MTCK/GPIO6*%
%TO.N,IO6*%
X106250000Y-67275000D03*
%TO.P,U1,13,MTDO/GPIO7*%
%TO.N,IO7*%
X106750000Y-67275000D03*
%TO.P,U1,14,GPIO8*%
%TO.N,IO8*%
X107250000Y-67275000D03*
%TO.P,U1,15,GPIO9/BOOT*%
%TO.N,BOOT*%
X107750000Y-67275000D03*
%TO.P,U1,16,GPIO10*%
%TO.N,IO10*%
X108250000Y-67275000D03*
D10*
%TO.P,U1,17,VDD3P3_CPU*%
%TO.N,+3.3V*%
X108937500Y-66587500D03*
%TO.P,U1,18,VDD_SPI/GPIO11*%
%TO.N,Net-(U1-VDD_SPI{slash}GPIO11)*%
X108937500Y-66087500D03*
%TO.P,U1,19,SPIHD/GPIO12*%
%TO.N,unconnected-(U1-SPIHD{slash}GPIO12-Pad19)*%
X108937500Y-65587500D03*
%TO.P,U1,20,SPIWP/GPIO13*%
%TO.N,unconnected-(U1-SPIWP{slash}GPIO13-Pad20)*%
X108937500Y-65087500D03*
%TO.P,U1,21,SPICS0/GPIO14*%
%TO.N,unconnected-(U1-SPICS0{slash}GPIO14-Pad21)*%
X108937500Y-64587500D03*
%TO.P,U1,22,SPICLK/GPIO15*%
%TO.N,unconnected-(U1-SPICLK{slash}GPIO15-Pad22)*%
X108937500Y-64087500D03*
%TO.P,U1,23,SPID/GPIO16*%
%TO.N,unconnected-(U1-SPID{slash}GPIO16-Pad23)*%
X108937500Y-63587500D03*
%TO.P,U1,24,SPIQ/GPIO17*%
%TO.N,unconnected-(U1-SPIQ{slash}GPIO17-Pad24)*%
X108937500Y-63087500D03*
D11*
%TO.P,U1,25,GPIO18/USB_D-*%
%TO.N,D-*%
X108250000Y-62400000D03*
%TO.P,U1,26,GPIO19/USB_D+*%
%TO.N,D+*%
X107750000Y-62400000D03*
%TO.P,U1,27,U0RXD/GPIO20*%
%TO.N,U0RXD*%
X107250000Y-62400000D03*
%TO.P,U1,28,U0TXD/GPIO21*%
%TO.N,U0TXD*%
X106750000Y-62400000D03*
%TO.P,U1,29,XTAL_N*%
%TO.N,Net-(U1-XTAL_N)*%
X106250000Y-62400000D03*
%TO.P,U1,30,XTAL_P*%
%TO.N,Net-(U1-XTAL_P)*%
X105750000Y-62400000D03*
%TO.P,U1,31,VDDA*%
%TO.N,+3.3V*%
X105250000Y-62400000D03*
%TO.P,U1,32,VDDA*%
X104750000Y-62400000D03*
D12*
%TO.P,U1,33,GND*%
%TO.N,GND*%
X106500000Y-64837500D03*
%TD*%
D13*
%TO.P,R10,1*%
%TO.N,IO2_5V*%
X102080000Y-75000000D03*
%TO.P,R10,2*%
%TO.N,+5V*%
X103100000Y-75000000D03*
%TD*%
D14*
%TO.P,R11,1*%
%TO.N,IO3*%
X106610000Y-75000000D03*
%TO.P,R11,2*%
%TO.N,+3.3V*%
X105590000Y-75000000D03*
%TD*%
D15*
%TO.P,REF\u002A\u002A,*%
%TO.N,*%
X100900000Y-58200000D03*
%TD*%
D16*
%TO.P,Q4,1,G*%
%TO.N,+3.3V*%
X106857536Y-77475000D03*
%TO.P,Q4,2,D*%
%TO.N,IO3_5V*%
X108757536Y-77475000D03*
%TO.P,Q4,3,S*%
%TO.N,IO3*%
X107807536Y-75200000D03*
%TD*%
D13*
%TO.P,R15,1*%
%TO.N,GND*%
X99490000Y-46400000D03*
%TO.P,R15,2*%
%TO.N,Net-(JP3-A)*%
X100510000Y-46400000D03*
%TD*%
D16*
%TO.P,Q6,1,G*%
%TO.N,IO7*%
X99857536Y-77475000D03*
%TO.P,Q6,2,D*%
%TO.N,W*%
X101757536Y-77475000D03*
%TO.P,Q6,3,S*%
%TO.N,GND*%
X100807536Y-75200000D03*
%TD*%
D17*
%TO.P,L2,1*%
%TO.N,/buck*%
X102300000Y-51500000D03*
%TO.P,L2,2*%
%TO.N,+5V*%
X102300000Y-48450000D03*
%TD*%
D16*
%TO.P,Q2,1,G*%
%TO.N,IO6*%
X103357536Y-77475000D03*
%TO.P,Q2,2,D*%
%TO.N,B*%
X105257536Y-77475000D03*
%TO.P,Q2,3,S*%
%TO.N,GND*%
X104307536Y-75200000D03*
%TD*%
D18*
%TO.P,Y1,1,1*%
%TO.N,Net-(C4-Pad2)*%
X106500000Y-60400000D03*
%TO.P,Y1,2,2*%
%TO.N,GND*%
X107900000Y-60400000D03*
%TO.P,Y1,3,3*%
%TO.N,Net-(U1-XTAL_N)*%
X107900000Y-59300000D03*
%TO.P,Y1,4,4*%
%TO.N,GND*%
X106500000Y-59300000D03*
%TD*%
D13*
%TO.P,R7,1*%
%TO.N,VIN*%
X99480000Y-45400000D03*
%TO.P,R7,2*%
%TO.N,Net-(U3-VBUS)*%
X100500000Y-45400000D03*
%TD*%
D19*
%TO.P,C2,1*%
%TO.N,GND*%
X103300000Y-60220000D03*
%TO.P,C2,2*%
%TO.N,+3.3V*%
X103300000Y-61180000D03*
%TD*%
D13*
%TO.P,R9,1*%
%TO.N,IO2*%
X102090000Y-70900000D03*
%TO.P,R9,2*%
%TO.N,+3.3V*%
X103110000Y-70900000D03*
%TD*%
D16*
%TO.P,U2,1,IN*%
%TO.N,+5V*%
X105500000Y-56937500D03*
%TO.P,U2,2,GND*%
%TO.N,GND*%
X106450000Y-56937500D03*
%TO.P,U2,3,EN*%
%TO.N,+5V*%
X107400000Y-56937500D03*
%TO.P,U2,4,BP*%
%TO.N,unconnected-(U2-BP-Pad4)*%
X107400000Y-54662500D03*
%TO.P,U2,5,OUT*%
%TO.N,+3.3V*%
X105500000Y-54662500D03*
%TD*%
D20*
%TO.P,C13,1*%
%TO.N,GND*%
X103800000Y-58300000D03*
%TO.P,C13,2*%
%TO.N,+5V*%
X103800000Y-57340000D03*
%TD*%
D16*
%TO.P,Q5,1,G*%
%TO.N,IO10*%
X103357536Y-73375000D03*
%TO.P,Q5,2,D*%
%TO.N,GND*%
X105257536Y-73375000D03*
%TO.P,Q5,3,S*%
%TO.N,Net-(Q1-G)*%
X104307536Y-71100000D03*
%TD*%
D21*
%TO.P,R12,1*%
%TO.N,IO3_5V*%
X99300000Y-81610000D03*
%TO.P,R12,2*%
%TO.N,+5V*%
X99300000Y-80590000D03*
%TD*%
D22*
%TO.P,C7,1*%
%TO.N,GND*%
X104420000Y-68500000D03*
%TO.P,C7,2*%
%TO.N,+3.3V*%
X105380000Y-68500000D03*
%TD*%
D20*
%TO.P,C15,1*%
%TO.N,Net-(U5-BST)*%
X99500000Y-51980000D03*
%TO.P,C15,2*%
%TO.N,/buck*%
X99500000Y-51020000D03*
%TD*%
D21*
%TO.P,R3,1*%
%TO.N,GND*%
X109300000Y-46310000D03*
%TO.P,R3,2*%
%TO.N,Net-(JP2-B)*%
X109300000Y-45290000D03*
%TD*%
D23*
%TO.P,SW2,1,A*%
%TO.N,EN*%
X102225000Y-58200000D03*
%TO.P,SW2,3,B*%
%TO.N,GND*%
X99575000Y-58200000D03*
%TD*%
D24*
%TO.P,R2,1*%
%TO.N,Net-(C4-Pad2)*%
X105300000Y-60190000D03*
%TO.P,R2,2*%
%TO.N,Net-(U1-XTAL_P)*%
X105300000Y-61210000D03*
%TD*%
D19*
%TO.P,C4,1*%
%TO.N,GND*%
X104300000Y-60195000D03*
%TO.P,C4,2*%
%TO.N,Net-(C4-Pad2)*%
X104300000Y-61155000D03*
%TD*%
D16*
%TO.P,Q1,1,G*%
%TO.N,Net-(Q1-G)*%
X106857536Y-73375000D03*
%TO.P,Q1,2,D*%
%TO.N,VOUT*%
X108757536Y-73375000D03*
%TO.P,Q1,3,S*%
%TO.N,VIN*%
X107807536Y-71100000D03*
%TD*%
D25*
%TO.P,L1,1*%
%TO.N,Net-(U1-LNA_IN)*%
X101810624Y-63339376D03*
%TO.P,L1,2*%
%TO.N,Net-(J6-In)*%
X101089376Y-64060624D03*
%TD*%
D26*
%TO.P,C17,1*%
%TO.N,GND*%
X107500000Y-51650000D03*
%TO.P,C17,2*%
%TO.N,+5V*%
X107500000Y-49750000D03*
%TD*%
D20*
%TO.P,C1,1*%
%TO.N,GND*%
X108600000Y-69380000D03*
%TO.P,C1,2*%
%TO.N,+3.3V*%
X108600000Y-68420000D03*
%TD*%
D19*
%TO.P,C11,1*%
%TO.N,GND*%
X108700000Y-54600000D03*
%TO.P,C11,2*%
%TO.N,EN*%
X108700000Y-55560000D03*
%TD*%
D27*
%TO.P,J8,1,Pin_1*%
%TO.N,+3.3V*%
X97900000Y-71860000D03*
D28*
%TO.P,J8,2,Pin_2*%
%TO.N,IO0*%
X97900000Y-74400000D03*
D29*
%TO.P,J8,3,Pin_3*%
%TO.N,GND*%
X97900000Y-76940000D03*
%TD*%
D23*
%TO.P,SW1,1,A*%
%TO.N,BOOT*%
X102225000Y-61000000D03*
%TO.P,SW1,3,B*%
%TO.N,GND*%
X99575000Y-61000000D03*
%TD*%
D30*
%TO.P,C10,1*%
%TO.N,GND*%
X103700000Y-53950000D03*
%TO.P,C10,2*%
%TO.N,VIN*%
X103700000Y-55850000D03*
%TD*%
D13*
%TO.P,R4,1*%
%TO.N,Net-(Q1-G)*%
X106690000Y-69600000D03*
%TO.P,R4,2*%
%TO.N,VIN*%
X107710000Y-69600000D03*
%TD*%
D14*
%TO.P,R1,1*%
%TO.N,Net-(U3-VDD)*%
X108710000Y-47500000D03*
%TO.P,R1,2*%
%TO.N,VIN*%
X107690000Y-47500000D03*
%TD*%
D15*
%TO.P,REF\u002A\u002A,*%
%TO.N,*%
X109400000Y-82600000D03*
%TD*%
D20*
%TO.P,C5,1*%
%TO.N,GND*%
X102800000Y-65880000D03*
%TO.P,C5,2*%
%TO.N,+3.3V*%
X102800000Y-64920000D03*
%TD*%
D22*
%TO.P,C3,1*%
%TO.N,GND*%
X104320000Y-59300000D03*
%TO.P,C3,2*%
%TO.N,Net-(U1-XTAL_N)*%
X105280000Y-59300000D03*
%TD*%
D27*
%TO.P,J3,1,Pin_1*%
%TO.N,+3.3V*%
X110600000Y-47910000D03*
D28*
%TO.P,J3,2,Pin_2*%
%TO.N,GND*%
X110600000Y-50450000D03*
%TO.P,J3,3,Pin_3*%
%TO.N,+5V*%
X110600000Y-52990000D03*
%TO.P,J3,4,Pin_4*%
%TO.N,EN*%
X110600000Y-55530000D03*
%TO.P,J3,5,Pin_5*%
%TO.N,BOOT*%
X110600000Y-58070000D03*
%TO.P,J3,6,Pin_6*%
%TO.N,IO8*%
X110600000Y-60610000D03*
%TO.P,J3,7,Pin_7*%
%TO.N,IO7*%
X110600000Y-63150000D03*
%TO.P,J3,8,Pin_8*%
%TO.N,IO6*%
X110600000Y-65690000D03*
%TD*%
D13*
%TO.P,R8,1*%
%TO.N,GND*%
X107680000Y-48500000D03*
%TO.P,R8,2*%
%TO.N,Net-(JP1-B)*%
X108700000Y-48500000D03*
%TD*%
D31*
%TO.P,C14,1*%
%TO.N,GND*%
X107075000Y-53100000D03*
%TO.P,C14,2*%
%TO.N,+3.3V*%
X105525000Y-53100000D03*
%TD*%
D21*
%TO.P,R6,1*%
%TO.N,+3.3V*%
X108700000Y-57510000D03*
%TO.P,R6,2*%
%TO.N,EN*%
X108700000Y-56490000D03*
%TD*%
D19*
%TO.P,C6,1*%
%TO.N,GND*%
X102850000Y-62140000D03*
%TO.P,C6,2*%
%TO.N,Net-(U1-LNA_IN)*%
X102850000Y-63100000D03*
%TD*%
D24*
%TO.P,R13,1*%
%TO.N,IO6*%
X109000000Y-78790000D03*
%TO.P,R13,2*%
%TO.N,+3.3V*%
X109000000Y-79810000D03*
%TD*%
D32*
%TO.P,J6,1,In*%
%TO.N,Net-(J6-In)*%
X100900000Y-66400000D03*
D33*
%TO.P,J6,2,Ext*%
%TO.N,GND*%
X102375000Y-67900000D03*
D32*
X100900000Y-69400000D03*
D33*
X99425000Y-67900000D03*
%TD*%
D16*
%TO.P,U5,1,FB*%
%TO.N,+5V*%
X100050000Y-55637500D03*
%TO.P,U5,2,EN*%
%TO.N,VIN*%
X101000000Y-55637500D03*
%TO.P,U5,3,IN*%
X101950000Y-55637500D03*
%TO.P,U5,4,GND*%
%TO.N,GND*%
X101950000Y-53362500D03*
%TO.P,U5,5,SW*%
%TO.N,/buck*%
X101000000Y-53362500D03*
%TO.P,U5,6,BST*%
%TO.N,Net-(U5-BST)*%
X100050000Y-53362500D03*
%TD*%
D13*
%TO.P,R5,1*%
%TO.N,GND*%
X104790000Y-69600000D03*
%TO.P,R5,2*%
%TO.N,IO10*%
X105810000Y-69600000D03*
%TD*%
D30*
%TO.P,C8,1*%
%TO.N,GND*%
X100000000Y-42250000D03*
%TO.P,C8,2*%
%TO.N,Net-(U3-VBUS)*%
X100000000Y-44150000D03*
%TD*%
D16*
%TO.P,Q3,1,G*%
%TO.N,+3.3V*%
X99857536Y-73375000D03*
%TO.P,Q3,2,D*%
%TO.N,IO2_5V*%
X101757536Y-73375000D03*
%TO.P,Q3,3,S*%
%TO.N,IO2*%
X100807536Y-71100000D03*
%TD*%
D24*
%TO.P,RV2,1*%
%TO.N,D+*%
X109300000Y-43290000D03*
%TO.P,RV2,2*%
%TO.N,GND*%
X109300000Y-44310000D03*
%TD*%
%TO.P,R14,1*%
%TO.N,IO7*%
X99300000Y-78690000D03*
%TO.P,R14,2*%
%TO.N,+3.3V*%
X99300000Y-79710000D03*
%TD*%
D27*
%TO.P,J7,1,Pin_1*%
%TO.N,VOUT*%
X106640000Y-79860000D03*
D29*
%TO.P,J7,2,Pin_2*%
%TO.N,GND*%
X106640000Y-82400000D03*
D28*
%TO.P,J7,3,Pin_3*%
%TO.N,B*%
X104100000Y-79860000D03*
%TO.P,J7,4,Pin_4*%
%TO.N,IO2_5V*%
X104100000Y-82400000D03*
%TO.P,J7,5,Pin_5*%
%TO.N,W*%
X101560000Y-79860000D03*
%TO.P,J7,6,Pin_6*%
%TO.N,IO3_5V*%
X101560000Y-82400000D03*
%TD*%
D34*
%TO.P,U3,0,GND*%
%TO.N,GND*%
X104984000Y-44100000D03*
D35*
%TO.P,U3,1,VDD*%
%TO.N,Net-(U3-VDD)*%
X107700000Y-46100000D03*
%TO.P,U3,2,CFG2*%
%TO.N,Net-(JP1-B)*%
X107700000Y-45100000D03*
%TO.P,U3,3,CFG3*%
%TO.N,Net-(JP2-B)*%
X107700000Y-44100000D03*
%TO.P,U3,4,DP*%
%TO.N,D+*%
X107700000Y-43100000D03*
%TO.P,U3,5,DM*%
%TO.N,D-*%
X107700000Y-42100000D03*
%TO.P,U3,6,CC2*%
%TO.N,Net-(J2-CC2)*%
X102375000Y-42100000D03*
%TO.P,U3,7,CC1*%
%TO.N,Net-(J2-CC1)*%
X102375000Y-43100000D03*
%TO.P,U3,8,VBUS*%
%TO.N,Net-(U3-VBUS)*%
X102375000Y-44100000D03*
%TO.P,U3,9,CFG1*%
%TO.N,Net-(JP3-A)*%
X102375000Y-45100000D03*
%TO.P,U3,10,PG*%
%TO.N,unconnected-(U3-PG-Pad10)*%
X102375000Y-46100000D03*
%TD*%
D19*
%TO.P,C12,1*%
%TO.N,Net-(U1-VDD_SPI{slash}GPIO11)*%
X109600000Y-68420000D03*
%TO.P,C12,2*%
%TO.N,GND*%
X109600000Y-69380000D03*
%TD*%
D27*
%TO.P,J1,1,Pin_1*%
%TO.N,U0TXD*%
X97900000Y-47910000D03*
D28*
%TO.P,J1,2,Pin_2*%
%TO.N,U0RXD*%
X97900000Y-50450000D03*
%TO.P,J1,3,Pin_3*%
%TO.N,IO0*%
X97900000Y-52990000D03*
%TO.P,J1,4,Pin_4*%
%TO.N,IO1*%
X97900000Y-55530000D03*
%TO.P,J1,5,Pin_5*%
%TO.N,IO2*%
X97900000Y-58070000D03*
%TO.P,J1,6,Pin_6*%
%TO.N,IO3*%
X97900000Y-60610000D03*
%TO.P,J1,7,Pin_7*%
%TO.N,IO4*%
X97900000Y-63150000D03*
%TO.P,J1,8,Pin_8*%
%TO.N,IO5*%
X97900000Y-65690000D03*
%TD*%
D21*
%TO.P,RV3,1*%
%TO.N,D-*%
X109300000Y-42410000D03*
%TO.P,RV3,2*%
%TO.N,GND*%
X109300000Y-41390000D03*
%TD*%
D36*
%TO.P,J2,A1,GND*%
%TO.N,GND*%
X107450000Y-40090000D03*
%TO.P,J2,A4,VBUS*%
%TO.N,VIN*%
X106650000Y-40090000D03*
D37*
%TO.P,J2,A5,CC1*%
%TO.N,Net-(J2-CC1)*%
X105500000Y-40090000D03*
%TO.P,J2,A6,D+*%
%TO.N,D+*%
X104500000Y-40090000D03*
%TO.P,J2,A7,D-*%
%TO.N,D-*%
X104000000Y-40090000D03*
%TO.P,J2,A8,SBU1*%
%TO.N,unconnected-(J2-SBU1-PadA8)*%
X103000000Y-40090000D03*
D36*
%TO.P,J2,A9,VBUS*%
%TO.N,VIN*%
X101850000Y-40090000D03*
%TO.P,J2,A12,GND*%
%TO.N,GND*%
X101050000Y-40090000D03*
%TO.P,J2,B1,GND*%
X101050000Y-40090000D03*
%TO.P,J2,B4,VBUS*%
%TO.N,VIN*%
X101850000Y-40090000D03*
D37*
%TO.P,J2,B5,CC2*%
%TO.N,Net-(J2-CC2)*%
X102500000Y-40090000D03*
%TO.P,J2,B6,D+*%
%TO.N,D+*%
X103500000Y-40090000D03*
%TO.P,J2,B7,D-*%
%TO.N,D-*%
X105000000Y-40090000D03*
%TO.P,J2,B8,SBU2*%
%TO.N,unconnected-(J2-SBU2-PadB8)*%
X106000000Y-40090000D03*
D36*
%TO.P,J2,B9,VBUS*%
%TO.N,VIN*%
X106650000Y-40090000D03*
%TO.P,J2,B12,GND*%
%TO.N,GND*%
X107450000Y-40090000D03*
D38*
%TO.P,J2,S1,SHIELD*%
X108570000Y-39490000D03*
D39*
X108570000Y-35290000D03*
D38*
X99930000Y-39490000D03*
D39*
X99930000Y-35290000D03*
%TD*%
D26*
%TO.P,C16,1*%
%TO.N,GND*%
X105500000Y-51650000D03*
%TO.P,C16,2*%
%TO.N,+5V*%
X105500000Y-49750000D03*
%TD*%
D40*
%TO.N,+5V*%
X99485839Y-71914161D03*
X104000923Y-49800000D03*
%TO.N,GND*%
X106500000Y-65600000D03*
X100282280Y-64389187D03*
X106600000Y-48500000D03*
X103550000Y-76200000D03*
X102650937Y-63829741D03*
X101316848Y-62744207D03*
X102400000Y-69700000D03*
X102200000Y-62500000D03*
X100627768Y-63433287D03*
X105550923Y-44100000D03*
X106500000Y-64100000D03*
X106500000Y-59300000D03*
X99600000Y-69700000D03*
X106500000Y-64837500D03*
X106300000Y-71000000D03*
X101500000Y-54500000D03*
X104500000Y-72300000D03*
X100279886Y-65179886D03*
X105800000Y-48100000D03*
X100500000Y-54500000D03*
X101650000Y-76200000D03*
X101422885Y-65200000D03*
X102600000Y-76200000D03*
X101900000Y-64300000D03*
%TO.N,+3.3V*%
X104300000Y-62000000D03*
X99857536Y-79278365D03*
X107500000Y-77475000D03*
X103100000Y-71800000D03*
X99700000Y-74900000D03*
X109685840Y-56485840D03*
X105625000Y-53800000D03*
X107117246Y-68906905D03*
%TO.N,IO0*%
X104990839Y-63990839D03*
%TO.N,IO1*%
X104980383Y-64798262D03*
%TO.N,IO2*%
X104974663Y-65828262D03*
X101400000Y-70900000D03*
%TO.N,IO3*%
X103598043Y-66962534D03*
%TO.N,D+*%
X104029766Y-41469726D03*
X106630499Y-43529420D03*
X104581763Y-58507213D03*
%TO.N,D-*%
X104864794Y-41491581D03*
X106618954Y-42541847D03*
X105150922Y-58018785D03*
%TO.N,IO4*%
X103637172Y-67711515D03*
%TO.N,IO8*%
X107232601Y-66400000D03*
%TO.N,IO5*%
X103600000Y-68500000D03*
%TO.N,EN*%
X102667126Y-59632184D03*
X105452598Y-66406258D03*
%TO.N,BOOT*%
X106289882Y-63287499D03*
X101449721Y-61070001D03*
%TO.N,U0TXD*%
X106552903Y-61571365D03*
%TO.N,U0RXD*%
X107302347Y-61600297D03*
%TO.N,IO7*%
X99857536Y-76200511D03*
X106482598Y-66400000D03*
%TO.N,IO6*%
X104262771Y-77462771D03*
X106282978Y-68200000D03*
%TO.N,IO10*%
X105133029Y-70334500D03*
X107107114Y-68156336D03*
%TO.N,IO3_5V*%
X107400000Y-76400000D03*
%TO.N,IO2_5V*%
X102080000Y-74300000D03*
%TO.N,VOUT*%
X109900000Y-73600000D03*
X109900000Y-72700000D03*
%TO.N,Net-(JP1-B)*%
X106641583Y-45518323D03*
%TO.N,Net-(JP2-B)*%
X106654785Y-44506062D03*
%TO.N,Net-(JP3-A)*%
X102375000Y-45100000D03*
%TO.N,VIN*%
X106200000Y-38900000D03*
X102300000Y-38900000D03*
X106700000Y-41100000D03*
X101900000Y-41100000D03*
X104000000Y-55800000D03*
X107800000Y-71487500D03*
X107800000Y-70587500D03*
X98900000Y-45400000D03*
X106554676Y-47488645D03*
%TD*%
D41*
%TO.N,+5V*%
X107500000Y-49750000D02*
X107604720Y-49750000D01*
D42*
X100050000Y-56550000D02*
X100050000Y-55637500D01*
D43*
X105500000Y-57037500D02*
X105500000Y-57270344D01*
D42*
X104000000Y-57340000D02*
X103785000Y-57125000D01*
D43*
X100292536Y-74507464D02*
X100593568Y-74206432D01*
D42*
X100625000Y-57125000D02*
X100050000Y-56550000D01*
D43*
X102905000Y-75595000D02*
X103100000Y-75400000D01*
X105500000Y-57270344D02*
X106044656Y-57815000D01*
D42*
X105097500Y-57340000D02*
X105500000Y-56937500D01*
D43*
X106885000Y-57815000D02*
X107400000Y-57300000D01*
X100050000Y-55637500D02*
X98975000Y-54562500D01*
D42*
X104000000Y-57340000D02*
X105097500Y-57340000D01*
D43*
X103100000Y-75400000D02*
X103100000Y-75000000D01*
X100292536Y-75867844D02*
X100292536Y-74507464D01*
X101535000Y-74641432D02*
X101535000Y-75358568D01*
X106044656Y-57815000D02*
X106885000Y-57815000D01*
X99579541Y-71914161D02*
X101100000Y-73434620D01*
X101100000Y-74206432D02*
X101535000Y-74641432D01*
X101535000Y-75358568D02*
X101771432Y-75595000D01*
X107400000Y-57300000D02*
X107400000Y-57037500D01*
X100372536Y-79517464D02*
X100372536Y-75947844D01*
D41*
X107604720Y-49750000D02*
X109893207Y-52038487D01*
D43*
X100593568Y-74206432D02*
X101100000Y-74206432D01*
D42*
X103785000Y-57125000D02*
X100625000Y-57125000D01*
D43*
X98975000Y-54562500D02*
X98975000Y-50491727D01*
X99300000Y-80590000D02*
X100372536Y-79517464D01*
X101771432Y-75595000D02*
X102905000Y-75595000D01*
X99366727Y-50100000D02*
X101000000Y-50100000D01*
D41*
X109893207Y-52038487D02*
X109893207Y-52990156D01*
D43*
X98975000Y-50491727D02*
X99366727Y-50100000D01*
X100372536Y-75947844D02*
X100292536Y-75867844D01*
X101100000Y-73434620D02*
X101100000Y-74206432D01*
X99485839Y-71914161D02*
X99579541Y-71914161D01*
D42*
%TO.N,+3.3V*%
X108086181Y-68933819D02*
X108600000Y-68420000D01*
X104520000Y-62400000D02*
X104750000Y-62400000D01*
X99700000Y-73000000D02*
X98560000Y-71860000D01*
D43*
X108700000Y-57471680D02*
X108700000Y-57510000D01*
X109685840Y-56485840D02*
X108700000Y-57471680D01*
X105690000Y-76115000D02*
X107050000Y-77475000D01*
D42*
X105380000Y-68500000D02*
X105380000Y-68120000D01*
X99700000Y-74900000D02*
X99700000Y-73000000D01*
D43*
X98560000Y-71860000D02*
X98158648Y-71860000D01*
X103110000Y-70900000D02*
X103110000Y-71790000D01*
D42*
X105625000Y-53800000D02*
X105625000Y-53100000D01*
D43*
X105690000Y-75200000D02*
X105690000Y-76115000D01*
D42*
X105750000Y-67750000D02*
X105750000Y-67275000D01*
X103452501Y-64087500D02*
X104062500Y-64087500D01*
X105250000Y-62850000D02*
X104512500Y-63587500D01*
X107144160Y-68933819D02*
X108086181Y-68933819D01*
X104512500Y-63587500D02*
X104062500Y-63587500D01*
D43*
X107574692Y-77475000D02*
X108889692Y-78790000D01*
D42*
X103300000Y-61180000D02*
X104520000Y-62400000D01*
D43*
X108889692Y-78790000D02*
X109000000Y-78790000D01*
D42*
X104062500Y-64087500D02*
X104062500Y-63587500D01*
X107117246Y-68906905D02*
X107144160Y-68933819D01*
X105380000Y-68120000D02*
X105750000Y-67750000D01*
X109250000Y-67770000D02*
X109250000Y-66900000D01*
D43*
X107500000Y-77475000D02*
X107574692Y-77475000D01*
D44*
X105625000Y-53500000D02*
X105625000Y-54537500D01*
D42*
X109250000Y-66900000D02*
X108937500Y-66587500D01*
X108600000Y-68420000D02*
X109250000Y-67770000D01*
D44*
X105625000Y-54537500D02*
X105500000Y-54662500D01*
D42*
X102800000Y-65020000D02*
X102800000Y-64740001D01*
D43*
X105380000Y-68500000D02*
X105380000Y-68680000D01*
D42*
X105250000Y-62400000D02*
X105250000Y-62850000D01*
D43*
X99857536Y-79278365D02*
X99731635Y-79278365D01*
D42*
X105606905Y-68906905D02*
X107117246Y-68906905D01*
D43*
X107500000Y-77475000D02*
X106857536Y-77475000D01*
X99731635Y-79278365D02*
X99300000Y-79710000D01*
D42*
X104750000Y-62400000D02*
X105250000Y-62400000D01*
D43*
X103110000Y-71790000D02*
X103100000Y-71800000D01*
D42*
X105380000Y-68680000D02*
X105606905Y-68906905D01*
X102800000Y-64740001D02*
X103452501Y-64087500D01*
D43*
%TO.N,IO0*%
X104394178Y-64587500D02*
X104062500Y-64587500D01*
X104990839Y-63990839D02*
X104394178Y-64587500D01*
%TO.N,IO1*%
X104980383Y-64798262D02*
X104789237Y-64798262D01*
X104499999Y-65087500D02*
X104062500Y-65087500D01*
X104789237Y-64798262D02*
X104499999Y-65087500D01*
%TO.N,IO2*%
X104513033Y-65587500D02*
X104062500Y-65587500D01*
X102090000Y-70900000D02*
X101007536Y-70900000D01*
X104753795Y-65828262D02*
X104513033Y-65587500D01*
X104974663Y-65828262D02*
X104753795Y-65828262D01*
X101007536Y-70900000D02*
X100807536Y-71100000D01*
%TO.N,IO3*%
X106710000Y-74332500D02*
X106700000Y-74322500D01*
X98965000Y-61417628D02*
X98965000Y-66135000D01*
X102157844Y-72400000D02*
X102700000Y-72942156D01*
X103598043Y-66962534D02*
X103687466Y-66962534D01*
X107122500Y-74322500D02*
X108000000Y-75200000D01*
X102700000Y-72942156D02*
X102700000Y-74000000D01*
X106710000Y-75200000D02*
X106710000Y-74332500D01*
X100700000Y-72400000D02*
X102157844Y-72400000D01*
X98685000Y-70385000D02*
X100700000Y-72400000D01*
X98685000Y-66415000D02*
X98685000Y-70385000D01*
X102700000Y-74000000D02*
X103022500Y-74322500D01*
X98157342Y-60609970D02*
X98965000Y-61417628D01*
X103687466Y-66962534D02*
X104062500Y-66587500D01*
X106700000Y-74322500D02*
X107122500Y-74322500D01*
X103022500Y-74322500D02*
X106700000Y-74322500D01*
X104062500Y-66587500D02*
X104096294Y-66621294D01*
X98965000Y-66135000D02*
X98685000Y-66415000D01*
D42*
%TO.N,D+*%
X104029766Y-41469726D02*
X103987750Y-41427710D01*
X103500000Y-40939960D02*
X103500000Y-40100000D01*
D43*
X107750000Y-61962501D02*
X108600000Y-61112501D01*
X108285000Y-58405000D02*
X105495000Y-58405000D01*
D42*
X103987750Y-41400000D02*
X104500000Y-40887750D01*
X107890000Y-43290000D02*
X107700000Y-43100000D01*
X103987750Y-41427710D02*
X103987750Y-41400000D01*
X104029766Y-41469726D02*
X103500000Y-40939960D01*
D43*
X105366215Y-58533785D02*
X104608335Y-58533785D01*
X108600000Y-61112501D02*
X108600000Y-58720000D01*
X107059919Y-43100000D02*
X107700000Y-43100000D01*
X105495000Y-58405000D02*
X105366215Y-58533785D01*
X108600000Y-58720000D02*
X108285000Y-58405000D01*
D42*
X106630499Y-43529420D02*
X107059919Y-43100000D01*
X109300000Y-43290000D02*
X107890000Y-43290000D01*
D43*
X104608335Y-58533785D02*
X104581763Y-58507213D01*
X107750000Y-62400000D02*
X107750000Y-61962501D01*
D42*
X104500000Y-40887750D02*
X104500000Y-40100000D01*
D43*
%TO.N,D-*%
X105479020Y-58125000D02*
X108400980Y-58125000D01*
D42*
X104864794Y-41235206D02*
X104864794Y-41491581D01*
D43*
X107060801Y-42100000D02*
X107700000Y-42100000D01*
X105372805Y-58018785D02*
X105479020Y-58125000D01*
D42*
X109300000Y-42410000D02*
X108010000Y-42410000D01*
X105000000Y-40100000D02*
X105000000Y-41100000D01*
D45*
X104180000Y-39100000D02*
X104820000Y-39100000D01*
D43*
X108880000Y-61228481D02*
X108250000Y-61858481D01*
X108250000Y-61858481D02*
X108250000Y-62400000D01*
D45*
X104000000Y-40100000D02*
X104000000Y-39280000D01*
D43*
X105150922Y-58018785D02*
X105372805Y-58018785D01*
D42*
X108010000Y-42410000D02*
X107700000Y-42100000D01*
X106618954Y-42541847D02*
X107060801Y-42100000D01*
D43*
X108400980Y-58125000D02*
X108880000Y-58604020D01*
D45*
X104000000Y-39280000D02*
X104180000Y-39100000D01*
D43*
X108880000Y-58604020D02*
X108880000Y-61228481D01*
D42*
X105000000Y-41100000D02*
X104864794Y-41235206D01*
D45*
X104820000Y-39100000D02*
X105000000Y-39280000D01*
X105000000Y-39280000D02*
X105000000Y-40100000D01*
D43*
%TO.N,IO4*%
X104073687Y-67275000D02*
X104750000Y-67275000D01*
X103637172Y-67711515D02*
X104073687Y-67275000D01*
%TO.N,IO8*%
X107250000Y-66527150D02*
X107250000Y-67275000D01*
X107232601Y-66509751D02*
X107250000Y-66527150D01*
X107232601Y-66400000D02*
X107232601Y-66509751D01*
%TO.N,IO5*%
X105250000Y-67712499D02*
X105250000Y-67275000D01*
X103600000Y-68500000D02*
X104172500Y-67927500D01*
X104172500Y-67927500D02*
X105034999Y-67927500D01*
X105034999Y-67927500D02*
X105250000Y-67712499D01*
%TO.N,EN*%
X104505581Y-66087500D02*
X104062500Y-66087500D01*
X108700000Y-56490000D02*
X108700000Y-55560000D01*
X102667126Y-59042126D02*
X102225000Y-58600000D01*
X104761343Y-66343262D02*
X104505581Y-66087500D01*
X110298543Y-55560000D02*
X110328480Y-55530063D01*
X108700000Y-55560000D02*
X110298543Y-55560000D01*
X105452598Y-66406258D02*
X105389602Y-66343262D01*
X102667126Y-59632184D02*
X102667126Y-59042126D01*
X105389602Y-66343262D02*
X104761343Y-66343262D01*
%TO.N,BOOT*%
X107750000Y-63657500D02*
X107750000Y-67275000D01*
X106289882Y-63287499D02*
X107379999Y-63287499D01*
X101554999Y-61070001D02*
X102225000Y-60400000D01*
X101449721Y-61070001D02*
X101554999Y-61070001D01*
X107379999Y-63287499D02*
X107750000Y-63657500D01*
%TO.N,U0TXD*%
X106750000Y-61768462D02*
X106750000Y-62400000D01*
X106552903Y-61571365D02*
X106750000Y-61768462D01*
%TO.N,U0RXD*%
X107302347Y-61600297D02*
X107250000Y-61652644D01*
X107250000Y-61652644D02*
X107250000Y-62400000D01*
%TO.N,IO7*%
X106750000Y-66667402D02*
X106750000Y-67275000D01*
X106482598Y-66400000D02*
X106750000Y-66667402D01*
X99857536Y-76200511D02*
X99857536Y-77475000D01*
X99300000Y-78032536D02*
X99857536Y-77475000D01*
X99300000Y-78690000D02*
X99300000Y-78032536D01*
%TO.N,IO6*%
X105597500Y-76597500D02*
X104502500Y-76597500D01*
X104262771Y-76837229D02*
X104262771Y-77462771D01*
X109000000Y-79810000D02*
X107595000Y-78405000D01*
X104262771Y-77462771D02*
X103369765Y-77462771D01*
X106282978Y-67745477D02*
X106250000Y-67712499D01*
X106282978Y-68200000D02*
X106282978Y-67745477D01*
X106250000Y-67712499D02*
X106250000Y-67275000D01*
X106300000Y-78100308D02*
X106300000Y-77300000D01*
X106604692Y-78405000D02*
X106300000Y-78100308D01*
X107595000Y-78405000D02*
X106604692Y-78405000D01*
X104502500Y-76597500D02*
X104262771Y-76837229D01*
X103369765Y-77462771D02*
X103357536Y-77475000D01*
X106300000Y-77300000D02*
X105597500Y-76597500D01*
%TO.N,Net-(U1-XTAL_N)*%
X107235000Y-60865000D02*
X107043635Y-61056365D01*
X106030000Y-61365948D02*
X106030000Y-61848322D01*
X107235000Y-59665000D02*
X107235000Y-60865000D01*
X105280000Y-59300000D02*
X105280000Y-59120000D01*
X106030000Y-61848322D02*
X106250000Y-62068322D01*
X105715000Y-58685000D02*
X107285000Y-58685000D01*
X106339583Y-61056365D02*
X106030000Y-61365948D01*
X105280000Y-59120000D02*
X105715000Y-58685000D01*
X107043635Y-61056365D02*
X106339583Y-61056365D01*
X106250000Y-62068322D02*
X106250000Y-62400000D01*
X107285000Y-58685000D02*
X107750000Y-59150000D01*
X107750000Y-59150000D02*
X107235000Y-59665000D01*
D46*
%TO.N,Net-(U1-LNA_IN)*%
X102850000Y-63100000D02*
X102257107Y-63100000D01*
X101903553Y-63246447D02*
X101810624Y-63339376D01*
X102850000Y-63100000D02*
X104050000Y-63100000D01*
X104050000Y-63100000D02*
X104062500Y-63087500D01*
X102257107Y-63100000D02*
G75*
G03*
X101903550Y-63246444I-7J-500000D01*
G01*
D42*
%TO.N,Net-(U1-VDD_SPI{slash}GPIO11)*%
X109650000Y-68370000D02*
X109650000Y-66383470D01*
X109650000Y-66383470D02*
X109354030Y-66087500D01*
X109600000Y-68420000D02*
X109650000Y-68370000D01*
X109354030Y-66087500D02*
X108937500Y-66087500D01*
D43*
%TO.N,Net-(U1-XTAL_P)*%
X105590000Y-61500000D02*
X105590000Y-62240000D01*
X105590000Y-62240000D02*
X105750000Y-62400000D01*
X105300000Y-61210000D02*
X105590000Y-61500000D01*
%TO.N,Net-(C4-Pad2)*%
X105300000Y-60190000D02*
X105360000Y-60250000D01*
X105300000Y-60190000D02*
X105265000Y-60190000D01*
X105295000Y-60195000D02*
X105300000Y-60190000D01*
X105265000Y-60190000D02*
X104300000Y-61155000D01*
X105360000Y-60250000D02*
X106500000Y-60250000D01*
%TO.N,IO10*%
X103965000Y-70135000D02*
X103650000Y-70450000D01*
X107929178Y-67927500D02*
X108250000Y-67606678D01*
X108250000Y-67606678D02*
X108250000Y-67275000D01*
X103650000Y-70450000D02*
X103650000Y-73300000D01*
X105810000Y-69600000D02*
X105275000Y-70135000D01*
X103650000Y-73300000D02*
X103637500Y-73312500D01*
X107107114Y-68092886D02*
X107272500Y-67927500D01*
X107272500Y-67927500D02*
X107929178Y-67927500D01*
X107107114Y-68156336D02*
X107107114Y-68092886D01*
X105275000Y-70135000D02*
X103965000Y-70135000D01*
D44*
%TO.N,Net-(U3-VBUS)*%
X100100000Y-44150000D02*
X102325000Y-44150000D01*
D43*
X100600000Y-45400000D02*
X100600000Y-44650000D01*
D44*
X102325000Y-44150000D02*
X102375000Y-44100000D01*
D43*
X100600000Y-44650000D02*
X100100000Y-44150000D01*
%TO.N,IO3_5V*%
X99300000Y-81610000D02*
X100770000Y-81610000D01*
X107400000Y-76400000D02*
X107875000Y-76400000D01*
X100770000Y-81610000D02*
X101560000Y-82400000D01*
X107875000Y-76400000D02*
X108950000Y-77475000D01*
%TO.N,IO2_5V*%
X102080000Y-75000000D02*
X102080000Y-74300000D01*
X101757536Y-73375000D02*
X101757536Y-73977536D01*
X101757536Y-73977536D02*
X102080000Y-74300000D01*
%TO.N,Net-(JP1-B)*%
X106992156Y-46700000D02*
X106697500Y-46405344D01*
X107708716Y-46700000D02*
X106992156Y-46700000D01*
X106697500Y-46405344D02*
X106697500Y-45462406D01*
X108175000Y-47166284D02*
X107708716Y-46700000D01*
X106697500Y-45462406D02*
X107059906Y-45100000D01*
X107059906Y-45100000D02*
X107700000Y-45100000D01*
X108175000Y-47975000D02*
X108175000Y-47166284D01*
X108700000Y-48500000D02*
X108175000Y-47975000D01*
%TO.N,Net-(JP2-B)*%
X108110000Y-44100000D02*
X109300000Y-45290000D01*
X107279959Y-44100000D02*
X107700000Y-44100000D01*
X106873897Y-44506062D02*
X107279959Y-44100000D01*
X107700000Y-44100000D02*
X108110000Y-44100000D01*
X106654785Y-44506062D02*
X106873897Y-44506062D01*
%TO.N,Net-(JP3-A)*%
X102375000Y-45100000D02*
X101910000Y-45100000D01*
X101910000Y-45100000D02*
X100600000Y-46410000D01*
X101910000Y-45100000D02*
X100610000Y-46400000D01*
%TO.N,Net-(Q1-G)*%
X104600000Y-71025000D02*
X104612500Y-71037500D01*
X105452500Y-71037500D02*
X106890000Y-69600000D01*
X106857536Y-73375000D02*
X106857536Y-72442536D01*
X106857536Y-72442536D02*
X105452500Y-71037500D01*
X104612500Y-71037500D02*
X105452500Y-71037500D01*
%TO.N,Net-(U3-VDD)*%
X108710000Y-47110000D02*
X107700000Y-46100000D01*
X108710000Y-47500000D02*
X108710000Y-47110000D01*
D42*
%TO.N,Net-(J2-CC1)*%
X105100000Y-42100000D02*
X105500000Y-41700000D01*
X102375000Y-43100000D02*
X102767696Y-43100000D01*
X103767696Y-42100000D02*
X105100000Y-42100000D01*
X102767696Y-43100000D02*
X103767696Y-42100000D01*
X105500000Y-41700000D02*
X105500000Y-40100000D01*
%TO.N,Net-(J2-CC2)*%
X102500000Y-41975000D02*
X102500000Y-40100000D01*
X102375000Y-42100000D02*
X102500000Y-41975000D01*
D46*
%TO.N,Net-(J6-In)*%
X100851385Y-64441463D02*
X100851385Y-66398615D01*
X100851385Y-66398615D02*
X100850000Y-66400000D01*
X101089376Y-64060624D02*
X100996446Y-64153554D01*
X100996446Y-64153554D02*
G75*
G03*
X100851401Y-64441466I377454J-370646D01*
G01*
D43*
%TO.N,VIN*%
X107800000Y-70587500D02*
X107800000Y-69690000D01*
X106566031Y-47500000D02*
X107690000Y-47500000D01*
D47*
X106700000Y-40200000D02*
X106700000Y-41100000D01*
D44*
X106500000Y-39400000D02*
X106500000Y-39200000D01*
D43*
X107800000Y-69690000D02*
X107710000Y-69600000D01*
D44*
X101850000Y-39550000D02*
X102000000Y-39400000D01*
D43*
X107805072Y-69600000D02*
X107857536Y-69652464D01*
D44*
X103700000Y-55850000D02*
X103912500Y-55850000D01*
X106650000Y-39550000D02*
X106500000Y-39400000D01*
D43*
X106554676Y-47488645D02*
X106566031Y-47500000D01*
D44*
X106500000Y-39200000D02*
X106200000Y-38900000D01*
X102000000Y-39400000D02*
X102000000Y-39200000D01*
D43*
X98900000Y-45400000D02*
X99580000Y-45400000D01*
D47*
X101900000Y-40205000D02*
X101900000Y-41100000D01*
D44*
X101850000Y-40100000D02*
X101850000Y-39550000D01*
X102000000Y-39200000D02*
X102300000Y-38900000D01*
X106650000Y-40100000D02*
X106650000Y-39550000D01*
D43*
%TO.N,Net-(U5-BST)*%
X99500000Y-52812500D02*
X100050000Y-53362500D01*
X99500000Y-51980000D02*
X99500000Y-52812500D01*
%TO.N,/buck*%
X99500000Y-51020000D02*
X100407500Y-51020000D01*
X100407500Y-51020000D02*
X101000000Y-51612500D01*
%TD*%
%TA.AperFunction,Conductor*%
%TO.N,GND*%
G36*
X101400000Y-43200000D02*
G01*
X98700000Y-43200000D01*
X98700000Y-42536059D01*
X99145001Y-42536059D01*
X99155763Y-42609929D01*
X99155763Y-42609932D01*
X99211459Y-42723859D01*
X99211461Y-42723862D01*
X99301137Y-42813538D01*
X99301140Y-42813540D01*
X99415069Y-42869236D01*
X99488944Y-42879999D01*
X99849999Y-42879999D01*
X100150000Y-42879999D01*
X100511060Y-42879999D01*
X100584929Y-42869236D01*
X100584932Y-42869236D01*
X100698859Y-42813540D01*
X100698862Y-42813538D01*
X100788538Y-42723862D01*
X100788540Y-42723859D01*
X100844236Y-42609930D01*
X100855000Y-42536055D01*
X100855000Y-42400000D01*
X100150000Y-42400000D01*
X100150000Y-42879999D01*
X99849999Y-42879999D01*
X99850000Y-42879998D01*
X99850000Y-42400000D01*
X99145001Y-42400000D01*
X99145001Y-42536059D01*
X98700000Y-42536059D01*
X98700000Y-41963944D01*
X99145000Y-41963944D01*
X99145000Y-42100000D01*
X99850000Y-42100000D01*
X100150000Y-42100000D01*
X100854999Y-42100000D01*
X100854999Y-41963940D01*
X100844236Y-41890070D01*
X100844236Y-41890067D01*
X100788540Y-41776140D01*
X100788538Y-41776137D01*
X100698862Y-41686461D01*
X100698859Y-41686459D01*
X100584930Y-41630763D01*
X100511055Y-41620000D01*
X100150000Y-41620000D01*
X100150000Y-42100000D01*
X99850000Y-42100000D01*
X99850000Y-41620000D01*
X99488940Y-41620000D01*
X99415070Y-41630763D01*
X99415067Y-41630763D01*
X99301140Y-41686459D01*
X99301137Y-41686461D01*
X99211461Y-41776137D01*
X99211459Y-41776140D01*
X99155763Y-41890069D01*
X99145000Y-41963944D01*
X98700000Y-41963944D01*
X98700000Y-41500000D01*
X101400000Y-41500000D01*
X101400000Y-43200000D01*
G37*
%TD.AperFunction*%
%TD*%
%TA.AperFunction,Conductor*%
%TO.N,GND*%
G36*
X107705951Y-50775185D02*
G01*
X107726593Y-50791819D01*
X108500000Y-51565226D01*
X108500000Y-52400000D01*
X104900000Y-52400000D01*
X104900000Y-55000000D01*
X104621001Y-55000000D01*
X104606313Y-54970657D01*
X104560563Y-54917860D01*
X104555577Y-54912376D01*
X104486854Y-54870486D01*
X104486848Y-54870483D01*
X104419812Y-54850799D01*
X104419802Y-54850797D01*
X104376003Y-54844500D01*
X104376000Y-54844500D01*
X102234843Y-54844500D01*
X102184757Y-54833935D01*
X102169991Y-54827415D01*
X102144865Y-54824500D01*
X101755143Y-54824500D01*
X101755117Y-54824502D01*
X101730012Y-54827413D01*
X101730007Y-54827415D01*
X101715241Y-54833935D01*
X101665157Y-54844500D01*
X101400000Y-54844500D01*
X101400000Y-54152865D01*
X101408556Y-54151946D01*
X101460068Y-54140740D01*
X101528844Y-54106313D01*
X101581648Y-54060558D01*
X101587125Y-54055579D01*
X101629018Y-53986848D01*
X101648702Y-53919809D01*
X101655001Y-53876000D01*
X101655000Y-52845565D01*
X101665560Y-52795493D01*
X101668938Y-52787842D01*
X101694688Y-52750249D01*
X101729374Y-52715563D01*
X101735827Y-52709556D01*
X101737849Y-52707803D01*
X101737850Y-52707805D01*
X101782144Y-52669425D01*
X101787621Y-52664446D01*
X101829516Y-52595716D01*
X101849201Y-52528677D01*
X101852339Y-52506854D01*
X101881364Y-52443298D01*
X101940142Y-52405523D01*
X101975077Y-52400500D01*
X104114822Y-52400500D01*
X104158717Y-52391768D01*
X104158717Y-52391767D01*
X104158722Y-52391767D01*
X104208504Y-52358504D01*
X104241767Y-52308722D01*
X104250500Y-52264820D01*
X104250500Y-50879500D01*
X104270185Y-50812461D01*
X104322989Y-50766706D01*
X104374500Y-50755500D01*
X107638912Y-50755500D01*
X107705951Y-50775185D01*
G37*
%TD.AperFunction*%
%TD*%
%TA.AperFunction,Conductor*%
%TO.N,W*%
G36*
X101454799Y-76611204D02*
G01*
X101460928Y-76614002D01*
X101460931Y-76614004D01*
X101585225Y-76650499D01*
X101585227Y-76650500D01*
X101585228Y-76650500D01*
X101714773Y-76650500D01*
X101714773Y-76650499D01*
X101839069Y-76614004D01*
X101839073Y-76614000D01*
X101845201Y-76611204D01*
X101896709Y-76600000D01*
X102353291Y-76600000D01*
X102404799Y-76611204D01*
X102410928Y-76614002D01*
X102410931Y-76614004D01*
X102535225Y-76650499D01*
X102535227Y-76650500D01*
X102576000Y-76650500D01*
X102643039Y-76670185D01*
X102688794Y-76722989D01*
X102700000Y-76774500D01*
X102700000Y-80776000D01*
X102680315Y-80843039D01*
X102627511Y-80888794D01*
X102576000Y-80900000D01*
X100624000Y-80900000D01*
X100556961Y-80880315D01*
X100511206Y-80827511D01*
X100500000Y-80776000D01*
X100500000Y-79746125D01*
X100519685Y-79679086D01*
X100536319Y-79658444D01*
X100555228Y-79639535D01*
X100588036Y-79560329D01*
X100588036Y-79474598D01*
X100588036Y-76724000D01*
X100607721Y-76656961D01*
X100660525Y-76611206D01*
X100712036Y-76600000D01*
X101403291Y-76600000D01*
X101454799Y-76611204D01*
G37*
%TD.AperFunction*%
%TD*%
%TA.AperFunction,Conductor*%
%TO.N,/buck*%
G36*
X101643039Y-50819685D02*
G01*
X101688794Y-50872489D01*
X101700000Y-50924000D01*
X101700000Y-52484866D01*
X101680315Y-52551905D01*
X101636021Y-52590285D01*
X101636716Y-52591300D01*
X101627809Y-52597401D01*
X101627511Y-52597660D01*
X101627280Y-52597763D01*
X101627232Y-52597796D01*
X101547794Y-52677234D01*
X101502415Y-52780006D01*
X101502415Y-52780008D01*
X101499500Y-52805131D01*
X101499500Y-52805137D01*
X101499501Y-53876000D01*
X101479817Y-53943039D01*
X101427013Y-53988794D01*
X101375501Y-54000000D01*
X100624500Y-54000000D01*
X100557461Y-53980315D01*
X100511706Y-53927511D01*
X100500500Y-53876000D01*
X100500499Y-52805143D01*
X100500499Y-52805137D01*
X100500499Y-52805136D01*
X100500497Y-52805117D01*
X100497586Y-52780012D01*
X100497585Y-52780010D01*
X100497585Y-52780009D01*
X100452206Y-52677235D01*
X100372765Y-52597794D01*
X100370967Y-52597000D01*
X100269992Y-52552415D01*
X100244868Y-52549500D01*
X100224000Y-52549500D01*
X100156961Y-52529815D01*
X100111206Y-52477011D01*
X100100000Y-52425500D01*
X100100000Y-50924000D01*
X100119685Y-50856961D01*
X100172489Y-50811206D01*
X100224000Y-50800000D01*
X101576000Y-50800000D01*
X101643039Y-50819685D01*
G37*
%TD.AperFunction*%
%TD*%
%TA.AperFunction,Conductor*%
%TO.N,B*%
G36*
X105523914Y-76832685D02*
G01*
X105544556Y-76849319D01*
X106048181Y-77352944D01*
X106081666Y-77414267D01*
X106084500Y-77440625D01*
X106084500Y-78143176D01*
X106090560Y-78157804D01*
X106100000Y-78205259D01*
X106100000Y-78220500D01*
X106080315Y-78287539D01*
X106027511Y-78333294D01*
X105976000Y-78344500D01*
X105923991Y-78344500D01*
X105890944Y-78348054D01*
X105839433Y-78359260D01*
X105770657Y-78393686D01*
X105717860Y-78439436D01*
X105712376Y-78444422D01*
X105670486Y-78513145D01*
X105670483Y-78513151D01*
X105650799Y-78580187D01*
X105650797Y-78580197D01*
X105644500Y-78623996D01*
X105644500Y-79753988D01*
X105643903Y-79766142D01*
X105634659Y-79859999D01*
X105643903Y-79953856D01*
X105644500Y-79966010D01*
X105644500Y-80976000D01*
X105624815Y-81043039D01*
X105572011Y-81088794D01*
X105520500Y-81100000D01*
X103324000Y-81100000D01*
X103256961Y-81080315D01*
X103211206Y-81027511D01*
X103200000Y-80976000D01*
X103200000Y-78411999D01*
X103219685Y-78344960D01*
X103272489Y-78299205D01*
X103323997Y-78287999D01*
X103552400Y-78287999D01*
X103552415Y-78287997D01*
X103552418Y-78287997D01*
X103577523Y-78285086D01*
X103577524Y-78285085D01*
X103577527Y-78285085D01*
X103680301Y-78239706D01*
X103759742Y-78160265D01*
X103805121Y-78057491D01*
X103808036Y-78032365D01*
X103808036Y-77933130D01*
X103827721Y-77866091D01*
X103880525Y-77820336D01*
X103949683Y-77810392D01*
X103999072Y-77828813D01*
X104073702Y-77876775D01*
X104073704Y-77876775D01*
X104073705Y-77876776D01*
X104197996Y-77913270D01*
X104197998Y-77913271D01*
X104197999Y-77913271D01*
X104327544Y-77913271D01*
X104327544Y-77913270D01*
X104451840Y-77876775D01*
X104560820Y-77806738D01*
X104645653Y-77708834D01*
X104699468Y-77590997D01*
X104717904Y-77462771D01*
X104699468Y-77334545D01*
X104645653Y-77216708D01*
X104560820Y-77118804D01*
X104535231Y-77102359D01*
X104489477Y-77049556D01*
X104478271Y-76998044D01*
X104478271Y-76977854D01*
X104497956Y-76910815D01*
X104514590Y-76890173D01*
X104555444Y-76849319D01*
X104616767Y-76815834D01*
X104643125Y-76813000D01*
X105456875Y-76813000D01*
X105523914Y-76832685D01*
G37*
%TD.AperFunction*%
%TD*%
%TA.AperFunction,Conductor*%
%TO.N,+5V*%
G36*
X104718003Y-47419685D02*
G01*
X104735771Y-47433536D01*
X104760759Y-47456961D01*
X105309837Y-47971722D01*
X105345281Y-48031934D01*
X105347766Y-48079828D01*
X105344867Y-48099995D01*
X105344867Y-48099999D01*
X105363302Y-48228225D01*
X105417117Y-48346061D01*
X105417118Y-48346063D01*
X105501951Y-48443967D01*
X105610931Y-48514004D01*
X105735225Y-48550499D01*
X105735227Y-48550500D01*
X105873641Y-48550500D01*
X105873641Y-48553172D01*
X105929067Y-48561138D01*
X105962371Y-48583473D01*
X106300000Y-48900000D01*
X106353291Y-48900000D01*
X106404799Y-48911204D01*
X106410928Y-48914002D01*
X106410931Y-48914004D01*
X106485007Y-48935754D01*
X106535225Y-48950499D01*
X106535227Y-48950500D01*
X106535228Y-48950500D01*
X106664773Y-48950500D01*
X106664773Y-48950499D01*
X106789069Y-48914004D01*
X106789073Y-48914000D01*
X106795201Y-48911204D01*
X106846709Y-48900000D01*
X107306526Y-48900000D01*
X107373565Y-48919685D01*
X107376604Y-48921701D01*
X107380856Y-48924613D01*
X107380859Y-48924616D01*
X107406084Y-48935754D01*
X107478499Y-48967729D01*
X107478500Y-48967729D01*
X107478502Y-48967730D01*
X107502377Y-48970500D01*
X107857622Y-48970499D01*
X107881498Y-48967730D01*
X107979141Y-48924616D01*
X107979144Y-48924612D01*
X107983396Y-48921701D01*
X108049827Y-48900054D01*
X108053474Y-48900000D01*
X108326526Y-48900000D01*
X108393565Y-48919685D01*
X108396604Y-48921701D01*
X108400855Y-48924612D01*
X108400859Y-48924616D01*
X108426086Y-48935754D01*
X108479462Y-48980840D01*
X108499990Y-49047626D01*
X108500000Y-49049189D01*
X108500000Y-50476000D01*
X108480315Y-50543039D01*
X108427511Y-50588794D01*
X108376000Y-50600000D01*
X104125988Y-50600000D01*
X104115810Y-50599500D01*
X104114820Y-50599500D01*
X100485180Y-50599500D01*
X100484190Y-50599500D01*
X100474012Y-50600000D01*
X100424000Y-50600000D01*
X100356961Y-50580315D01*
X100311206Y-50527511D01*
X100300000Y-50476000D01*
X100300000Y-47524000D01*
X100319685Y-47456961D01*
X100372489Y-47411206D01*
X100424000Y-47400000D01*
X104650964Y-47400000D01*
X104718003Y-47419685D01*
G37*
%TD.AperFunction*%
%TD*%
%TA.AperFunction,Conductor*%
%TO.N,VIN*%
G36*
X104443039Y-55019685D02*
G01*
X104488794Y-55072489D01*
X104500000Y-55124000D01*
X104500000Y-56576000D01*
X104480315Y-56643039D01*
X104427511Y-56688794D01*
X104376000Y-56700000D01*
X100824000Y-56700000D01*
X100756961Y-56680315D01*
X100711206Y-56627511D01*
X100700000Y-56576000D01*
X100700000Y-55124000D01*
X100719685Y-55056961D01*
X100772489Y-55011206D01*
X100824000Y-55000000D01*
X104376000Y-55000000D01*
X104443039Y-55019685D01*
G37*
%TD.AperFunction*%
%TD*%
%TA.AperFunction,Conductor*%
%TO.N,GND*%
G36*
X101399500Y-40724820D02*
G01*
X101399500Y-40724822D01*
X101399499Y-40724822D01*
X101400000Y-40727340D01*
X101400000Y-41500000D01*
X98700000Y-41500000D01*
X98700000Y-42400000D01*
X98090941Y-42400000D01*
X98090641Y-39700000D01*
X101399500Y-39700000D01*
X101399500Y-40724820D01*
G37*
%TD.AperFunction*%
%TD*%
%TA.AperFunction,Conductor*%
%TO.N,GND*%
G36*
X110390299Y-42062011D02*
G01*
X110390374Y-42400000D01*
X109770500Y-42400000D01*
X109770499Y-42232384D01*
X109770499Y-42232378D01*
X109767730Y-42208502D01*
X109735055Y-42134500D01*
X109724619Y-42110864D01*
X109724617Y-42110861D01*
X109724616Y-42110859D01*
X109649141Y-42035384D01*
X109649138Y-42035383D01*
X109649136Y-42035381D01*
X109551500Y-41992270D01*
X109551501Y-41992270D01*
X109527623Y-41989500D01*
X109072384Y-41989500D01*
X109072361Y-41989502D01*
X109048504Y-41992269D01*
X109048501Y-41992269D01*
X108950864Y-42035380D01*
X108950859Y-42035384D01*
X108888061Y-42098182D01*
X108826737Y-42131666D01*
X108800380Y-42134500D01*
X108761999Y-42134500D01*
X108694960Y-42114815D01*
X108649205Y-42062011D01*
X108637999Y-42010500D01*
X108637999Y-41905142D01*
X108637998Y-41905135D01*
X108635085Y-41880009D01*
X108589706Y-41777235D01*
X108510265Y-41697794D01*
X108407492Y-41652415D01*
X108382368Y-41649500D01*
X107200000Y-41649500D01*
X107200000Y-39700000D01*
X110389779Y-39700000D01*
X110390299Y-42062011D01*
G37*
%TD.AperFunction*%
%TD*%
%TA.AperFunction,Conductor*%
%TO.N,GND*%
G36*
X107900000Y-83600000D02*
G01*
X105400000Y-83600000D01*
X105400000Y-81300000D01*
X107900000Y-81300000D01*
X107900000Y-83600000D01*
G37*
%TD.AperFunction*%
%TD*%
%TA.AperFunction,Conductor*%
%TO.N,GND*%
G36*
X101026414Y-74441617D02*
G01*
X101047056Y-74458251D01*
X101283181Y-74694376D01*
X101316666Y-74755699D01*
X101319500Y-74782057D01*
X101319500Y-75315702D01*
X101319500Y-75401434D01*
X101352308Y-75480639D01*
X101588740Y-75717071D01*
X101649361Y-75777692D01*
X101728566Y-75810500D01*
X101728567Y-75810500D01*
X102947865Y-75810500D01*
X102947866Y-75810500D01*
X103027071Y-75777692D01*
X103282693Y-75522070D01*
X103287013Y-75511639D01*
X103330852Y-75457236D01*
X103351481Y-75445659D01*
X103399141Y-75424616D01*
X103474616Y-75349141D01*
X103517730Y-75251498D01*
X103520500Y-75227623D01*
X103520499Y-74772378D01*
X103517730Y-74748502D01*
X103517728Y-74748498D01*
X103501651Y-74712086D01*
X103492579Y-74642808D01*
X103522403Y-74579623D01*
X103581652Y-74542592D01*
X103615085Y-74538000D01*
X105074914Y-74538000D01*
X105141953Y-74557685D01*
X105187708Y-74610489D01*
X105197652Y-74679647D01*
X105188348Y-74712086D01*
X105172271Y-74748496D01*
X105172270Y-74748498D01*
X105169500Y-74772375D01*
X105169500Y-75227615D01*
X105169502Y-75227638D01*
X105172269Y-75251495D01*
X105172269Y-75251498D01*
X105215380Y-75349135D01*
X105215383Y-75349139D01*
X105215384Y-75349141D01*
X105290859Y-75424616D01*
X105290862Y-75424617D01*
X105290863Y-75424618D01*
X105300000Y-75428652D01*
X105300000Y-76200000D01*
X100588036Y-76200000D01*
X100588036Y-75904978D01*
X100555228Y-75825773D01*
X100544355Y-75814900D01*
X100510870Y-75753577D01*
X100508036Y-75727219D01*
X100508036Y-74648089D01*
X100527721Y-74581050D01*
X100544355Y-74560408D01*
X100646512Y-74458251D01*
X100707835Y-74424766D01*
X100734193Y-74421932D01*
X100959375Y-74421932D01*
X101026414Y-74441617D01*
G37*
%TD.AperFunction*%
%TD*%
%TA.AperFunction,Conductor*%
%TO.N,GND*%
G36*
X98778037Y-72468088D02*
G01*
X98782690Y-72472305D01*
X99088160Y-72777776D01*
X99388291Y-73077907D01*
X99407036Y-73123162D01*
X99407036Y-73932358D01*
X99407037Y-73932364D01*
X99409951Y-73957491D01*
X99419047Y-73978092D01*
X99424500Y-74003941D01*
X99424500Y-74507266D01*
X99405755Y-74552521D01*
X99402413Y-74555632D01*
X99401952Y-74556031D01*
X99317118Y-74653936D01*
X99317116Y-74653939D01*
X99263303Y-74771771D01*
X99244867Y-74900000D01*
X99263303Y-75028228D01*
X99317116Y-75146060D01*
X99317118Y-75146063D01*
X99394969Y-75235910D01*
X99401951Y-75243967D01*
X99510931Y-75314004D01*
X99635228Y-75350500D01*
X99635229Y-75350500D01*
X99764771Y-75350500D01*
X99764772Y-75350500D01*
X99889069Y-75314004D01*
X99978435Y-75256571D01*
X100026640Y-75247875D01*
X100066876Y-75275811D01*
X100077036Y-75310412D01*
X100077036Y-75709948D01*
X100058291Y-75755203D01*
X100013036Y-75773948D01*
X99995006Y-75771356D01*
X99947330Y-75757358D01*
X99922308Y-75750011D01*
X99792764Y-75750011D01*
X99668467Y-75786507D01*
X99668465Y-75786507D01*
X99559487Y-75856543D01*
X99559485Y-75856545D01*
X99474654Y-75954447D01*
X99474652Y-75954450D01*
X99420839Y-76072282D01*
X99402403Y-76200511D01*
X99420839Y-76328739D01*
X99474652Y-76446571D01*
X99474654Y-76446574D01*
X99559485Y-76544476D01*
X99559489Y-76544480D01*
X99602263Y-76571968D01*
X99630200Y-76612204D01*
X99621504Y-76660409D01*
X99593515Y-76684355D01*
X99534774Y-76710292D01*
X99534771Y-76710294D01*
X99455330Y-76789735D01*
X99409951Y-76892509D01*
X99407036Y-76917635D01*
X99407036Y-77594226D01*
X99388291Y-77639481D01*
X99177929Y-77849844D01*
X99117308Y-77910464D01*
X99084500Y-77989669D01*
X99084500Y-78214673D01*
X99065755Y-78259928D01*
X99046351Y-78273219D01*
X98950859Y-78315384D01*
X98875384Y-78390859D01*
X98875384Y-78390860D01*
X98832270Y-78488501D01*
X98829500Y-78512376D01*
X98829500Y-78867616D01*
X98829501Y-78867625D01*
X98830963Y-78880227D01*
X98832270Y-78891498D01*
X98875384Y-78989141D01*
X98950859Y-79064616D01*
X99048502Y-79107730D01*
X99072377Y-79110500D01*
X99352678Y-79110499D01*
X99397933Y-79129244D01*
X99416678Y-79174499D01*
X99416027Y-79183607D01*
X99408694Y-79234608D01*
X99383699Y-79276735D01*
X99345345Y-79289500D01*
X99072383Y-79289500D01*
X99072374Y-79289501D01*
X99048502Y-79292270D01*
X98950859Y-79335384D01*
X98875384Y-79410859D01*
X98875384Y-79410860D01*
X98832270Y-79508501D01*
X98829500Y-79532376D01*
X98829500Y-79887616D01*
X98829501Y-79887622D01*
X98832270Y-79911498D01*
X98875384Y-80009141D01*
X98950859Y-80084616D01*
X98960461Y-80088855D01*
X98966345Y-80091454D01*
X99000172Y-80126881D01*
X98999039Y-80175852D01*
X98966345Y-80208546D01*
X98950862Y-80215382D01*
X98950859Y-80215384D01*
X98875384Y-80290859D01*
X98875384Y-80290860D01*
X98832270Y-80388501D01*
X98829500Y-80412376D01*
X98829500Y-80767616D01*
X98829501Y-80767625D01*
X98830473Y-80776006D01*
X98832270Y-80791498D01*
X98875384Y-80889141D01*
X98950859Y-80964616D01*
X99048502Y-81007730D01*
X99072377Y-81010500D01*
X99527622Y-81010499D01*
X99551498Y-81007730D01*
X99649141Y-80964616D01*
X99724616Y-80889141D01*
X99767730Y-80791498D01*
X99770500Y-80767623D01*
X99770499Y-80450771D01*
X99789243Y-80405518D01*
X100235246Y-79959516D01*
X100280500Y-79940772D01*
X100325755Y-79959517D01*
X100344500Y-80004772D01*
X100344500Y-80776006D01*
X100348053Y-80809052D01*
X100348055Y-80809063D01*
X100359259Y-80860564D01*
X100359260Y-80860567D01*
X100393686Y-80929341D01*
X100393687Y-80929342D01*
X100439442Y-80982146D01*
X100444420Y-80987621D01*
X100513150Y-81029516D01*
X100580189Y-81049201D01*
X100624000Y-81055500D01*
X100624003Y-81055500D01*
X102575991Y-81055500D01*
X102576000Y-81055500D01*
X102609055Y-81051946D01*
X102660566Y-81040740D01*
X102729342Y-81006313D01*
X102782146Y-80960558D01*
X102787621Y-80955580D01*
X102829516Y-80886850D01*
X102849201Y-80819811D01*
X102855500Y-80776000D01*
X102855500Y-78214944D01*
X102874245Y-78169689D01*
X102919500Y-78150944D01*
X102964753Y-78169688D01*
X103034771Y-78239706D01*
X103034772Y-78239706D01*
X103034773Y-78239707D01*
X103039668Y-78243061D01*
X103038041Y-78245434D01*
X103064799Y-78273449D01*
X103066532Y-78314607D01*
X103050799Y-78368188D01*
X103047540Y-78390859D01*
X103044500Y-78412001D01*
X103044500Y-80976006D01*
X103048053Y-81009052D01*
X103048055Y-81009063D01*
X103059259Y-81060564D01*
X103059260Y-81060567D01*
X103093686Y-81129341D01*
X103093687Y-81129342D01*
X103139442Y-81182146D01*
X103144420Y-81187621D01*
X103213150Y-81229516D01*
X103280189Y-81249201D01*
X103324000Y-81255500D01*
X103324003Y-81255500D01*
X105520491Y-81255500D01*
X105520500Y-81255500D01*
X105553555Y-81251946D01*
X105605066Y-81240740D01*
X105673842Y-81206313D01*
X105680332Y-81200688D01*
X105726808Y-81185219D01*
X105755553Y-81194407D01*
X105813150Y-81229516D01*
X105880189Y-81249201D01*
X105924000Y-81255500D01*
X105924003Y-81255500D01*
X110274867Y-81255500D01*
X110274874Y-81255500D01*
X110307945Y-81251943D01*
X110321332Y-81249029D01*
X110369538Y-81257718D01*
X110397481Y-81297950D01*
X110398946Y-81311550D01*
X110399442Y-83555486D01*
X110380707Y-83600745D01*
X110335456Y-83619500D01*
X98159506Y-83619500D01*
X98114251Y-83600755D01*
X98113938Y-83600000D01*
X105400000Y-83600000D01*
X107900000Y-83600000D01*
X107900000Y-82600000D01*
X108644751Y-82600000D01*
X108663688Y-82768064D01*
X108719544Y-82927691D01*
X108719546Y-82927695D01*
X108809521Y-83070887D01*
X108809523Y-83070890D01*
X108929110Y-83190477D01*
X108929112Y-83190478D01*
X109072304Y-83280453D01*
X109072308Y-83280455D01*
X109072310Y-83280456D01*
X109231941Y-83336313D01*
X109400000Y-83355249D01*
X109568059Y-83336313D01*
X109727690Y-83280456D01*
X109870890Y-83190477D01*
X109990477Y-83070890D01*
X110080456Y-82927690D01*
X110136313Y-82768059D01*
X110155249Y-82600000D01*
X110136313Y-82431941D01*
X110080456Y-82272310D01*
X110080455Y-82272308D01*
X110080453Y-82272304D01*
X109990478Y-82129112D01*
X109990477Y-82129110D01*
X109870890Y-82009523D01*
X109855577Y-81999901D01*
X109727695Y-81919546D01*
X109727691Y-81919544D01*
X109568064Y-81863688D01*
X109568060Y-81863687D01*
X109568059Y-81863687D01*
X109400000Y-81844751D01*
X109231941Y-81863687D01*
X109231939Y-81863687D01*
X109231935Y-81863688D01*
X109072308Y-81919544D01*
X109072304Y-81919546D01*
X108929112Y-82009521D01*
X108809521Y-82129112D01*
X108719546Y-82272304D01*
X108719544Y-82272308D01*
X108663688Y-82431935D01*
X108644751Y-82600000D01*
X107900000Y-82600000D01*
X107900000Y-81300000D01*
X105400000Y-81300000D01*
X105400000Y-83600000D01*
X98113938Y-83600000D01*
X98095506Y-83555507D01*
X98095333Y-81999901D01*
X98095270Y-81432376D01*
X98829500Y-81432376D01*
X98829500Y-81787616D01*
X98829501Y-81787622D01*
X98832270Y-81811498D01*
X98875384Y-81909141D01*
X98950859Y-81984616D01*
X99048502Y-82027730D01*
X99072377Y-82030500D01*
X99527622Y-82030499D01*
X99551498Y-82027730D01*
X99649141Y-81984616D01*
X99724616Y-81909141D01*
X99744703Y-81863647D01*
X99780129Y-81829822D01*
X99803249Y-81825500D01*
X100625844Y-81825500D01*
X100671099Y-81844245D01*
X100689844Y-81889500D01*
X100682287Y-81919667D01*
X100647573Y-81984615D01*
X100631187Y-82015271D01*
X100631186Y-82015271D01*
X100573975Y-82203867D01*
X100554659Y-82400000D01*
X100573975Y-82596132D01*
X100631187Y-82784730D01*
X100707601Y-82927690D01*
X100724090Y-82958538D01*
X100849117Y-83110883D01*
X101001462Y-83235910D01*
X101175273Y-83328814D01*
X101363868Y-83386024D01*
X101363866Y-83386024D01*
X101396142Y-83389202D01*
X101560000Y-83405341D01*
X101756132Y-83386024D01*
X101944727Y-83328814D01*
X102118538Y-83235910D01*
X102270883Y-83110883D01*
X102395910Y-82958538D01*
X102488814Y-82784727D01*
X102546024Y-82596132D01*
X102565341Y-82400000D01*
X103094659Y-82400000D01*
X103113975Y-82596132D01*
X103171187Y-82784730D01*
X103247601Y-82927690D01*
X103264090Y-82958538D01*
X103389117Y-83110883D01*
X103541462Y-83235910D01*
X103715273Y-83328814D01*
X103903868Y-83386024D01*
X103903866Y-83386024D01*
X103936142Y-83389202D01*
X104100000Y-83405341D01*
X104296132Y-83386024D01*
X104484727Y-83328814D01*
X104658538Y-83235910D01*
X104810883Y-83110883D01*
X104935910Y-82958538D01*
X105028814Y-82784727D01*
X105086024Y-82596132D01*
X105105341Y-82400000D01*
X105086024Y-82203868D01*
X105028814Y-82015273D01*
X105025739Y-82009521D01*
X104947790Y-81863688D01*
X104935910Y-81841462D01*
X104810883Y-81689117D01*
X104658538Y-81564090D01*
X104658533Y-81564087D01*
X104484730Y-81471187D01*
X104296131Y-81413975D01*
X104296133Y-81413975D01*
X104100000Y-81394659D01*
X103903867Y-81413975D01*
X103715269Y-81471187D01*
X103541466Y-81564087D01*
X103541461Y-81564090D01*
X103389117Y-81689116D01*
X103389116Y-81689117D01*
X103264090Y-81841461D01*
X103264087Y-81841466D01*
X103171187Y-82015269D01*
X103113975Y-82203867D01*
X103094659Y-82400000D01*
X102565341Y-82400000D01*
X102546024Y-82203868D01*
X102488814Y-82015273D01*
X102485739Y-82009521D01*
X102407790Y-81863688D01*
X102395910Y-81841462D01*
X102270883Y-81689117D01*
X102118538Y-81564090D01*
X102118533Y-81564087D01*
X101944730Y-81471187D01*
X101756131Y-81413975D01*
X101756133Y-81413975D01*
X101560000Y-81394659D01*
X101363867Y-81413975D01*
X101175271Y-81471186D01*
X101175271Y-81471187D01*
X101061172Y-81532173D01*
X101012424Y-81536974D01*
X100985748Y-81520985D01*
X100892071Y-81427308D01*
X100812866Y-81394500D01*
X99803249Y-81394500D01*
X99757994Y-81375755D01*
X99744703Y-81356353D01*
X99724616Y-81310859D01*
X99649141Y-81235384D01*
X99551498Y-81192270D01*
X99527623Y-81189500D01*
X99527622Y-81189500D01*
X99072383Y-81189500D01*
X99072374Y-81189501D01*
X99048502Y-81192270D01*
X98950859Y-81235384D01*
X98875384Y-81310859D01*
X98875384Y-81310860D01*
X98832270Y-81408501D01*
X98829500Y-81432376D01*
X98095270Y-81432376D01*
X98094887Y-77984006D01*
X98113627Y-77938750D01*
X98158880Y-77920000D01*
X98762805Y-77920000D01*
X98800723Y-77912456D01*
X98800725Y-77912455D01*
X98843722Y-77883726D01*
X98843726Y-77883722D01*
X98872455Y-77840725D01*
X98872456Y-77840723D01*
X98880000Y-77802805D01*
X98880000Y-77090000D01*
X98377445Y-77090000D01*
X98400000Y-77005826D01*
X98400000Y-76874174D01*
X98377445Y-76790000D01*
X98880000Y-76790000D01*
X98880000Y-76077194D01*
X98872456Y-76039276D01*
X98872455Y-76039274D01*
X98843726Y-75996277D01*
X98843722Y-75996273D01*
X98800725Y-75967544D01*
X98800723Y-75967543D01*
X98762805Y-75960000D01*
X98158656Y-75960000D01*
X98113401Y-75941255D01*
X98094656Y-75896007D01*
X98094609Y-75474595D01*
X98094604Y-75433959D01*
X98113344Y-75388703D01*
X98140026Y-75372709D01*
X98213238Y-75350500D01*
X98284727Y-75328814D01*
X98458538Y-75235910D01*
X98610883Y-75110883D01*
X98735910Y-74958538D01*
X98828814Y-74784727D01*
X98886024Y-74596132D01*
X98905341Y-74400000D01*
X98886024Y-74203868D01*
X98881210Y-74188000D01*
X98866591Y-74139808D01*
X98828814Y-74015273D01*
X98815803Y-73990932D01*
X98735912Y-73841466D01*
X98735909Y-73841461D01*
X98610883Y-73689117D01*
X98610882Y-73689116D01*
X98458538Y-73564090D01*
X98458533Y-73564087D01*
X98284729Y-73471186D01*
X98186685Y-73441445D01*
X98139796Y-73427221D01*
X98101932Y-73396147D01*
X98094375Y-73365987D01*
X98094323Y-72894044D01*
X98113063Y-72848788D01*
X98139745Y-72832794D01*
X98284727Y-72788814D01*
X98458538Y-72695910D01*
X98610883Y-72570883D01*
X98687963Y-72476959D01*
X98731163Y-72453869D01*
X98778037Y-72468088D01*
G37*
%TD.AperFunction*%
%TA.AperFunction,Conductor*%
G36*
X105388502Y-75467730D02*
G01*
X105412377Y-75470500D01*
X105412379Y-75470499D01*
X105412380Y-75470500D01*
X105414181Y-75470604D01*
X105458283Y-75491921D01*
X105474500Y-75534498D01*
X105474500Y-76157866D01*
X105507308Y-76237071D01*
X105542982Y-76272745D01*
X105561727Y-76318000D01*
X105542982Y-76363255D01*
X105497727Y-76382000D01*
X104459633Y-76382000D01*
X104380428Y-76414808D01*
X104080079Y-76715157D01*
X104047271Y-76794362D01*
X104047271Y-77030806D01*
X104028526Y-77076061D01*
X104017872Y-77084646D01*
X103964722Y-77118803D01*
X103964720Y-77118805D01*
X103920403Y-77169951D01*
X103876601Y-77191877D01*
X103830124Y-77176408D01*
X103808198Y-77132606D01*
X103808035Y-77128040D01*
X103808035Y-76917641D01*
X103808035Y-76917636D01*
X103805121Y-76892509D01*
X103759742Y-76789735D01*
X103680301Y-76710294D01*
X103577527Y-76664915D01*
X103552401Y-76662000D01*
X103552399Y-76662000D01*
X103162677Y-76662000D01*
X103162668Y-76662001D01*
X103137542Y-76664915D01*
X103073125Y-76693359D01*
X103034771Y-76710294D01*
X102961258Y-76783807D01*
X102916003Y-76802552D01*
X102870748Y-76783807D01*
X102852369Y-76745386D01*
X102851946Y-76741445D01*
X102840740Y-76689934D01*
X102806313Y-76621158D01*
X102760558Y-76568354D01*
X102755580Y-76562879D01*
X102713684Y-76537340D01*
X102686849Y-76520983D01*
X102657014Y-76512223D01*
X102619811Y-76501299D01*
X102576000Y-76495000D01*
X102575997Y-76495000D01*
X102566785Y-76495000D01*
X102548754Y-76492407D01*
X102453968Y-76464575D01*
X102451800Y-76463897D01*
X102437849Y-76459256D01*
X102393679Y-76449649D01*
X102386342Y-76448053D01*
X102386337Y-76448052D01*
X102386329Y-76448051D01*
X102353304Y-76444500D01*
X102353291Y-76444500D01*
X101896709Y-76444500D01*
X101896695Y-76444500D01*
X101863670Y-76448051D01*
X101863659Y-76448052D01*
X101863658Y-76448053D01*
X101863655Y-76448053D01*
X101863653Y-76448054D01*
X101812145Y-76459258D01*
X101812144Y-76459258D01*
X101798187Y-76463900D01*
X101796023Y-76464578D01*
X101763679Y-76474075D01*
X101701238Y-76492408D01*
X101683210Y-76495000D01*
X101616785Y-76495000D01*
X101598754Y-76492407D01*
X101503968Y-76464575D01*
X101501800Y-76463897D01*
X101487849Y-76459256D01*
X101443679Y-76449649D01*
X101436342Y-76448053D01*
X101436337Y-76448052D01*
X101436329Y-76448051D01*
X101403304Y-76444500D01*
X101403291Y-76444500D01*
X100712036Y-76444500D01*
X100712029Y-76444500D01*
X100678983Y-76448053D01*
X100678981Y-76448053D01*
X100665639Y-76450956D01*
X100617434Y-76442258D01*
X100589498Y-76402021D01*
X100588036Y-76388418D01*
X100588036Y-76200000D01*
X105300000Y-76200000D01*
X105300000Y-75428652D01*
X105388502Y-75467730D01*
G37*
%TD.AperFunction*%
%TA.AperFunction,Conductor*%
G36*
X110030101Y-66516586D02*
G01*
X110041462Y-66525910D01*
X110041463Y-66525910D01*
X110041465Y-66525912D01*
X110083779Y-66548529D01*
X110215273Y-66618814D01*
X110215275Y-66618814D01*
X110215278Y-66618816D01*
X110284284Y-66639748D01*
X110350309Y-66659776D01*
X110388175Y-66690850D01*
X110395732Y-66721006D01*
X110396893Y-71988815D01*
X110378158Y-72034074D01*
X110332907Y-72052829D01*
X110319101Y-72050853D01*
X110319008Y-72051285D01*
X110316780Y-72050799D01*
X110316778Y-72050799D01*
X110272967Y-72044500D01*
X108024000Y-72044500D01*
X108023993Y-72044500D01*
X107990947Y-72048053D01*
X107990936Y-72048055D01*
X107939435Y-72059259D01*
X107939432Y-72059260D01*
X107870658Y-72093686D01*
X107817866Y-72139431D01*
X107812379Y-72144420D01*
X107770483Y-72213150D01*
X107756773Y-72259844D01*
X107750799Y-72280189D01*
X107744500Y-72324000D01*
X107744500Y-74264673D01*
X107746018Y-74284052D01*
X107746398Y-74288899D01*
X107750204Y-74313030D01*
X107738737Y-74360652D01*
X107696955Y-74386219D01*
X107686986Y-74387000D01*
X107612677Y-74387000D01*
X107612668Y-74387001D01*
X107587545Y-74389915D01*
X107587541Y-74389916D01*
X107563226Y-74400652D01*
X107514256Y-74401782D01*
X107492122Y-74387359D01*
X107257639Y-74152876D01*
X107238894Y-74107621D01*
X107256461Y-74065209D01*
X107256389Y-74065160D01*
X107256623Y-74064817D01*
X107257637Y-74062369D01*
X107259742Y-74060265D01*
X107305121Y-73957491D01*
X107308036Y-73932365D01*
X107308035Y-72817636D01*
X107305121Y-72792509D01*
X107259742Y-72689735D01*
X107180301Y-72610294D01*
X107111183Y-72579775D01*
X107077358Y-72544348D01*
X107073036Y-72521229D01*
X107073036Y-72399672D01*
X107073036Y-72399670D01*
X107040228Y-72320465D01*
X106979607Y-72259844D01*
X105802517Y-71082754D01*
X105783772Y-71037499D01*
X105802515Y-70992247D01*
X106705518Y-70089243D01*
X106750773Y-70070499D01*
X106867617Y-70070499D01*
X106867622Y-70070499D01*
X106891498Y-70067730D01*
X106989141Y-70024616D01*
X107064616Y-69949141D01*
X107107730Y-69851498D01*
X107110500Y-69827623D01*
X107110499Y-69421404D01*
X107129244Y-69376150D01*
X107174499Y-69357405D01*
X107182019Y-69357405D01*
X107207469Y-69349932D01*
X107256171Y-69355167D01*
X107286907Y-69393308D01*
X107289500Y-69411339D01*
X107289500Y-69827616D01*
X107289501Y-69827622D01*
X107292270Y-69851498D01*
X107335384Y-69949141D01*
X107410859Y-70024616D01*
X107508502Y-70067730D01*
X107527875Y-70069977D01*
X107570668Y-70093812D01*
X107584500Y-70133551D01*
X107584500Y-70155535D01*
X107565755Y-70200790D01*
X107555101Y-70209375D01*
X107501951Y-70243532D01*
X107501949Y-70243534D01*
X107417118Y-70341436D01*
X107417116Y-70341439D01*
X107363303Y-70459271D01*
X107344867Y-70587500D01*
X107356385Y-70667609D01*
X107357036Y-70676717D01*
X107357036Y-71398277D01*
X107356385Y-71407384D01*
X107344867Y-71487500D01*
X107356385Y-71567616D01*
X107357036Y-71576722D01*
X107357036Y-71657358D01*
X107357037Y-71657367D01*
X107359951Y-71682493D01*
X107382640Y-71733878D01*
X107405330Y-71785265D01*
X107484771Y-71864706D01*
X107587545Y-71910085D01*
X107612671Y-71913000D01*
X107640879Y-71912999D01*
X107658909Y-71915590D01*
X107735228Y-71938000D01*
X107735230Y-71938000D01*
X107864771Y-71938000D01*
X107864772Y-71938000D01*
X107909988Y-71924723D01*
X107941092Y-71915591D01*
X107959122Y-71912999D01*
X108002395Y-71912999D01*
X108002400Y-71912999D01*
X108027527Y-71910085D01*
X108130301Y-71864706D01*
X108209742Y-71785265D01*
X108255121Y-71682491D01*
X108258036Y-71657365D01*
X108258035Y-70542636D01*
X108255121Y-70517509D01*
X108243766Y-70491793D01*
X108238965Y-70475056D01*
X108236697Y-70459274D01*
X108216356Y-70414735D01*
X108182883Y-70341439D01*
X108182881Y-70341436D01*
X108171176Y-70327928D01*
X108098049Y-70243533D01*
X108098048Y-70243532D01*
X108044899Y-70209375D01*
X108016962Y-70169139D01*
X108015500Y-70155535D01*
X108015500Y-70044766D01*
X108034244Y-69999512D01*
X108084616Y-69949141D01*
X108127730Y-69851498D01*
X108130500Y-69827623D01*
X108130499Y-69764325D01*
X108149243Y-69719073D01*
X108194498Y-69700327D01*
X108228050Y-69714224D01*
X108230100Y-69711157D01*
X108324651Y-69774335D01*
X108324653Y-69774336D01*
X108403401Y-69789999D01*
X108450000Y-69789998D01*
X108450000Y-69294000D01*
X108468745Y-69248745D01*
X108514000Y-69230000D01*
X108686000Y-69230000D01*
X108731255Y-69248745D01*
X108750000Y-69294000D01*
X108750000Y-69789999D01*
X108796596Y-69789999D01*
X108796597Y-69789998D01*
X108875344Y-69774336D01*
X108875347Y-69774335D01*
X108964659Y-69714658D01*
X109024335Y-69625348D01*
X109024336Y-69625345D01*
X109037230Y-69560521D01*
X109064443Y-69519792D01*
X109112485Y-69510236D01*
X109153214Y-69537449D01*
X109162770Y-69560521D01*
X109175663Y-69625344D01*
X109175664Y-69625347D01*
X109235341Y-69714659D01*
X109324651Y-69774335D01*
X109324653Y-69774336D01*
X109403401Y-69789999D01*
X109750000Y-69789999D01*
X109796596Y-69789999D01*
X109796597Y-69789998D01*
X109875344Y-69774336D01*
X109875347Y-69774335D01*
X109964659Y-69714658D01*
X110024335Y-69625348D01*
X110024336Y-69625346D01*
X110040000Y-69546597D01*
X110040000Y-69530000D01*
X109750000Y-69530000D01*
X109750000Y-69789999D01*
X109403401Y-69789999D01*
X109450000Y-69789998D01*
X109450000Y-69294000D01*
X109468745Y-69248745D01*
X109514000Y-69230000D01*
X110039999Y-69230000D01*
X110039999Y-69213403D01*
X110039998Y-69213402D01*
X110024336Y-69134655D01*
X110024335Y-69134652D01*
X109964658Y-69045340D01*
X109875348Y-68985664D01*
X109875345Y-68985663D01*
X109822624Y-68975176D01*
X109781896Y-68947962D01*
X109772340Y-68899920D01*
X109799554Y-68859192D01*
X109827737Y-68848833D01*
X109837662Y-68847682D01*
X109937016Y-68803813D01*
X110013813Y-68727016D01*
X110057682Y-68627662D01*
X110060500Y-68603373D01*
X110060499Y-68236628D01*
X110057682Y-68212338D01*
X110013813Y-68112984D01*
X109944245Y-68043416D01*
X109925500Y-67998161D01*
X109925500Y-66566058D01*
X109944245Y-66520803D01*
X109989500Y-66502058D01*
X110030101Y-66516586D01*
G37*
%TD.AperFunction*%
%TA.AperFunction,Conductor*%
G36*
X105381982Y-71271745D02*
G01*
X106597569Y-72487332D01*
X106616314Y-72532587D01*
X106597569Y-72577842D01*
X106578166Y-72591133D01*
X106534771Y-72610294D01*
X106455330Y-72689735D01*
X106409951Y-72792509D01*
X106407036Y-72817635D01*
X106407036Y-73932358D01*
X106407037Y-73932367D01*
X106409951Y-73957492D01*
X106410400Y-73958508D01*
X106436293Y-74017150D01*
X106437424Y-74066119D01*
X106403598Y-74101547D01*
X106377746Y-74107000D01*
X105714917Y-74107000D01*
X105669662Y-74088255D01*
X105650917Y-74043000D01*
X105656370Y-74017149D01*
X105684819Y-73952716D01*
X105687535Y-73929305D01*
X105687536Y-73929303D01*
X105687536Y-73525000D01*
X104827536Y-73525000D01*
X104827536Y-73929305D01*
X104830252Y-73952716D01*
X104858702Y-74017149D01*
X104859833Y-74066120D01*
X104826006Y-74101547D01*
X104800155Y-74107000D01*
X103837326Y-74107000D01*
X103792071Y-74088255D01*
X103773326Y-74043000D01*
X103778778Y-74017151D01*
X103805121Y-73957491D01*
X103808036Y-73932365D01*
X103808035Y-73473236D01*
X103826779Y-73427983D01*
X103832693Y-73422070D01*
X103865500Y-73342865D01*
X103865500Y-73257134D01*
X103865500Y-72820694D01*
X104827536Y-72820694D01*
X104827536Y-73225000D01*
X105107536Y-73225000D01*
X105407536Y-73225000D01*
X105687536Y-73225000D01*
X105687536Y-72820696D01*
X105687535Y-72820694D01*
X105684819Y-72797283D01*
X105642536Y-72701521D01*
X105568514Y-72627499D01*
X105472752Y-72585216D01*
X105449341Y-72582500D01*
X105407536Y-72582500D01*
X105407536Y-73225000D01*
X105107536Y-73225000D01*
X105107536Y-72582500D01*
X105065730Y-72582500D01*
X105042319Y-72585216D01*
X104946557Y-72627499D01*
X104872535Y-72701521D01*
X104830252Y-72797283D01*
X104827536Y-72820694D01*
X103865500Y-72820694D01*
X103865500Y-71899944D01*
X103884245Y-71854689D01*
X103929500Y-71835944D01*
X103974753Y-71854688D01*
X103984771Y-71864706D01*
X104087545Y-71910085D01*
X104112671Y-71913000D01*
X104502400Y-71912999D01*
X104527527Y-71910085D01*
X104630301Y-71864706D01*
X104709742Y-71785265D01*
X104755121Y-71682491D01*
X104758036Y-71657365D01*
X104758036Y-71317000D01*
X104776781Y-71271745D01*
X104822036Y-71253000D01*
X105336727Y-71253000D01*
X105381982Y-71271745D01*
G37*
%TD.AperFunction*%
%TA.AperFunction,Conductor*%
G36*
X98736101Y-53649188D02*
G01*
X98759192Y-53692388D01*
X98759500Y-53698661D01*
X98759500Y-54605366D01*
X98792308Y-54684571D01*
X99580755Y-55473018D01*
X99599500Y-55518273D01*
X99599500Y-56194858D01*
X99599501Y-56194867D01*
X99602415Y-56219993D01*
X99621856Y-56264021D01*
X99647794Y-56322765D01*
X99727235Y-56402206D01*
X99736349Y-56406230D01*
X99770178Y-56441657D01*
X99774500Y-56464778D01*
X99774500Y-56604800D01*
X99802622Y-56672692D01*
X99816443Y-56706058D01*
X100468942Y-57358558D01*
X100521734Y-57380425D01*
X100572089Y-57401283D01*
X100606725Y-57435919D01*
X100606725Y-57484903D01*
X100575358Y-57518077D01*
X100572301Y-57519548D01*
X100429112Y-57609521D01*
X100309521Y-57729112D01*
X100219546Y-57872304D01*
X100219544Y-57872308D01*
X100163688Y-58031935D01*
X100163687Y-58031939D01*
X100163687Y-58031941D01*
X100144751Y-58200000D01*
X100152202Y-58266132D01*
X100163688Y-58368064D01*
X100219544Y-58527691D01*
X100219546Y-58527695D01*
X100289639Y-58639245D01*
X100309523Y-58670890D01*
X100429110Y-58790477D01*
X100429112Y-58790478D01*
X100572304Y-58880453D01*
X100572308Y-58880455D01*
X100572310Y-58880456D01*
X100731941Y-58936313D01*
X100900000Y-58955249D01*
X101068059Y-58936313D01*
X101227690Y-58880456D01*
X101235317Y-58875664D01*
X101274282Y-58851180D01*
X101370890Y-58790477D01*
X101490477Y-58670890D01*
X101580456Y-58527690D01*
X101636313Y-58368059D01*
X101655249Y-58200000D01*
X101636313Y-58031941D01*
X101580456Y-57872310D01*
X101580455Y-57872308D01*
X101580453Y-57872304D01*
X101490478Y-57729112D01*
X101490477Y-57729110D01*
X101370890Y-57609523D01*
X101328469Y-57582868D01*
X101226332Y-57518690D01*
X101197987Y-57478741D01*
X101206192Y-57430450D01*
X101246141Y-57402105D01*
X101260382Y-57400500D01*
X101750052Y-57400500D01*
X101795307Y-57419245D01*
X101814052Y-57464500D01*
X101809181Y-57488990D01*
X101808233Y-57491277D01*
X101799500Y-57535178D01*
X101799500Y-58864821D01*
X101808233Y-58908722D01*
X101808234Y-58908724D01*
X101841494Y-58958502D01*
X101841497Y-58958505D01*
X101862375Y-58972455D01*
X101891278Y-58991767D01*
X101926446Y-58998762D01*
X101935179Y-59000500D01*
X101935180Y-59000500D01*
X102294227Y-59000500D01*
X102339482Y-59019245D01*
X102432881Y-59112644D01*
X102451626Y-59157899D01*
X102451626Y-59200219D01*
X102432881Y-59245474D01*
X102422227Y-59254059D01*
X102369077Y-59288216D01*
X102369075Y-59288218D01*
X102284244Y-59386120D01*
X102284242Y-59386123D01*
X102230429Y-59503955D01*
X102211993Y-59632184D01*
X102230429Y-59760412D01*
X102284242Y-59878244D01*
X102284244Y-59878247D01*
X102367780Y-59974655D01*
X102369077Y-59976151D01*
X102478057Y-60046188D01*
X102602354Y-60082684D01*
X102602355Y-60082684D01*
X102731899Y-60082684D01*
X102761286Y-60074054D01*
X102804294Y-60061427D01*
X102852996Y-60066662D01*
X102857455Y-60070000D01*
X103150000Y-60070000D01*
X103150000Y-59810000D01*
X103135466Y-59795466D01*
X103125297Y-59791254D01*
X103106552Y-59745999D01*
X103107203Y-59736898D01*
X103122259Y-59632184D01*
X103103823Y-59503958D01*
X103101811Y-59499553D01*
X103050009Y-59386123D01*
X103050007Y-59386120D01*
X102965176Y-59288218D01*
X102965174Y-59288216D01*
X102912025Y-59254059D01*
X102884088Y-59213823D01*
X102882626Y-59200219D01*
X102882626Y-58999260D01*
X102864396Y-58955249D01*
X102849819Y-58920056D01*
X102669245Y-58739482D01*
X102650500Y-58694227D01*
X102650500Y-58466597D01*
X103360001Y-58466597D01*
X103375663Y-58545344D01*
X103375664Y-58545347D01*
X103435341Y-58634659D01*
X103524651Y-58694335D01*
X103524653Y-58694336D01*
X103603401Y-58709999D01*
X103650000Y-58709998D01*
X103650000Y-58450000D01*
X103360001Y-58450000D01*
X103360001Y-58466597D01*
X102650500Y-58466597D01*
X102650500Y-57535178D01*
X102645782Y-57511461D01*
X102641767Y-57491278D01*
X102641765Y-57491275D01*
X102640819Y-57488990D01*
X102640819Y-57486514D01*
X102640537Y-57485097D01*
X102640819Y-57485040D01*
X102640820Y-57440007D01*
X102675458Y-57405371D01*
X102699948Y-57400500D01*
X103275501Y-57400500D01*
X103320756Y-57419245D01*
X103339501Y-57464500D01*
X103339501Y-57523372D01*
X103342318Y-57547662D01*
X103386187Y-57647016D01*
X103462984Y-57723813D01*
X103562338Y-57767682D01*
X103572265Y-57768833D01*
X103615057Y-57792667D01*
X103628464Y-57839781D01*
X103604630Y-57882574D01*
X103577376Y-57895177D01*
X103524654Y-57905663D01*
X103524652Y-57905664D01*
X103435340Y-57965341D01*
X103375664Y-58054651D01*
X103375663Y-58054653D01*
X103360000Y-58133402D01*
X103360000Y-58150000D01*
X103886000Y-58150000D01*
X103931255Y-58168745D01*
X103950000Y-58214000D01*
X103950000Y-58709999D01*
X103996596Y-58709999D01*
X103996597Y-58709998D01*
X104075345Y-58694336D01*
X104075346Y-58694335D01*
X104086839Y-58686656D01*
X104134880Y-58677097D01*
X104175611Y-58704308D01*
X104180615Y-58713281D01*
X104198879Y-58753272D01*
X104198881Y-58753276D01*
X104199584Y-58754088D01*
X104199779Y-58754674D01*
X104201356Y-58757127D01*
X104200730Y-58757529D01*
X104215055Y-58800562D01*
X104193132Y-58844366D01*
X104156375Y-58858098D01*
X104156532Y-58859693D01*
X104153402Y-58860001D01*
X104074655Y-58875663D01*
X104074652Y-58875664D01*
X103985340Y-58935341D01*
X103925664Y-59024651D01*
X103925663Y-59024653D01*
X103910000Y-59103402D01*
X103910000Y-59150000D01*
X104406000Y-59150000D01*
X104451255Y-59168745D01*
X104470000Y-59214000D01*
X104470000Y-59738490D01*
X104451255Y-59783745D01*
X104450000Y-59785000D01*
X104450000Y-60281000D01*
X104431255Y-60326255D01*
X104386000Y-60345000D01*
X104214000Y-60345000D01*
X104168745Y-60326255D01*
X104150000Y-60281000D01*
X104150000Y-59786508D01*
X104168745Y-59741253D01*
X104170000Y-59739998D01*
X104170000Y-59450000D01*
X103910001Y-59450000D01*
X103910001Y-59496597D01*
X103925663Y-59575344D01*
X103925664Y-59575347D01*
X103985341Y-59664658D01*
X104027129Y-59692581D01*
X104054342Y-59733309D01*
X104044786Y-59781352D01*
X104027129Y-59799009D01*
X103935341Y-59860340D01*
X103875664Y-59949651D01*
X103875663Y-59949653D01*
X103860283Y-60026978D01*
X103833069Y-60067706D01*
X103785027Y-60077262D01*
X103744299Y-60050048D01*
X103734743Y-60026977D01*
X103724336Y-59974655D01*
X103724335Y-59974652D01*
X103664658Y-59885340D01*
X103575348Y-59825664D01*
X103575346Y-59825663D01*
X103496598Y-59810000D01*
X103450000Y-59810000D01*
X103450000Y-60306000D01*
X103431255Y-60351255D01*
X103386000Y-60370000D01*
X102860001Y-60370000D01*
X102860001Y-60386597D01*
X102875663Y-60465344D01*
X102875664Y-60465347D01*
X102935341Y-60554659D01*
X103024651Y-60614335D01*
X103024653Y-60614336D01*
X103077375Y-60624823D01*
X103118103Y-60652036D01*
X103127659Y-60700079D01*
X103100446Y-60740807D01*
X103072264Y-60751166D01*
X103062355Y-60752316D01*
X103062338Y-60752318D01*
X102962984Y-60796187D01*
X102886187Y-60872984D01*
X102842318Y-60972338D01*
X102839500Y-60996627D01*
X102839500Y-61363366D01*
X102839501Y-61363372D01*
X102842318Y-61387662D01*
X102886187Y-61487016D01*
X102962984Y-61563813D01*
X103061822Y-61607454D01*
X103071670Y-61617767D01*
X103095628Y-61610499D01*
X103314374Y-61610499D01*
X103359629Y-61629244D01*
X103859083Y-62128699D01*
X103872044Y-62147367D01*
X103917117Y-62246062D01*
X103917119Y-62246066D01*
X104001949Y-62343965D01*
X104001951Y-62343967D01*
X104110931Y-62414004D01*
X104142621Y-62423309D01*
X104169845Y-62439461D01*
X104363942Y-62633558D01*
X104434992Y-62662987D01*
X104469628Y-62697623D01*
X104474500Y-62722115D01*
X104474500Y-62748000D01*
X104455755Y-62793255D01*
X104410500Y-62812000D01*
X103666517Y-62812000D01*
X103598210Y-62825587D01*
X103598087Y-62824972D01*
X103582868Y-62828000D01*
X103320976Y-62828000D01*
X103275721Y-62809255D01*
X103267683Y-62797521D01*
X103267164Y-62797877D01*
X103263814Y-62792988D01*
X103263813Y-62792984D01*
X103187016Y-62716187D01*
X103087662Y-62672318D01*
X103087661Y-62672317D01*
X103087657Y-62672316D01*
X103087658Y-62672316D01*
X103077732Y-62671165D01*
X103034939Y-62647329D01*
X103021536Y-62600215D01*
X103045372Y-62557422D01*
X103072625Y-62544821D01*
X103125348Y-62534334D01*
X103214659Y-62474658D01*
X103274335Y-62385348D01*
X103274336Y-62385346D01*
X103290000Y-62306597D01*
X103290000Y-62290000D01*
X102410001Y-62290000D01*
X102410001Y-62306597D01*
X102425663Y-62385344D01*
X102425664Y-62385347D01*
X102485341Y-62474659D01*
X102574651Y-62534335D01*
X102574653Y-62534336D01*
X102627375Y-62544823D01*
X102668103Y-62572036D01*
X102677659Y-62620079D01*
X102650446Y-62660807D01*
X102622264Y-62671166D01*
X102612355Y-62672316D01*
X102612338Y-62672318D01*
X102512984Y-62716187D01*
X102436187Y-62792984D01*
X102432836Y-62797877D01*
X102430698Y-62796412D01*
X102402144Y-62823678D01*
X102379024Y-62828000D01*
X102197431Y-62828000D01*
X102197385Y-62828004D01*
X102181071Y-62828004D01*
X102031930Y-62857668D01*
X102031919Y-62857672D01*
X101991501Y-62874412D01*
X101942518Y-62874410D01*
X101932401Y-62868464D01*
X101932351Y-62868553D01*
X101928169Y-62866160D01*
X101828642Y-62827604D01*
X101828639Y-62827603D01*
X101828638Y-62827603D01*
X101721900Y-62827603D01*
X101721899Y-62827603D01*
X101721895Y-62827604D01*
X101622374Y-62866158D01*
X101622371Y-62866159D01*
X101622370Y-62866160D01*
X101622369Y-62866161D01*
X101603527Y-62881085D01*
X101352336Y-63132277D01*
X101337407Y-63151123D01*
X101298852Y-63250647D01*
X101298851Y-63250653D01*
X101298851Y-63357388D01*
X101298852Y-63357394D01*
X101331586Y-63441891D01*
X101337408Y-63456920D01*
X101352332Y-63475761D01*
X101674239Y-63797667D01*
X101693080Y-63812592D01*
X101792610Y-63851149D01*
X101792611Y-63851149D01*
X101899347Y-63851149D01*
X101899348Y-63851149D01*
X101998878Y-63812592D01*
X102017719Y-63797668D01*
X102268915Y-63546471D01*
X102283840Y-63527630D01*
X102304806Y-63473507D01*
X102324540Y-63422570D01*
X102327502Y-63423717D01*
X102348192Y-63391905D01*
X102396112Y-63381752D01*
X102430620Y-63404195D01*
X102431994Y-63402822D01*
X102436186Y-63407014D01*
X102436187Y-63407016D01*
X102512984Y-63483813D01*
X102612338Y-63527682D01*
X102636627Y-63530500D01*
X103063372Y-63530499D01*
X103087662Y-63527682D01*
X103187016Y-63483813D01*
X103263813Y-63407016D01*
X103263816Y-63407009D01*
X103267164Y-63402123D01*
X103269301Y-63403587D01*
X103297856Y-63376322D01*
X103320976Y-63372000D01*
X103422776Y-63372000D01*
X103468031Y-63390745D01*
X103486776Y-63436000D01*
X103485546Y-63448486D01*
X103474500Y-63504017D01*
X103474500Y-63670982D01*
X103487336Y-63735514D01*
X103477780Y-63783557D01*
X103437052Y-63810770D01*
X103424566Y-63812000D01*
X103397698Y-63812000D01*
X103296442Y-63853942D01*
X102679629Y-64470755D01*
X102634375Y-64489500D01*
X102586632Y-64489500D01*
X102586623Y-64489501D01*
X102562338Y-64492318D01*
X102462984Y-64536187D01*
X102386187Y-64612984D01*
X102342318Y-64712338D01*
X102339500Y-64736627D01*
X102339500Y-65103366D01*
X102339501Y-65103372D01*
X102342318Y-65127662D01*
X102386187Y-65227016D01*
X102462984Y-65303813D01*
X102562338Y-65347682D01*
X102572265Y-65348833D01*
X102615057Y-65372667D01*
X102628464Y-65419781D01*
X102604630Y-65462574D01*
X102577376Y-65475177D01*
X102524654Y-65485663D01*
X102524652Y-65485664D01*
X102435340Y-65545341D01*
X102375664Y-65634651D01*
X102375663Y-65634653D01*
X102360000Y-65713402D01*
X102360000Y-65730000D01*
X103239999Y-65730000D01*
X103239999Y-65713403D01*
X103239998Y-65713402D01*
X103224336Y-65634655D01*
X103224335Y-65634652D01*
X103164658Y-65545340D01*
X103075348Y-65485664D01*
X103075345Y-65485663D01*
X103022624Y-65475176D01*
X102981896Y-65447962D01*
X102972340Y-65399920D01*
X102999554Y-65359192D01*
X103027737Y-65348833D01*
X103037662Y-65347682D01*
X103137016Y-65303813D01*
X103213813Y-65227016D01*
X103257682Y-65127662D01*
X103260500Y-65103373D01*
X103260499Y-64736628D01*
X103257682Y-64712338D01*
X103257681Y-64712336D01*
X103257127Y-64707557D01*
X103259966Y-64707227D01*
X103264961Y-64667849D01*
X103275279Y-64654335D01*
X103365245Y-64564369D01*
X103410500Y-64545625D01*
X103455755Y-64564370D01*
X103474500Y-64609625D01*
X103474500Y-64670983D01*
X103486856Y-64733105D01*
X103486858Y-64733109D01*
X103532851Y-64801944D01*
X103542407Y-64849986D01*
X103532851Y-64873056D01*
X103486858Y-64941890D01*
X103486856Y-64941894D01*
X103474500Y-65004016D01*
X103474500Y-65170983D01*
X103486856Y-65233105D01*
X103486858Y-65233109D01*
X103532851Y-65301944D01*
X103542407Y-65349986D01*
X103532851Y-65373056D01*
X103486858Y-65441890D01*
X103486856Y-65441894D01*
X103474500Y-65504016D01*
X103474500Y-65670983D01*
X103486856Y-65733105D01*
X103486858Y-65733109D01*
X103532851Y-65801944D01*
X103542407Y-65849986D01*
X103532851Y-65873056D01*
X103486858Y-65941890D01*
X103486856Y-65941894D01*
X103474500Y-66004016D01*
X103474500Y-66170983D01*
X103486856Y-66233105D01*
X103486858Y-66233109D01*
X103532851Y-66301944D01*
X103542407Y-66349986D01*
X103532851Y-66373056D01*
X103486858Y-66441890D01*
X103486856Y-66441894D01*
X103476720Y-66492852D01*
X103449506Y-66533580D01*
X103431983Y-66541773D01*
X103408976Y-66548529D01*
X103408972Y-66548530D01*
X103299994Y-66618566D01*
X103299992Y-66618568D01*
X103215161Y-66716470D01*
X103215159Y-66716473D01*
X103161346Y-66834305D01*
X103157349Y-66862111D01*
X103132354Y-66904238D01*
X103084892Y-66916352D01*
X103042765Y-66891357D01*
X103030000Y-66853003D01*
X103030000Y-66787194D01*
X103022456Y-66749276D01*
X103022455Y-66749274D01*
X102993726Y-66706277D01*
X102993722Y-66706273D01*
X102950725Y-66677544D01*
X102950723Y-66677543D01*
X102912805Y-66670000D01*
X102525000Y-66670000D01*
X102525000Y-67750000D01*
X103030000Y-67750000D01*
X103030000Y-67072064D01*
X103048745Y-67026809D01*
X103094000Y-67008064D01*
X103139255Y-67026809D01*
X103157348Y-67062954D01*
X103158658Y-67072064D01*
X103161346Y-67090762D01*
X103215159Y-67208594D01*
X103215161Y-67208597D01*
X103299992Y-67306499D01*
X103303456Y-67309501D01*
X103301758Y-67311460D01*
X103324902Y-67344782D01*
X103316213Y-67392989D01*
X103310736Y-67400307D01*
X103254290Y-67465451D01*
X103254288Y-67465454D01*
X103200475Y-67583286D01*
X103182039Y-67711515D01*
X103200475Y-67839743D01*
X103254288Y-67957575D01*
X103254290Y-67957578D01*
X103333422Y-68048903D01*
X103348891Y-68095380D01*
X103326965Y-68139182D01*
X103319658Y-68144653D01*
X103313537Y-68148586D01*
X103301951Y-68156033D01*
X103301949Y-68156034D01*
X103301949Y-68156035D01*
X103217118Y-68253936D01*
X103217116Y-68253939D01*
X103163303Y-68371771D01*
X103157349Y-68413188D01*
X103132354Y-68455315D01*
X103084892Y-68467429D01*
X103042765Y-68442434D01*
X103030000Y-68404080D01*
X103030000Y-68050000D01*
X102525000Y-68050000D01*
X102525000Y-69130000D01*
X102912805Y-69130000D01*
X102950723Y-69122456D01*
X102950725Y-69122455D01*
X102993722Y-69093726D01*
X102993726Y-69093722D01*
X103022455Y-69050725D01*
X103022456Y-69050723D01*
X103030000Y-69012805D01*
X103030000Y-68595919D01*
X103048745Y-68550664D01*
X103094000Y-68531919D01*
X103139255Y-68550664D01*
X103157348Y-68586809D01*
X103158658Y-68595919D01*
X103163303Y-68628228D01*
X103217116Y-68746060D01*
X103217118Y-68746063D01*
X103264472Y-68800714D01*
X103301951Y-68843967D01*
X103410931Y-68914004D01*
X103535228Y-68950500D01*
X103535229Y-68950500D01*
X103664771Y-68950500D01*
X103664772Y-68950500D01*
X103789069Y-68914004D01*
X103898049Y-68843967D01*
X103941033Y-68794359D01*
X103984833Y-68772434D01*
X104031310Y-68787902D01*
X104042614Y-68800714D01*
X104085341Y-68864659D01*
X104174651Y-68924335D01*
X104174654Y-68924336D01*
X104253401Y-68939999D01*
X104270000Y-68939998D01*
X104270000Y-68414000D01*
X104288745Y-68368745D01*
X104334000Y-68350000D01*
X104506000Y-68350000D01*
X104551255Y-68368745D01*
X104570000Y-68414000D01*
X104570000Y-68939999D01*
X104586596Y-68939999D01*
X104586597Y-68939998D01*
X104665344Y-68924336D01*
X104665347Y-68924335D01*
X104754659Y-68864658D01*
X104814335Y-68775348D01*
X104814336Y-68775345D01*
X104824823Y-68722625D01*
X104852036Y-68681896D01*
X104900078Y-68672340D01*
X104940807Y-68699553D01*
X104951166Y-68727735D01*
X104952318Y-68737662D01*
X104996187Y-68837016D01*
X105072984Y-68913813D01*
X105172338Y-68957682D01*
X105196627Y-68960500D01*
X105244373Y-68960499D01*
X105289627Y-68979242D01*
X105450846Y-69140462D01*
X105450847Y-69140462D01*
X105453059Y-69142674D01*
X105471804Y-69187929D01*
X105453060Y-69233183D01*
X105435384Y-69250858D01*
X105435384Y-69250860D01*
X105392270Y-69348501D01*
X105389500Y-69372376D01*
X105389500Y-69689226D01*
X105370755Y-69734481D01*
X105299255Y-69805981D01*
X105254000Y-69824726D01*
X105208745Y-69805981D01*
X105190000Y-69760726D01*
X105190000Y-69750000D01*
X104390000Y-69750000D01*
X104390000Y-69811104D01*
X104396347Y-69843014D01*
X104386791Y-69891057D01*
X104346063Y-69918270D01*
X104333577Y-69919500D01*
X103922133Y-69919500D01*
X103842928Y-69952308D01*
X103467308Y-70327928D01*
X103432088Y-70412958D01*
X103428996Y-70411677D01*
X103408304Y-70442604D01*
X103360255Y-70452131D01*
X103346928Y-70447914D01*
X103311499Y-70432270D01*
X103299560Y-70430885D01*
X103287623Y-70429500D01*
X103287622Y-70429500D01*
X102932383Y-70429500D01*
X102932374Y-70429501D01*
X102908502Y-70432270D01*
X102810859Y-70475384D01*
X102735384Y-70550859D01*
X102728019Y-70567539D01*
X102692270Y-70648501D01*
X102689500Y-70672376D01*
X102689500Y-71127616D01*
X102689501Y-71127622D01*
X102692270Y-71151498D01*
X102735384Y-71249141D01*
X102810859Y-71324616D01*
X102814973Y-71326432D01*
X102817945Y-71327745D01*
X102851772Y-71363173D01*
X102850639Y-71412143D01*
X102826695Y-71440131D01*
X102801949Y-71456034D01*
X102717118Y-71553936D01*
X102717116Y-71553939D01*
X102663303Y-71671771D01*
X102644867Y-71800000D01*
X102663303Y-71928228D01*
X102717116Y-72046060D01*
X102717118Y-72046063D01*
X102798020Y-72139431D01*
X102801951Y-72143967D01*
X102910931Y-72214004D01*
X103035228Y-72250500D01*
X103035229Y-72250500D01*
X103164771Y-72250500D01*
X103164772Y-72250500D01*
X103289069Y-72214004D01*
X103335899Y-72183907D01*
X103384104Y-72175211D01*
X103424340Y-72203147D01*
X103434500Y-72237748D01*
X103434500Y-72498000D01*
X103415755Y-72543255D01*
X103370500Y-72562000D01*
X103162677Y-72562000D01*
X103162668Y-72562001D01*
X103137542Y-72564915D01*
X103078164Y-72591134D01*
X103034771Y-72610294D01*
X102955330Y-72689735D01*
X102952603Y-72695912D01*
X102930893Y-72745080D01*
X102895465Y-72778907D01*
X102846495Y-72777776D01*
X102827091Y-72764484D01*
X102279915Y-72217308D01*
X102200710Y-72184500D01*
X100815773Y-72184500D01*
X100770518Y-72165755D01*
X100627017Y-72022254D01*
X100608272Y-71976999D01*
X100627017Y-71931744D01*
X100672269Y-71912999D01*
X101002400Y-71912999D01*
X101027527Y-71910085D01*
X101130301Y-71864706D01*
X101209742Y-71785265D01*
X101255121Y-71682491D01*
X101258036Y-71657365D01*
X101258035Y-71413260D01*
X101276780Y-71368006D01*
X101322035Y-71349261D01*
X101331145Y-71349913D01*
X101335227Y-71350500D01*
X101335228Y-71350500D01*
X101464771Y-71350500D01*
X101464772Y-71350500D01*
X101589069Y-71314004D01*
X101662065Y-71267091D01*
X101710270Y-71258395D01*
X101741918Y-71275675D01*
X101790859Y-71324616D01*
X101888502Y-71367730D01*
X101912377Y-71370500D01*
X102267622Y-71370499D01*
X102291498Y-71367730D01*
X102389141Y-71324616D01*
X102464616Y-71249141D01*
X102507730Y-71151498D01*
X102510500Y-71127623D01*
X102510499Y-70672378D01*
X102507730Y-70648502D01*
X102464616Y-70550859D01*
X102389141Y-70475384D01*
X102291498Y-70432270D01*
X102267623Y-70429500D01*
X102267622Y-70429500D01*
X101912383Y-70429500D01*
X101912374Y-70429501D01*
X101888502Y-70432270D01*
X101790859Y-70475384D01*
X101790858Y-70475384D01*
X101741919Y-70524323D01*
X101696664Y-70543067D01*
X101662064Y-70532907D01*
X101589069Y-70485996D01*
X101581430Y-70483753D01*
X101464772Y-70449500D01*
X101335228Y-70449500D01*
X101319878Y-70454006D01*
X101291621Y-70462303D01*
X101242918Y-70457066D01*
X101215046Y-70426747D01*
X101209743Y-70414738D01*
X101209742Y-70414735D01*
X101130301Y-70335294D01*
X101027527Y-70289915D01*
X101002401Y-70287000D01*
X101002399Y-70287000D01*
X100612677Y-70287000D01*
X100612668Y-70287001D01*
X100587542Y-70289915D01*
X100510464Y-70323949D01*
X100484771Y-70335294D01*
X100405330Y-70414735D01*
X100359951Y-70517509D01*
X100357036Y-70542635D01*
X100357036Y-71597763D01*
X100338291Y-71643018D01*
X100293036Y-71661763D01*
X100247781Y-71643018D01*
X98919245Y-70314482D01*
X98900500Y-70269227D01*
X98900500Y-69912805D01*
X100270000Y-69912805D01*
X100277543Y-69950723D01*
X100277544Y-69950725D01*
X100306273Y-69993722D01*
X100306277Y-69993726D01*
X100349274Y-70022455D01*
X100349276Y-70022456D01*
X100387195Y-70030000D01*
X100750000Y-70030000D01*
X101050000Y-70030000D01*
X101412805Y-70030000D01*
X101450723Y-70022456D01*
X101450725Y-70022455D01*
X101493722Y-69993726D01*
X101493726Y-69993722D01*
X101522455Y-69950725D01*
X101522456Y-69950723D01*
X101530000Y-69912805D01*
X101530000Y-69550000D01*
X101050000Y-69550000D01*
X101050000Y-70030000D01*
X100750000Y-70030000D01*
X100750000Y-69550000D01*
X100270000Y-69550000D01*
X100270000Y-69912805D01*
X98900500Y-69912805D01*
X98900500Y-69388895D01*
X104390000Y-69388895D01*
X104390000Y-69450000D01*
X104640000Y-69450000D01*
X104940000Y-69450000D01*
X105190000Y-69450000D01*
X105190000Y-69388895D01*
X105174626Y-69311604D01*
X105174624Y-69311601D01*
X105116056Y-69223946D01*
X105116053Y-69223943D01*
X105028398Y-69165375D01*
X105028395Y-69165373D01*
X104951105Y-69150000D01*
X104940000Y-69150000D01*
X104940000Y-69450000D01*
X104640000Y-69450000D01*
X104640000Y-69150000D01*
X104628895Y-69150000D01*
X104551604Y-69165373D01*
X104551601Y-69165375D01*
X104463946Y-69223943D01*
X104463943Y-69223946D01*
X104405375Y-69311601D01*
X104405373Y-69311604D01*
X104390000Y-69388895D01*
X98900500Y-69388895D01*
X98900500Y-69194000D01*
X98919245Y-69148745D01*
X98964500Y-69130000D01*
X99275000Y-69130000D01*
X99575000Y-69130000D01*
X99962805Y-69130000D01*
X100000723Y-69122456D01*
X100000725Y-69122455D01*
X100043722Y-69093726D01*
X100043726Y-69093722D01*
X100072455Y-69050725D01*
X100072456Y-69050723D01*
X100080000Y-69012805D01*
X100080000Y-68887194D01*
X100270000Y-68887194D01*
X100270000Y-69250000D01*
X100750000Y-69250000D01*
X101050000Y-69250000D01*
X101530000Y-69250000D01*
X101530000Y-69012805D01*
X101720000Y-69012805D01*
X101727543Y-69050723D01*
X101727544Y-69050725D01*
X101756273Y-69093722D01*
X101756277Y-69093726D01*
X101799274Y-69122455D01*
X101799276Y-69122456D01*
X101837195Y-69130000D01*
X102225000Y-69130000D01*
X102225000Y-68050000D01*
X101720000Y-68050000D01*
X101720000Y-69012805D01*
X101530000Y-69012805D01*
X101530000Y-68887194D01*
X101522456Y-68849276D01*
X101522455Y-68849274D01*
X101493726Y-68806277D01*
X101493722Y-68806273D01*
X101450725Y-68777544D01*
X101450723Y-68777543D01*
X101412805Y-68770000D01*
X101050000Y-68770000D01*
X101050000Y-69250000D01*
X100750000Y-69250000D01*
X100750000Y-68770000D01*
X100387195Y-68770000D01*
X100349276Y-68777543D01*
X100349274Y-68777544D01*
X100306277Y-68806273D01*
X100306273Y-68806277D01*
X100277544Y-68849274D01*
X100277543Y-68849276D01*
X100270000Y-68887194D01*
X100080000Y-68887194D01*
X100080000Y-68050000D01*
X99575000Y-68050000D01*
X99575000Y-69130000D01*
X99275000Y-69130000D01*
X99275000Y-67750000D01*
X99575000Y-67750000D01*
X100080000Y-67750000D01*
X100080000Y-66787194D01*
X100072456Y-66749276D01*
X100072455Y-66749274D01*
X100043726Y-66706277D01*
X100043722Y-66706273D01*
X100000725Y-66677544D01*
X100000723Y-66677543D01*
X99962805Y-66670000D01*
X99575000Y-66670000D01*
X99575000Y-67750000D01*
X99275000Y-67750000D01*
X99275000Y-66670000D01*
X98964500Y-66670000D01*
X98919245Y-66651255D01*
X98900500Y-66606000D01*
X98900500Y-66530773D01*
X98919245Y-66485518D01*
X99033328Y-66371435D01*
X99147692Y-66257071D01*
X99180500Y-66177866D01*
X99180500Y-65885178D01*
X100249500Y-65885178D01*
X100249500Y-66914821D01*
X100258233Y-66958722D01*
X100258234Y-66958724D01*
X100291494Y-67008502D01*
X100291497Y-67008505D01*
X100339569Y-67040625D01*
X100341278Y-67041767D01*
X100376446Y-67048762D01*
X100385179Y-67050500D01*
X100385180Y-67050500D01*
X101414821Y-67050500D01*
X101422104Y-67049050D01*
X101458722Y-67041767D01*
X101508504Y-67008504D01*
X101541767Y-66958722D01*
X101550500Y-66914820D01*
X101550500Y-66787194D01*
X101720000Y-66787194D01*
X101720000Y-67750000D01*
X102225000Y-67750000D01*
X102225000Y-66670000D01*
X101837195Y-66670000D01*
X101799276Y-66677543D01*
X101799274Y-66677544D01*
X101756277Y-66706273D01*
X101756273Y-66706277D01*
X101727544Y-66749274D01*
X101727543Y-66749276D01*
X101720000Y-66787194D01*
X101550500Y-66787194D01*
X101550500Y-66046597D01*
X102360001Y-66046597D01*
X102375663Y-66125344D01*
X102375664Y-66125347D01*
X102435341Y-66214659D01*
X102524651Y-66274335D01*
X102524653Y-66274336D01*
X102603401Y-66289999D01*
X102950000Y-66289999D01*
X102996596Y-66289999D01*
X102996597Y-66289998D01*
X103075344Y-66274336D01*
X103075347Y-66274335D01*
X103164659Y-66214658D01*
X103224335Y-66125348D01*
X103224336Y-66125346D01*
X103240000Y-66046597D01*
X103240000Y-66030000D01*
X102950000Y-66030000D01*
X102950000Y-66289999D01*
X102603401Y-66289999D01*
X102650000Y-66289998D01*
X102650000Y-66030000D01*
X102360001Y-66030000D01*
X102360001Y-66046597D01*
X101550500Y-66046597D01*
X101550500Y-65885180D01*
X101541767Y-65841278D01*
X101508504Y-65791496D01*
X101508502Y-65791494D01*
X101458724Y-65758234D01*
X101458722Y-65758233D01*
X101414821Y-65749500D01*
X101414820Y-65749500D01*
X101187385Y-65749500D01*
X101142130Y-65730755D01*
X101123385Y-65685500D01*
X101123385Y-64635769D01*
X101142130Y-64590514D01*
X101175634Y-64572857D01*
X101178095Y-64572397D01*
X101178100Y-64572397D01*
X101178104Y-64572395D01*
X101178106Y-64572395D01*
X101203697Y-64562480D01*
X101277630Y-64533840D01*
X101296471Y-64518916D01*
X101547667Y-64267719D01*
X101562592Y-64248878D01*
X101601149Y-64149348D01*
X101601149Y-64042610D01*
X101562592Y-63943080D01*
X101547668Y-63924239D01*
X101225761Y-63602333D01*
X101206920Y-63587408D01*
X101206918Y-63587407D01*
X101107394Y-63548852D01*
X101107391Y-63548851D01*
X101107390Y-63548851D01*
X101000652Y-63548851D01*
X101000651Y-63548851D01*
X101000647Y-63548852D01*
X100901126Y-63587406D01*
X100901123Y-63587407D01*
X100901122Y-63587408D01*
X100901121Y-63587409D01*
X100882279Y-63602333D01*
X100631088Y-63853525D01*
X100616159Y-63872371D01*
X100577604Y-63971895D01*
X100577603Y-63971901D01*
X100577603Y-64078636D01*
X100577604Y-64078642D01*
X100616158Y-64178163D01*
X100616160Y-64178168D01*
X100616163Y-64178171D01*
X100618552Y-64182347D01*
X100616670Y-64183423D01*
X100628029Y-64223339D01*
X100625368Y-64235602D01*
X100592497Y-64337569D01*
X100592494Y-64337580D01*
X100588996Y-64359562D01*
X100584922Y-64373991D01*
X100579385Y-64387360D01*
X100579385Y-64415027D01*
X100578597Y-64425037D01*
X100575231Y-64446292D01*
X100578209Y-64461611D01*
X100579385Y-64473824D01*
X100579385Y-65685500D01*
X100560640Y-65730755D01*
X100515385Y-65749500D01*
X100385179Y-65749500D01*
X100341277Y-65758233D01*
X100341275Y-65758234D01*
X100291497Y-65791494D01*
X100291494Y-65791497D01*
X100258234Y-65841275D01*
X100258233Y-65841277D01*
X100249500Y-65885178D01*
X99180500Y-65885178D01*
X99180500Y-61836760D01*
X99199245Y-61791505D01*
X99244500Y-61772760D01*
X99256988Y-61773990D01*
X99287196Y-61780000D01*
X99862805Y-61780000D01*
X99900723Y-61772456D01*
X99900725Y-61772455D01*
X99943722Y-61743726D01*
X99943726Y-61743722D01*
X99972455Y-61700725D01*
X99972456Y-61700723D01*
X99980000Y-61662805D01*
X99980000Y-61617132D01*
X99362868Y-61000000D01*
X99787132Y-61000000D01*
X99979999Y-61192867D01*
X99980000Y-61192867D01*
X99980000Y-61070001D01*
X100994588Y-61070001D01*
X101013024Y-61198229D01*
X101066837Y-61316061D01*
X101066839Y-61316064D01*
X101120444Y-61377929D01*
X101151672Y-61413968D01*
X101260652Y-61484005D01*
X101384949Y-61520501D01*
X101384950Y-61520501D01*
X101514492Y-61520501D01*
X101514493Y-61520501D01*
X101638790Y-61484005D01*
X101700899Y-61444089D01*
X101749104Y-61435393D01*
X101789340Y-61463329D01*
X101799500Y-61497930D01*
X101799500Y-61664821D01*
X101808233Y-61708722D01*
X101808234Y-61708724D01*
X101841494Y-61758502D01*
X101841497Y-61758505D01*
X101865566Y-61774587D01*
X101891278Y-61791767D01*
X101926446Y-61798762D01*
X101935179Y-61800500D01*
X102368881Y-61800500D01*
X102414136Y-61819245D01*
X102432881Y-61864500D01*
X102428008Y-61888994D01*
X102425664Y-61894651D01*
X102410000Y-61973402D01*
X102410000Y-61990000D01*
X102700000Y-61990000D01*
X102700000Y-61730000D01*
X103000000Y-61730000D01*
X103000000Y-61990000D01*
X103289999Y-61990000D01*
X103289999Y-61973403D01*
X103289998Y-61973402D01*
X103274336Y-61894655D01*
X103274335Y-61894652D01*
X103214658Y-61805340D01*
X103125347Y-61745664D01*
X103083145Y-61737269D01*
X103061851Y-61723040D01*
X103059090Y-61725678D01*
X103035970Y-61730000D01*
X103000000Y-61730000D01*
X102700000Y-61730000D01*
X102689745Y-61719745D01*
X102669245Y-61711254D01*
X102650500Y-61665999D01*
X102650500Y-60335178D01*
X102646287Y-60314000D01*
X102641767Y-60291278D01*
X102626711Y-60268745D01*
X102608505Y-60241497D01*
X102608502Y-60241494D01*
X102558724Y-60208234D01*
X102558722Y-60208233D01*
X102514821Y-60199500D01*
X102514820Y-60199500D01*
X102316809Y-60199500D01*
X102292319Y-60194628D01*
X102267866Y-60184500D01*
X102182135Y-60184500D01*
X102157681Y-60194628D01*
X102133192Y-60199500D01*
X101935179Y-60199500D01*
X101891277Y-60208233D01*
X101891275Y-60208234D01*
X101841497Y-60241494D01*
X101841494Y-60241497D01*
X101808234Y-60291275D01*
X101808233Y-60291277D01*
X101799500Y-60335178D01*
X101799500Y-60494226D01*
X101780755Y-60539481D01*
X101685313Y-60634922D01*
X101640058Y-60653667D01*
X101622028Y-60651075D01*
X101540155Y-60627036D01*
X101514493Y-60619501D01*
X101384949Y-60619501D01*
X101260652Y-60655997D01*
X101260650Y-60655997D01*
X101151672Y-60726033D01*
X101151670Y-60726035D01*
X101066839Y-60823937D01*
X101066837Y-60823940D01*
X101013024Y-60941772D01*
X100994588Y-61070001D01*
X99980000Y-61070001D01*
X99980000Y-60807132D01*
X99979999Y-60807132D01*
X99787132Y-61000000D01*
X99362868Y-61000000D01*
X99170000Y-60807132D01*
X99170000Y-61163355D01*
X99151255Y-61208610D01*
X99106000Y-61227355D01*
X99060745Y-61208610D01*
X98860138Y-61008003D01*
X98841393Y-60962748D01*
X98844147Y-60944175D01*
X98886024Y-60806132D01*
X98905341Y-60610000D01*
X98886024Y-60413868D01*
X98878183Y-60388021D01*
X98867030Y-60351255D01*
X98862765Y-60337194D01*
X99170000Y-60337194D01*
X99170000Y-60382868D01*
X99575000Y-60787868D01*
X99979999Y-60382868D01*
X99980000Y-60382867D01*
X99980000Y-60337194D01*
X99972456Y-60299276D01*
X99972455Y-60299274D01*
X99943726Y-60256277D01*
X99943722Y-60256273D01*
X99900725Y-60227544D01*
X99900723Y-60227543D01*
X99862805Y-60220000D01*
X99287195Y-60220000D01*
X99249276Y-60227543D01*
X99249274Y-60227544D01*
X99206277Y-60256273D01*
X99206273Y-60256277D01*
X99177544Y-60299274D01*
X99177543Y-60299276D01*
X99170000Y-60337194D01*
X98862765Y-60337194D01*
X98828814Y-60225273D01*
X98819706Y-60208234D01*
X98782362Y-60138367D01*
X98735910Y-60051462D01*
X98610883Y-59899117D01*
X98600819Y-59890858D01*
X98458538Y-59774090D01*
X98458533Y-59774087D01*
X98284730Y-59681187D01*
X98138266Y-59636757D01*
X98100402Y-59605682D01*
X98092845Y-59575522D01*
X98092793Y-59104507D01*
X98111533Y-59059251D01*
X98138210Y-59043259D01*
X98284727Y-58998814D01*
X98458538Y-58905910D01*
X98566715Y-58817131D01*
X99170000Y-58817131D01*
X99170000Y-58862805D01*
X99177543Y-58900723D01*
X99177544Y-58900725D01*
X99206273Y-58943722D01*
X99206277Y-58943726D01*
X99249274Y-58972455D01*
X99249276Y-58972456D01*
X99287195Y-58980000D01*
X99862805Y-58980000D01*
X99900723Y-58972456D01*
X99900725Y-58972455D01*
X99943722Y-58943726D01*
X99943726Y-58943722D01*
X99972455Y-58900725D01*
X99972456Y-58900723D01*
X99980000Y-58862805D01*
X99980000Y-58817132D01*
X99575000Y-58412132D01*
X99170000Y-58817131D01*
X98566715Y-58817131D01*
X98610883Y-58780883D01*
X98735910Y-58628538D01*
X98828814Y-58454727D01*
X98847579Y-58392867D01*
X99170000Y-58392867D01*
X99362868Y-58200000D01*
X99787132Y-58200000D01*
X99979999Y-58392867D01*
X99980000Y-58392867D01*
X99980000Y-58007132D01*
X99979999Y-58007132D01*
X99787132Y-58200000D01*
X99362868Y-58200000D01*
X99170000Y-58007132D01*
X99170000Y-58392867D01*
X98847579Y-58392867D01*
X98886024Y-58266132D01*
X98905341Y-58070000D01*
X98887083Y-57884616D01*
X98886024Y-57873867D01*
X98866389Y-57809140D01*
X98828814Y-57685273D01*
X98749664Y-57537194D01*
X99170000Y-57537194D01*
X99170000Y-57582868D01*
X99575000Y-57987868D01*
X99979999Y-57582868D01*
X99980000Y-57582867D01*
X99980000Y-57537194D01*
X99972456Y-57499276D01*
X99972455Y-57499274D01*
X99943726Y-57456277D01*
X99943722Y-57456273D01*
X99900725Y-57427544D01*
X99900723Y-57427543D01*
X99862805Y-57420000D01*
X99287195Y-57420000D01*
X99249276Y-57427543D01*
X99249274Y-57427544D01*
X99206277Y-57456273D01*
X99206273Y-57456277D01*
X99177544Y-57499274D01*
X99177543Y-57499276D01*
X99170000Y-57537194D01*
X98749664Y-57537194D01*
X98735910Y-57511462D01*
X98610883Y-57359117D01*
X98578300Y-57332377D01*
X98458538Y-57234090D01*
X98458533Y-57234087D01*
X98284730Y-57141187D01*
X98137984Y-57096671D01*
X98100120Y-57065596D01*
X98092563Y-57035436D01*
X98092511Y-56564593D01*
X98111251Y-56519337D01*
X98137930Y-56503344D01*
X98284727Y-56458814D01*
X98458538Y-56365910D01*
X98610883Y-56240883D01*
X98735910Y-56088538D01*
X98828814Y-55914727D01*
X98886024Y-55726132D01*
X98905341Y-55530000D01*
X98886024Y-55333868D01*
X98828814Y-55145273D01*
X98821889Y-55132318D01*
X98772241Y-55039432D01*
X98735910Y-54971462D01*
X98610883Y-54819117D01*
X98458538Y-54694090D01*
X98458533Y-54694087D01*
X98284730Y-54601187D01*
X98137702Y-54556586D01*
X98099838Y-54525511D01*
X98092281Y-54495351D01*
X98092229Y-54024679D01*
X98110969Y-53979423D01*
X98137650Y-53963429D01*
X98284727Y-53918814D01*
X98458538Y-53825910D01*
X98610883Y-53700883D01*
X98646027Y-53658059D01*
X98689227Y-53634969D01*
X98736101Y-53649188D01*
G37*
%TD.AperFunction*%
%TA.AperFunction,Conductor*%
G36*
X108031255Y-60268745D02*
G01*
X108050000Y-60314000D01*
X108050000Y-60930000D01*
X108320500Y-60930000D01*
X108365755Y-60948745D01*
X108384500Y-60994000D01*
X108384500Y-60996727D01*
X108365755Y-61041982D01*
X107854167Y-61553569D01*
X107808912Y-61572314D01*
X107763657Y-61553569D01*
X107745564Y-61517424D01*
X107739044Y-61472071D01*
X107732222Y-61457134D01*
X107685230Y-61354236D01*
X107685228Y-61354233D01*
X107671485Y-61338373D01*
X107600396Y-61256330D01*
X107600395Y-61256329D01*
X107491417Y-61186293D01*
X107413294Y-61163355D01*
X107383918Y-61154729D01*
X107345779Y-61123994D01*
X107340542Y-61075291D01*
X107356696Y-61048067D01*
X107417690Y-60987073D01*
X107417692Y-60987071D01*
X107423993Y-60971860D01*
X107424967Y-60969509D01*
X107459603Y-60934872D01*
X107484095Y-60930000D01*
X107750000Y-60930000D01*
X107750000Y-60314000D01*
X107768745Y-60268745D01*
X107814000Y-60250000D01*
X107986000Y-60250000D01*
X108031255Y-60268745D01*
G37*
%TD.AperFunction*%
%TA.AperFunction,Conductor*%
G36*
X105901255Y-58919245D02*
G01*
X105920000Y-58964500D01*
X105920000Y-59150000D01*
X107080000Y-59150000D01*
X107080000Y-58964500D01*
X107098745Y-58919245D01*
X107144000Y-58900500D01*
X107169227Y-58900500D01*
X107214482Y-58919245D01*
X107280755Y-58985518D01*
X107299500Y-59030773D01*
X107299500Y-59269227D01*
X107280755Y-59314482D01*
X107157873Y-59437363D01*
X107112618Y-59456108D01*
X107097872Y-59450000D01*
X105920000Y-59450000D01*
X105920000Y-59712805D01*
X105927543Y-59750723D01*
X105927544Y-59750725D01*
X105959777Y-59798966D01*
X105957609Y-59800414D01*
X105972567Y-59836526D01*
X105953822Y-59881781D01*
X105944124Y-59889740D01*
X105941495Y-59891496D01*
X105941494Y-59891497D01*
X105908234Y-59941275D01*
X105908233Y-59941277D01*
X105899936Y-59982987D01*
X105872721Y-60023715D01*
X105837166Y-60034500D01*
X105829158Y-60034500D01*
X105783903Y-60015755D01*
X105770454Y-59992561D01*
X105769674Y-59992906D01*
X105767730Y-59988503D01*
X105767730Y-59988502D01*
X105724616Y-59890859D01*
X105649141Y-59815384D01*
X105636948Y-59810000D01*
X105621050Y-59802980D01*
X105587224Y-59767552D01*
X105588357Y-59718581D01*
X105601646Y-59699182D01*
X105663813Y-59637016D01*
X105707682Y-59537662D01*
X105710500Y-59513373D01*
X105710499Y-59086628D01*
X105707682Y-59062338D01*
X105705401Y-59057174D01*
X105704269Y-59008205D01*
X105718691Y-58986070D01*
X105785519Y-58919244D01*
X105830773Y-58900500D01*
X105856000Y-58900500D01*
X105901255Y-58919245D01*
G37*
%TD.AperFunction*%
%TA.AperFunction,Conductor*%
G36*
X109223962Y-52289188D02*
G01*
X109242707Y-52334443D01*
X109242707Y-53054227D01*
X109267704Y-53179895D01*
X109267705Y-53179897D01*
X109267706Y-53179900D01*
X109275211Y-53198018D01*
X109316741Y-53298283D01*
X109387930Y-53404824D01*
X109478538Y-53495432D01*
X109585079Y-53566621D01*
X109624541Y-53582966D01*
X109703463Y-53615657D01*
X109703466Y-53615657D01*
X109703467Y-53615658D01*
X109819289Y-53638697D01*
X109856276Y-53660866D01*
X109884244Y-53694946D01*
X109889117Y-53700883D01*
X110041462Y-53825910D01*
X110041466Y-53825912D01*
X110215270Y-53918813D01*
X110215272Y-53918813D01*
X110215273Y-53918814D01*
X110347511Y-53958928D01*
X110385376Y-53990003D01*
X110392933Y-54020158D01*
X110393039Y-54499780D01*
X110374304Y-54545039D01*
X110347618Y-54561038D01*
X110215269Y-54601187D01*
X110041466Y-54694087D01*
X110041461Y-54694090D01*
X109889117Y-54819116D01*
X109889116Y-54819117D01*
X109764090Y-54971461D01*
X109764087Y-54971466D01*
X109671187Y-55145269D01*
X109624529Y-55299079D01*
X109593454Y-55336943D01*
X109563285Y-55344500D01*
X109195923Y-55344500D01*
X109150668Y-55325755D01*
X109137377Y-55306353D01*
X109113813Y-55252984D01*
X109037016Y-55176187D01*
X108937662Y-55132318D01*
X108937661Y-55132317D01*
X108937657Y-55132316D01*
X108937658Y-55132316D01*
X108927732Y-55131165D01*
X108884939Y-55107329D01*
X108871536Y-55060215D01*
X108895372Y-55017422D01*
X108922625Y-55004821D01*
X108975348Y-54994334D01*
X109064659Y-54934658D01*
X109124335Y-54845348D01*
X109124336Y-54845346D01*
X109140000Y-54766597D01*
X109140000Y-54750000D01*
X108260001Y-54750000D01*
X108260001Y-54766597D01*
X108275663Y-54845344D01*
X108275664Y-54845347D01*
X108335341Y-54934659D01*
X108424651Y-54994335D01*
X108424653Y-54994336D01*
X108477375Y-55004823D01*
X108518103Y-55032036D01*
X108527659Y-55080079D01*
X108500446Y-55120807D01*
X108472264Y-55131166D01*
X108462355Y-55132316D01*
X108462338Y-55132318D01*
X108362984Y-55176187D01*
X108286187Y-55252984D01*
X108242318Y-55352338D01*
X108239500Y-55376627D01*
X108239500Y-55743366D01*
X108239501Y-55743372D01*
X108242318Y-55767662D01*
X108286187Y-55867016D01*
X108362984Y-55943813D01*
X108418612Y-55968375D01*
X108452438Y-56003801D01*
X108451307Y-56052772D01*
X108418612Y-56085467D01*
X108350862Y-56115382D01*
X108350859Y-56115384D01*
X108275384Y-56190859D01*
X108262521Y-56219991D01*
X108232270Y-56288501D01*
X108229500Y-56312376D01*
X108229500Y-56667616D01*
X108229501Y-56667622D01*
X108232270Y-56691498D01*
X108275384Y-56789141D01*
X108350859Y-56864616D01*
X108448502Y-56907730D01*
X108472377Y-56910500D01*
X108801906Y-56910499D01*
X108847161Y-56929244D01*
X108865906Y-56974499D01*
X108847161Y-57019754D01*
X108796160Y-57070755D01*
X108750905Y-57089500D01*
X108472383Y-57089500D01*
X108472374Y-57089501D01*
X108448502Y-57092270D01*
X108350859Y-57135384D01*
X108275384Y-57210859D01*
X108253827Y-57259680D01*
X108232270Y-57308501D01*
X108229500Y-57332376D01*
X108229500Y-57687616D01*
X108229501Y-57687622D01*
X108232270Y-57711498D01*
X108275384Y-57809141D01*
X108275386Y-57809143D01*
X108275515Y-57809331D01*
X108275557Y-57809532D01*
X108277780Y-57814566D01*
X108276718Y-57815034D01*
X108285625Y-57857259D01*
X108258884Y-57898300D01*
X108222715Y-57909500D01*
X107249772Y-57909500D01*
X107204517Y-57890755D01*
X107185772Y-57845500D01*
X107204517Y-57800245D01*
X107235518Y-57769244D01*
X107280773Y-57750499D01*
X107594859Y-57750499D01*
X107594864Y-57750499D01*
X107619991Y-57747585D01*
X107722765Y-57702206D01*
X107802206Y-57622765D01*
X107847585Y-57519991D01*
X107850500Y-57494865D01*
X107850499Y-56380136D01*
X107847585Y-56355009D01*
X107842094Y-56342574D01*
X107831255Y-56318025D01*
X107802206Y-56252235D01*
X107722765Y-56172794D01*
X107619991Y-56127415D01*
X107594865Y-56124500D01*
X107594863Y-56124500D01*
X107205141Y-56124500D01*
X107205132Y-56124501D01*
X107180006Y-56127415D01*
X107102928Y-56161449D01*
X107077235Y-56172794D01*
X106997794Y-56252235D01*
X106981781Y-56288501D01*
X106972342Y-56309879D01*
X106936914Y-56343705D01*
X106887943Y-56342574D01*
X106855248Y-56309878D01*
X106835000Y-56264021D01*
X106760978Y-56189999D01*
X106665216Y-56147716D01*
X106641805Y-56145000D01*
X106600000Y-56145000D01*
X106600000Y-57023500D01*
X106581255Y-57068755D01*
X106536000Y-57087500D01*
X106364000Y-57087500D01*
X106318745Y-57068755D01*
X106300000Y-57023500D01*
X106300000Y-56145000D01*
X106258194Y-56145000D01*
X106234783Y-56147716D01*
X106139021Y-56189999D01*
X106064999Y-56264021D01*
X106064997Y-56264024D01*
X106044750Y-56309879D01*
X106009323Y-56343706D01*
X105960352Y-56342573D01*
X105927658Y-56309879D01*
X105902206Y-56252235D01*
X105822765Y-56172794D01*
X105719991Y-56127415D01*
X105694865Y-56124500D01*
X105694863Y-56124500D01*
X105305141Y-56124500D01*
X105305132Y-56124501D01*
X105280006Y-56127415D01*
X105202928Y-56161449D01*
X105177235Y-56172794D01*
X105097794Y-56252235D01*
X105052415Y-56355009D01*
X105049500Y-56380135D01*
X105049500Y-56971875D01*
X105030756Y-57017127D01*
X105002129Y-57045754D01*
X104956877Y-57064500D01*
X104269136Y-57064500D01*
X104223881Y-57045755D01*
X104216335Y-57036667D01*
X104213814Y-57032988D01*
X104213813Y-57032984D01*
X104145582Y-56964753D01*
X104126838Y-56919500D01*
X104145583Y-56874245D01*
X104190838Y-56855500D01*
X104375991Y-56855500D01*
X104376000Y-56855500D01*
X104409055Y-56851946D01*
X104460566Y-56840740D01*
X104529342Y-56806313D01*
X104582146Y-56760558D01*
X104587621Y-56755580D01*
X104629516Y-56686850D01*
X104649201Y-56619811D01*
X104655500Y-56576000D01*
X104655500Y-55124000D01*
X104651946Y-55090945D01*
X104640740Y-55039434D01*
X104621001Y-55000000D01*
X104900000Y-55000000D01*
X104900000Y-52814363D01*
X104924500Y-52814363D01*
X104924500Y-53385636D01*
X104935133Y-53458622D01*
X104990174Y-53571211D01*
X105078789Y-53659826D01*
X105140841Y-53690161D01*
X105173265Y-53726877D01*
X105176082Y-53756764D01*
X105169867Y-53799999D01*
X105178527Y-53860232D01*
X105166412Y-53907694D01*
X105160434Y-53914594D01*
X105097794Y-53977235D01*
X105052415Y-54080009D01*
X105049500Y-54105135D01*
X105049500Y-55219858D01*
X105049501Y-55219867D01*
X105052415Y-55244993D01*
X105075104Y-55296378D01*
X105097794Y-55347765D01*
X105177235Y-55427206D01*
X105280009Y-55472585D01*
X105305135Y-55475500D01*
X105694864Y-55475499D01*
X105719991Y-55472585D01*
X105822765Y-55427206D01*
X105902206Y-55347765D01*
X105947585Y-55244991D01*
X105950500Y-55219865D01*
X105950499Y-54586469D01*
X105950501Y-54586449D01*
X105950501Y-54490731D01*
X105950500Y-54490713D01*
X105950500Y-54136156D01*
X105962069Y-54105135D01*
X106949500Y-54105135D01*
X106949500Y-55219858D01*
X106949501Y-55219867D01*
X106952415Y-55244993D01*
X106975104Y-55296378D01*
X106997794Y-55347765D01*
X107077235Y-55427206D01*
X107180009Y-55472585D01*
X107205135Y-55475500D01*
X107594864Y-55475499D01*
X107619991Y-55472585D01*
X107722765Y-55427206D01*
X107802206Y-55347765D01*
X107847585Y-55244991D01*
X107850500Y-55219865D01*
X107850499Y-54433402D01*
X108260000Y-54433402D01*
X108260000Y-54450000D01*
X108550000Y-54450000D01*
X108850000Y-54450000D01*
X109139999Y-54450000D01*
X109139999Y-54433403D01*
X109139998Y-54433402D01*
X109124336Y-54354655D01*
X109124335Y-54354652D01*
X109064658Y-54265340D01*
X108975348Y-54205664D01*
X108975346Y-54205663D01*
X108896598Y-54190000D01*
X108850000Y-54190000D01*
X108850000Y-54450000D01*
X108550000Y-54450000D01*
X108550000Y-54190000D01*
X108549999Y-54189999D01*
X108503403Y-54190000D01*
X108503401Y-54190001D01*
X108424655Y-54205663D01*
X108424652Y-54205664D01*
X108335340Y-54265341D01*
X108275664Y-54354651D01*
X108275663Y-54354653D01*
X108260000Y-54433402D01*
X107850499Y-54433402D01*
X107850499Y-54105136D01*
X107847585Y-54080009D01*
X107802206Y-53977235D01*
X107722765Y-53897794D01*
X107619991Y-53852415D01*
X107594865Y-53849500D01*
X107594863Y-53849500D01*
X107205141Y-53849500D01*
X107205132Y-53849501D01*
X107180006Y-53852415D01*
X107102928Y-53886449D01*
X107077235Y-53897794D01*
X106997794Y-53977235D01*
X106952415Y-54080009D01*
X106949500Y-54105135D01*
X105962069Y-54105135D01*
X105966130Y-54094246D01*
X106007882Y-54046063D01*
X106061697Y-53928226D01*
X106080133Y-53800000D01*
X106061697Y-53671774D01*
X106048041Y-53641874D01*
X106046293Y-53592924D01*
X106057245Y-53575884D01*
X106056744Y-53575527D01*
X106059821Y-53571215D01*
X106059826Y-53571211D01*
X106114866Y-53458625D01*
X106125500Y-53385636D01*
X106125500Y-53383695D01*
X106495000Y-53383695D01*
X106505051Y-53452688D01*
X106505053Y-53452694D01*
X106557089Y-53559135D01*
X106640864Y-53642910D01*
X106747305Y-53694946D01*
X106747311Y-53694948D01*
X106816305Y-53705000D01*
X106925000Y-53705000D01*
X107225000Y-53705000D01*
X107333694Y-53705000D01*
X107402688Y-53694948D01*
X107402694Y-53694946D01*
X107509135Y-53642910D01*
X107592910Y-53559135D01*
X107644946Y-53452694D01*
X107644948Y-53452688D01*
X107655000Y-53383695D01*
X107655000Y-53250000D01*
X107225000Y-53250000D01*
X107225000Y-53705000D01*
X106925000Y-53705000D01*
X106925000Y-53250000D01*
X106495000Y-53250000D01*
X106495000Y-53383695D01*
X106125500Y-53383695D01*
X106125500Y-52816304D01*
X106495000Y-52816304D01*
X106495000Y-52950000D01*
X106925000Y-52950000D01*
X107225000Y-52950000D01*
X107655000Y-52950000D01*
X107655000Y-52816304D01*
X107644948Y-52747311D01*
X107644946Y-52747305D01*
X107592910Y-52640864D01*
X107509135Y-52557089D01*
X107402694Y-52505053D01*
X107402688Y-52505051D01*
X107333696Y-52495000D01*
X107225000Y-52495000D01*
X107225000Y-52950000D01*
X106925000Y-52950000D01*
X106925000Y-52495000D01*
X106816304Y-52495000D01*
X106747311Y-52505051D01*
X106747305Y-52505053D01*
X106640864Y-52557089D01*
X106557089Y-52640864D01*
X106505053Y-52747305D01*
X106505051Y-52747311D01*
X106495000Y-52816304D01*
X106125500Y-52816304D01*
X106125500Y-52814364D01*
X106114866Y-52741375D01*
X106059826Y-52628789D01*
X105971211Y-52540174D01*
X105858625Y-52485134D01*
X105858623Y-52485133D01*
X105858622Y-52485133D01*
X105785637Y-52474500D01*
X105785636Y-52474500D01*
X105264364Y-52474500D01*
X105264363Y-52474500D01*
X105191377Y-52485133D01*
X105078788Y-52540174D01*
X104990174Y-52628788D01*
X104935133Y-52741377D01*
X104924500Y-52814363D01*
X104900000Y-52814363D01*
X104900000Y-52400000D01*
X108500000Y-52400000D01*
X108500000Y-51565226D01*
X109223962Y-52289188D01*
G37*
%TD.AperFunction*%
%TA.AperFunction,Conductor*%
G36*
X99299755Y-52904923D02*
G01*
X99313626Y-52925683D01*
X99317308Y-52934571D01*
X99317309Y-52934572D01*
X99580755Y-53198018D01*
X99599500Y-53243273D01*
X99599500Y-53919858D01*
X99599501Y-53919867D01*
X99602415Y-53944993D01*
X99622290Y-53990003D01*
X99647794Y-54047765D01*
X99727235Y-54127206D01*
X99830009Y-54172585D01*
X99855135Y-54175500D01*
X100244864Y-54175499D01*
X100269991Y-54172585D01*
X100372765Y-54127206D01*
X100389094Y-54110875D01*
X100434346Y-54092130D01*
X100467658Y-54101481D01*
X100513650Y-54129516D01*
X100580689Y-54149201D01*
X100624500Y-54155500D01*
X100727814Y-54155500D01*
X100753664Y-54160953D01*
X100764756Y-54165850D01*
X100780009Y-54172585D01*
X100805135Y-54175500D01*
X101194864Y-54175499D01*
X101219991Y-54172585D01*
X101246336Y-54160952D01*
X101272186Y-54155500D01*
X101375492Y-54155500D01*
X101375501Y-54155500D01*
X101400000Y-54152865D01*
X101400000Y-54844500D01*
X101272186Y-54844500D01*
X101246336Y-54839047D01*
X101219991Y-54827415D01*
X101194865Y-54824500D01*
X101194863Y-54824500D01*
X100805141Y-54824500D01*
X100805132Y-54824501D01*
X100780006Y-54827415D01*
X100702928Y-54861449D01*
X100677235Y-54872794D01*
X100597794Y-54952235D01*
X100597793Y-54952237D01*
X100583545Y-54984503D01*
X100548116Y-55018329D01*
X100499146Y-55017196D01*
X100466453Y-54984502D01*
X100452206Y-54952235D01*
X100372765Y-54872794D01*
X100269991Y-54827415D01*
X100244865Y-54824500D01*
X100244863Y-54824500D01*
X99855141Y-54824500D01*
X99855132Y-54824501D01*
X99830006Y-54827415D01*
X99752928Y-54861449D01*
X99727235Y-54872794D01*
X99703900Y-54896129D01*
X99658645Y-54914873D01*
X99613391Y-54896128D01*
X99209245Y-54491982D01*
X99190500Y-54446727D01*
X99190500Y-52950178D01*
X99209245Y-52904923D01*
X99254500Y-52886178D01*
X99299755Y-52904923D01*
G37*
%TD.AperFunction*%
%TA.AperFunction,Conductor*%
G36*
X110391360Y-46880289D02*
G01*
X110372625Y-46925548D01*
X110345939Y-46941547D01*
X110215269Y-46981187D01*
X110041466Y-47074087D01*
X110041461Y-47074090D01*
X109889117Y-47199116D01*
X109889116Y-47199117D01*
X109764090Y-47351461D01*
X109764087Y-47351466D01*
X109671187Y-47525269D01*
X109613975Y-47713867D01*
X109594659Y-47910000D01*
X109613975Y-48106132D01*
X109671187Y-48294730D01*
X109756492Y-48454323D01*
X109764090Y-48468538D01*
X109889117Y-48620883D01*
X110041462Y-48745910D01*
X110066434Y-48759258D01*
X110215270Y-48838813D01*
X110215272Y-48838813D01*
X110215273Y-48838814D01*
X110346392Y-48878588D01*
X110384257Y-48909662D01*
X110391814Y-48939818D01*
X110391924Y-49441541D01*
X110373189Y-49486800D01*
X110346503Y-49502799D01*
X110223152Y-49540218D01*
X110052911Y-49631214D01*
X110052906Y-49631217D01*
X109903682Y-49753681D01*
X109903681Y-49753682D01*
X109781217Y-49902906D01*
X109781214Y-49902911D01*
X109690217Y-50073155D01*
X109690214Y-50073160D01*
X109634181Y-50257881D01*
X109634179Y-50257889D01*
X109630031Y-50299999D01*
X109630032Y-50300000D01*
X110122555Y-50300000D01*
X110100000Y-50384174D01*
X110100000Y-50515826D01*
X110122555Y-50600000D01*
X109630032Y-50600000D01*
X109634179Y-50642110D01*
X109634181Y-50642118D01*
X109654674Y-50709676D01*
X109649873Y-50758424D01*
X109612008Y-50789498D01*
X109563260Y-50784697D01*
X109548175Y-50773509D01*
X108674245Y-49899579D01*
X108655500Y-49854324D01*
X108655500Y-49049306D01*
X108655497Y-49048292D01*
X108655497Y-49048194D01*
X108655487Y-49046631D01*
X108655115Y-49044207D01*
X108666779Y-48996632D01*
X108708666Y-48971240D01*
X108718374Y-48970499D01*
X108877617Y-48970499D01*
X108877622Y-48970499D01*
X108901498Y-48967730D01*
X108999141Y-48924616D01*
X109074616Y-48849141D01*
X109117730Y-48751498D01*
X109120500Y-48727623D01*
X109120499Y-48272378D01*
X109117730Y-48248502D01*
X109074616Y-48150859D01*
X108999141Y-48075384D01*
X108999138Y-48075382D01*
X108999137Y-48075382D01*
X108966007Y-48060753D01*
X108932180Y-48025325D01*
X108933313Y-47976355D01*
X108966007Y-47943661D01*
X109009141Y-47924616D01*
X109084616Y-47849141D01*
X109127730Y-47751498D01*
X109130500Y-47727623D01*
X109130499Y-47272378D01*
X109127730Y-47248502D01*
X109084616Y-47150859D01*
X109009141Y-47075384D01*
X108934420Y-47042391D01*
X108901145Y-47008336D01*
X108892693Y-46987930D01*
X108503460Y-46598697D01*
X108484715Y-46553442D01*
X108503460Y-46508187D01*
X108508307Y-46504162D01*
X108510261Y-46502207D01*
X108510265Y-46502206D01*
X108541367Y-46471104D01*
X108850000Y-46471104D01*
X108865373Y-46548395D01*
X108865375Y-46548398D01*
X108923943Y-46636053D01*
X108923946Y-46636056D01*
X109011601Y-46694624D01*
X109011604Y-46694626D01*
X109088895Y-46710000D01*
X109150000Y-46710000D01*
X109450000Y-46710000D01*
X109511105Y-46710000D01*
X109588395Y-46694626D01*
X109588398Y-46694624D01*
X109676053Y-46636056D01*
X109676056Y-46636053D01*
X109734624Y-46548398D01*
X109734626Y-46548395D01*
X109750000Y-46471104D01*
X109750000Y-46460000D01*
X109450000Y-46460000D01*
X109450000Y-46710000D01*
X109150000Y-46710000D01*
X109150000Y-46460000D01*
X108850000Y-46460000D01*
X108850000Y-46471104D01*
X108541367Y-46471104D01*
X108589706Y-46422765D01*
X108635085Y-46319991D01*
X108638000Y-46294865D01*
X108638000Y-46148895D01*
X108850000Y-46148895D01*
X108850000Y-46160000D01*
X109150000Y-46160000D01*
X109450000Y-46160000D01*
X109750000Y-46160000D01*
X109750000Y-46148895D01*
X109734626Y-46071604D01*
X109734624Y-46071601D01*
X109676056Y-45983946D01*
X109676053Y-45983943D01*
X109588398Y-45925375D01*
X109588395Y-45925373D01*
X109511105Y-45910000D01*
X109450000Y-45910000D01*
X109450000Y-46160000D01*
X109150000Y-46160000D01*
X109150000Y-45910000D01*
X109088895Y-45910000D01*
X109011604Y-45925373D01*
X109011601Y-45925375D01*
X108923946Y-45983943D01*
X108923943Y-45983946D01*
X108865375Y-46071601D01*
X108865373Y-46071604D01*
X108850000Y-46148895D01*
X108638000Y-46148895D01*
X108637999Y-45905136D01*
X108635085Y-45880009D01*
X108634678Y-45879088D01*
X108622886Y-45852381D01*
X108589706Y-45777235D01*
X108510265Y-45697794D01*
X108421377Y-45658546D01*
X108387551Y-45623119D01*
X108388682Y-45574149D01*
X108421377Y-45541453D01*
X108510265Y-45502206D01*
X108589706Y-45422765D01*
X108635085Y-45319991D01*
X108638000Y-45294865D01*
X108637999Y-45087270D01*
X108656744Y-45042017D01*
X108701999Y-45023272D01*
X108747254Y-45042017D01*
X108810755Y-45105518D01*
X108829500Y-45150773D01*
X108829500Y-45467616D01*
X108829501Y-45467622D01*
X108832270Y-45491498D01*
X108875384Y-45589141D01*
X108950859Y-45664616D01*
X109048502Y-45707730D01*
X109072377Y-45710500D01*
X109527622Y-45710499D01*
X109551498Y-45707730D01*
X109649141Y-45664616D01*
X109724616Y-45589141D01*
X109767730Y-45491498D01*
X109770500Y-45467623D01*
X109770499Y-45112378D01*
X109767730Y-45088502D01*
X109724616Y-44990859D01*
X109649141Y-44915384D01*
X109551498Y-44872270D01*
X109527623Y-44869500D01*
X109210773Y-44869500D01*
X109165518Y-44850755D01*
X109132636Y-44817873D01*
X109113891Y-44772618D01*
X109132636Y-44727363D01*
X109132637Y-44727363D01*
X109150000Y-44710000D01*
X109450000Y-44710000D01*
X109511105Y-44710000D01*
X109588395Y-44694626D01*
X109588398Y-44694624D01*
X109676053Y-44636056D01*
X109676056Y-44636053D01*
X109734624Y-44548398D01*
X109734626Y-44548395D01*
X109750000Y-44471104D01*
X109750000Y-44460000D01*
X109450000Y-44460000D01*
X109450000Y-44710000D01*
X109150000Y-44710000D01*
X109150000Y-44460000D01*
X108839199Y-44460000D01*
X108812378Y-44471108D01*
X108767126Y-44452363D01*
X108656744Y-44341981D01*
X108637999Y-44296726D01*
X108638000Y-44296713D01*
X108638000Y-44148895D01*
X108850000Y-44148895D01*
X108850000Y-44160000D01*
X109150000Y-44160000D01*
X109450000Y-44160000D01*
X109750000Y-44160000D01*
X109750000Y-44148895D01*
X109734626Y-44071604D01*
X109734624Y-44071601D01*
X109676056Y-43983946D01*
X109676053Y-43983943D01*
X109588398Y-43925375D01*
X109588395Y-43925373D01*
X109511105Y-43910000D01*
X109450000Y-43910000D01*
X109450000Y-44160000D01*
X109150000Y-44160000D01*
X109150000Y-43910000D01*
X109088895Y-43910000D01*
X109011604Y-43925373D01*
X109011601Y-43925375D01*
X108923946Y-43983943D01*
X108923943Y-43983946D01*
X108865375Y-44071601D01*
X108865373Y-44071604D01*
X108850000Y-44148895D01*
X108638000Y-44148895D01*
X108637999Y-43905141D01*
X108637999Y-43905136D01*
X108635085Y-43880009D01*
X108589706Y-43777235D01*
X108510265Y-43697794D01*
X108488188Y-43688046D01*
X108454362Y-43652619D01*
X108455493Y-43603649D01*
X108490921Y-43569822D01*
X108514040Y-43565500D01*
X108825454Y-43565500D01*
X108870709Y-43584245D01*
X108871793Y-43585550D01*
X108875383Y-43589140D01*
X108875384Y-43589141D01*
X108950859Y-43664616D01*
X109048502Y-43707730D01*
X109072377Y-43710500D01*
X109527622Y-43710499D01*
X109551498Y-43707730D01*
X109649141Y-43664616D01*
X109724616Y-43589141D01*
X109767730Y-43491498D01*
X109770500Y-43467623D01*
X109770499Y-43112378D01*
X109767730Y-43088502D01*
X109724616Y-42990859D01*
X109649141Y-42915384D01*
X109633655Y-42908546D01*
X109633653Y-42908545D01*
X109599827Y-42873116D01*
X109600960Y-42824146D01*
X109633655Y-42791453D01*
X109649141Y-42784616D01*
X109724616Y-42709141D01*
X109767730Y-42611498D01*
X109770500Y-42587623D01*
X109770499Y-42400000D01*
X110390373Y-42400000D01*
X110391360Y-46880289D01*
G37*
%TD.AperFunction*%
%TA.AperFunction,Conductor*%
G36*
X101489708Y-40864870D02*
G01*
X101489709Y-40913854D01*
X101488797Y-40915949D01*
X101463303Y-40971772D01*
X101444867Y-41100000D01*
X101463303Y-41228228D01*
X101517116Y-41346060D01*
X101517118Y-41346063D01*
X101575499Y-41413440D01*
X101601951Y-41443967D01*
X101710931Y-41514004D01*
X101745292Y-41524093D01*
X101783433Y-41554826D01*
X101788670Y-41603529D01*
X101757936Y-41641671D01*
X101727264Y-41649500D01*
X101692642Y-41649500D01*
X101692632Y-41649501D01*
X101667506Y-41652415D01*
X101590428Y-41686449D01*
X101564735Y-41697794D01*
X101485294Y-41777235D01*
X101439915Y-41880009D01*
X101437000Y-41905135D01*
X101437000Y-42294858D01*
X101437001Y-42294867D01*
X101439915Y-42319993D01*
X101462604Y-42371378D01*
X101485294Y-42422765D01*
X101564735Y-42502206D01*
X101653622Y-42541453D01*
X101687448Y-42576879D01*
X101686317Y-42625850D01*
X101653622Y-42658545D01*
X101564738Y-42697792D01*
X101564735Y-42697794D01*
X101485294Y-42777235D01*
X101439915Y-42880009D01*
X101437000Y-42905135D01*
X101437000Y-43294858D01*
X101437001Y-43294867D01*
X101439915Y-43319993D01*
X101462604Y-43371378D01*
X101485294Y-43422765D01*
X101564735Y-43502206D01*
X101653622Y-43541453D01*
X101687448Y-43576879D01*
X101686317Y-43625850D01*
X101653622Y-43658545D01*
X101564738Y-43697792D01*
X101564735Y-43697794D01*
X101485293Y-43777236D01*
X101481270Y-43786349D01*
X101445843Y-43820178D01*
X101422722Y-43824500D01*
X100923195Y-43824500D01*
X100877940Y-43805755D01*
X100864225Y-43778828D01*
X100862202Y-43779486D01*
X100860646Y-43774702D01*
X100860646Y-43774696D01*
X100803050Y-43661658D01*
X100713342Y-43571950D01*
X100713339Y-43571948D01*
X100713337Y-43571947D01*
X100600309Y-43514356D01*
X100600302Y-43514353D01*
X100544985Y-43505592D01*
X100506519Y-43499500D01*
X100506516Y-43499500D01*
X99493483Y-43499500D01*
X99399699Y-43514353D01*
X99399691Y-43514356D01*
X99286662Y-43571947D01*
X99286660Y-43571948D01*
X99286658Y-43571950D01*
X99196950Y-43661658D01*
X99196948Y-43661660D01*
X99196947Y-43661662D01*
X99139356Y-43774690D01*
X99139353Y-43774697D01*
X99124500Y-43868483D01*
X99124500Y-44431516D01*
X99139353Y-44525300D01*
X99139356Y-44525308D01*
X99196046Y-44636569D01*
X99196950Y-44638342D01*
X99286658Y-44728050D01*
X99286660Y-44728051D01*
X99286661Y-44728052D01*
X99399690Y-44785643D01*
X99399696Y-44785646D01*
X99493481Y-44800500D01*
X100320500Y-44800499D01*
X100365755Y-44819244D01*
X100384500Y-44864499D01*
X100384500Y-44865502D01*
X100365755Y-44910757D01*
X100324201Y-44929395D01*
X100322384Y-44929500D01*
X100298502Y-44932270D01*
X100200859Y-44975384D01*
X100125384Y-45050859D01*
X100110680Y-45084161D01*
X100082270Y-45148501D01*
X100079500Y-45172376D01*
X100079500Y-45627616D01*
X100079501Y-45627622D01*
X100082270Y-45651498D01*
X100125384Y-45749141D01*
X100200859Y-45824616D01*
X100243992Y-45843661D01*
X100277818Y-45879088D01*
X100276687Y-45928058D01*
X100243993Y-45960753D01*
X100217121Y-45972619D01*
X100210859Y-45975384D01*
X100135384Y-46050859D01*
X100126224Y-46071604D01*
X100092270Y-46148501D01*
X100089500Y-46172376D01*
X100089500Y-46627616D01*
X100089501Y-46627622D01*
X100092270Y-46651498D01*
X100135384Y-46749141D01*
X100210859Y-46824616D01*
X100308502Y-46867730D01*
X100332377Y-46870500D01*
X100687622Y-46870499D01*
X100711498Y-46867730D01*
X100809141Y-46824616D01*
X100884616Y-46749141D01*
X100927730Y-46651498D01*
X100930500Y-46627623D01*
X100930499Y-46410771D01*
X100949243Y-46365518D01*
X101327746Y-45987016D01*
X101373000Y-45968272D01*
X101418255Y-45987017D01*
X101437000Y-46032272D01*
X101437000Y-46294858D01*
X101437001Y-46294867D01*
X101439915Y-46319993D01*
X101458675Y-46362478D01*
X101485294Y-46422765D01*
X101564735Y-46502206D01*
X101667509Y-46547585D01*
X101692635Y-46550500D01*
X103057364Y-46550499D01*
X103082491Y-46547585D01*
X103185265Y-46502206D01*
X103264706Y-46422765D01*
X103310085Y-46319991D01*
X103313000Y-46294865D01*
X103312999Y-45905136D01*
X103310085Y-45880009D01*
X103309678Y-45879088D01*
X103297886Y-45852381D01*
X103264706Y-45777235D01*
X103185265Y-45697794D01*
X103096377Y-45658546D01*
X103062551Y-45623119D01*
X103063682Y-45574149D01*
X103096377Y-45541453D01*
X103185265Y-45502206D01*
X103264706Y-45422765D01*
X103284014Y-45379036D01*
X103917094Y-45379036D01*
X103982242Y-45489194D01*
X103982246Y-45489200D01*
X104094799Y-45601753D01*
X104094805Y-45601757D01*
X104231805Y-45682779D01*
X104384662Y-45727188D01*
X104420388Y-45730000D01*
X105547612Y-45730000D01*
X105583336Y-45727188D01*
X105583339Y-45727188D01*
X105736194Y-45682779D01*
X105873194Y-45601757D01*
X105873200Y-45601753D01*
X105985752Y-45489202D01*
X105985752Y-45489201D01*
X106050903Y-45379035D01*
X104984000Y-44312132D01*
X103917094Y-45379036D01*
X103284014Y-45379036D01*
X103310085Y-45319991D01*
X103313000Y-45294865D01*
X103312999Y-45017867D01*
X103854000Y-45017867D01*
X104771868Y-44100000D01*
X103854000Y-43182132D01*
X103854000Y-45017867D01*
X103312999Y-45017867D01*
X103312999Y-44905136D01*
X103310085Y-44880009D01*
X103264706Y-44777235D01*
X103185265Y-44697794D01*
X103096377Y-44658546D01*
X103062551Y-44623119D01*
X103063682Y-44574149D01*
X103096377Y-44541453D01*
X103185265Y-44502206D01*
X103264706Y-44422765D01*
X103310085Y-44319991D01*
X103313000Y-44294865D01*
X103312999Y-43905136D01*
X103310085Y-43880009D01*
X103264706Y-43777235D01*
X103185265Y-43697794D01*
X103096377Y-43658546D01*
X103062551Y-43623119D01*
X103063682Y-43574149D01*
X103096377Y-43541453D01*
X103185265Y-43502206D01*
X103264706Y-43422765D01*
X103310085Y-43319991D01*
X103313000Y-43294865D01*
X103312999Y-42970820D01*
X103331743Y-42925567D01*
X103863067Y-42394245D01*
X103908322Y-42375500D01*
X104269922Y-42375500D01*
X104315177Y-42394245D01*
X104333922Y-42439500D01*
X104315177Y-42484755D01*
X104287777Y-42500959D01*
X104231805Y-42517220D01*
X104094805Y-42598242D01*
X104094799Y-42598246D01*
X103982246Y-42710799D01*
X103982242Y-42710805D01*
X103917094Y-42820962D01*
X104983999Y-43887867D01*
X106050904Y-42820962D01*
X105985756Y-42710803D01*
X105985752Y-42710798D01*
X105873200Y-42598246D01*
X105873194Y-42598242D01*
X105736194Y-42517220D01*
X105583337Y-42472811D01*
X105547612Y-42470000D01*
X105248406Y-42470000D01*
X105203151Y-42451255D01*
X105184406Y-42406000D01*
X105203151Y-42360745D01*
X105223914Y-42346872D01*
X105256056Y-42333558D01*
X105256058Y-42333557D01*
X105294757Y-42294858D01*
X105333557Y-42256058D01*
X105333556Y-42256058D01*
X105733557Y-41856059D01*
X105745841Y-41826400D01*
X105775500Y-41754800D01*
X105775500Y-40924500D01*
X105794245Y-40879245D01*
X105839500Y-40860500D01*
X106164820Y-40860500D01*
X106206386Y-40852231D01*
X106254427Y-40861786D01*
X106281642Y-40902513D01*
X106277089Y-40941587D01*
X106263303Y-40971772D01*
X106244867Y-41100000D01*
X106263303Y-41228228D01*
X106317116Y-41346060D01*
X106317118Y-41346063D01*
X106375499Y-41413440D01*
X106401951Y-41443967D01*
X106510931Y-41514004D01*
X106635228Y-41550500D01*
X106635229Y-41550500D01*
X106764771Y-41550500D01*
X106764772Y-41550500D01*
X106889069Y-41514004D01*
X106998049Y-41443967D01*
X107082882Y-41346063D01*
X107136697Y-41228226D01*
X107155133Y-41100000D01*
X107136697Y-40971774D01*
X107136695Y-40971769D01*
X107117888Y-40930586D01*
X107116139Y-40881634D01*
X107149518Y-40845784D01*
X107176104Y-40840000D01*
X107200000Y-40840000D01*
X107200000Y-41649500D01*
X107017641Y-41649500D01*
X107017632Y-41649501D01*
X106992506Y-41652415D01*
X106915428Y-41686449D01*
X106889735Y-41697794D01*
X106810294Y-41777235D01*
X106764915Y-41880009D01*
X106762000Y-41905135D01*
X106762000Y-41982675D01*
X106743255Y-42027929D01*
X106698584Y-42072601D01*
X106653330Y-42091347D01*
X106554182Y-42091347D01*
X106429885Y-42127843D01*
X106429883Y-42127843D01*
X106320905Y-42197879D01*
X106320903Y-42197881D01*
X106236072Y-42295783D01*
X106236070Y-42295786D01*
X106182257Y-42413618D01*
X106163821Y-42541847D01*
X106182257Y-42670075D01*
X106236070Y-42787907D01*
X106236072Y-42787910D01*
X106320905Y-42885814D01*
X106429885Y-42955851D01*
X106498237Y-42975920D01*
X106536378Y-43006655D01*
X106541615Y-43055358D01*
X106510880Y-43093499D01*
X106498238Y-43098736D01*
X106441428Y-43115416D01*
X106332450Y-43185452D01*
X106332448Y-43185454D01*
X106247617Y-43283356D01*
X106236216Y-43308321D01*
X106200365Y-43341698D01*
X106151412Y-43339949D01*
X106118035Y-43304098D01*
X106114000Y-43281733D01*
X106114000Y-43182132D01*
X106113999Y-43182132D01*
X105196132Y-44100000D01*
X106113999Y-45017867D01*
X106114000Y-45017867D01*
X106114000Y-44700569D01*
X106132745Y-44655314D01*
X106178000Y-44636569D01*
X106223255Y-44655314D01*
X106236216Y-44673982D01*
X106271901Y-44752123D01*
X106271903Y-44752125D01*
X106313819Y-44800500D01*
X106356736Y-44850029D01*
X106465716Y-44920066D01*
X106563737Y-44948846D01*
X106601877Y-44979581D01*
X106607114Y-45028284D01*
X106576379Y-45066425D01*
X106563738Y-45071661D01*
X106533316Y-45080593D01*
X106452512Y-45104319D01*
X106343534Y-45174355D01*
X106343532Y-45174357D01*
X106258701Y-45272259D01*
X106258699Y-45272262D01*
X106204886Y-45390094D01*
X106186450Y-45518323D01*
X106204886Y-45646551D01*
X106258699Y-45764383D01*
X106258701Y-45764386D01*
X106343532Y-45862288D01*
X106343534Y-45862290D01*
X106452601Y-45932383D01*
X106480537Y-45972619D01*
X106482000Y-45986223D01*
X106482000Y-46362478D01*
X106482000Y-46448210D01*
X106514808Y-46527415D01*
X106870086Y-46882693D01*
X106916479Y-46901908D01*
X106916481Y-46901910D01*
X106916482Y-46901910D01*
X106939681Y-46911519D01*
X106949290Y-46915500D01*
X106949291Y-46915500D01*
X107035022Y-46915500D01*
X107449569Y-46915500D01*
X107494824Y-46934245D01*
X107513569Y-46979500D01*
X107494824Y-47024755D01*
X107475422Y-47038045D01*
X107390859Y-47075384D01*
X107315384Y-47150859D01*
X107274884Y-47242582D01*
X107273220Y-47246351D01*
X107237792Y-47280178D01*
X107214673Y-47284500D01*
X106997832Y-47284500D01*
X106952577Y-47265755D01*
X106939616Y-47247087D01*
X106937559Y-47242582D01*
X106937557Y-47242580D01*
X106852726Y-47144679D01*
X106852724Y-47144677D01*
X106743745Y-47074641D01*
X106741858Y-47074087D01*
X106619448Y-47038145D01*
X106489904Y-47038145D01*
X106365607Y-47074641D01*
X106365605Y-47074641D01*
X106256627Y-47144677D01*
X106256625Y-47144679D01*
X106171794Y-47242581D01*
X106171792Y-47242584D01*
X106117979Y-47360416D01*
X106099543Y-47488645D01*
X106117979Y-47616873D01*
X106171792Y-47734705D01*
X106171794Y-47734708D01*
X106256627Y-47832612D01*
X106365607Y-47902649D01*
X106489904Y-47939145D01*
X106489905Y-47939145D01*
X106619447Y-47939145D01*
X106619448Y-47939145D01*
X106743745Y-47902649D01*
X106852725Y-47832612D01*
X106935062Y-47737589D01*
X106978864Y-47715663D01*
X106983430Y-47715500D01*
X107214673Y-47715500D01*
X107259928Y-47734245D01*
X107273219Y-47753648D01*
X107315384Y-47849141D01*
X107390859Y-47924616D01*
X107443053Y-47947662D01*
X107476879Y-47983089D01*
X107475748Y-48032059D01*
X107446210Y-48060927D01*
X107446843Y-48061873D01*
X107441785Y-48065252D01*
X107441704Y-48065332D01*
X107441604Y-48065373D01*
X107353946Y-48123943D01*
X107353943Y-48123946D01*
X107295375Y-48211601D01*
X107295373Y-48211604D01*
X107280000Y-48288895D01*
X107280000Y-48350000D01*
X108080000Y-48350000D01*
X108080000Y-48339273D01*
X108098745Y-48294018D01*
X108144000Y-48275273D01*
X108189255Y-48294018D01*
X108260755Y-48365518D01*
X108279500Y-48410773D01*
X108279501Y-48680500D01*
X108260756Y-48725755D01*
X108215501Y-48744500D01*
X108144000Y-48744500D01*
X108098745Y-48725755D01*
X108080000Y-48680500D01*
X108080000Y-48650000D01*
X107280000Y-48650000D01*
X107280000Y-48680500D01*
X107261255Y-48725755D01*
X107216000Y-48744500D01*
X106846695Y-48744500D01*
X106813670Y-48748051D01*
X106813659Y-48748052D01*
X106813658Y-48748053D01*
X106813655Y-48748053D01*
X106813653Y-48748054D01*
X106762145Y-48759258D01*
X106762144Y-48759258D01*
X106748187Y-48763900D01*
X106746023Y-48764578D01*
X106725909Y-48770484D01*
X106651238Y-48792408D01*
X106633210Y-48795000D01*
X106566790Y-48795000D01*
X106548760Y-48792408D01*
X106485561Y-48773852D01*
X106454739Y-48764802D01*
X106453962Y-48764574D01*
X106451792Y-48763895D01*
X106445899Y-48761934D01*
X106437850Y-48759257D01*
X106437847Y-48759256D01*
X106437846Y-48759256D01*
X106386347Y-48748054D01*
X106386345Y-48748053D01*
X106386342Y-48748053D01*
X106386339Y-48748052D01*
X106386335Y-48748052D01*
X106383850Y-48747785D01*
X106346924Y-48730842D01*
X106068732Y-48470037D01*
X106068723Y-48470029D01*
X106064588Y-48466740D01*
X106048982Y-48454327D01*
X106015678Y-48431992D01*
X105951189Y-48407220D01*
X105951186Y-48407219D01*
X105951185Y-48407219D01*
X105886064Y-48397859D01*
X105878610Y-48396331D01*
X105873641Y-48395000D01*
X105766785Y-48395000D01*
X105748756Y-48392408D01*
X105685017Y-48373693D01*
X105668449Y-48366126D01*
X105626665Y-48339273D01*
X105612570Y-48330214D01*
X105598804Y-48318286D01*
X105555300Y-48268079D01*
X105545455Y-48252760D01*
X105517858Y-48192332D01*
X105512728Y-48174859D01*
X105505408Y-48123946D01*
X105502677Y-48104953D01*
X105502093Y-48092949D01*
X105503057Y-48071771D01*
X105500572Y-48023877D01*
X105479287Y-47953051D01*
X105443843Y-47892839D01*
X105443839Y-47892834D01*
X105443838Y-47892832D01*
X105443837Y-47892831D01*
X105416194Y-47858282D01*
X105416188Y-47858277D01*
X104867879Y-47344237D01*
X104867847Y-47344206D01*
X104842122Y-47320091D01*
X104831365Y-47310889D01*
X104831348Y-47310876D01*
X104813612Y-47297049D01*
X104813603Y-47297044D01*
X104761819Y-47270486D01*
X104761818Y-47270485D01*
X104745709Y-47265755D01*
X104694775Y-47250799D01*
X104650964Y-47244500D01*
X100424000Y-47244500D01*
X100423993Y-47244500D01*
X100390947Y-47248053D01*
X100390936Y-47248055D01*
X100339435Y-47259259D01*
X100339432Y-47259260D01*
X100270658Y-47293686D01*
X100217866Y-47339431D01*
X100212379Y-47344420D01*
X100170483Y-47413150D01*
X100150799Y-47480190D01*
X100144500Y-47524002D01*
X100144500Y-49820500D01*
X100125755Y-49865755D01*
X100080500Y-49884500D01*
X99323861Y-49884500D01*
X99323859Y-49884500D01*
X99323858Y-49884501D01*
X99291896Y-49897740D01*
X99244660Y-49917305D01*
X99244657Y-49917307D01*
X98966663Y-50195299D01*
X98921408Y-50214044D01*
X98876153Y-50195299D01*
X98860165Y-50168624D01*
X98828814Y-50065273D01*
X98828812Y-50065270D01*
X98828813Y-50065270D01*
X98735912Y-49891466D01*
X98735909Y-49891461D01*
X98610883Y-49739117D01*
X98610882Y-49739116D01*
X98458538Y-49614090D01*
X98458533Y-49614087D01*
X98284730Y-49521187D01*
X98137139Y-49476415D01*
X98099275Y-49445340D01*
X98091718Y-49415180D01*
X98091666Y-48944849D01*
X98110406Y-48899593D01*
X98137084Y-48883601D01*
X98284727Y-48838814D01*
X98458538Y-48745910D01*
X98610883Y-48620883D01*
X98735910Y-48468538D01*
X98828814Y-48294727D01*
X98886024Y-48106132D01*
X98905341Y-47910000D01*
X98886024Y-47713868D01*
X98828814Y-47525273D01*
X98735910Y-47351462D01*
X98610883Y-47199117D01*
X98544550Y-47144679D01*
X98458538Y-47074090D01*
X98458533Y-47074087D01*
X98284730Y-46981187D01*
X98136857Y-46936329D01*
X98098993Y-46905254D01*
X98091436Y-46875094D01*
X98091407Y-46611104D01*
X99090000Y-46611104D01*
X99105373Y-46688395D01*
X99105375Y-46688398D01*
X99163943Y-46776053D01*
X99163946Y-46776056D01*
X99251601Y-46834624D01*
X99251604Y-46834626D01*
X99328895Y-46850000D01*
X99340000Y-46850000D01*
X99640000Y-46850000D01*
X99651105Y-46850000D01*
X99728395Y-46834626D01*
X99728398Y-46834624D01*
X99816053Y-46776056D01*
X99816056Y-46776053D01*
X99874624Y-46688398D01*
X99874626Y-46688395D01*
X99890000Y-46611104D01*
X99890000Y-46550000D01*
X99640000Y-46550000D01*
X99640000Y-46850000D01*
X99340000Y-46850000D01*
X99340000Y-46550000D01*
X99090000Y-46550000D01*
X99090000Y-46611104D01*
X98091407Y-46611104D01*
X98091272Y-45400000D01*
X98444867Y-45400000D01*
X98463303Y-45528228D01*
X98517116Y-45646060D01*
X98517118Y-45646063D01*
X98589848Y-45730000D01*
X98601951Y-45743967D01*
X98710931Y-45814004D01*
X98835228Y-45850500D01*
X98835229Y-45850500D01*
X98964771Y-45850500D01*
X98964772Y-45850500D01*
X99089069Y-45814004D01*
X99095097Y-45810130D01*
X99143301Y-45801430D01*
X99174954Y-45818711D01*
X99180859Y-45824616D01*
X99243741Y-45852381D01*
X99277568Y-45887809D01*
X99276437Y-45936779D01*
X99253446Y-45964142D01*
X99163946Y-46023943D01*
X99163943Y-46023946D01*
X99105375Y-46111601D01*
X99105373Y-46111604D01*
X99090000Y-46188895D01*
X99090000Y-46250000D01*
X99890000Y-46250000D01*
X99890000Y-46188895D01*
X99874626Y-46111604D01*
X99874624Y-46111601D01*
X99816056Y-46023946D01*
X99816053Y-46023943D01*
X99728395Y-45965373D01*
X99728301Y-45965334D01*
X99728228Y-45965261D01*
X99723157Y-45961873D01*
X99723831Y-45960863D01*
X99693667Y-45930695D01*
X99693671Y-45881712D01*
X99726945Y-45847662D01*
X99779141Y-45824616D01*
X99854616Y-45749141D01*
X99897730Y-45651498D01*
X99900500Y-45627623D01*
X99900499Y-45172378D01*
X99897730Y-45148502D01*
X99854616Y-45050859D01*
X99779141Y-44975384D01*
X99681498Y-44932270D01*
X99657623Y-44929500D01*
X99657622Y-44929500D01*
X99302383Y-44929500D01*
X99302374Y-44929501D01*
X99278502Y-44932270D01*
X99223487Y-44956562D01*
X99180857Y-44975385D01*
X99174954Y-44981288D01*
X99129698Y-45000031D01*
X99095103Y-44989873D01*
X99089071Y-44985997D01*
X99089070Y-44985996D01*
X99089069Y-44985996D01*
X98964772Y-44949500D01*
X98835228Y-44949500D01*
X98710931Y-44985996D01*
X98710929Y-44985996D01*
X98601951Y-45056032D01*
X98601949Y-45056034D01*
X98517118Y-45153936D01*
X98517116Y-45153939D01*
X98463303Y-45271771D01*
X98444867Y-45400000D01*
X98091272Y-45400000D01*
X98090939Y-42400000D01*
X98700000Y-42400000D01*
X98700000Y-43200000D01*
X101400000Y-43200000D01*
X101400000Y-41500000D01*
X101400000Y-40832600D01*
X101400722Y-40832457D01*
X101406087Y-40830235D01*
X101455071Y-40830234D01*
X101489708Y-40864870D01*
G37*
%TD.AperFunction*%
%TA.AperFunction,Conductor*%
G36*
X107200000Y-40240000D02*
G01*
X107164500Y-40240000D01*
X107119245Y-40221255D01*
X107100500Y-40176000D01*
X107100500Y-40004000D01*
X107119245Y-39958745D01*
X107164500Y-39940000D01*
X107200000Y-39940000D01*
X107200000Y-40240000D01*
G37*
%TD.AperFunction*%
%TA.AperFunction,Conductor*%
G36*
X110370755Y-34119245D02*
G01*
X110389500Y-34164500D01*
X110389500Y-36195705D01*
X110370755Y-36240960D01*
X110336615Y-36258732D01*
X110278093Y-36269052D01*
X110278088Y-36269053D01*
X110080702Y-36340896D01*
X109990035Y-36393243D01*
X109898777Y-36445931D01*
X109898776Y-36445932D01*
X109898769Y-36445936D01*
X109737861Y-36580954D01*
X109737854Y-36580961D01*
X109602836Y-36741869D01*
X109602832Y-36741875D01*
X109602831Y-36741877D01*
X109602815Y-36741905D01*
X109497796Y-36923802D01*
X109425954Y-37121186D01*
X109425953Y-37121190D01*
X109425952Y-37121194D01*
X109389475Y-37328068D01*
X109389475Y-37538132D01*
X109425952Y-37745006D01*
X109425953Y-37745010D01*
X109425954Y-37745013D01*
X109497796Y-37942397D01*
X109497799Y-37942402D01*
X109602831Y-38124323D01*
X109602834Y-38124326D01*
X109602836Y-38124330D01*
X109737854Y-38285238D01*
X109737861Y-38285245D01*
X109898769Y-38420263D01*
X109898771Y-38420264D01*
X109898777Y-38420269D01*
X110080698Y-38525301D01*
X110080699Y-38525301D01*
X110080702Y-38525303D01*
X110165135Y-38556034D01*
X110278094Y-38597148D01*
X110334822Y-38607150D01*
X110336664Y-38607475D01*
X110377976Y-38633794D01*
X110389551Y-38670489D01*
X110389778Y-39700000D01*
X109200000Y-39700000D01*
X109200000Y-39640000D01*
X108870000Y-39640000D01*
X108870000Y-39340000D01*
X109200000Y-39340000D01*
X109200000Y-38877947D01*
X109175790Y-38756240D01*
X109175789Y-38756238D01*
X109128298Y-38641582D01*
X109059353Y-38538399D01*
X108971600Y-38450646D01*
X108868417Y-38381701D01*
X108753760Y-38334209D01*
X108720000Y-38327493D01*
X108720000Y-38680191D01*
X108685796Y-38660444D01*
X108609496Y-38640000D01*
X108530504Y-38640000D01*
X108454204Y-38660444D01*
X108420000Y-38680191D01*
X108420000Y-38327494D01*
X108419999Y-38327493D01*
X108386239Y-38334209D01*
X108271582Y-38381701D01*
X108168399Y-38450646D01*
X108080646Y-38538399D01*
X108011701Y-38641582D01*
X107964210Y-38756238D01*
X107964209Y-38756240D01*
X107940000Y-38877947D01*
X107940000Y-39320868D01*
X107921255Y-39366123D01*
X107876000Y-39384868D01*
X107840444Y-39374083D01*
X107800723Y-39347543D01*
X107762805Y-39340000D01*
X107600000Y-39340000D01*
X107600000Y-39700000D01*
X107300000Y-39700000D01*
X107300000Y-39463633D01*
X107318745Y-39418378D01*
X107331996Y-39408210D01*
X107431964Y-39350495D01*
X107490745Y-39291714D01*
X107523227Y-39278259D01*
X107522292Y-39276000D01*
X107530866Y-39244000D01*
X107530885Y-39243967D01*
X107583095Y-39153536D01*
X107615500Y-39032601D01*
X107615500Y-38907399D01*
X107613652Y-38900504D01*
X107583096Y-38786467D01*
X107583095Y-38786466D01*
X107583095Y-38786464D01*
X107520495Y-38678036D01*
X107431964Y-38589505D01*
X107323536Y-38526905D01*
X107323535Y-38526904D01*
X107323532Y-38526903D01*
X107323533Y-38526903D01*
X107202605Y-38494500D01*
X107202601Y-38494500D01*
X107077399Y-38494500D01*
X107077394Y-38494500D01*
X106956467Y-38526903D01*
X106848034Y-38589506D01*
X106759506Y-38678034D01*
X106729105Y-38730691D01*
X106690243Y-38760510D01*
X106641679Y-38754117D01*
X106615463Y-38725278D01*
X106582883Y-38653939D01*
X106582881Y-38653936D01*
X106550648Y-38616737D01*
X106498049Y-38556033D01*
X106498048Y-38556032D01*
X106389069Y-38485996D01*
X106344831Y-38473007D01*
X106264772Y-38449500D01*
X106135228Y-38449500D01*
X106010931Y-38485996D01*
X106010929Y-38485996D01*
X105901951Y-38556032D01*
X105901949Y-38556034D01*
X105817118Y-38653936D01*
X105817116Y-38653939D01*
X105763303Y-38771771D01*
X105744867Y-38900000D01*
X105763303Y-39028228D01*
X105817116Y-39146060D01*
X105817118Y-39146063D01*
X105876004Y-39214023D01*
X105891472Y-39260500D01*
X105869545Y-39304302D01*
X105838057Y-39317841D01*
X105838265Y-39318886D01*
X105791277Y-39328233D01*
X105791275Y-39328234D01*
X105785552Y-39332058D01*
X105737509Y-39341610D01*
X105714448Y-39332058D01*
X105708724Y-39328234D01*
X105708722Y-39328233D01*
X105664821Y-39319500D01*
X105664820Y-39319500D01*
X105335180Y-39319500D01*
X105326984Y-39321130D01*
X105278942Y-39311572D01*
X105251729Y-39270843D01*
X105250500Y-39258359D01*
X105250500Y-39230172D01*
X105250499Y-39230169D01*
X105239329Y-39203203D01*
X105212364Y-39138103D01*
X105141897Y-39067636D01*
X104961897Y-38887636D01*
X104938506Y-38877947D01*
X104869830Y-38849500D01*
X104869828Y-38849500D01*
X104229827Y-38849500D01*
X104130172Y-38849500D01*
X104130169Y-38849500D01*
X104038102Y-38887636D01*
X103787636Y-39138102D01*
X103749500Y-39230169D01*
X103749500Y-39258359D01*
X103730755Y-39303614D01*
X103685500Y-39322359D01*
X103673016Y-39321130D01*
X103664820Y-39319500D01*
X103335180Y-39319500D01*
X103335179Y-39319500D01*
X103291277Y-39328233D01*
X103291275Y-39328234D01*
X103285552Y-39332058D01*
X103237509Y-39341610D01*
X103214448Y-39332058D01*
X103208724Y-39328234D01*
X103208722Y-39328233D01*
X103164821Y-39319500D01*
X103164820Y-39319500D01*
X102835180Y-39319500D01*
X102835179Y-39319500D01*
X102791277Y-39328233D01*
X102791275Y-39328234D01*
X102785552Y-39332058D01*
X102737509Y-39341610D01*
X102714448Y-39332058D01*
X102708724Y-39328234D01*
X102708722Y-39328233D01*
X102661735Y-39318886D01*
X102662020Y-39317449D01*
X102622891Y-39296534D01*
X102608672Y-39249660D01*
X102623996Y-39214022D01*
X102682882Y-39146063D01*
X102736697Y-39028226D01*
X102755133Y-38900000D01*
X102736697Y-38771774D01*
X102729907Y-38756907D01*
X102682883Y-38653939D01*
X102682881Y-38653936D01*
X102650648Y-38616737D01*
X102598049Y-38556033D01*
X102598048Y-38556032D01*
X102489069Y-38485996D01*
X102444831Y-38473007D01*
X102364772Y-38449500D01*
X102235228Y-38449500D01*
X102110931Y-38485996D01*
X102110929Y-38485996D01*
X102001951Y-38556032D01*
X102001949Y-38556034D01*
X101917118Y-38653936D01*
X101884536Y-38725279D01*
X101848685Y-38758656D01*
X101799732Y-38756907D01*
X101770894Y-38730690D01*
X101767769Y-38725278D01*
X101740495Y-38678036D01*
X101651964Y-38589505D01*
X101543536Y-38526905D01*
X101543535Y-38526904D01*
X101543532Y-38526903D01*
X101543533Y-38526903D01*
X101422605Y-38494500D01*
X101422601Y-38494500D01*
X101297399Y-38494500D01*
X101297394Y-38494500D01*
X101176467Y-38526903D01*
X101068034Y-38589506D01*
X100979506Y-38678034D01*
X100916903Y-38786467D01*
X100884500Y-38907394D01*
X100884500Y-39032605D01*
X100916903Y-39153532D01*
X100916904Y-39153535D01*
X100916905Y-39153536D01*
X100961150Y-39230172D01*
X100969134Y-39244000D01*
X100973463Y-39276888D01*
X101009255Y-39291714D01*
X101068036Y-39350495D01*
X101068035Y-39350495D01*
X101078305Y-39356424D01*
X101168000Y-39408208D01*
X101197819Y-39447068D01*
X101200000Y-39463633D01*
X101200000Y-39700000D01*
X100900000Y-39700000D01*
X100900000Y-39340000D01*
X100737195Y-39340000D01*
X100699276Y-39347543D01*
X100659556Y-39374083D01*
X100611513Y-39383638D01*
X100570785Y-39356424D01*
X100560000Y-39320868D01*
X100560000Y-38877947D01*
X100535790Y-38756240D01*
X100535789Y-38756238D01*
X100488298Y-38641582D01*
X100419353Y-38538399D01*
X100331600Y-38450646D01*
X100228417Y-38381701D01*
X100113760Y-38334209D01*
X100080000Y-38327493D01*
X100080000Y-38680191D01*
X100045796Y-38660444D01*
X99969496Y-38640000D01*
X99890504Y-38640000D01*
X99814204Y-38660444D01*
X99780000Y-38680191D01*
X99780000Y-38327494D01*
X99779999Y-38327493D01*
X99746239Y-38334209D01*
X99631582Y-38381701D01*
X99528399Y-38450646D01*
X99440646Y-38538399D01*
X99371701Y-38641582D01*
X99324210Y-38756238D01*
X99324209Y-38756240D01*
X99300000Y-38877947D01*
X99300000Y-39340000D01*
X99630000Y-39340000D01*
X99630000Y-39640000D01*
X99300000Y-39640000D01*
X99300000Y-39700000D01*
X98090639Y-39700000D01*
X98090525Y-38670443D01*
X98109265Y-38625189D01*
X98143413Y-38607411D01*
X98201893Y-38597100D01*
X98363589Y-38538246D01*
X98399276Y-38525258D01*
X98399276Y-38525257D01*
X98399281Y-38525256D01*
X98581195Y-38420228D01*
X98742107Y-38285207D01*
X98877128Y-38124295D01*
X98982156Y-37942381D01*
X99054000Y-37744993D01*
X99090475Y-37538128D01*
X99090475Y-37328072D01*
X99054000Y-37121207D01*
X99022018Y-37033338D01*
X98982158Y-36923823D01*
X98967334Y-36898147D01*
X98877128Y-36741905D01*
X98877123Y-36741899D01*
X98877122Y-36741897D01*
X98742110Y-36580996D01*
X98742103Y-36580989D01*
X98581202Y-36445977D01*
X98581198Y-36445975D01*
X98581195Y-36445972D01*
X98399281Y-36340944D01*
X98399276Y-36340941D01*
X98201895Y-36269100D01*
X98143385Y-36258782D01*
X98102073Y-36232463D01*
X98090500Y-36195755D01*
X98090500Y-34827947D01*
X99300000Y-34827947D01*
X99300000Y-35140000D01*
X99630000Y-35140000D01*
X99630000Y-35440000D01*
X99300000Y-35440000D01*
X99300000Y-35752052D01*
X99324209Y-35873759D01*
X99324210Y-35873761D01*
X99371701Y-35988417D01*
X99440646Y-36091600D01*
X99528399Y-36179353D01*
X99631582Y-36248298D01*
X99746233Y-36295787D01*
X99746243Y-36295790D01*
X99779999Y-36302505D01*
X99780000Y-36302505D01*
X99780000Y-35949808D01*
X99814204Y-35969556D01*
X99890504Y-35990000D01*
X99969496Y-35990000D01*
X100045796Y-35969556D01*
X100080000Y-35949808D01*
X100080000Y-36302505D01*
X100113756Y-36295790D01*
X100113766Y-36295787D01*
X100228417Y-36248298D01*
X100331600Y-36179353D01*
X100419353Y-36091600D01*
X100488298Y-35988417D01*
X100535789Y-35873761D01*
X100535790Y-35873759D01*
X100560000Y-35752052D01*
X100560000Y-35440000D01*
X100230000Y-35440000D01*
X100230000Y-35140000D01*
X100560000Y-35140000D01*
X100560000Y-34827947D01*
X107940000Y-34827947D01*
X107940000Y-35140000D01*
X108270000Y-35140000D01*
X108270000Y-35440000D01*
X107940000Y-35440000D01*
X107940000Y-35752052D01*
X107964209Y-35873759D01*
X107964210Y-35873761D01*
X108011701Y-35988417D01*
X108080646Y-36091600D01*
X108168399Y-36179353D01*
X108271582Y-36248298D01*
X108386233Y-36295787D01*
X108386243Y-36295790D01*
X108419999Y-36302505D01*
X108420000Y-36302505D01*
X108420000Y-35949808D01*
X108454204Y-35969556D01*
X108530504Y-35990000D01*
X108609496Y-35990000D01*
X108685796Y-35969556D01*
X108720000Y-35949808D01*
X108720000Y-36302505D01*
X108753756Y-36295790D01*
X108753766Y-36295787D01*
X108868417Y-36248298D01*
X108971600Y-36179353D01*
X109059353Y-36091600D01*
X109128298Y-35988417D01*
X109175789Y-35873761D01*
X109175790Y-35873759D01*
X109200000Y-35752052D01*
X109200000Y-35440000D01*
X108870000Y-35440000D01*
X108870000Y-35140000D01*
X109200000Y-35140000D01*
X109200000Y-34827947D01*
X109175790Y-34706240D01*
X109175789Y-34706238D01*
X109128298Y-34591582D01*
X109059353Y-34488399D01*
X108971600Y-34400646D01*
X108868417Y-34331701D01*
X108753760Y-34284209D01*
X108720000Y-34277493D01*
X108720000Y-34630191D01*
X108685796Y-34610444D01*
X108609496Y-34590000D01*
X108530504Y-34590000D01*
X108454204Y-34610444D01*
X108420000Y-34630191D01*
X108420000Y-34277494D01*
X108419999Y-34277493D01*
X108386239Y-34284209D01*
X108271582Y-34331701D01*
X108168399Y-34400646D01*
X108080646Y-34488399D01*
X108011701Y-34591582D01*
X107964210Y-34706238D01*
X107964209Y-34706240D01*
X107940000Y-34827947D01*
X100560000Y-34827947D01*
X100535790Y-34706240D01*
X100535789Y-34706238D01*
X100488298Y-34591582D01*
X100419353Y-34488399D01*
X100331600Y-34400646D01*
X100228417Y-34331701D01*
X100113760Y-34284209D01*
X100080000Y-34277493D01*
X100080000Y-34630191D01*
X100045796Y-34610444D01*
X99969496Y-34590000D01*
X99890504Y-34590000D01*
X99814204Y-34610444D01*
X99780000Y-34630191D01*
X99780000Y-34277494D01*
X99779999Y-34277493D01*
X99746239Y-34284209D01*
X99631582Y-34331701D01*
X99528399Y-34400646D01*
X99440646Y-34488399D01*
X99371701Y-34591582D01*
X99324210Y-34706238D01*
X99324209Y-34706240D01*
X99300000Y-34827947D01*
X98090500Y-34827947D01*
X98090500Y-34164500D01*
X98109245Y-34119245D01*
X98154500Y-34100500D01*
X110325500Y-34100500D01*
X110370755Y-34119245D01*
G37*
%TD.AperFunction*%
%TD*%
%TA.AperFunction,Conductor*%
%TO.N,VOUT*%
G36*
X110340006Y-72219685D02*
G01*
X110385761Y-72272489D01*
X110396967Y-72323973D01*
X110397020Y-72564393D01*
X110398709Y-80230500D01*
X110398874Y-80975973D01*
X110379204Y-81043016D01*
X110326410Y-81088783D01*
X110274874Y-81100000D01*
X105924000Y-81100000D01*
X105856961Y-81080315D01*
X105811206Y-81027511D01*
X105800000Y-80976000D01*
X105800000Y-78624000D01*
X105819685Y-78556961D01*
X105872489Y-78511206D01*
X105924000Y-78500000D01*
X106343567Y-78500000D01*
X106410606Y-78519685D01*
X106431243Y-78536314D01*
X106482622Y-78587693D01*
X106529016Y-78606909D01*
X106529019Y-78606911D01*
X106529019Y-78606910D01*
X106561826Y-78620500D01*
X106561827Y-78620500D01*
X106647558Y-78620500D01*
X107454375Y-78620500D01*
X107521414Y-78640185D01*
X107542056Y-78656819D01*
X108493181Y-79607944D01*
X108526666Y-79669267D01*
X108529500Y-79695625D01*
X108529500Y-79987615D01*
X108529502Y-79987638D01*
X108532269Y-80011495D01*
X108532269Y-80011498D01*
X108575380Y-80109135D01*
X108575383Y-80109139D01*
X108575384Y-80109141D01*
X108650859Y-80184616D01*
X108650862Y-80184617D01*
X108650863Y-80184618D01*
X108748499Y-80227729D01*
X108748500Y-80227729D01*
X108748502Y-80227730D01*
X108772377Y-80230500D01*
X109227622Y-80230499D01*
X109251498Y-80227730D01*
X109349135Y-80184619D01*
X109349136Y-80184618D01*
X109349141Y-80184616D01*
X109424616Y-80109141D01*
X109467730Y-80011498D01*
X109470500Y-79987623D01*
X109470499Y-79632378D01*
X109467730Y-79608502D01*
X109467484Y-79607944D01*
X109424619Y-79510864D01*
X109424617Y-79510861D01*
X109424616Y-79510859D01*
X109349141Y-79435384D01*
X109325587Y-79424984D01*
X109299428Y-79413433D01*
X109246053Y-79368346D01*
X109225526Y-79301560D01*
X109244365Y-79234278D01*
X109296589Y-79187862D01*
X109299344Y-79186603D01*
X109349141Y-79164616D01*
X109424616Y-79089141D01*
X109467730Y-78991498D01*
X109470500Y-78967623D01*
X109470499Y-78612378D01*
X109467730Y-78588502D01*
X109467372Y-78587691D01*
X109424619Y-78490864D01*
X109424617Y-78490861D01*
X109424616Y-78490859D01*
X109349141Y-78415384D01*
X109349138Y-78415383D01*
X109349136Y-78415381D01*
X109251500Y-78372270D01*
X109251501Y-78372270D01*
X109237611Y-78370658D01*
X109234008Y-78370240D01*
X109169685Y-78342961D01*
X109130321Y-78285235D01*
X109128415Y-78215391D01*
X109154264Y-78170441D01*
X109153248Y-78169745D01*
X109159738Y-78160268D01*
X109159742Y-78160265D01*
X109205121Y-78057491D01*
X109208036Y-78032365D01*
X109208035Y-76917636D01*
X109207884Y-76916331D01*
X109205122Y-76892512D01*
X109205121Y-76892510D01*
X109205121Y-76892509D01*
X109159742Y-76789735D01*
X109080301Y-76710294D01*
X109041947Y-76693359D01*
X108977528Y-76664915D01*
X108952401Y-76662000D01*
X108562679Y-76662000D01*
X108562655Y-76662002D01*
X108537543Y-76664914D01*
X108533917Y-76665901D01*
X108529757Y-76665817D01*
X108528280Y-76665989D01*
X108528256Y-76665787D01*
X108464061Y-76664501D01*
X108413692Y-76633929D01*
X107990647Y-76210884D01*
X107957162Y-76149561D01*
X107962146Y-76079869D01*
X108004018Y-76023936D01*
X108028232Y-76009773D01*
X108130301Y-75964706D01*
X108209742Y-75885265D01*
X108255121Y-75782491D01*
X108258036Y-75757365D01*
X108258035Y-74642636D01*
X108258033Y-74642617D01*
X108255122Y-74617512D01*
X108255121Y-74617510D01*
X108255121Y-74617509D01*
X108209742Y-74514735D01*
X108130301Y-74435294D01*
X108091947Y-74418359D01*
X108027529Y-74389915D01*
X108027522Y-74389913D01*
X108009705Y-74387846D01*
X107945382Y-74360565D01*
X107906019Y-74302838D01*
X107900000Y-74264673D01*
X107900000Y-72324000D01*
X107919685Y-72256961D01*
X107972489Y-72211206D01*
X108024000Y-72200000D01*
X110272967Y-72200000D01*
X110340006Y-72219685D01*
G37*
%TD.AperFunction*%
%TD*%
M02*
