M48
; DRILL file {KiCad 8.0.5-8.0.5-0~ubuntu24.04.1} date 2024-10-10T17:44:52+0200
; FORMAT={-:-/ absolute / inch / decimal}
; #@! TF.CreationDate,2024-10-10T17:44:52+02:00
; #@! TF.GenerationSoftware,Kicad,Pcbnew,8.0.5-8.0.5-0~ubuntu24.04.1
; #@! TF.FileFunction,Plated,1,4,PTH
FMAT,2
INCH
; #@! TA.AperFunction,Plated,PTH,ViaDrill
T1C0.0079
; #@! TA.AperFunction,Plated,PTH,ComponentDrill
T2C0.0236
; #@! TA.AperFunction,Plated,PTH,ComponentDrill
T3C0.0394
%
G90
G05
T1
X3.8937Y-1.7874
X3.9168Y-2.8313
X3.9213Y-2.7441
X3.9252Y-2.9488
X3.9314Y-3.0
X3.9314Y-3.1212
X3.948Y-2.5661
X3.9481Y-2.535
X3.9567Y-2.1457
X3.9617Y-2.4974
X3.9889Y-2.4702
X3.9921Y-2.7913
X3.993Y-2.5669
X3.9941Y-2.4043
X3.9961Y-2.1457
X4.002Y-3.0
X4.0118Y-1.6181
X4.0118Y-2.5315
X4.0189Y-2.9252
X4.0236Y-2.4606
X4.0276Y-1.5315
X4.0305Y-1.7756
X4.0315Y-2.7441
X4.0394Y-3.0
X4.0414Y-2.513
X4.042Y-2.3477
X4.0591Y-2.8268
X4.0768Y-3.0
X4.0787Y-2.6363
X4.0787Y-2.6969
X4.0802Y-2.6658
X4.0945Y-2.1969
X4.0945Y-1.9606
X4.0957Y-1.6327
X4.1048Y-3.0497
X4.1063Y-2.4409
X4.1142Y-2.8465
X4.1174Y-2.3034
X4.1285Y-1.6335
X4.1329Y-2.5917
X4.1331Y-2.5511
X4.1335Y-2.5193
X4.1391Y-2.7691
X4.1398Y-2.2842
X4.1517Y-2.6144
X4.1555Y-1.7362
X4.1585Y-2.1181
X4.1654Y-1.8937
X4.1811Y-1.5315
X4.1844Y-2.685
X4.1846Y-2.4916
X4.185Y-2.7953
X4.1922Y-2.6142
X4.1929Y-2.3346
X4.1929Y-2.5236
X4.1929Y-2.5527
X4.1929Y-2.5827
X4.195Y-2.4241
X4.1951Y-1.8696
X4.1969Y-1.9094
X4.1976Y-1.6749
X4.1981Y-1.7138
X4.1985Y-1.7921
X4.199Y-1.7522
X4.2008Y-1.6181
X4.2168Y-2.6833
X4.2172Y-2.7129
X4.2218Y-2.6142
X4.2245Y-2.4252
X4.2283Y-3.0079
X4.2323Y-3.0502
X4.2441Y-2.779
X4.2441Y-2.8145
X4.3183Y-2.2239
X4.3268Y-2.8622
X4.3268Y-2.8976
T3
X3.8543Y-1.8862
X3.8543Y-1.9862
X3.8543Y-2.0862
X3.8543Y-2.1862
X3.8543Y-2.2862
X3.8543Y-2.3862
X3.8543Y-2.4862
X3.8543Y-2.5862
X3.8543Y-2.8291
X3.8543Y-2.9291
X3.8543Y-3.0291
X3.9984Y-3.1441
X3.9984Y-3.2441
X4.0984Y-3.1441
X4.0984Y-3.2441
X4.1984Y-3.1441
X4.1984Y-3.2441
X4.3543Y-1.8862
X4.3543Y-1.9862
X4.3543Y-2.0862
X4.3543Y-2.1862
X4.3543Y-2.2862
X4.3543Y-2.3862
X4.3543Y-2.4862
X4.3543Y-2.5862
T2
G00X3.9343Y-1.4051
M15
G01X3.9343Y-1.3736
M16
G05
G00X3.9343Y-1.5764
M15
G01X3.9343Y-1.5331
M16
G05
G00X4.2744Y-1.4051
M15
G01X4.2744Y-1.3736
M16
G05
G00X4.2744Y-1.5764
M15
G01X4.2744Y-1.5331
M16
G05
M30
