%TF.GenerationSoftware,KiCad,Pcbnew,8.0.5-8.0.5-0~ubuntu24.04.1*%
%TF.CreationDate,2024-10-10T17:44:52+02:00*%
%TF.ProjectId,epi_ESP32_PD,6570695f-4553-4503-9332-5f50442e6b69,1_1*%
%TF.SameCoordinates,Original*%
%TF.FileFunction,Drillmap*%
%TF.FilePolarity,Positive*%
%FSLAX45Y45*%
G04 Gerber Fmt 4.5, Leading zero omitted, Abs format (unit mm)*
G04 Created by KiCad (PCBNEW 8.0.5-8.0.5-0~ubuntu24.04.1) date 2024-10-10 17:44:52*
%MOMM*%
%LPD*%
G01*
G04 APERTURE LIST*
%ADD10C,0.010000*%
%ADD11C,0.200000*%
%ADD12C,0.100000*%
G04 APERTURE END LIST*
D10*
X9789000Y-3390000D02*
X9789000Y-3643312D01*
X9789504Y-8382000D02*
X11060000Y-8382000D01*
X11059000Y-3843312D02*
G75*
G02*
X11059000Y-3643307I0J100003D01*
G01*
X9789000Y-3643312D02*
G75*
G02*
X9789000Y-3843307I0J-99998D01*
G01*
X9789000Y-3390000D02*
X11059000Y-3390000D01*
X11060000Y-8382000D02*
X11059000Y-3843312D01*
X9789000Y-3843312D02*
X9789504Y-8382000D01*
X11059000Y-3390000D02*
X11059000Y-3643312D01*
D11*
D12*
X10103500Y-3864500D02*
X10168500Y-3929500D01*
X10168500Y-3864500D02*
X10103500Y-3929500D01*
X10681500Y-3864500D02*
X10746500Y-3929500D01*
X10746500Y-3864500D02*
X10681500Y-3929500D01*
D11*
X10049277Y-8693984D02*
X10049277Y-8493984D01*
X10049277Y-8493984D02*
X10096896Y-8493984D01*
X10096896Y-8493984D02*
X10125467Y-8503508D01*
X10125467Y-8503508D02*
X10144515Y-8522555D01*
X10144515Y-8522555D02*
X10154039Y-8541603D01*
X10154039Y-8541603D02*
X10163563Y-8579698D01*
X10163563Y-8579698D02*
X10163563Y-8608270D01*
X10163563Y-8608270D02*
X10154039Y-8646365D01*
X10154039Y-8646365D02*
X10144515Y-8665412D01*
X10144515Y-8665412D02*
X10125467Y-8684460D01*
X10125467Y-8684460D02*
X10096896Y-8693984D01*
X10096896Y-8693984D02*
X10049277Y-8693984D01*
X10249277Y-8693984D02*
X10249277Y-8560650D01*
X10249277Y-8598746D02*
X10258801Y-8579698D01*
X10258801Y-8579698D02*
X10268324Y-8570174D01*
X10268324Y-8570174D02*
X10287372Y-8560650D01*
X10287372Y-8560650D02*
X10306420Y-8560650D01*
X10373086Y-8693984D02*
X10373086Y-8560650D01*
X10373086Y-8493984D02*
X10363563Y-8503508D01*
X10363563Y-8503508D02*
X10373086Y-8513031D01*
X10373086Y-8513031D02*
X10382610Y-8503508D01*
X10382610Y-8503508D02*
X10373086Y-8493984D01*
X10373086Y-8493984D02*
X10373086Y-8513031D01*
X10496896Y-8693984D02*
X10477848Y-8684460D01*
X10477848Y-8684460D02*
X10468324Y-8665412D01*
X10468324Y-8665412D02*
X10468324Y-8493984D01*
X10601658Y-8693984D02*
X10582610Y-8684460D01*
X10582610Y-8684460D02*
X10573086Y-8665412D01*
X10573086Y-8665412D02*
X10573086Y-8493984D01*
X10830229Y-8693984D02*
X10830229Y-8493984D01*
X10830229Y-8493984D02*
X10896896Y-8636841D01*
X10896896Y-8636841D02*
X10963563Y-8493984D01*
X10963563Y-8493984D02*
X10963563Y-8693984D01*
X11144515Y-8693984D02*
X11144515Y-8589222D01*
X11144515Y-8589222D02*
X11134991Y-8570174D01*
X11134991Y-8570174D02*
X11115944Y-8560650D01*
X11115944Y-8560650D02*
X11077848Y-8560650D01*
X11077848Y-8560650D02*
X11058801Y-8570174D01*
X11144515Y-8684460D02*
X11125467Y-8693984D01*
X11125467Y-8693984D02*
X11077848Y-8693984D01*
X11077848Y-8693984D02*
X11058801Y-8684460D01*
X11058801Y-8684460D02*
X11049277Y-8665412D01*
X11049277Y-8665412D02*
X11049277Y-8646365D01*
X11049277Y-8646365D02*
X11058801Y-8627317D01*
X11058801Y-8627317D02*
X11077848Y-8617793D01*
X11077848Y-8617793D02*
X11125467Y-8617793D01*
X11125467Y-8617793D02*
X11144515Y-8608270D01*
X11239753Y-8560650D02*
X11239753Y-8760650D01*
X11239753Y-8570174D02*
X11258801Y-8560650D01*
X11258801Y-8560650D02*
X11296896Y-8560650D01*
X11296896Y-8560650D02*
X11315943Y-8570174D01*
X11315943Y-8570174D02*
X11325467Y-8579698D01*
X11325467Y-8579698D02*
X11334991Y-8598746D01*
X11334991Y-8598746D02*
X11334991Y-8655889D01*
X11334991Y-8655889D02*
X11325467Y-8674936D01*
X11325467Y-8674936D02*
X11315943Y-8684460D01*
X11315943Y-8684460D02*
X11296896Y-8693984D01*
X11296896Y-8693984D02*
X11258801Y-8693984D01*
X11258801Y-8693984D02*
X11239753Y-8684460D01*
X11420705Y-8674936D02*
X11430229Y-8684460D01*
X11430229Y-8684460D02*
X11420705Y-8693984D01*
X11420705Y-8693984D02*
X11411182Y-8684460D01*
X11411182Y-8684460D02*
X11420705Y-8674936D01*
X11420705Y-8674936D02*
X11420705Y-8693984D01*
X11420705Y-8570174D02*
X11430229Y-8579698D01*
X11430229Y-8579698D02*
X11420705Y-8589222D01*
X11420705Y-8589222D02*
X11411182Y-8579698D01*
X11411182Y-8579698D02*
X11420705Y-8570174D01*
X11420705Y-8570174D02*
X11420705Y-8589222D01*
D12*
X9723500Y-8990000D02*
X9788500Y-9055000D01*
X9788500Y-8990000D02*
X9723500Y-9055000D01*
D11*
X10087372Y-8913984D02*
X10106420Y-8913984D01*
X10106420Y-8913984D02*
X10125467Y-8923508D01*
X10125467Y-8923508D02*
X10134991Y-8933031D01*
X10134991Y-8933031D02*
X10144515Y-8952079D01*
X10144515Y-8952079D02*
X10154039Y-8990174D01*
X10154039Y-8990174D02*
X10154039Y-9037793D01*
X10154039Y-9037793D02*
X10144515Y-9075889D01*
X10144515Y-9075889D02*
X10134991Y-9094936D01*
X10134991Y-9094936D02*
X10125467Y-9104460D01*
X10125467Y-9104460D02*
X10106420Y-9113984D01*
X10106420Y-9113984D02*
X10087372Y-9113984D01*
X10087372Y-9113984D02*
X10068324Y-9104460D01*
X10068324Y-9104460D02*
X10058801Y-9094936D01*
X10058801Y-9094936D02*
X10049277Y-9075889D01*
X10049277Y-9075889D02*
X10039753Y-9037793D01*
X10039753Y-9037793D02*
X10039753Y-8990174D01*
X10039753Y-8990174D02*
X10049277Y-8952079D01*
X10049277Y-8952079D02*
X10058801Y-8933031D01*
X10058801Y-8933031D02*
X10068324Y-8923508D01*
X10068324Y-8923508D02*
X10087372Y-8913984D01*
X10239753Y-9094936D02*
X10249277Y-9104460D01*
X10249277Y-9104460D02*
X10239753Y-9113984D01*
X10239753Y-9113984D02*
X10230229Y-9104460D01*
X10230229Y-9104460D02*
X10239753Y-9094936D01*
X10239753Y-9094936D02*
X10239753Y-9113984D01*
X10420705Y-8913984D02*
X10382610Y-8913984D01*
X10382610Y-8913984D02*
X10363563Y-8923508D01*
X10363563Y-8923508D02*
X10354039Y-8933031D01*
X10354039Y-8933031D02*
X10334991Y-8961603D01*
X10334991Y-8961603D02*
X10325467Y-8999698D01*
X10325467Y-8999698D02*
X10325467Y-9075889D01*
X10325467Y-9075889D02*
X10334991Y-9094936D01*
X10334991Y-9094936D02*
X10344515Y-9104460D01*
X10344515Y-9104460D02*
X10363563Y-9113984D01*
X10363563Y-9113984D02*
X10401658Y-9113984D01*
X10401658Y-9113984D02*
X10420705Y-9104460D01*
X10420705Y-9104460D02*
X10430229Y-9094936D01*
X10430229Y-9094936D02*
X10439753Y-9075889D01*
X10439753Y-9075889D02*
X10439753Y-9028270D01*
X10439753Y-9028270D02*
X10430229Y-9009222D01*
X10430229Y-9009222D02*
X10420705Y-8999698D01*
X10420705Y-8999698D02*
X10401658Y-8990174D01*
X10401658Y-8990174D02*
X10363563Y-8990174D01*
X10363563Y-8990174D02*
X10344515Y-8999698D01*
X10344515Y-8999698D02*
X10334991Y-9009222D01*
X10334991Y-9009222D02*
X10325467Y-9028270D01*
X10620705Y-8913984D02*
X10525467Y-8913984D01*
X10525467Y-8913984D02*
X10515944Y-9009222D01*
X10515944Y-9009222D02*
X10525467Y-8999698D01*
X10525467Y-8999698D02*
X10544515Y-8990174D01*
X10544515Y-8990174D02*
X10592134Y-8990174D01*
X10592134Y-8990174D02*
X10611182Y-8999698D01*
X10611182Y-8999698D02*
X10620705Y-9009222D01*
X10620705Y-9009222D02*
X10630229Y-9028270D01*
X10630229Y-9028270D02*
X10630229Y-9075889D01*
X10630229Y-9075889D02*
X10620705Y-9094936D01*
X10620705Y-9094936D02*
X10611182Y-9104460D01*
X10611182Y-9104460D02*
X10592134Y-9113984D01*
X10592134Y-9113984D02*
X10544515Y-9113984D01*
X10544515Y-9113984D02*
X10525467Y-9104460D01*
X10525467Y-9104460D02*
X10515944Y-9094936D01*
X10754039Y-8913984D02*
X10773086Y-8913984D01*
X10773086Y-8913984D02*
X10792134Y-8923508D01*
X10792134Y-8923508D02*
X10801658Y-8933031D01*
X10801658Y-8933031D02*
X10811182Y-8952079D01*
X10811182Y-8952079D02*
X10820705Y-8990174D01*
X10820705Y-8990174D02*
X10820705Y-9037793D01*
X10820705Y-9037793D02*
X10811182Y-9075889D01*
X10811182Y-9075889D02*
X10801658Y-9094936D01*
X10801658Y-9094936D02*
X10792134Y-9104460D01*
X10792134Y-9104460D02*
X10773086Y-9113984D01*
X10773086Y-9113984D02*
X10754039Y-9113984D01*
X10754039Y-9113984D02*
X10734991Y-9104460D01*
X10734991Y-9104460D02*
X10725467Y-9094936D01*
X10725467Y-9094936D02*
X10715944Y-9075889D01*
X10715944Y-9075889D02*
X10706420Y-9037793D01*
X10706420Y-9037793D02*
X10706420Y-8990174D01*
X10706420Y-8990174D02*
X10715944Y-8952079D01*
X10715944Y-8952079D02*
X10725467Y-8933031D01*
X10725467Y-8933031D02*
X10734991Y-8923508D01*
X10734991Y-8923508D02*
X10754039Y-8913984D01*
X10906420Y-9113984D02*
X10906420Y-8980650D01*
X10906420Y-8999698D02*
X10915944Y-8990174D01*
X10915944Y-8990174D02*
X10934991Y-8980650D01*
X10934991Y-8980650D02*
X10963563Y-8980650D01*
X10963563Y-8980650D02*
X10982610Y-8990174D01*
X10982610Y-8990174D02*
X10992134Y-9009222D01*
X10992134Y-9009222D02*
X10992134Y-9113984D01*
X10992134Y-9009222D02*
X11001658Y-8990174D01*
X11001658Y-8990174D02*
X11020705Y-8980650D01*
X11020705Y-8980650D02*
X11049277Y-8980650D01*
X11049277Y-8980650D02*
X11068325Y-8990174D01*
X11068325Y-8990174D02*
X11077848Y-9009222D01*
X11077848Y-9009222D02*
X11077848Y-9113984D01*
X11173086Y-9113984D02*
X11173086Y-8980650D01*
X11173086Y-8999698D02*
X11182610Y-8990174D01*
X11182610Y-8990174D02*
X11201658Y-8980650D01*
X11201658Y-8980650D02*
X11230229Y-8980650D01*
X11230229Y-8980650D02*
X11249277Y-8990174D01*
X11249277Y-8990174D02*
X11258801Y-9009222D01*
X11258801Y-9009222D02*
X11258801Y-9113984D01*
X11258801Y-9009222D02*
X11268324Y-8990174D01*
X11268324Y-8990174D02*
X11287372Y-8980650D01*
X11287372Y-8980650D02*
X11315943Y-8980650D01*
X11315943Y-8980650D02*
X11334991Y-8990174D01*
X11334991Y-8990174D02*
X11344515Y-9009222D01*
X11344515Y-9009222D02*
X11344515Y-9113984D01*
X11734991Y-8904460D02*
X11563563Y-9161603D01*
X11992134Y-8913984D02*
X12011182Y-8913984D01*
X12011182Y-8913984D02*
X12030229Y-8923508D01*
X12030229Y-8923508D02*
X12039753Y-8933031D01*
X12039753Y-8933031D02*
X12049277Y-8952079D01*
X12049277Y-8952079D02*
X12058801Y-8990174D01*
X12058801Y-8990174D02*
X12058801Y-9037793D01*
X12058801Y-9037793D02*
X12049277Y-9075889D01*
X12049277Y-9075889D02*
X12039753Y-9094936D01*
X12039753Y-9094936D02*
X12030229Y-9104460D01*
X12030229Y-9104460D02*
X12011182Y-9113984D01*
X12011182Y-9113984D02*
X11992134Y-9113984D01*
X11992134Y-9113984D02*
X11973086Y-9104460D01*
X11973086Y-9104460D02*
X11963563Y-9094936D01*
X11963563Y-9094936D02*
X11954039Y-9075889D01*
X11954039Y-9075889D02*
X11944515Y-9037793D01*
X11944515Y-9037793D02*
X11944515Y-8990174D01*
X11944515Y-8990174D02*
X11954039Y-8952079D01*
X11954039Y-8952079D02*
X11963563Y-8933031D01*
X11963563Y-8933031D02*
X11973086Y-8923508D01*
X11973086Y-8923508D02*
X11992134Y-8913984D01*
X12144515Y-9094936D02*
X12154039Y-9104460D01*
X12154039Y-9104460D02*
X12144515Y-9113984D01*
X12144515Y-9113984D02*
X12134991Y-9104460D01*
X12134991Y-9104460D02*
X12144515Y-9094936D01*
X12144515Y-9094936D02*
X12144515Y-9113984D01*
X12277848Y-8913984D02*
X12296896Y-8913984D01*
X12296896Y-8913984D02*
X12315944Y-8923508D01*
X12315944Y-8923508D02*
X12325467Y-8933031D01*
X12325467Y-8933031D02*
X12334991Y-8952079D01*
X12334991Y-8952079D02*
X12344515Y-8990174D01*
X12344515Y-8990174D02*
X12344515Y-9037793D01*
X12344515Y-9037793D02*
X12334991Y-9075889D01*
X12334991Y-9075889D02*
X12325467Y-9094936D01*
X12325467Y-9094936D02*
X12315944Y-9104460D01*
X12315944Y-9104460D02*
X12296896Y-9113984D01*
X12296896Y-9113984D02*
X12277848Y-9113984D01*
X12277848Y-9113984D02*
X12258801Y-9104460D01*
X12258801Y-9104460D02*
X12249277Y-9094936D01*
X12249277Y-9094936D02*
X12239753Y-9075889D01*
X12239753Y-9075889D02*
X12230229Y-9037793D01*
X12230229Y-9037793D02*
X12230229Y-8990174D01*
X12230229Y-8990174D02*
X12239753Y-8952079D01*
X12239753Y-8952079D02*
X12249277Y-8933031D01*
X12249277Y-8933031D02*
X12258801Y-8923508D01*
X12258801Y-8923508D02*
X12277848Y-8913984D01*
X12420706Y-8933031D02*
X12430229Y-8923508D01*
X12430229Y-8923508D02*
X12449277Y-8913984D01*
X12449277Y-8913984D02*
X12496896Y-8913984D01*
X12496896Y-8913984D02*
X12515944Y-8923508D01*
X12515944Y-8923508D02*
X12525467Y-8933031D01*
X12525467Y-8933031D02*
X12534991Y-8952079D01*
X12534991Y-8952079D02*
X12534991Y-8971127D01*
X12534991Y-8971127D02*
X12525467Y-8999698D01*
X12525467Y-8999698D02*
X12411182Y-9113984D01*
X12411182Y-9113984D02*
X12534991Y-9113984D01*
X12715944Y-8913984D02*
X12620706Y-8913984D01*
X12620706Y-8913984D02*
X12611182Y-9009222D01*
X12611182Y-9009222D02*
X12620706Y-8999698D01*
X12620706Y-8999698D02*
X12639753Y-8990174D01*
X12639753Y-8990174D02*
X12687372Y-8990174D01*
X12687372Y-8990174D02*
X12706420Y-8999698D01*
X12706420Y-8999698D02*
X12715944Y-9009222D01*
X12715944Y-9009222D02*
X12725467Y-9028270D01*
X12725467Y-9028270D02*
X12725467Y-9075889D01*
X12725467Y-9075889D02*
X12715944Y-9094936D01*
X12715944Y-9094936D02*
X12706420Y-9104460D01*
X12706420Y-9104460D02*
X12687372Y-9113984D01*
X12687372Y-9113984D02*
X12639753Y-9113984D01*
X12639753Y-9113984D02*
X12620706Y-9104460D01*
X12620706Y-9104460D02*
X12611182Y-9094936D01*
X12896896Y-8913984D02*
X12858801Y-8913984D01*
X12858801Y-8913984D02*
X12839753Y-8923508D01*
X12839753Y-8923508D02*
X12830229Y-8933031D01*
X12830229Y-8933031D02*
X12811182Y-8961603D01*
X12811182Y-8961603D02*
X12801658Y-8999698D01*
X12801658Y-8999698D02*
X12801658Y-9075889D01*
X12801658Y-9075889D02*
X12811182Y-9094936D01*
X12811182Y-9094936D02*
X12820706Y-9104460D01*
X12820706Y-9104460D02*
X12839753Y-9113984D01*
X12839753Y-9113984D02*
X12877848Y-9113984D01*
X12877848Y-9113984D02*
X12896896Y-9104460D01*
X12896896Y-9104460D02*
X12906420Y-9094936D01*
X12906420Y-9094936D02*
X12915944Y-9075889D01*
X12915944Y-9075889D02*
X12915944Y-9028270D01*
X12915944Y-9028270D02*
X12906420Y-9009222D01*
X12906420Y-9009222D02*
X12896896Y-8999698D01*
X12896896Y-8999698D02*
X12877848Y-8990174D01*
X12877848Y-8990174D02*
X12839753Y-8990174D01*
X12839753Y-8990174D02*
X12820706Y-8999698D01*
X12820706Y-8999698D02*
X12811182Y-9009222D01*
X12811182Y-9009222D02*
X12801658Y-9028270D01*
X12992134Y-8913984D02*
X12992134Y-8952079D01*
X13068325Y-8913984D02*
X13068325Y-8952079D01*
X13363563Y-9190174D02*
X13354039Y-9180650D01*
X13354039Y-9180650D02*
X13334991Y-9152079D01*
X13334991Y-9152079D02*
X13325468Y-9133031D01*
X13325468Y-9133031D02*
X13315944Y-9104460D01*
X13315944Y-9104460D02*
X13306420Y-9056841D01*
X13306420Y-9056841D02*
X13306420Y-9018746D01*
X13306420Y-9018746D02*
X13315944Y-8971127D01*
X13315944Y-8971127D02*
X13325468Y-8942555D01*
X13325468Y-8942555D02*
X13334991Y-8923508D01*
X13334991Y-8923508D02*
X13354039Y-8894936D01*
X13354039Y-8894936D02*
X13363563Y-8885412D01*
X13430229Y-8933031D02*
X13439753Y-8923508D01*
X13439753Y-8923508D02*
X13458801Y-8913984D01*
X13458801Y-8913984D02*
X13506420Y-8913984D01*
X13506420Y-8913984D02*
X13525468Y-8923508D01*
X13525468Y-8923508D02*
X13534991Y-8933031D01*
X13534991Y-8933031D02*
X13544515Y-8952079D01*
X13544515Y-8952079D02*
X13544515Y-8971127D01*
X13544515Y-8971127D02*
X13534991Y-8999698D01*
X13534991Y-8999698D02*
X13420706Y-9113984D01*
X13420706Y-9113984D02*
X13544515Y-9113984D01*
X13782610Y-9113984D02*
X13782610Y-8913984D01*
X13868325Y-9113984D02*
X13868325Y-9009222D01*
X13868325Y-9009222D02*
X13858801Y-8990174D01*
X13858801Y-8990174D02*
X13839753Y-8980650D01*
X13839753Y-8980650D02*
X13811182Y-8980650D01*
X13811182Y-8980650D02*
X13792134Y-8990174D01*
X13792134Y-8990174D02*
X13782610Y-8999698D01*
X13992134Y-9113984D02*
X13973087Y-9104460D01*
X13973087Y-9104460D02*
X13963563Y-9094936D01*
X13963563Y-9094936D02*
X13954039Y-9075889D01*
X13954039Y-9075889D02*
X13954039Y-9018746D01*
X13954039Y-9018746D02*
X13963563Y-8999698D01*
X13963563Y-8999698D02*
X13973087Y-8990174D01*
X13973087Y-8990174D02*
X13992134Y-8980650D01*
X13992134Y-8980650D02*
X14020706Y-8980650D01*
X14020706Y-8980650D02*
X14039753Y-8990174D01*
X14039753Y-8990174D02*
X14049277Y-8999698D01*
X14049277Y-8999698D02*
X14058801Y-9018746D01*
X14058801Y-9018746D02*
X14058801Y-9075889D01*
X14058801Y-9075889D02*
X14049277Y-9094936D01*
X14049277Y-9094936D02*
X14039753Y-9104460D01*
X14039753Y-9104460D02*
X14020706Y-9113984D01*
X14020706Y-9113984D02*
X13992134Y-9113984D01*
X14173087Y-9113984D02*
X14154039Y-9104460D01*
X14154039Y-9104460D02*
X14144515Y-9085412D01*
X14144515Y-9085412D02*
X14144515Y-8913984D01*
X14325468Y-9104460D02*
X14306420Y-9113984D01*
X14306420Y-9113984D02*
X14268325Y-9113984D01*
X14268325Y-9113984D02*
X14249277Y-9104460D01*
X14249277Y-9104460D02*
X14239753Y-9085412D01*
X14239753Y-9085412D02*
X14239753Y-9009222D01*
X14239753Y-9009222D02*
X14249277Y-8990174D01*
X14249277Y-8990174D02*
X14268325Y-8980650D01*
X14268325Y-8980650D02*
X14306420Y-8980650D01*
X14306420Y-8980650D02*
X14325468Y-8990174D01*
X14325468Y-8990174D02*
X14334991Y-9009222D01*
X14334991Y-9009222D02*
X14334991Y-9028270D01*
X14334991Y-9028270D02*
X14239753Y-9047317D01*
X14411182Y-9104460D02*
X14430230Y-9113984D01*
X14430230Y-9113984D02*
X14468325Y-9113984D01*
X14468325Y-9113984D02*
X14487372Y-9104460D01*
X14487372Y-9104460D02*
X14496896Y-9085412D01*
X14496896Y-9085412D02*
X14496896Y-9075889D01*
X14496896Y-9075889D02*
X14487372Y-9056841D01*
X14487372Y-9056841D02*
X14468325Y-9047317D01*
X14468325Y-9047317D02*
X14439753Y-9047317D01*
X14439753Y-9047317D02*
X14420706Y-9037793D01*
X14420706Y-9037793D02*
X14411182Y-9018746D01*
X14411182Y-9018746D02*
X14411182Y-9009222D01*
X14411182Y-9009222D02*
X14420706Y-8990174D01*
X14420706Y-8990174D02*
X14439753Y-8980650D01*
X14439753Y-8980650D02*
X14468325Y-8980650D01*
X14468325Y-8980650D02*
X14487372Y-8990174D01*
X14563563Y-9190174D02*
X14573087Y-9180650D01*
X14573087Y-9180650D02*
X14592134Y-9152079D01*
X14592134Y-9152079D02*
X14601658Y-9133031D01*
X14601658Y-9133031D02*
X14611182Y-9104460D01*
X14611182Y-9104460D02*
X14620706Y-9056841D01*
X14620706Y-9056841D02*
X14620706Y-9018746D01*
X14620706Y-9018746D02*
X14611182Y-8971127D01*
X14611182Y-8971127D02*
X14601658Y-8942555D01*
X14601658Y-8942555D02*
X14592134Y-8923508D01*
X14592134Y-8923508D02*
X14573087Y-8894936D01*
X14573087Y-8894936D02*
X14563563Y-8885412D01*
X14925468Y-9190174D02*
X14915944Y-9180650D01*
X14915944Y-9180650D02*
X14896896Y-9152079D01*
X14896896Y-9152079D02*
X14887372Y-9133031D01*
X14887372Y-9133031D02*
X14877849Y-9104460D01*
X14877849Y-9104460D02*
X14868325Y-9056841D01*
X14868325Y-9056841D02*
X14868325Y-9018746D01*
X14868325Y-9018746D02*
X14877849Y-8971127D01*
X14877849Y-8971127D02*
X14887372Y-8942555D01*
X14887372Y-8942555D02*
X14896896Y-8923508D01*
X14896896Y-8923508D02*
X14915944Y-8894936D01*
X14915944Y-8894936D02*
X14925468Y-8885412D01*
X15001658Y-8980650D02*
X15001658Y-9113984D01*
X15001658Y-8999698D02*
X15011182Y-8990174D01*
X15011182Y-8990174D02*
X15030230Y-8980650D01*
X15030230Y-8980650D02*
X15058801Y-8980650D01*
X15058801Y-8980650D02*
X15077849Y-8990174D01*
X15077849Y-8990174D02*
X15087372Y-9009222D01*
X15087372Y-9009222D02*
X15087372Y-9113984D01*
X15211182Y-9113984D02*
X15192134Y-9104460D01*
X15192134Y-9104460D02*
X15182611Y-9094936D01*
X15182611Y-9094936D02*
X15173087Y-9075889D01*
X15173087Y-9075889D02*
X15173087Y-9018746D01*
X15173087Y-9018746D02*
X15182611Y-8999698D01*
X15182611Y-8999698D02*
X15192134Y-8990174D01*
X15192134Y-8990174D02*
X15211182Y-8980650D01*
X15211182Y-8980650D02*
X15239753Y-8980650D01*
X15239753Y-8980650D02*
X15258801Y-8990174D01*
X15258801Y-8990174D02*
X15268325Y-8999698D01*
X15268325Y-8999698D02*
X15277849Y-9018746D01*
X15277849Y-9018746D02*
X15277849Y-9075889D01*
X15277849Y-9075889D02*
X15268325Y-9094936D01*
X15268325Y-9094936D02*
X15258801Y-9104460D01*
X15258801Y-9104460D02*
X15239753Y-9113984D01*
X15239753Y-9113984D02*
X15211182Y-9113984D01*
X15334992Y-8980650D02*
X15411182Y-8980650D01*
X15363563Y-8913984D02*
X15363563Y-9085412D01*
X15363563Y-9085412D02*
X15373087Y-9104460D01*
X15373087Y-9104460D02*
X15392134Y-9113984D01*
X15392134Y-9113984D02*
X15411182Y-9113984D01*
X15630230Y-8980650D02*
X15630230Y-9180650D01*
X15630230Y-8990174D02*
X15649277Y-8980650D01*
X15649277Y-8980650D02*
X15687373Y-8980650D01*
X15687373Y-8980650D02*
X15706420Y-8990174D01*
X15706420Y-8990174D02*
X15715944Y-8999698D01*
X15715944Y-8999698D02*
X15725468Y-9018746D01*
X15725468Y-9018746D02*
X15725468Y-9075889D01*
X15725468Y-9075889D02*
X15715944Y-9094936D01*
X15715944Y-9094936D02*
X15706420Y-9104460D01*
X15706420Y-9104460D02*
X15687373Y-9113984D01*
X15687373Y-9113984D02*
X15649277Y-9113984D01*
X15649277Y-9113984D02*
X15630230Y-9104460D01*
X15839753Y-9113984D02*
X15820706Y-9104460D01*
X15820706Y-9104460D02*
X15811182Y-9085412D01*
X15811182Y-9085412D02*
X15811182Y-8913984D01*
X16001658Y-9113984D02*
X16001658Y-9009222D01*
X16001658Y-9009222D02*
X15992134Y-8990174D01*
X15992134Y-8990174D02*
X15973087Y-8980650D01*
X15973087Y-8980650D02*
X15934992Y-8980650D01*
X15934992Y-8980650D02*
X15915944Y-8990174D01*
X16001658Y-9104460D02*
X15982611Y-9113984D01*
X15982611Y-9113984D02*
X15934992Y-9113984D01*
X15934992Y-9113984D02*
X15915944Y-9104460D01*
X15915944Y-9104460D02*
X15906420Y-9085412D01*
X15906420Y-9085412D02*
X15906420Y-9066365D01*
X15906420Y-9066365D02*
X15915944Y-9047317D01*
X15915944Y-9047317D02*
X15934992Y-9037793D01*
X15934992Y-9037793D02*
X15982611Y-9037793D01*
X15982611Y-9037793D02*
X16001658Y-9028270D01*
X16068325Y-8980650D02*
X16144515Y-8980650D01*
X16096896Y-8913984D02*
X16096896Y-9085412D01*
X16096896Y-9085412D02*
X16106420Y-9104460D01*
X16106420Y-9104460D02*
X16125468Y-9113984D01*
X16125468Y-9113984D02*
X16144515Y-9113984D01*
X16287373Y-9104460D02*
X16268325Y-9113984D01*
X16268325Y-9113984D02*
X16230230Y-9113984D01*
X16230230Y-9113984D02*
X16211182Y-9104460D01*
X16211182Y-9104460D02*
X16201658Y-9085412D01*
X16201658Y-9085412D02*
X16201658Y-9009222D01*
X16201658Y-9009222D02*
X16211182Y-8990174D01*
X16211182Y-8990174D02*
X16230230Y-8980650D01*
X16230230Y-8980650D02*
X16268325Y-8980650D01*
X16268325Y-8980650D02*
X16287373Y-8990174D01*
X16287373Y-8990174D02*
X16296896Y-9009222D01*
X16296896Y-9009222D02*
X16296896Y-9028270D01*
X16296896Y-9028270D02*
X16201658Y-9047317D01*
X16468325Y-9113984D02*
X16468325Y-8913984D01*
X16468325Y-9104460D02*
X16449277Y-9113984D01*
X16449277Y-9113984D02*
X16411182Y-9113984D01*
X16411182Y-9113984D02*
X16392134Y-9104460D01*
X16392134Y-9104460D02*
X16382611Y-9094936D01*
X16382611Y-9094936D02*
X16373087Y-9075889D01*
X16373087Y-9075889D02*
X16373087Y-9018746D01*
X16373087Y-9018746D02*
X16382611Y-8999698D01*
X16382611Y-8999698D02*
X16392134Y-8990174D01*
X16392134Y-8990174D02*
X16411182Y-8980650D01*
X16411182Y-8980650D02*
X16449277Y-8980650D01*
X16449277Y-8980650D02*
X16468325Y-8990174D01*
X16544515Y-9190174D02*
X16554039Y-9180650D01*
X16554039Y-9180650D02*
X16573087Y-9152079D01*
X16573087Y-9152079D02*
X16582611Y-9133031D01*
X16582611Y-9133031D02*
X16592134Y-9104460D01*
X16592134Y-9104460D02*
X16601658Y-9056841D01*
X16601658Y-9056841D02*
X16601658Y-9018746D01*
X16601658Y-9018746D02*
X16592134Y-8971127D01*
X16592134Y-8971127D02*
X16582611Y-8942555D01*
X16582611Y-8942555D02*
X16573087Y-8923508D01*
X16573087Y-8923508D02*
X16554039Y-8894936D01*
X16554039Y-8894936D02*
X16544515Y-8885412D01*
M02*
