%TF.GenerationSoftware,KiCad,Pcbnew,8.0.5-8.0.5-0~ubuntu24.04.1*%
%TF.CreationDate,2024-10-10T17:44:54+02:00*%
%TF.ProjectId,epi_ESP32_PD,6570695f-4553-4503-9332-5f50442e6b69,1_1*%
%TF.SameCoordinates,Original*%
%TF.FileFunction,Copper,L2,Inr*%
%TF.FilePolarity,Positive*%
%FSLAX46Y46*%
G04 Gerber Fmt 4.6, Leading zero omitted, Abs format (unit mm)*
G04 Created by KiCad (PCBNEW 8.0.5-8.0.5-0~ubuntu24.04.1) date 2024-10-10 17:44:54*
%MOMM*%
%LPD*%
G01*
G04 APERTURE LIST*
%TA.AperFunction,ComponentPad*%
%ADD10C,1.700000*%
%TD*%
%TA.AperFunction,ComponentPad*%
%ADD11O,1.700000X1.700000*%
%TD*%
%TA.AperFunction,ComponentPad*%
%ADD12R,1.700000X1.700000*%
%TD*%
%TA.AperFunction,ComponentPad*%
%ADD13O,1.000000X2.100000*%
%TD*%
%TA.AperFunction,ComponentPad*%
%ADD14O,1.000000X1.800000*%
%TD*%
%TA.AperFunction,ViaPad*%
%ADD15C,0.600000*%
%TD*%
G04 APERTURE END LIST*
D10*
%TO.N,+3.3V*%
%TO.C,J8*%
X97900000Y-71860000D03*
D11*
%TO.N,IO0*%
X97900000Y-74400000D03*
D12*
%TO.N,GND*%
X97900000Y-76940000D03*
%TD*%
D10*
%TO.N,+3.3V*%
%TO.C,J3*%
X110600000Y-47910000D03*
D11*
%TO.N,GND*%
X110600000Y-50450000D03*
%TO.N,+5V*%
X110600000Y-52990000D03*
%TO.N,EN*%
X110600000Y-55530000D03*
%TO.N,BOOT*%
X110600000Y-58070000D03*
%TO.N,IO8*%
X110600000Y-60610000D03*
%TO.N,IO7*%
X110600000Y-63150000D03*
%TO.N,IO6*%
X110600000Y-65690000D03*
%TD*%
D10*
%TO.N,VOUT*%
%TO.C,J7*%
X106640000Y-79860000D03*
D12*
%TO.N,GND*%
X106640000Y-82400000D03*
D11*
%TO.N,B*%
X104100000Y-79860000D03*
%TO.N,IO2_5V*%
X104100000Y-82400000D03*
%TO.N,W*%
X101560000Y-79860000D03*
%TO.N,IO3_5V*%
X101560000Y-82400000D03*
%TD*%
D10*
%TO.N,U0TXD*%
%TO.C,J1*%
X97900000Y-47910000D03*
D11*
%TO.N,U0RXD*%
X97900000Y-50450000D03*
%TO.N,IO0*%
X97900000Y-52990000D03*
%TO.N,IO1*%
X97900000Y-55530000D03*
%TO.N,IO2*%
X97900000Y-58070000D03*
%TO.N,IO3*%
X97900000Y-60610000D03*
%TO.N,IO4*%
X97900000Y-63150000D03*
%TO.N,IO5*%
X97900000Y-65690000D03*
%TD*%
D13*
%TO.N,GND*%
%TO.C,J2*%
X108570000Y-39490000D03*
D14*
X108570000Y-35290000D03*
D13*
X99930000Y-39490000D03*
D14*
X99930000Y-35290000D03*
%TD*%
D15*
%TO.N,+5V*%
X99485839Y-71914161D03*
X104000923Y-49800000D03*
%TO.N,GND*%
X106500000Y-65600000D03*
X100282280Y-64389187D03*
X106600000Y-48500000D03*
X103550000Y-76200000D03*
X102650937Y-63829741D03*
X101316848Y-62744207D03*
X102400000Y-69700000D03*
X102200000Y-62500000D03*
X100627768Y-63433287D03*
X105550923Y-44100000D03*
X106500000Y-64100000D03*
X106500000Y-59300000D03*
X99600000Y-69700000D03*
X106500000Y-64837500D03*
X106300000Y-71000000D03*
X101500000Y-54500000D03*
X104500000Y-72300000D03*
X100279886Y-65179886D03*
X105800000Y-48100000D03*
X100500000Y-54500000D03*
X101650000Y-76200000D03*
X101422885Y-65200000D03*
X102600000Y-76200000D03*
X101900000Y-64300000D03*
%TO.N,+3.3V*%
X104300000Y-62000000D03*
X99857536Y-79278365D03*
X107500000Y-77475000D03*
X103100000Y-71800000D03*
X99700000Y-74900000D03*
X109685840Y-56485840D03*
X105625000Y-53800000D03*
X107117246Y-68906905D03*
%TO.N,IO0*%
X104990839Y-63990839D03*
%TO.N,IO1*%
X104980383Y-64798262D03*
%TO.N,IO2*%
X104974663Y-65828262D03*
X101400000Y-70900000D03*
%TO.N,IO3*%
X103598043Y-66962534D03*
%TO.N,D+*%
X104029766Y-41469726D03*
X106630499Y-43529420D03*
X104581763Y-58507213D03*
%TO.N,D-*%
X104864794Y-41491581D03*
X106618954Y-42541847D03*
X105150922Y-58018785D03*
%TO.N,IO4*%
X103637172Y-67711515D03*
%TO.N,IO8*%
X107232601Y-66400000D03*
%TO.N,IO5*%
X103600000Y-68500000D03*
%TO.N,EN*%
X102667126Y-59632184D03*
X105452598Y-66406258D03*
%TO.N,BOOT*%
X106289882Y-63287499D03*
X101449721Y-61070001D03*
%TO.N,U0TXD*%
X106552903Y-61571365D03*
%TO.N,U0RXD*%
X107302347Y-61600297D03*
%TO.N,IO7*%
X99857536Y-76200511D03*
X106482598Y-66400000D03*
%TO.N,IO6*%
X104262771Y-77462771D03*
X106282978Y-68200000D03*
%TO.N,IO10*%
X105133029Y-70334500D03*
X107107114Y-68156336D03*
%TO.N,IO3_5V*%
X107400000Y-76400000D03*
%TO.N,IO2_5V*%
X102080000Y-74300000D03*
%TO.N,VOUT*%
X109900000Y-73600000D03*
X109900000Y-72700000D03*
%TO.N,Net-(JP1-B)*%
X106641583Y-45518323D03*
%TO.N,Net-(JP2-B)*%
X106654785Y-44506062D03*
%TO.N,Net-(JP3-A)*%
X102375000Y-45100000D03*
%TO.N,VIN*%
X106200000Y-38900000D03*
X102300000Y-38900000D03*
X106700000Y-41100000D03*
X101900000Y-41100000D03*
X104000000Y-55800000D03*
X107800000Y-71487500D03*
X107800000Y-70587500D03*
X98900000Y-45400000D03*
X106554676Y-47488645D03*
%TD*%
%TA.AperFunction,Conductor*%
%TO.N,GND*%
G36*
X101400000Y-42400000D02*
G01*
X98090941Y-42400000D01*
X98090641Y-39700000D01*
X101400000Y-39700000D01*
X101400000Y-42400000D01*
G37*
%TD.AperFunction*%
%TD*%
%TA.AperFunction,Conductor*%
%TO.N,GND*%
G36*
X110390087Y-41100000D02*
G01*
X110390374Y-42400000D01*
X107200000Y-42400000D01*
X107200000Y-39700000D01*
X110389779Y-39700000D01*
X110390087Y-41100000D01*
G37*
%TD.AperFunction*%
%TD*%
%TA.AperFunction,Conductor*%
%TO.N,GND*%
G36*
X107900000Y-83600000D02*
G01*
X105400000Y-83600000D01*
X105400000Y-81300000D01*
X107900000Y-81300000D01*
X107900000Y-83600000D01*
G37*
%TD.AperFunction*%
%TD*%
%TA.AperFunction,Conductor*%
%TO.N,GND*%
G36*
X101624867Y-74300000D02*
G01*
X101643302Y-74428225D01*
X101669686Y-74485996D01*
X101697118Y-74546063D01*
X101781951Y-74643967D01*
X101890931Y-74714004D01*
X102015225Y-74750499D01*
X102015227Y-74750500D01*
X102015228Y-74750500D01*
X102144773Y-74750500D01*
X102144773Y-74750499D01*
X102269069Y-74714004D01*
X102378049Y-74643967D01*
X102462882Y-74546063D01*
X102516697Y-74428226D01*
X102535133Y-74300000D01*
X102520755Y-74200000D01*
X105300000Y-74200000D01*
X105300000Y-76200000D01*
X100400000Y-76200000D01*
X100400000Y-74200000D01*
X101639244Y-74200000D01*
X101624867Y-74300000D01*
G37*
%TD.AperFunction*%
%TD*%
%TA.AperFunction,Conductor*%
%TO.N,GND*%
G36*
X110370755Y-34119245D02*
G01*
X110389500Y-34164500D01*
X110389500Y-36195705D01*
X110370755Y-36240960D01*
X110336615Y-36258732D01*
X110278093Y-36269052D01*
X110278088Y-36269053D01*
X110080702Y-36340896D01*
X109990035Y-36393243D01*
X109898777Y-36445931D01*
X109898776Y-36445932D01*
X109898769Y-36445936D01*
X109737861Y-36580954D01*
X109737854Y-36580961D01*
X109602836Y-36741869D01*
X109602832Y-36741875D01*
X109602831Y-36741877D01*
X109602815Y-36741905D01*
X109497796Y-36923802D01*
X109425954Y-37121186D01*
X109425953Y-37121190D01*
X109425952Y-37121194D01*
X109389475Y-37328068D01*
X109389475Y-37538132D01*
X109425952Y-37745006D01*
X109425953Y-37745010D01*
X109425954Y-37745013D01*
X109497796Y-37942397D01*
X109497799Y-37942402D01*
X109602831Y-38124323D01*
X109602834Y-38124326D01*
X109602836Y-38124330D01*
X109737854Y-38285238D01*
X109737861Y-38285245D01*
X109898769Y-38420263D01*
X109898771Y-38420264D01*
X109898777Y-38420269D01*
X110080698Y-38525301D01*
X110080699Y-38525301D01*
X110080702Y-38525303D01*
X110165135Y-38556034D01*
X110278094Y-38597148D01*
X110334822Y-38607150D01*
X110336664Y-38607475D01*
X110377976Y-38633794D01*
X110389551Y-38670489D01*
X110389778Y-39700000D01*
X109200000Y-39700000D01*
X109200000Y-39640000D01*
X108870000Y-39640000D01*
X108870000Y-39340000D01*
X109200000Y-39340000D01*
X109200000Y-38877947D01*
X109175790Y-38756240D01*
X109175789Y-38756238D01*
X109128298Y-38641582D01*
X109059353Y-38538399D01*
X108971600Y-38450646D01*
X108868417Y-38381701D01*
X108753760Y-38334209D01*
X108720000Y-38327493D01*
X108720000Y-38680191D01*
X108685796Y-38660444D01*
X108609496Y-38640000D01*
X108530504Y-38640000D01*
X108454204Y-38660444D01*
X108420000Y-38680191D01*
X108420000Y-38327494D01*
X108419999Y-38327493D01*
X108386239Y-38334209D01*
X108271582Y-38381701D01*
X108168399Y-38450646D01*
X108080646Y-38538399D01*
X108011701Y-38641582D01*
X107964210Y-38756238D01*
X107964209Y-38756240D01*
X107940000Y-38877947D01*
X107940000Y-39340000D01*
X108270000Y-39340000D01*
X108270000Y-39640000D01*
X107940000Y-39640000D01*
X107940000Y-39700000D01*
X107200000Y-39700000D01*
X107200000Y-42400000D01*
X110390373Y-42400000D01*
X110391360Y-46880289D01*
X110372625Y-46925548D01*
X110345939Y-46941547D01*
X110215269Y-46981187D01*
X110041466Y-47074087D01*
X110041461Y-47074090D01*
X109889117Y-47199116D01*
X109889116Y-47199117D01*
X109764090Y-47351461D01*
X109764087Y-47351466D01*
X109671187Y-47525269D01*
X109613975Y-47713867D01*
X109594659Y-47910000D01*
X109613975Y-48106132D01*
X109671187Y-48294730D01*
X109764087Y-48468533D01*
X109764090Y-48468538D01*
X109889117Y-48620883D01*
X110041462Y-48745910D01*
X110041466Y-48745912D01*
X110215270Y-48838813D01*
X110215272Y-48838813D01*
X110215273Y-48838814D01*
X110346392Y-48878588D01*
X110384257Y-48909662D01*
X110391814Y-48939818D01*
X110391924Y-49441541D01*
X110373189Y-49486800D01*
X110346503Y-49502799D01*
X110223152Y-49540218D01*
X110052911Y-49631214D01*
X110052906Y-49631217D01*
X109903682Y-49753681D01*
X109903681Y-49753682D01*
X109781217Y-49902906D01*
X109781214Y-49902911D01*
X109690217Y-50073155D01*
X109690214Y-50073160D01*
X109634181Y-50257881D01*
X109634179Y-50257889D01*
X109630031Y-50299999D01*
X109630032Y-50300000D01*
X110122555Y-50300000D01*
X110100000Y-50384174D01*
X110100000Y-50515826D01*
X110122555Y-50600000D01*
X109630032Y-50600000D01*
X109634179Y-50642110D01*
X109634181Y-50642118D01*
X109690214Y-50826839D01*
X109690217Y-50826844D01*
X109781214Y-50997088D01*
X109781217Y-50997093D01*
X109903681Y-51146317D01*
X109903682Y-51146318D01*
X110052906Y-51268782D01*
X110052910Y-51268785D01*
X110223160Y-51359784D01*
X110346946Y-51397334D01*
X110384811Y-51428408D01*
X110392368Y-51458564D01*
X110392479Y-51959951D01*
X110373744Y-52005210D01*
X110347058Y-52021209D01*
X110215269Y-52061187D01*
X110041466Y-52154087D01*
X110041461Y-52154090D01*
X109889117Y-52279116D01*
X109889116Y-52279117D01*
X109764090Y-52431461D01*
X109764087Y-52431466D01*
X109671187Y-52605269D01*
X109613975Y-52793867D01*
X109594659Y-52990000D01*
X109613975Y-53186132D01*
X109671187Y-53374730D01*
X109764087Y-53548533D01*
X109764090Y-53548538D01*
X109889117Y-53700883D01*
X110041462Y-53825910D01*
X110041466Y-53825912D01*
X110215270Y-53918813D01*
X110215272Y-53918813D01*
X110215273Y-53918814D01*
X110347511Y-53958928D01*
X110385376Y-53990003D01*
X110392933Y-54020158D01*
X110393039Y-54499780D01*
X110374304Y-54545039D01*
X110347618Y-54561038D01*
X110215269Y-54601187D01*
X110041466Y-54694087D01*
X110041461Y-54694090D01*
X109889117Y-54819116D01*
X109889116Y-54819117D01*
X109764090Y-54971461D01*
X109764087Y-54971466D01*
X109671187Y-55145269D01*
X109613975Y-55333867D01*
X109594659Y-55530000D01*
X109613975Y-55726132D01*
X109671187Y-55914730D01*
X109685320Y-55941171D01*
X109690121Y-55989919D01*
X109659046Y-56027783D01*
X109628877Y-56035340D01*
X109621068Y-56035340D01*
X109496771Y-56071836D01*
X109496769Y-56071836D01*
X109387791Y-56141872D01*
X109387789Y-56141874D01*
X109302958Y-56239776D01*
X109302956Y-56239779D01*
X109249143Y-56357611D01*
X109230707Y-56485840D01*
X109249143Y-56614068D01*
X109302956Y-56731900D01*
X109302958Y-56731903D01*
X109387791Y-56829807D01*
X109496771Y-56899844D01*
X109621068Y-56936340D01*
X109621069Y-56936340D01*
X109750611Y-56936340D01*
X109750612Y-56936340D01*
X109874909Y-56899844D01*
X109983889Y-56829807D01*
X110068722Y-56731903D01*
X110122537Y-56614066D01*
X110137195Y-56512116D01*
X110162189Y-56469991D01*
X110209651Y-56457877D01*
X110219121Y-56459982D01*
X110294134Y-56482736D01*
X110348072Y-56499097D01*
X110385936Y-56530171D01*
X110393493Y-56560327D01*
X110393598Y-57039610D01*
X110374863Y-57084869D01*
X110348177Y-57100868D01*
X110215269Y-57141187D01*
X110041466Y-57234087D01*
X110041461Y-57234090D01*
X109889117Y-57359116D01*
X109889116Y-57359117D01*
X109764090Y-57511461D01*
X109764087Y-57511466D01*
X109671187Y-57685269D01*
X109613975Y-57873867D01*
X109594659Y-58070000D01*
X109613975Y-58266132D01*
X109671187Y-58454730D01*
X109764087Y-58628533D01*
X109764090Y-58628538D01*
X109889117Y-58780883D01*
X110041462Y-58905910D01*
X110070099Y-58921217D01*
X110215272Y-58998814D01*
X110215277Y-58998816D01*
X110297239Y-59023678D01*
X110348631Y-59039267D01*
X110386496Y-59070341D01*
X110394053Y-59100497D01*
X110394158Y-59579441D01*
X110375423Y-59624700D01*
X110348737Y-59640699D01*
X110215269Y-59681187D01*
X110041466Y-59774087D01*
X110041461Y-59774090D01*
X109889117Y-59899116D01*
X109889116Y-59899117D01*
X109764090Y-60051461D01*
X109764087Y-60051466D01*
X109671187Y-60225269D01*
X109613975Y-60413867D01*
X109594659Y-60610000D01*
X109613975Y-60806132D01*
X109671187Y-60994730D01*
X109764087Y-61168533D01*
X109764090Y-61168538D01*
X109885159Y-61316061D01*
X109889117Y-61320883D01*
X110041462Y-61445910D01*
X110041466Y-61445912D01*
X110215270Y-61538813D01*
X110215272Y-61538813D01*
X110215273Y-61538814D01*
X110349190Y-61579437D01*
X110387055Y-61610512D01*
X110394612Y-61640667D01*
X110394718Y-62119272D01*
X110375983Y-62164531D01*
X110349297Y-62180529D01*
X110284939Y-62200052D01*
X110215269Y-62221187D01*
X110041466Y-62314087D01*
X110041461Y-62314090D01*
X109889117Y-62439116D01*
X109889116Y-62439117D01*
X109764090Y-62591461D01*
X109764087Y-62591466D01*
X109671187Y-62765269D01*
X109613975Y-62953867D01*
X109594659Y-63150000D01*
X109613975Y-63346132D01*
X109671187Y-63534730D01*
X109764087Y-63708533D01*
X109764090Y-63708538D01*
X109889117Y-63860883D01*
X110041462Y-63985910D01*
X110041466Y-63985912D01*
X110215270Y-64078813D01*
X110215272Y-64078813D01*
X110215273Y-64078814D01*
X110349750Y-64119607D01*
X110387615Y-64150682D01*
X110395172Y-64180837D01*
X110395277Y-64659101D01*
X110376542Y-64704360D01*
X110349856Y-64720359D01*
X110215269Y-64761187D01*
X110041466Y-64854087D01*
X110041461Y-64854090D01*
X109889117Y-64979116D01*
X109889116Y-64979117D01*
X109764090Y-65131461D01*
X109764087Y-65131466D01*
X109671187Y-65305269D01*
X109613975Y-65493867D01*
X109594659Y-65690000D01*
X109613975Y-65886132D01*
X109671187Y-66074730D01*
X109764087Y-66248533D01*
X109764090Y-66248538D01*
X109889116Y-66400882D01*
X109889117Y-66400883D01*
X110041461Y-66525909D01*
X110041465Y-66525912D01*
X110083781Y-66548530D01*
X110215273Y-66618814D01*
X110215275Y-66618814D01*
X110215278Y-66618816D01*
X110301967Y-66645112D01*
X110350309Y-66659776D01*
X110388175Y-66690850D01*
X110395732Y-66721006D01*
X110396986Y-72414016D01*
X110378251Y-72459275D01*
X110333000Y-72478030D01*
X110287741Y-72459295D01*
X110284618Y-72455941D01*
X110252204Y-72418533D01*
X110198049Y-72356033D01*
X110198048Y-72356032D01*
X110089069Y-72285996D01*
X109964772Y-72249500D01*
X109835228Y-72249500D01*
X109710931Y-72285996D01*
X109710929Y-72285996D01*
X109601951Y-72356032D01*
X109601949Y-72356034D01*
X109517118Y-72453936D01*
X109517116Y-72453939D01*
X109463303Y-72571771D01*
X109444867Y-72700000D01*
X109463303Y-72828228D01*
X109517116Y-72946060D01*
X109517118Y-72946063D01*
X109601949Y-73043965D01*
X109601951Y-73043967D01*
X109683165Y-73096160D01*
X109711101Y-73136396D01*
X109702404Y-73184601D01*
X109683165Y-73203840D01*
X109601951Y-73256032D01*
X109601949Y-73256034D01*
X109517118Y-73353936D01*
X109517116Y-73353939D01*
X109463303Y-73471771D01*
X109444867Y-73600000D01*
X109463303Y-73728228D01*
X109517116Y-73846060D01*
X109517118Y-73846063D01*
X109601951Y-73943967D01*
X109710931Y-74014004D01*
X109835228Y-74050500D01*
X109835229Y-74050500D01*
X109964771Y-74050500D01*
X109964772Y-74050500D01*
X110089069Y-74014004D01*
X110198049Y-73943967D01*
X110282882Y-73846063D01*
X110282882Y-73846062D01*
X110284943Y-73843684D01*
X110328745Y-73821758D01*
X110375222Y-73837227D01*
X110397148Y-73881029D01*
X110397311Y-73885581D01*
X110397941Y-76743965D01*
X110399377Y-83262805D01*
X110399442Y-83555486D01*
X110380707Y-83600745D01*
X110335456Y-83619500D01*
X98159506Y-83619500D01*
X98114251Y-83600755D01*
X98113938Y-83600000D01*
X105400000Y-83600000D01*
X107900000Y-83600000D01*
X107900000Y-81300000D01*
X105400000Y-81300000D01*
X105400000Y-83600000D01*
X98113938Y-83600000D01*
X98095506Y-83555507D01*
X98095378Y-82400000D01*
X100554659Y-82400000D01*
X100573975Y-82596132D01*
X100631187Y-82784730D01*
X100724087Y-82958533D01*
X100724090Y-82958538D01*
X100849117Y-83110883D01*
X101001462Y-83235910D01*
X101175273Y-83328814D01*
X101363868Y-83386024D01*
X101363866Y-83386024D01*
X101396142Y-83389202D01*
X101560000Y-83405341D01*
X101756132Y-83386024D01*
X101944727Y-83328814D01*
X102118538Y-83235910D01*
X102270883Y-83110883D01*
X102395910Y-82958538D01*
X102488814Y-82784727D01*
X102546024Y-82596132D01*
X102565341Y-82400000D01*
X103094659Y-82400000D01*
X103113975Y-82596132D01*
X103171187Y-82784730D01*
X103264087Y-82958533D01*
X103264090Y-82958538D01*
X103389117Y-83110883D01*
X103541462Y-83235910D01*
X103715273Y-83328814D01*
X103903868Y-83386024D01*
X103903866Y-83386024D01*
X103936142Y-83389202D01*
X104100000Y-83405341D01*
X104296132Y-83386024D01*
X104484727Y-83328814D01*
X104658538Y-83235910D01*
X104810883Y-83110883D01*
X104935910Y-82958538D01*
X105028814Y-82784727D01*
X105086024Y-82596132D01*
X105105341Y-82400000D01*
X105086024Y-82203868D01*
X105028814Y-82015273D01*
X105020597Y-81999901D01*
X104935912Y-81841466D01*
X104935909Y-81841461D01*
X104810883Y-81689117D01*
X104810882Y-81689116D01*
X104658538Y-81564090D01*
X104658533Y-81564087D01*
X104484730Y-81471187D01*
X104296131Y-81413975D01*
X104296133Y-81413975D01*
X104100000Y-81394659D01*
X103903867Y-81413975D01*
X103715269Y-81471187D01*
X103541466Y-81564087D01*
X103541461Y-81564090D01*
X103389117Y-81689116D01*
X103389116Y-81689117D01*
X103264090Y-81841461D01*
X103264087Y-81841466D01*
X103171187Y-82015269D01*
X103113975Y-82203867D01*
X103094659Y-82400000D01*
X102565341Y-82400000D01*
X102546024Y-82203868D01*
X102488814Y-82015273D01*
X102480597Y-81999901D01*
X102395912Y-81841466D01*
X102395909Y-81841461D01*
X102270883Y-81689117D01*
X102270882Y-81689116D01*
X102118538Y-81564090D01*
X102118533Y-81564087D01*
X101944730Y-81471187D01*
X101756131Y-81413975D01*
X101756133Y-81413975D01*
X101560000Y-81394659D01*
X101363867Y-81413975D01*
X101175269Y-81471187D01*
X101001466Y-81564087D01*
X101001461Y-81564090D01*
X100849117Y-81689116D01*
X100849116Y-81689117D01*
X100724090Y-81841461D01*
X100724087Y-81841466D01*
X100631187Y-82015269D01*
X100573975Y-82203867D01*
X100554659Y-82400000D01*
X98095378Y-82400000D01*
X98095278Y-81499274D01*
X98095096Y-79860000D01*
X100554659Y-79860000D01*
X100573975Y-80056132D01*
X100631187Y-80244730D01*
X100724087Y-80418533D01*
X100724090Y-80418538D01*
X100849117Y-80570883D01*
X101001462Y-80695910D01*
X101175273Y-80788814D01*
X101363868Y-80846024D01*
X101363866Y-80846024D01*
X101396142Y-80849202D01*
X101560000Y-80865341D01*
X101756132Y-80846024D01*
X101944727Y-80788814D01*
X102118538Y-80695910D01*
X102270883Y-80570883D01*
X102395910Y-80418538D01*
X102488814Y-80244727D01*
X102546024Y-80056132D01*
X102565341Y-79860000D01*
X103094659Y-79860000D01*
X103113975Y-80056132D01*
X103171187Y-80244730D01*
X103264087Y-80418533D01*
X103264090Y-80418538D01*
X103389117Y-80570883D01*
X103541462Y-80695910D01*
X103715273Y-80788814D01*
X103903868Y-80846024D01*
X103903866Y-80846024D01*
X103936142Y-80849202D01*
X104100000Y-80865341D01*
X104296132Y-80846024D01*
X104484727Y-80788814D01*
X104658538Y-80695910D01*
X104810883Y-80570883D01*
X104935910Y-80418538D01*
X105028814Y-80244727D01*
X105086024Y-80056132D01*
X105105341Y-79860000D01*
X105634659Y-79860000D01*
X105653975Y-80056132D01*
X105711187Y-80244730D01*
X105804087Y-80418533D01*
X105804090Y-80418538D01*
X105929117Y-80570883D01*
X106081462Y-80695910D01*
X106255273Y-80788814D01*
X106443868Y-80846024D01*
X106443866Y-80846024D01*
X106476142Y-80849202D01*
X106640000Y-80865341D01*
X106836132Y-80846024D01*
X107024727Y-80788814D01*
X107198538Y-80695910D01*
X107350883Y-80570883D01*
X107475910Y-80418538D01*
X107568814Y-80244727D01*
X107626024Y-80056132D01*
X107645341Y-79860000D01*
X107626024Y-79663868D01*
X107568814Y-79475273D01*
X107475910Y-79301462D01*
X107350883Y-79149117D01*
X107198538Y-79024090D01*
X107198533Y-79024087D01*
X107024730Y-78931187D01*
X106836131Y-78873975D01*
X106836133Y-78873975D01*
X106640000Y-78854659D01*
X106443867Y-78873975D01*
X106255269Y-78931187D01*
X106081466Y-79024087D01*
X106081461Y-79024090D01*
X105929117Y-79149116D01*
X105929116Y-79149117D01*
X105804090Y-79301461D01*
X105804087Y-79301466D01*
X105711187Y-79475269D01*
X105653975Y-79663867D01*
X105634659Y-79860000D01*
X105105341Y-79860000D01*
X105086024Y-79663868D01*
X105028814Y-79475273D01*
X104935910Y-79301462D01*
X104810883Y-79149117D01*
X104658538Y-79024090D01*
X104658533Y-79024087D01*
X104484730Y-78931187D01*
X104296131Y-78873975D01*
X104296133Y-78873975D01*
X104100000Y-78854659D01*
X103903867Y-78873975D01*
X103715269Y-78931187D01*
X103541466Y-79024087D01*
X103541461Y-79024090D01*
X103389117Y-79149116D01*
X103389116Y-79149117D01*
X103264090Y-79301461D01*
X103264087Y-79301466D01*
X103171187Y-79475269D01*
X103113975Y-79663867D01*
X103094659Y-79860000D01*
X102565341Y-79860000D01*
X102546024Y-79663868D01*
X102488814Y-79475273D01*
X102395910Y-79301462D01*
X102270883Y-79149117D01*
X102118538Y-79024090D01*
X102118533Y-79024087D01*
X101944730Y-78931187D01*
X101756131Y-78873975D01*
X101756133Y-78873975D01*
X101560000Y-78854659D01*
X101363867Y-78873975D01*
X101175269Y-78931187D01*
X101001466Y-79024087D01*
X101001461Y-79024090D01*
X100849117Y-79149116D01*
X100849116Y-79149117D01*
X100724090Y-79301461D01*
X100724087Y-79301466D01*
X100631187Y-79475269D01*
X100573975Y-79663867D01*
X100554659Y-79860000D01*
X98095096Y-79860000D01*
X98095031Y-79278365D01*
X99402403Y-79278365D01*
X99420839Y-79406593D01*
X99474652Y-79524425D01*
X99474654Y-79524428D01*
X99559487Y-79622332D01*
X99668467Y-79692369D01*
X99792764Y-79728865D01*
X99792765Y-79728865D01*
X99922307Y-79728865D01*
X99922308Y-79728865D01*
X100046605Y-79692369D01*
X100155585Y-79622332D01*
X100240418Y-79524428D01*
X100294233Y-79406591D01*
X100312669Y-79278365D01*
X100294233Y-79150139D01*
X100293766Y-79149117D01*
X100240419Y-79032304D01*
X100240417Y-79032301D01*
X100155586Y-78934399D01*
X100155584Y-78934397D01*
X100046605Y-78864361D01*
X100013562Y-78854659D01*
X99922308Y-78827865D01*
X99792764Y-78827865D01*
X99668467Y-78864361D01*
X99668465Y-78864361D01*
X99559487Y-78934397D01*
X99559485Y-78934399D01*
X99474654Y-79032301D01*
X99474652Y-79032304D01*
X99420839Y-79150136D01*
X99402403Y-79278365D01*
X98095031Y-79278365D01*
X98094887Y-77984006D01*
X98113627Y-77938750D01*
X98158880Y-77920000D01*
X98762805Y-77920000D01*
X98800723Y-77912456D01*
X98800725Y-77912455D01*
X98843722Y-77883726D01*
X98843726Y-77883722D01*
X98872455Y-77840725D01*
X98872456Y-77840723D01*
X98880000Y-77802805D01*
X98880000Y-77462771D01*
X103807638Y-77462771D01*
X103826074Y-77590999D01*
X103879887Y-77708831D01*
X103879889Y-77708834D01*
X103964722Y-77806738D01*
X104073702Y-77876775D01*
X104197999Y-77913271D01*
X104198000Y-77913271D01*
X104327542Y-77913271D01*
X104327543Y-77913271D01*
X104451840Y-77876775D01*
X104560820Y-77806738D01*
X104645653Y-77708834D01*
X104699468Y-77590997D01*
X104716146Y-77475000D01*
X107044867Y-77475000D01*
X107063303Y-77603228D01*
X107117116Y-77721060D01*
X107117118Y-77721063D01*
X107191354Y-77806738D01*
X107201951Y-77818967D01*
X107310931Y-77889004D01*
X107435228Y-77925500D01*
X107435229Y-77925500D01*
X107564771Y-77925500D01*
X107564772Y-77925500D01*
X107689069Y-77889004D01*
X107798049Y-77818967D01*
X107882882Y-77721063D01*
X107936697Y-77603226D01*
X107955133Y-77475000D01*
X107936697Y-77346774D01*
X107891134Y-77247007D01*
X107882883Y-77228939D01*
X107882881Y-77228936D01*
X107798050Y-77131034D01*
X107798048Y-77131032D01*
X107689069Y-77060996D01*
X107564772Y-77024500D01*
X107435228Y-77024500D01*
X107310931Y-77060996D01*
X107310929Y-77060996D01*
X107201951Y-77131032D01*
X107201949Y-77131034D01*
X107117118Y-77228936D01*
X107117116Y-77228939D01*
X107063303Y-77346771D01*
X107044867Y-77475000D01*
X104716146Y-77475000D01*
X104717904Y-77462771D01*
X104699468Y-77334545D01*
X104651237Y-77228936D01*
X104645654Y-77216710D01*
X104645652Y-77216707D01*
X104560821Y-77118805D01*
X104560819Y-77118803D01*
X104451840Y-77048767D01*
X104327543Y-77012271D01*
X104197999Y-77012271D01*
X104073702Y-77048767D01*
X104073700Y-77048767D01*
X103964722Y-77118803D01*
X103964720Y-77118805D01*
X103879889Y-77216707D01*
X103879887Y-77216710D01*
X103826074Y-77334542D01*
X103807638Y-77462771D01*
X98880000Y-77462771D01*
X98880000Y-77090000D01*
X98377445Y-77090000D01*
X98400000Y-77005826D01*
X98400000Y-76874174D01*
X98377445Y-76790000D01*
X98880000Y-76790000D01*
X98880000Y-76200511D01*
X99402403Y-76200511D01*
X99420839Y-76328739D01*
X99474652Y-76446571D01*
X99474654Y-76446574D01*
X99545406Y-76528228D01*
X99559487Y-76544478D01*
X99668467Y-76614515D01*
X99792764Y-76651011D01*
X99792765Y-76651011D01*
X99922307Y-76651011D01*
X99922308Y-76651011D01*
X100046605Y-76614515D01*
X100155585Y-76544478D01*
X100240418Y-76446574D01*
X100261688Y-76400000D01*
X106944867Y-76400000D01*
X106963303Y-76528228D01*
X107017116Y-76646060D01*
X107017118Y-76646063D01*
X107101951Y-76743967D01*
X107210931Y-76814004D01*
X107335228Y-76850500D01*
X107335229Y-76850500D01*
X107464771Y-76850500D01*
X107464772Y-76850500D01*
X107589069Y-76814004D01*
X107698049Y-76743967D01*
X107782882Y-76646063D01*
X107836697Y-76528226D01*
X107855133Y-76400000D01*
X107836697Y-76271774D01*
X107782882Y-76153937D01*
X107698049Y-76056033D01*
X107698048Y-76056032D01*
X107589069Y-75985996D01*
X107464772Y-75949500D01*
X107335228Y-75949500D01*
X107210931Y-75985996D01*
X107210929Y-75985996D01*
X107101951Y-76056032D01*
X107101949Y-76056034D01*
X107017118Y-76153936D01*
X107017116Y-76153939D01*
X106963303Y-76271771D01*
X106944867Y-76400000D01*
X100261688Y-76400000D01*
X100294233Y-76328737D01*
X100312669Y-76200511D01*
X100294233Y-76072285D01*
X100286811Y-76056034D01*
X100240419Y-75954450D01*
X100240417Y-75954447D01*
X100236130Y-75949500D01*
X100155585Y-75856544D01*
X100155584Y-75856543D01*
X100046605Y-75786507D01*
X99922308Y-75750011D01*
X99792764Y-75750011D01*
X99668467Y-75786507D01*
X99668465Y-75786507D01*
X99559487Y-75856543D01*
X99559485Y-75856545D01*
X99474654Y-75954447D01*
X99474652Y-75954450D01*
X99420839Y-76072282D01*
X99402403Y-76200511D01*
X98880000Y-76200511D01*
X98880000Y-76077194D01*
X98872456Y-76039276D01*
X98872455Y-76039274D01*
X98843726Y-75996277D01*
X98843722Y-75996273D01*
X98800725Y-75967544D01*
X98800723Y-75967543D01*
X98762805Y-75960000D01*
X98158656Y-75960000D01*
X98113401Y-75941255D01*
X98094656Y-75896007D01*
X98094604Y-75433960D01*
X98113344Y-75388703D01*
X98140026Y-75372709D01*
X98213238Y-75350500D01*
X98284727Y-75328814D01*
X98458538Y-75235910D01*
X98610883Y-75110883D01*
X98735910Y-74958538D01*
X98767199Y-74900000D01*
X99244867Y-74900000D01*
X99263303Y-75028228D01*
X99317116Y-75146060D01*
X99317118Y-75146063D01*
X99394969Y-75235910D01*
X99401951Y-75243967D01*
X99510931Y-75314004D01*
X99635228Y-75350500D01*
X99635229Y-75350500D01*
X99764771Y-75350500D01*
X99764772Y-75350500D01*
X99889069Y-75314004D01*
X99998049Y-75243967D01*
X100082882Y-75146063D01*
X100136697Y-75028226D01*
X100155133Y-74900000D01*
X100136697Y-74771774D01*
X100126981Y-74750500D01*
X100082883Y-74653939D01*
X100082881Y-74653936D01*
X99998050Y-74556034D01*
X99998048Y-74556032D01*
X99889069Y-74485996D01*
X99764772Y-74449500D01*
X99635228Y-74449500D01*
X99510931Y-74485996D01*
X99510929Y-74485996D01*
X99401951Y-74556032D01*
X99401949Y-74556034D01*
X99317118Y-74653936D01*
X99317116Y-74653939D01*
X99263303Y-74771771D01*
X99244867Y-74900000D01*
X98767199Y-74900000D01*
X98828814Y-74784727D01*
X98886024Y-74596132D01*
X98905341Y-74400000D01*
X98886024Y-74203868D01*
X98884851Y-74200000D01*
X100400000Y-74200000D01*
X100400000Y-76200000D01*
X105300000Y-76200000D01*
X105300000Y-74200000D01*
X102520755Y-74200000D01*
X102516697Y-74171774D01*
X102462882Y-74053937D01*
X102378049Y-73956033D01*
X102378048Y-73956032D01*
X102269069Y-73885996D01*
X102267656Y-73885581D01*
X102144772Y-73849500D01*
X102015228Y-73849500D01*
X101890931Y-73885996D01*
X101890929Y-73885996D01*
X101781951Y-73956032D01*
X101781949Y-73956034D01*
X101697118Y-74053936D01*
X101697116Y-74053939D01*
X101643303Y-74171771D01*
X101639244Y-74200000D01*
X100400000Y-74200000D01*
X98884851Y-74200000D01*
X98876287Y-74171771D01*
X98840543Y-74053939D01*
X98828814Y-74015273D01*
X98735910Y-73841462D01*
X98610883Y-73689117D01*
X98458538Y-73564090D01*
X98458533Y-73564087D01*
X98284729Y-73471186D01*
X98186685Y-73441445D01*
X98139796Y-73427221D01*
X98101932Y-73396147D01*
X98094375Y-73365987D01*
X98094323Y-72894044D01*
X98113063Y-72848788D01*
X98139745Y-72832794D01*
X98154797Y-72828228D01*
X98284727Y-72788814D01*
X98458538Y-72695910D01*
X98610883Y-72570883D01*
X98735910Y-72418538D01*
X98828814Y-72244727D01*
X98886024Y-72056132D01*
X98900007Y-71914161D01*
X99030706Y-71914161D01*
X99049142Y-72042389D01*
X99102955Y-72160221D01*
X99102957Y-72160224D01*
X99187790Y-72258128D01*
X99296770Y-72328165D01*
X99421067Y-72364661D01*
X99421068Y-72364661D01*
X99550610Y-72364661D01*
X99550611Y-72364661D01*
X99674908Y-72328165D01*
X99783888Y-72258128D01*
X99868721Y-72160224D01*
X99922536Y-72042387D01*
X99940972Y-71914161D01*
X99924558Y-71800000D01*
X102644867Y-71800000D01*
X102663303Y-71928228D01*
X102717116Y-72046060D01*
X102717118Y-72046063D01*
X102801951Y-72143967D01*
X102910931Y-72214004D01*
X103035228Y-72250500D01*
X103035229Y-72250500D01*
X103164771Y-72250500D01*
X103164772Y-72250500D01*
X103289069Y-72214004D01*
X103398049Y-72143967D01*
X103482882Y-72046063D01*
X103536697Y-71928226D01*
X103555133Y-71800000D01*
X103536697Y-71671774D01*
X103535018Y-71668098D01*
X103482883Y-71553939D01*
X103482881Y-71553936D01*
X103398050Y-71456034D01*
X103398048Y-71456032D01*
X103289069Y-71385996D01*
X103164772Y-71349500D01*
X103035228Y-71349500D01*
X102910931Y-71385996D01*
X102910929Y-71385996D01*
X102801951Y-71456032D01*
X102801949Y-71456034D01*
X102717118Y-71553936D01*
X102717116Y-71553939D01*
X102663303Y-71671771D01*
X102644867Y-71800000D01*
X99924558Y-71800000D01*
X99922536Y-71785935D01*
X99870398Y-71671771D01*
X99868722Y-71668100D01*
X99868720Y-71668097D01*
X99783889Y-71570195D01*
X99783887Y-71570193D01*
X99674908Y-71500157D01*
X99631801Y-71487500D01*
X99550611Y-71463661D01*
X99421067Y-71463661D01*
X99296770Y-71500157D01*
X99296768Y-71500157D01*
X99187790Y-71570193D01*
X99187788Y-71570195D01*
X99102957Y-71668097D01*
X99102955Y-71668100D01*
X99049142Y-71785932D01*
X99030706Y-71914161D01*
X98900007Y-71914161D01*
X98905341Y-71860000D01*
X98886024Y-71663868D01*
X98828814Y-71475273D01*
X98818529Y-71456032D01*
X98735912Y-71301466D01*
X98735909Y-71301461D01*
X98610883Y-71149117D01*
X98610882Y-71149116D01*
X98458538Y-71024090D01*
X98458533Y-71024087D01*
X98284729Y-70931186D01*
X98181922Y-70900000D01*
X100944867Y-70900000D01*
X100963303Y-71028228D01*
X101017116Y-71146060D01*
X101017118Y-71146063D01*
X101099760Y-71241439D01*
X101101951Y-71243967D01*
X101210931Y-71314004D01*
X101335228Y-71350500D01*
X101335229Y-71350500D01*
X101464771Y-71350500D01*
X101464772Y-71350500D01*
X101589069Y-71314004D01*
X101698049Y-71243967D01*
X101782882Y-71146063D01*
X101836697Y-71028226D01*
X101855133Y-70900000D01*
X101836697Y-70771774D01*
X101826069Y-70748503D01*
X101782883Y-70653939D01*
X101782881Y-70653936D01*
X101698050Y-70556034D01*
X101698048Y-70556032D01*
X101589069Y-70485996D01*
X101464772Y-70449500D01*
X101335228Y-70449500D01*
X101210931Y-70485996D01*
X101210929Y-70485996D01*
X101101951Y-70556032D01*
X101101949Y-70556034D01*
X101017118Y-70653936D01*
X101017116Y-70653939D01*
X100963303Y-70771771D01*
X100944867Y-70900000D01*
X98181922Y-70900000D01*
X98139515Y-70887136D01*
X98101650Y-70856061D01*
X98094093Y-70825901D01*
X98094038Y-70334500D01*
X104677896Y-70334500D01*
X104696332Y-70462728D01*
X104750145Y-70580560D01*
X104750147Y-70580563D01*
X104813726Y-70653939D01*
X104834980Y-70678467D01*
X104943960Y-70748504D01*
X105068257Y-70785000D01*
X105068258Y-70785000D01*
X105197800Y-70785000D01*
X105197801Y-70785000D01*
X105322098Y-70748504D01*
X105431078Y-70678467D01*
X105509900Y-70587500D01*
X107344867Y-70587500D01*
X107363303Y-70715728D01*
X107417116Y-70833560D01*
X107417118Y-70833563D01*
X107501949Y-70931465D01*
X107501951Y-70931467D01*
X107583165Y-70983660D01*
X107611101Y-71023896D01*
X107602404Y-71072101D01*
X107583165Y-71091340D01*
X107501951Y-71143532D01*
X107501949Y-71143534D01*
X107417118Y-71241436D01*
X107417116Y-71241439D01*
X107363303Y-71359271D01*
X107344867Y-71487500D01*
X107363303Y-71615728D01*
X107417116Y-71733560D01*
X107417118Y-71733563D01*
X107501951Y-71831467D01*
X107610931Y-71901504D01*
X107735228Y-71938000D01*
X107735229Y-71938000D01*
X107864771Y-71938000D01*
X107864772Y-71938000D01*
X107989069Y-71901504D01*
X108098049Y-71831467D01*
X108182882Y-71733563D01*
X108236697Y-71615726D01*
X108255133Y-71487500D01*
X108236697Y-71359274D01*
X108232233Y-71349500D01*
X108182883Y-71241439D01*
X108182881Y-71241436D01*
X108098050Y-71143534D01*
X108098048Y-71143532D01*
X108066658Y-71123359D01*
X108016833Y-71091338D01*
X107988898Y-71051104D01*
X107997595Y-71002899D01*
X108016832Y-70983661D01*
X108098049Y-70931467D01*
X108182882Y-70833563D01*
X108236697Y-70715726D01*
X108255133Y-70587500D01*
X108236697Y-70459274D01*
X108232233Y-70449500D01*
X108182883Y-70341439D01*
X108182881Y-70341436D01*
X108098050Y-70243534D01*
X108098048Y-70243532D01*
X107989069Y-70173496D01*
X107864772Y-70137000D01*
X107735228Y-70137000D01*
X107610931Y-70173496D01*
X107610929Y-70173496D01*
X107501951Y-70243532D01*
X107501949Y-70243534D01*
X107417118Y-70341436D01*
X107417116Y-70341439D01*
X107363303Y-70459271D01*
X107344867Y-70587500D01*
X105509900Y-70587500D01*
X105515911Y-70580563D01*
X105569726Y-70462726D01*
X105588162Y-70334500D01*
X105569726Y-70206274D01*
X105515911Y-70088437D01*
X105431078Y-69990533D01*
X105431077Y-69990532D01*
X105322098Y-69920496D01*
X105197801Y-69884000D01*
X105068257Y-69884000D01*
X104943960Y-69920496D01*
X104943958Y-69920496D01*
X104834980Y-69990532D01*
X104834978Y-69990534D01*
X104750147Y-70088436D01*
X104750145Y-70088439D01*
X104696332Y-70206271D01*
X104677896Y-70334500D01*
X98094038Y-70334500D01*
X98093664Y-66962534D01*
X103142910Y-66962534D01*
X103161346Y-67090762D01*
X103215159Y-67208594D01*
X103215161Y-67208597D01*
X103299992Y-67306499D01*
X103303456Y-67309501D01*
X103301758Y-67311460D01*
X103324902Y-67344782D01*
X103316213Y-67392989D01*
X103310736Y-67400307D01*
X103254290Y-67465451D01*
X103254288Y-67465454D01*
X103200475Y-67583286D01*
X103182039Y-67711515D01*
X103200475Y-67839743D01*
X103254288Y-67957575D01*
X103254290Y-67957578D01*
X103333422Y-68048903D01*
X103348891Y-68095380D01*
X103326965Y-68139182D01*
X103319658Y-68144653D01*
X103313537Y-68148586D01*
X103301951Y-68156033D01*
X103301949Y-68156034D01*
X103301949Y-68156035D01*
X103217118Y-68253936D01*
X103217116Y-68253939D01*
X103163303Y-68371771D01*
X103144867Y-68500000D01*
X103163303Y-68628228D01*
X103217116Y-68746060D01*
X103217118Y-68746063D01*
X103301951Y-68843967D01*
X103410931Y-68914004D01*
X103535228Y-68950500D01*
X103535229Y-68950500D01*
X103664771Y-68950500D01*
X103664772Y-68950500D01*
X103789069Y-68914004D01*
X103898049Y-68843967D01*
X103982882Y-68746063D01*
X104036697Y-68628226D01*
X104055133Y-68500000D01*
X104036697Y-68371774D01*
X104031467Y-68360323D01*
X103982883Y-68253939D01*
X103982881Y-68253936D01*
X103936146Y-68200000D01*
X105827845Y-68200000D01*
X105846281Y-68328228D01*
X105900094Y-68446060D01*
X105900096Y-68446063D01*
X105977051Y-68534876D01*
X105984929Y-68543967D01*
X106093909Y-68614004D01*
X106218206Y-68650500D01*
X106218207Y-68650500D01*
X106347749Y-68650500D01*
X106347750Y-68650500D01*
X106472047Y-68614004D01*
X106581027Y-68543967D01*
X106665596Y-68446367D01*
X106709395Y-68424442D01*
X106755872Y-68439910D01*
X106762330Y-68446368D01*
X106804951Y-68495556D01*
X106820420Y-68542033D01*
X106804952Y-68579377D01*
X106734364Y-68660841D01*
X106734362Y-68660844D01*
X106680549Y-68778676D01*
X106662113Y-68906905D01*
X106680549Y-69035133D01*
X106734362Y-69152965D01*
X106734364Y-69152968D01*
X106819197Y-69250872D01*
X106928177Y-69320909D01*
X107052474Y-69357405D01*
X107052475Y-69357405D01*
X107182017Y-69357405D01*
X107182018Y-69357405D01*
X107306315Y-69320909D01*
X107415295Y-69250872D01*
X107500128Y-69152968D01*
X107553943Y-69035131D01*
X107572379Y-68906905D01*
X107553943Y-68778679D01*
X107539046Y-68746060D01*
X107500129Y-68660844D01*
X107500127Y-68660841D01*
X107471868Y-68628228D01*
X107419406Y-68567683D01*
X107403938Y-68521207D01*
X107419405Y-68483866D01*
X107489996Y-68402399D01*
X107543811Y-68284562D01*
X107562247Y-68156336D01*
X107543811Y-68028110D01*
X107511598Y-67957575D01*
X107489997Y-67910275D01*
X107489995Y-67910272D01*
X107405164Y-67812370D01*
X107405162Y-67812368D01*
X107296183Y-67742332D01*
X107191227Y-67711515D01*
X107171886Y-67705836D01*
X107042342Y-67705836D01*
X106918045Y-67742332D01*
X106918043Y-67742332D01*
X106809065Y-67812368D01*
X106809063Y-67812370D01*
X106724496Y-67909966D01*
X106680694Y-67931892D01*
X106634217Y-67916423D01*
X106627760Y-67909966D01*
X106581028Y-67856034D01*
X106581026Y-67856032D01*
X106472047Y-67785996D01*
X106347750Y-67749500D01*
X106218206Y-67749500D01*
X106093909Y-67785996D01*
X106093907Y-67785996D01*
X105984929Y-67856032D01*
X105984927Y-67856034D01*
X105900096Y-67953936D01*
X105900094Y-67953939D01*
X105846281Y-68071771D01*
X105827845Y-68200000D01*
X103936146Y-68200000D01*
X103903749Y-68162611D01*
X103888280Y-68116134D01*
X103910206Y-68072332D01*
X103917513Y-68066861D01*
X103935221Y-68055482D01*
X104020054Y-67957578D01*
X104073869Y-67839741D01*
X104092305Y-67711515D01*
X104073869Y-67583289D01*
X104020054Y-67465452D01*
X103935221Y-67367548D01*
X103935220Y-67367547D01*
X103931759Y-67364548D01*
X103933449Y-67362596D01*
X103910303Y-67329226D01*
X103919021Y-67281025D01*
X103924459Y-67273762D01*
X103980925Y-67208597D01*
X104034740Y-67090760D01*
X104053176Y-66962534D01*
X104034740Y-66834308D01*
X104028325Y-66820262D01*
X103980926Y-66716473D01*
X103980924Y-66716470D01*
X103970569Y-66704520D01*
X103919917Y-66646063D01*
X103896093Y-66618568D01*
X103896091Y-66618566D01*
X103787112Y-66548530D01*
X103739281Y-66534486D01*
X103662815Y-66512034D01*
X103533271Y-66512034D01*
X103408974Y-66548530D01*
X103408972Y-66548530D01*
X103299994Y-66618566D01*
X103299992Y-66618568D01*
X103215161Y-66716470D01*
X103215159Y-66716473D01*
X103161346Y-66834305D01*
X103142910Y-66962534D01*
X98093664Y-66962534D01*
X98093638Y-66724251D01*
X98112378Y-66678995D01*
X98139057Y-66663002D01*
X98284727Y-66618814D01*
X98458538Y-66525910D01*
X98610883Y-66400883D01*
X98735910Y-66248538D01*
X98828814Y-66074727D01*
X98886024Y-65886132D01*
X98891724Y-65828262D01*
X104519530Y-65828262D01*
X104537966Y-65956490D01*
X104591779Y-66074322D01*
X104591781Y-66074325D01*
X104666186Y-66160195D01*
X104676614Y-66172229D01*
X104785594Y-66242266D01*
X104909891Y-66278762D01*
X104941936Y-66278762D01*
X104987191Y-66297507D01*
X105005936Y-66342762D01*
X105005285Y-66351866D01*
X104997465Y-66406258D01*
X104997749Y-66408233D01*
X105015901Y-66534486D01*
X105069714Y-66652318D01*
X105069716Y-66652321D01*
X105149125Y-66743966D01*
X105154549Y-66750225D01*
X105263529Y-66820262D01*
X105387826Y-66856758D01*
X105387827Y-66856758D01*
X105517369Y-66856758D01*
X105517370Y-66856758D01*
X105641667Y-66820262D01*
X105750647Y-66750225D01*
X105835480Y-66652321D01*
X105889295Y-66534484D01*
X105904699Y-66427339D01*
X105916036Y-66408233D01*
X105915913Y-66408160D01*
X105911714Y-66398024D01*
X106019158Y-66398024D01*
X106019281Y-66398097D01*
X106031396Y-66427342D01*
X106045901Y-66528226D01*
X106045901Y-66528227D01*
X106045902Y-66528229D01*
X106099714Y-66646060D01*
X106099716Y-66646063D01*
X106160725Y-66716473D01*
X106184549Y-66743967D01*
X106293529Y-66814004D01*
X106417826Y-66850500D01*
X106417827Y-66850500D01*
X106547369Y-66850500D01*
X106547370Y-66850500D01*
X106671667Y-66814004D01*
X106780647Y-66743967D01*
X106809230Y-66710978D01*
X106853032Y-66689052D01*
X106899509Y-66704520D01*
X106905967Y-66710978D01*
X106917469Y-66724252D01*
X106934552Y-66743967D01*
X107043532Y-66814004D01*
X107167829Y-66850500D01*
X107167830Y-66850500D01*
X107297372Y-66850500D01*
X107297373Y-66850500D01*
X107421670Y-66814004D01*
X107530650Y-66743967D01*
X107615483Y-66646063D01*
X107669298Y-66528226D01*
X107687734Y-66400000D01*
X107669298Y-66271774D01*
X107658686Y-66248538D01*
X107615484Y-66153939D01*
X107615482Y-66153936D01*
X107530651Y-66056034D01*
X107530649Y-66056032D01*
X107421670Y-65985996D01*
X107321179Y-65956490D01*
X107297373Y-65949500D01*
X107167829Y-65949500D01*
X107043532Y-65985996D01*
X107043530Y-65985996D01*
X106934556Y-66056029D01*
X106934550Y-66056034D01*
X106905967Y-66089021D01*
X106862164Y-66110947D01*
X106815688Y-66095478D01*
X106809231Y-66089021D01*
X106780648Y-66056034D01*
X106780646Y-66056032D01*
X106671667Y-65985996D01*
X106571176Y-65956490D01*
X106547370Y-65949500D01*
X106417826Y-65949500D01*
X106293529Y-65985996D01*
X106293527Y-65985996D01*
X106184549Y-66056032D01*
X106184547Y-66056034D01*
X106099716Y-66153936D01*
X106099714Y-66153939D01*
X106045901Y-66271771D01*
X106030497Y-66378914D01*
X106019158Y-66398024D01*
X105911714Y-66398024D01*
X105903799Y-66378916D01*
X105889295Y-66278032D01*
X105875825Y-66248538D01*
X105835481Y-66160197D01*
X105835479Y-66160194D01*
X105750648Y-66062292D01*
X105750646Y-66062290D01*
X105641667Y-65992254D01*
X105620354Y-65985996D01*
X105517370Y-65955758D01*
X105517369Y-65955758D01*
X105485325Y-65955758D01*
X105440070Y-65937013D01*
X105421325Y-65891758D01*
X105421976Y-65882650D01*
X105429796Y-65828262D01*
X105411360Y-65700036D01*
X105357545Y-65582199D01*
X105272712Y-65484295D01*
X105272711Y-65484294D01*
X105163732Y-65414258D01*
X105039435Y-65377762D01*
X104909891Y-65377762D01*
X104785594Y-65414258D01*
X104785592Y-65414258D01*
X104676614Y-65484294D01*
X104676612Y-65484296D01*
X104591781Y-65582198D01*
X104591779Y-65582201D01*
X104537966Y-65700033D01*
X104519530Y-65828262D01*
X98891724Y-65828262D01*
X98905341Y-65690000D01*
X98886024Y-65493868D01*
X98883120Y-65484296D01*
X98850803Y-65377762D01*
X98828814Y-65305273D01*
X98735910Y-65131462D01*
X98610883Y-64979117D01*
X98458538Y-64854090D01*
X98458533Y-64854087D01*
X98354092Y-64798262D01*
X104525250Y-64798262D01*
X104543686Y-64926490D01*
X104597499Y-65044322D01*
X104597501Y-65044325D01*
X104673003Y-65131461D01*
X104682334Y-65142229D01*
X104791314Y-65212266D01*
X104915611Y-65248762D01*
X104915612Y-65248762D01*
X105045154Y-65248762D01*
X105045155Y-65248762D01*
X105169452Y-65212266D01*
X105278432Y-65142229D01*
X105363265Y-65044325D01*
X105417080Y-64926488D01*
X105435516Y-64798262D01*
X105417080Y-64670036D01*
X105363265Y-64552199D01*
X105278432Y-64454295D01*
X105274470Y-64451748D01*
X105246535Y-64411513D01*
X105255233Y-64363308D01*
X105274473Y-64344069D01*
X105288888Y-64334806D01*
X105373721Y-64236902D01*
X105427536Y-64119065D01*
X105445972Y-63990839D01*
X105427536Y-63862613D01*
X105426745Y-63860882D01*
X105373722Y-63744778D01*
X105373720Y-63744775D01*
X105288889Y-63646873D01*
X105288887Y-63646871D01*
X105179908Y-63576835D01*
X105055611Y-63540339D01*
X104926067Y-63540339D01*
X104801770Y-63576835D01*
X104801768Y-63576835D01*
X104692790Y-63646871D01*
X104692788Y-63646873D01*
X104607957Y-63744775D01*
X104607955Y-63744778D01*
X104554142Y-63862610D01*
X104535706Y-63990839D01*
X104554142Y-64119067D01*
X104607955Y-64236899D01*
X104607957Y-64236902D01*
X104692788Y-64334804D01*
X104692794Y-64334809D01*
X104696750Y-64337352D01*
X104724685Y-64377589D01*
X104715986Y-64425794D01*
X104696750Y-64445030D01*
X104682333Y-64454295D01*
X104682332Y-64454296D01*
X104597501Y-64552198D01*
X104597499Y-64552201D01*
X104543686Y-64670033D01*
X104525250Y-64798262D01*
X98354092Y-64798262D01*
X98284730Y-64761187D01*
X98138829Y-64716928D01*
X98100965Y-64685853D01*
X98093408Y-64655693D01*
X98093356Y-64184337D01*
X98112096Y-64139081D01*
X98138776Y-64123087D01*
X98284727Y-64078814D01*
X98458538Y-63985910D01*
X98610883Y-63860883D01*
X98735910Y-63708538D01*
X98828814Y-63534727D01*
X98886024Y-63346132D01*
X98891799Y-63287499D01*
X105834749Y-63287499D01*
X105853185Y-63415727D01*
X105906998Y-63533559D01*
X105907000Y-63533562D01*
X105991833Y-63631466D01*
X106100813Y-63701503D01*
X106225110Y-63737999D01*
X106225111Y-63737999D01*
X106354653Y-63737999D01*
X106354654Y-63737999D01*
X106478951Y-63701503D01*
X106587931Y-63631466D01*
X106672764Y-63533562D01*
X106726579Y-63415725D01*
X106745015Y-63287499D01*
X106726579Y-63159273D01*
X106672764Y-63041436D01*
X106587931Y-62943532D01*
X106587930Y-62943531D01*
X106478951Y-62873495D01*
X106354654Y-62836999D01*
X106225110Y-62836999D01*
X106100813Y-62873495D01*
X106100811Y-62873495D01*
X105991833Y-62943531D01*
X105991831Y-62943533D01*
X105907000Y-63041435D01*
X105906998Y-63041438D01*
X105853185Y-63159270D01*
X105834749Y-63287499D01*
X98891799Y-63287499D01*
X98905341Y-63150000D01*
X98886024Y-62953868D01*
X98882888Y-62943531D01*
X98850572Y-62836999D01*
X98828814Y-62765273D01*
X98735910Y-62591462D01*
X98610883Y-62439117D01*
X98458538Y-62314090D01*
X98458533Y-62314087D01*
X98284729Y-62221186D01*
X98138549Y-62176843D01*
X98100684Y-62145768D01*
X98093127Y-62115608D01*
X98093114Y-62000000D01*
X103844867Y-62000000D01*
X103863303Y-62128228D01*
X103917116Y-62246060D01*
X103917118Y-62246063D01*
X104001951Y-62343967D01*
X104110931Y-62414004D01*
X104235228Y-62450500D01*
X104235229Y-62450500D01*
X104364771Y-62450500D01*
X104364772Y-62450500D01*
X104489069Y-62414004D01*
X104598049Y-62343967D01*
X104682882Y-62246063D01*
X104736697Y-62128226D01*
X104755133Y-62000000D01*
X104736697Y-61871774D01*
X104725089Y-61846357D01*
X104682883Y-61753939D01*
X104682881Y-61753936D01*
X104598050Y-61656034D01*
X104598048Y-61656032D01*
X104489069Y-61585996D01*
X104479451Y-61583172D01*
X104439239Y-61571365D01*
X106097770Y-61571365D01*
X106116206Y-61699593D01*
X106170019Y-61817425D01*
X106170021Y-61817428D01*
X106254854Y-61915332D01*
X106363834Y-61985369D01*
X106488131Y-62021865D01*
X106488132Y-62021865D01*
X106617674Y-62021865D01*
X106617675Y-62021865D01*
X106741972Y-61985369D01*
X106850952Y-61915332D01*
X106866721Y-61897132D01*
X106910522Y-61875205D01*
X106956999Y-61890672D01*
X106963455Y-61897128D01*
X107004298Y-61944264D01*
X107113278Y-62014301D01*
X107237575Y-62050797D01*
X107237576Y-62050797D01*
X107367118Y-62050797D01*
X107367119Y-62050797D01*
X107491416Y-62014301D01*
X107600396Y-61944264D01*
X107685229Y-61846360D01*
X107739044Y-61728523D01*
X107757480Y-61600297D01*
X107739044Y-61472071D01*
X107727097Y-61445912D01*
X107685230Y-61354236D01*
X107685228Y-61354233D01*
X107600397Y-61256331D01*
X107600395Y-61256329D01*
X107491416Y-61186293D01*
X107367119Y-61149797D01*
X107237575Y-61149797D01*
X107113278Y-61186293D01*
X107113276Y-61186293D01*
X107004303Y-61256325D01*
X107004299Y-61256329D01*
X107004298Y-61256330D01*
X106988525Y-61274532D01*
X106944725Y-61296456D01*
X106898248Y-61280987D01*
X106891792Y-61274530D01*
X106850953Y-61227399D01*
X106850951Y-61227397D01*
X106741972Y-61157361D01*
X106716211Y-61149797D01*
X106617675Y-61120865D01*
X106488131Y-61120865D01*
X106363834Y-61157361D01*
X106363832Y-61157361D01*
X106254854Y-61227397D01*
X106254852Y-61227399D01*
X106170021Y-61325301D01*
X106170019Y-61325304D01*
X106116206Y-61443136D01*
X106097770Y-61571365D01*
X104439239Y-61571365D01*
X104364772Y-61549500D01*
X104235228Y-61549500D01*
X104110931Y-61585996D01*
X104110929Y-61585996D01*
X104001951Y-61656032D01*
X104001949Y-61656034D01*
X103917118Y-61753936D01*
X103917116Y-61753939D01*
X103863303Y-61871771D01*
X103844867Y-62000000D01*
X98093114Y-62000000D01*
X98093075Y-61644422D01*
X98111815Y-61599166D01*
X98138494Y-61583173D01*
X98284727Y-61538814D01*
X98458538Y-61445910D01*
X98610883Y-61320883D01*
X98735910Y-61168538D01*
X98788579Y-61070001D01*
X100994588Y-61070001D01*
X101013024Y-61198229D01*
X101066837Y-61316061D01*
X101066839Y-61316064D01*
X101151672Y-61413968D01*
X101260652Y-61484005D01*
X101384949Y-61520501D01*
X101384950Y-61520501D01*
X101514492Y-61520501D01*
X101514493Y-61520501D01*
X101638790Y-61484005D01*
X101747770Y-61413968D01*
X101832603Y-61316064D01*
X101886418Y-61198227D01*
X101904854Y-61070001D01*
X101886418Y-60941775D01*
X101832603Y-60823938D01*
X101747770Y-60726034D01*
X101747769Y-60726033D01*
X101638790Y-60655997D01*
X101514493Y-60619501D01*
X101384949Y-60619501D01*
X101260652Y-60655997D01*
X101260650Y-60655997D01*
X101151672Y-60726033D01*
X101151670Y-60726035D01*
X101066839Y-60823937D01*
X101066837Y-60823940D01*
X101013024Y-60941772D01*
X100994588Y-61070001D01*
X98788579Y-61070001D01*
X98828814Y-60994727D01*
X98886024Y-60806132D01*
X98905341Y-60610000D01*
X98886024Y-60413868D01*
X98828814Y-60225273D01*
X98735910Y-60051462D01*
X98610883Y-59899117D01*
X98458538Y-59774090D01*
X98458533Y-59774087D01*
X98284730Y-59681187D01*
X98138266Y-59636757D01*
X98132694Y-59632184D01*
X102211993Y-59632184D01*
X102230429Y-59760412D01*
X102284242Y-59878244D01*
X102284244Y-59878247D01*
X102369077Y-59976151D01*
X102478057Y-60046188D01*
X102602354Y-60082684D01*
X102602355Y-60082684D01*
X102731897Y-60082684D01*
X102731898Y-60082684D01*
X102856195Y-60046188D01*
X102965175Y-59976151D01*
X103050008Y-59878247D01*
X103103823Y-59760410D01*
X103122259Y-59632184D01*
X103103823Y-59503958D01*
X103050008Y-59386121D01*
X102965175Y-59288217D01*
X102965174Y-59288216D01*
X102856195Y-59218180D01*
X102731898Y-59181684D01*
X102602354Y-59181684D01*
X102478057Y-59218180D01*
X102478055Y-59218180D01*
X102369077Y-59288216D01*
X102369075Y-59288218D01*
X102284244Y-59386120D01*
X102284242Y-59386123D01*
X102230429Y-59503955D01*
X102211993Y-59632184D01*
X98132694Y-59632184D01*
X98100402Y-59605682D01*
X98092845Y-59575522D01*
X98092793Y-59104507D01*
X98111533Y-59059251D01*
X98138210Y-59043259D01*
X98284727Y-58998814D01*
X98458538Y-58905910D01*
X98610883Y-58780883D01*
X98735910Y-58628538D01*
X98800760Y-58507213D01*
X104126630Y-58507213D01*
X104145066Y-58635441D01*
X104198879Y-58753273D01*
X104198881Y-58753276D01*
X104283714Y-58851180D01*
X104392694Y-58921217D01*
X104516991Y-58957713D01*
X104516992Y-58957713D01*
X104646534Y-58957713D01*
X104646535Y-58957713D01*
X104770832Y-58921217D01*
X104879812Y-58851180D01*
X104964645Y-58753276D01*
X105018460Y-58635439D01*
X105034457Y-58524174D01*
X105059451Y-58482051D01*
X105097805Y-58469285D01*
X105215693Y-58469285D01*
X105215694Y-58469285D01*
X105339991Y-58432789D01*
X105448971Y-58362752D01*
X105533804Y-58264848D01*
X105587619Y-58147011D01*
X105606055Y-58018785D01*
X105587619Y-57890559D01*
X105579996Y-57873868D01*
X105533805Y-57772724D01*
X105533803Y-57772721D01*
X105448972Y-57674819D01*
X105448970Y-57674817D01*
X105339991Y-57604781D01*
X105215694Y-57568285D01*
X105086150Y-57568285D01*
X104961853Y-57604781D01*
X104961851Y-57604781D01*
X104852873Y-57674817D01*
X104852871Y-57674819D01*
X104768040Y-57772721D01*
X104768038Y-57772724D01*
X104714225Y-57890556D01*
X104714225Y-57890559D01*
X104698227Y-58001823D01*
X104673234Y-58043947D01*
X104634880Y-58056713D01*
X104516991Y-58056713D01*
X104392694Y-58093209D01*
X104392692Y-58093209D01*
X104283714Y-58163245D01*
X104283712Y-58163247D01*
X104198881Y-58261149D01*
X104198879Y-58261152D01*
X104145066Y-58378984D01*
X104126630Y-58507213D01*
X98800760Y-58507213D01*
X98828814Y-58454727D01*
X98886024Y-58266132D01*
X98905341Y-58070000D01*
X98886024Y-57873868D01*
X98828814Y-57685273D01*
X98735910Y-57511462D01*
X98610883Y-57359117D01*
X98458538Y-57234090D01*
X98458533Y-57234087D01*
X98284730Y-57141187D01*
X98137984Y-57096671D01*
X98100120Y-57065596D01*
X98092563Y-57035436D01*
X98092511Y-56564593D01*
X98111251Y-56519337D01*
X98137930Y-56503344D01*
X98284727Y-56458814D01*
X98458538Y-56365910D01*
X98610883Y-56240883D01*
X98735910Y-56088538D01*
X98828814Y-55914727D01*
X98863616Y-55800000D01*
X103544867Y-55800000D01*
X103563303Y-55928228D01*
X103617116Y-56046060D01*
X103617118Y-56046063D01*
X103700136Y-56141873D01*
X103701951Y-56143967D01*
X103810931Y-56214004D01*
X103935228Y-56250500D01*
X103935229Y-56250500D01*
X104064771Y-56250500D01*
X104064772Y-56250500D01*
X104189069Y-56214004D01*
X104298049Y-56143967D01*
X104382882Y-56046063D01*
X104436697Y-55928226D01*
X104455133Y-55800000D01*
X104436697Y-55671774D01*
X104382882Y-55553937D01*
X104298049Y-55456033D01*
X104298048Y-55456032D01*
X104189069Y-55385996D01*
X104064772Y-55349500D01*
X103935228Y-55349500D01*
X103810931Y-55385996D01*
X103810929Y-55385996D01*
X103701951Y-55456032D01*
X103701949Y-55456034D01*
X103617118Y-55553936D01*
X103617116Y-55553939D01*
X103563303Y-55671771D01*
X103544867Y-55800000D01*
X98863616Y-55800000D01*
X98886024Y-55726132D01*
X98905341Y-55530000D01*
X98886024Y-55333868D01*
X98828814Y-55145273D01*
X98735910Y-54971462D01*
X98610883Y-54819117D01*
X98458538Y-54694090D01*
X98458533Y-54694087D01*
X98284730Y-54601187D01*
X98137702Y-54556586D01*
X98099838Y-54525511D01*
X98092281Y-54495351D01*
X98092229Y-54024679D01*
X98110969Y-53979423D01*
X98137650Y-53963429D01*
X98284727Y-53918814D01*
X98458538Y-53825910D01*
X98490109Y-53800000D01*
X105169867Y-53800000D01*
X105188303Y-53928228D01*
X105242116Y-54046060D01*
X105242118Y-54046063D01*
X105326951Y-54143967D01*
X105435931Y-54214004D01*
X105560228Y-54250500D01*
X105560229Y-54250500D01*
X105689771Y-54250500D01*
X105689772Y-54250500D01*
X105814069Y-54214004D01*
X105923049Y-54143967D01*
X106007882Y-54046063D01*
X106061697Y-53928226D01*
X106080133Y-53800000D01*
X106061697Y-53671774D01*
X106007882Y-53553937D01*
X105923049Y-53456033D01*
X105923048Y-53456032D01*
X105814069Y-53385996D01*
X105689772Y-53349500D01*
X105560228Y-53349500D01*
X105435931Y-53385996D01*
X105435929Y-53385996D01*
X105326951Y-53456032D01*
X105326949Y-53456034D01*
X105242118Y-53553936D01*
X105242116Y-53553939D01*
X105188303Y-53671771D01*
X105169867Y-53800000D01*
X98490109Y-53800000D01*
X98610883Y-53700883D01*
X98735910Y-53548538D01*
X98828814Y-53374727D01*
X98886024Y-53186132D01*
X98905341Y-52990000D01*
X98886024Y-52793868D01*
X98828814Y-52605273D01*
X98735910Y-52431462D01*
X98610883Y-52279117D01*
X98458538Y-52154090D01*
X98458533Y-52154087D01*
X98284729Y-52061186D01*
X98137421Y-52016501D01*
X98099556Y-51985426D01*
X98091999Y-51955266D01*
X98091947Y-51484765D01*
X98110687Y-51439509D01*
X98137369Y-51423515D01*
X98223675Y-51397334D01*
X98284727Y-51378814D01*
X98458538Y-51285910D01*
X98610883Y-51160883D01*
X98735910Y-51008538D01*
X98828814Y-50834727D01*
X98886024Y-50646132D01*
X98905341Y-50450000D01*
X98886024Y-50253868D01*
X98885002Y-50250500D01*
X98870101Y-50201377D01*
X98828814Y-50065273D01*
X98820597Y-50049901D01*
X98735912Y-49891466D01*
X98735909Y-49891461D01*
X98660849Y-49800000D01*
X103545790Y-49800000D01*
X103564226Y-49928228D01*
X103618039Y-50046060D01*
X103618041Y-50046063D01*
X103702874Y-50143967D01*
X103811854Y-50214004D01*
X103936151Y-50250500D01*
X103936152Y-50250500D01*
X104065694Y-50250500D01*
X104065695Y-50250500D01*
X104189992Y-50214004D01*
X104298972Y-50143967D01*
X104383805Y-50046063D01*
X104437620Y-49928226D01*
X104456056Y-49800000D01*
X104437620Y-49671774D01*
X104411276Y-49614090D01*
X104383806Y-49553939D01*
X104383804Y-49553936D01*
X104355426Y-49521186D01*
X104298972Y-49456033D01*
X104298971Y-49456032D01*
X104189992Y-49385996D01*
X104065695Y-49349500D01*
X103936151Y-49349500D01*
X103811854Y-49385996D01*
X103811852Y-49385996D01*
X103702874Y-49456032D01*
X103702872Y-49456034D01*
X103618041Y-49553936D01*
X103618039Y-49553939D01*
X103564226Y-49671771D01*
X103545790Y-49800000D01*
X98660849Y-49800000D01*
X98610883Y-49739117D01*
X98610882Y-49739116D01*
X98458538Y-49614090D01*
X98458533Y-49614087D01*
X98284730Y-49521187D01*
X98137139Y-49476415D01*
X98099275Y-49445340D01*
X98091718Y-49415180D01*
X98091666Y-48944849D01*
X98110406Y-48899593D01*
X98137084Y-48883601D01*
X98284727Y-48838814D01*
X98458538Y-48745910D01*
X98610883Y-48620883D01*
X98735910Y-48468538D01*
X98828814Y-48294727D01*
X98886024Y-48106132D01*
X98905341Y-47910000D01*
X98886024Y-47713868D01*
X98828814Y-47525273D01*
X98809236Y-47488645D01*
X106099543Y-47488645D01*
X106117979Y-47616873D01*
X106171792Y-47734705D01*
X106171794Y-47734708D01*
X106256627Y-47832612D01*
X106365607Y-47902649D01*
X106489904Y-47939145D01*
X106489905Y-47939145D01*
X106619447Y-47939145D01*
X106619448Y-47939145D01*
X106743745Y-47902649D01*
X106852725Y-47832612D01*
X106937558Y-47734708D01*
X106991373Y-47616871D01*
X107009809Y-47488645D01*
X106991373Y-47360419D01*
X106987284Y-47351466D01*
X106937559Y-47242584D01*
X106937557Y-47242581D01*
X106852726Y-47144679D01*
X106852724Y-47144677D01*
X106743745Y-47074641D01*
X106741858Y-47074087D01*
X106619448Y-47038145D01*
X106489904Y-47038145D01*
X106365607Y-47074641D01*
X106365605Y-47074641D01*
X106256627Y-47144677D01*
X106256625Y-47144679D01*
X106171794Y-47242581D01*
X106171792Y-47242584D01*
X106117979Y-47360416D01*
X106099543Y-47488645D01*
X98809236Y-47488645D01*
X98735910Y-47351462D01*
X98610883Y-47199117D01*
X98544550Y-47144679D01*
X98458538Y-47074090D01*
X98458533Y-47074087D01*
X98284730Y-46981187D01*
X98136857Y-46936329D01*
X98098993Y-46905254D01*
X98091436Y-46875094D01*
X98091272Y-45400000D01*
X98444867Y-45400000D01*
X98463303Y-45528228D01*
X98517116Y-45646060D01*
X98517118Y-45646063D01*
X98601951Y-45743967D01*
X98710931Y-45814004D01*
X98835228Y-45850500D01*
X98835229Y-45850500D01*
X98964771Y-45850500D01*
X98964772Y-45850500D01*
X99089069Y-45814004D01*
X99198049Y-45743967D01*
X99282882Y-45646063D01*
X99336697Y-45528226D01*
X99355133Y-45400000D01*
X99336697Y-45271774D01*
X99282882Y-45153937D01*
X99236146Y-45100000D01*
X101919867Y-45100000D01*
X101938303Y-45228228D01*
X101992116Y-45346060D01*
X101992118Y-45346063D01*
X102076951Y-45443967D01*
X102185931Y-45514004D01*
X102310228Y-45550500D01*
X102310229Y-45550500D01*
X102439771Y-45550500D01*
X102439772Y-45550500D01*
X102564069Y-45514004D01*
X102673049Y-45443967D01*
X102757882Y-45346063D01*
X102811697Y-45228226D01*
X102830133Y-45100000D01*
X102811697Y-44971774D01*
X102788082Y-44920066D01*
X102757883Y-44853939D01*
X102757881Y-44853936D01*
X102673050Y-44756034D01*
X102673048Y-44756032D01*
X102564069Y-44685996D01*
X102439772Y-44649500D01*
X102310228Y-44649500D01*
X102185931Y-44685996D01*
X102185929Y-44685996D01*
X102076951Y-44756032D01*
X102076949Y-44756034D01*
X101992118Y-44853936D01*
X101992116Y-44853939D01*
X101938303Y-44971771D01*
X101919867Y-45100000D01*
X99236146Y-45100000D01*
X99198049Y-45056033D01*
X99198048Y-45056032D01*
X99089069Y-44985996D01*
X98993581Y-44957959D01*
X98964772Y-44949500D01*
X98835228Y-44949500D01*
X98710931Y-44985996D01*
X98710929Y-44985996D01*
X98601951Y-45056032D01*
X98601949Y-45056034D01*
X98517118Y-45153936D01*
X98517116Y-45153939D01*
X98463303Y-45271771D01*
X98444867Y-45400000D01*
X98091272Y-45400000D01*
X98090955Y-42541847D01*
X106163821Y-42541847D01*
X106182257Y-42670075D01*
X106236070Y-42787907D01*
X106236072Y-42787910D01*
X106320905Y-42885814D01*
X106429885Y-42955851D01*
X106498237Y-42975920D01*
X106536378Y-43006655D01*
X106541615Y-43055358D01*
X106510880Y-43093499D01*
X106498238Y-43098736D01*
X106441428Y-43115416D01*
X106332450Y-43185452D01*
X106332448Y-43185454D01*
X106247617Y-43283356D01*
X106247615Y-43283359D01*
X106193802Y-43401191D01*
X106175366Y-43529420D01*
X106193802Y-43657648D01*
X106247615Y-43775480D01*
X106247617Y-43775483D01*
X106332450Y-43873387D01*
X106441430Y-43943424D01*
X106497538Y-43959898D01*
X106535679Y-43990633D01*
X106540916Y-44039336D01*
X106510181Y-44077477D01*
X106497539Y-44082713D01*
X106465721Y-44092055D01*
X106465714Y-44092058D01*
X106356736Y-44162094D01*
X106356734Y-44162096D01*
X106271903Y-44259998D01*
X106271901Y-44260001D01*
X106218088Y-44377833D01*
X106199652Y-44506062D01*
X106218088Y-44634290D01*
X106271901Y-44752122D01*
X106271903Y-44752125D01*
X106356736Y-44850029D01*
X106465716Y-44920066D01*
X106563737Y-44948846D01*
X106601877Y-44979581D01*
X106607114Y-45028284D01*
X106576379Y-45066425D01*
X106563738Y-45071661D01*
X106533316Y-45080593D01*
X106452512Y-45104319D01*
X106343534Y-45174355D01*
X106343532Y-45174357D01*
X106258701Y-45272259D01*
X106258699Y-45272262D01*
X106204886Y-45390094D01*
X106186450Y-45518323D01*
X106204886Y-45646551D01*
X106258699Y-45764383D01*
X106258701Y-45764386D01*
X106301694Y-45814004D01*
X106343534Y-45862290D01*
X106452514Y-45932327D01*
X106576811Y-45968823D01*
X106576812Y-45968823D01*
X106706354Y-45968823D01*
X106706355Y-45968823D01*
X106830652Y-45932327D01*
X106939632Y-45862290D01*
X107024465Y-45764386D01*
X107078280Y-45646549D01*
X107096716Y-45518323D01*
X107078280Y-45390097D01*
X107024465Y-45272260D01*
X106939632Y-45174356D01*
X106939631Y-45174355D01*
X106830653Y-45104319D01*
X106766137Y-45085376D01*
X106732629Y-45075537D01*
X106694490Y-45044802D01*
X106689253Y-44996099D01*
X106719989Y-44957959D01*
X106732620Y-44952726D01*
X106843854Y-44920066D01*
X106952834Y-44850029D01*
X107037667Y-44752125D01*
X107091482Y-44634288D01*
X107109918Y-44506062D01*
X107091482Y-44377836D01*
X107037667Y-44259999D01*
X106952834Y-44162095D01*
X106952833Y-44162094D01*
X106843855Y-44092058D01*
X106787744Y-44075583D01*
X106749604Y-44044847D01*
X106744367Y-43996144D01*
X106775103Y-43958004D01*
X106787741Y-43952768D01*
X106819568Y-43943424D01*
X106928548Y-43873387D01*
X107013381Y-43775483D01*
X107067196Y-43657646D01*
X107085632Y-43529420D01*
X107067196Y-43401194D01*
X107013381Y-43283357D01*
X106928548Y-43185453D01*
X106928547Y-43185452D01*
X106819569Y-43115416D01*
X106751214Y-43095346D01*
X106713074Y-43064610D01*
X106707837Y-43015907D01*
X106738573Y-42977767D01*
X106751207Y-42972533D01*
X106808023Y-42955851D01*
X106917003Y-42885814D01*
X107001836Y-42787910D01*
X107055651Y-42670073D01*
X107074087Y-42541847D01*
X107055651Y-42413621D01*
X107001836Y-42295784D01*
X106917003Y-42197880D01*
X106917002Y-42197879D01*
X106808023Y-42127843D01*
X106683726Y-42091347D01*
X106554182Y-42091347D01*
X106429885Y-42127843D01*
X106429883Y-42127843D01*
X106320905Y-42197879D01*
X106320903Y-42197881D01*
X106236072Y-42295783D01*
X106236070Y-42295786D01*
X106182257Y-42413618D01*
X106163821Y-42541847D01*
X98090955Y-42541847D01*
X98090939Y-42400000D01*
X101400000Y-42400000D01*
X101400000Y-41100000D01*
X101444867Y-41100000D01*
X101463303Y-41228228D01*
X101517116Y-41346060D01*
X101517118Y-41346063D01*
X101601951Y-41443967D01*
X101710931Y-41514004D01*
X101835228Y-41550500D01*
X101835229Y-41550500D01*
X101964771Y-41550500D01*
X101964772Y-41550500D01*
X102089069Y-41514004D01*
X102157967Y-41469726D01*
X103574633Y-41469726D01*
X103593069Y-41597954D01*
X103646882Y-41715786D01*
X103646884Y-41715789D01*
X103731717Y-41813693D01*
X103840697Y-41883730D01*
X103964994Y-41920226D01*
X103964995Y-41920226D01*
X104094537Y-41920226D01*
X104094538Y-41920226D01*
X104218835Y-41883730D01*
X104327815Y-41813693D01*
X104389443Y-41742568D01*
X104433245Y-41720643D01*
X104479722Y-41736112D01*
X104486179Y-41742569D01*
X104566745Y-41835548D01*
X104675725Y-41905585D01*
X104800022Y-41942081D01*
X104800023Y-41942081D01*
X104929565Y-41942081D01*
X104929566Y-41942081D01*
X105053863Y-41905585D01*
X105162843Y-41835548D01*
X105247676Y-41737644D01*
X105301491Y-41619807D01*
X105319927Y-41491581D01*
X105301491Y-41363355D01*
X105277317Y-41310423D01*
X105247677Y-41245520D01*
X105247675Y-41245517D01*
X105228740Y-41223665D01*
X105162843Y-41147614D01*
X105162842Y-41147613D01*
X105088754Y-41100000D01*
X106244867Y-41100000D01*
X106263303Y-41228228D01*
X106317116Y-41346060D01*
X106317118Y-41346063D01*
X106401951Y-41443967D01*
X106510931Y-41514004D01*
X106635228Y-41550500D01*
X106635229Y-41550500D01*
X106764771Y-41550500D01*
X106764772Y-41550500D01*
X106889069Y-41514004D01*
X106998049Y-41443967D01*
X107082882Y-41346063D01*
X107136697Y-41228226D01*
X107155133Y-41100000D01*
X107136697Y-40971774D01*
X107082882Y-40853937D01*
X106998049Y-40756033D01*
X106998048Y-40756032D01*
X106889069Y-40685996D01*
X106764772Y-40649500D01*
X106635228Y-40649500D01*
X106510931Y-40685996D01*
X106510929Y-40685996D01*
X106401951Y-40756032D01*
X106401949Y-40756034D01*
X106317118Y-40853936D01*
X106317116Y-40853939D01*
X106263303Y-40971771D01*
X106244867Y-41100000D01*
X105088754Y-41100000D01*
X105053863Y-41077577D01*
X104929566Y-41041081D01*
X104800022Y-41041081D01*
X104675725Y-41077577D01*
X104675723Y-41077577D01*
X104566745Y-41147613D01*
X104566743Y-41147615D01*
X104505116Y-41218737D01*
X104461314Y-41240663D01*
X104414837Y-41225194D01*
X104408380Y-41218737D01*
X104327816Y-41125760D01*
X104327814Y-41125758D01*
X104218835Y-41055722D01*
X104168971Y-41041081D01*
X104094538Y-41019226D01*
X103964994Y-41019226D01*
X103840697Y-41055722D01*
X103840695Y-41055722D01*
X103731717Y-41125758D01*
X103731715Y-41125760D01*
X103646884Y-41223662D01*
X103646882Y-41223665D01*
X103593069Y-41341497D01*
X103574633Y-41469726D01*
X102157967Y-41469726D01*
X102198049Y-41443967D01*
X102282882Y-41346063D01*
X102336697Y-41228226D01*
X102355133Y-41100000D01*
X102336697Y-40971774D01*
X102282882Y-40853937D01*
X102198049Y-40756033D01*
X102198048Y-40756032D01*
X102089069Y-40685996D01*
X101964772Y-40649500D01*
X101835228Y-40649500D01*
X101710931Y-40685996D01*
X101710929Y-40685996D01*
X101601951Y-40756032D01*
X101601949Y-40756034D01*
X101517118Y-40853936D01*
X101517116Y-40853939D01*
X101463303Y-40971771D01*
X101444867Y-41100000D01*
X101400000Y-41100000D01*
X101400000Y-39700000D01*
X100560000Y-39700000D01*
X100560000Y-39640000D01*
X100230000Y-39640000D01*
X100230000Y-39340000D01*
X100560000Y-39340000D01*
X100560000Y-38907394D01*
X100884500Y-38907394D01*
X100884500Y-39032605D01*
X100916903Y-39153532D01*
X100916904Y-39153535D01*
X100916905Y-39153536D01*
X100979505Y-39261964D01*
X101068036Y-39350495D01*
X101176464Y-39413095D01*
X101176466Y-39413095D01*
X101176467Y-39413096D01*
X101176466Y-39413096D01*
X101297394Y-39445499D01*
X101297396Y-39445499D01*
X101297399Y-39445500D01*
X101297402Y-39445500D01*
X101422598Y-39445500D01*
X101422601Y-39445500D01*
X101543536Y-39413095D01*
X101651964Y-39350495D01*
X101740495Y-39261964D01*
X101803095Y-39153536D01*
X101803095Y-39153534D01*
X101805192Y-39149903D01*
X101806392Y-39150596D01*
X101837473Y-39119508D01*
X101886456Y-39119502D01*
X101914111Y-39142610D01*
X101914120Y-39142603D01*
X101914163Y-39142653D01*
X101915810Y-39144029D01*
X101917115Y-39146059D01*
X101917117Y-39146061D01*
X101917118Y-39146063D01*
X102001951Y-39243967D01*
X102110931Y-39314004D01*
X102235228Y-39350500D01*
X102235229Y-39350500D01*
X102364771Y-39350500D01*
X102364772Y-39350500D01*
X102489069Y-39314004D01*
X102598049Y-39243967D01*
X102682882Y-39146063D01*
X102736697Y-39028226D01*
X102755133Y-38900000D01*
X105744867Y-38900000D01*
X105763303Y-39028228D01*
X105817116Y-39146060D01*
X105817118Y-39146063D01*
X105901951Y-39243967D01*
X106010931Y-39314004D01*
X106135228Y-39350500D01*
X106135229Y-39350500D01*
X106264771Y-39350500D01*
X106264772Y-39350500D01*
X106389069Y-39314004D01*
X106498049Y-39243967D01*
X106582882Y-39146063D01*
X106582884Y-39146057D01*
X106584185Y-39144035D01*
X106585325Y-39143243D01*
X106585880Y-39142603D01*
X106586043Y-39142744D01*
X106624419Y-39116096D01*
X106672625Y-39124791D01*
X106694004Y-39150367D01*
X106694808Y-39149903D01*
X106696904Y-39153534D01*
X106696905Y-39153536D01*
X106759505Y-39261964D01*
X106848036Y-39350495D01*
X106956464Y-39413095D01*
X106956466Y-39413095D01*
X106956467Y-39413096D01*
X106956466Y-39413096D01*
X107077394Y-39445499D01*
X107077396Y-39445499D01*
X107077399Y-39445500D01*
X107077402Y-39445500D01*
X107202598Y-39445500D01*
X107202601Y-39445500D01*
X107323536Y-39413095D01*
X107431964Y-39350495D01*
X107520495Y-39261964D01*
X107583095Y-39153536D01*
X107615500Y-39032601D01*
X107615500Y-38907399D01*
X107613652Y-38900504D01*
X107583096Y-38786467D01*
X107583095Y-38786466D01*
X107583095Y-38786464D01*
X107520495Y-38678036D01*
X107431964Y-38589505D01*
X107323536Y-38526905D01*
X107323535Y-38526904D01*
X107323532Y-38526903D01*
X107323533Y-38526903D01*
X107202605Y-38494500D01*
X107202601Y-38494500D01*
X107077399Y-38494500D01*
X107077394Y-38494500D01*
X106956467Y-38526903D01*
X106848034Y-38589506D01*
X106759506Y-38678034D01*
X106729105Y-38730691D01*
X106690243Y-38760510D01*
X106641679Y-38754117D01*
X106615463Y-38725278D01*
X106582883Y-38653939D01*
X106582881Y-38653936D01*
X106550648Y-38616737D01*
X106498049Y-38556033D01*
X106498048Y-38556032D01*
X106389069Y-38485996D01*
X106344831Y-38473007D01*
X106264772Y-38449500D01*
X106135228Y-38449500D01*
X106010931Y-38485996D01*
X106010929Y-38485996D01*
X105901951Y-38556032D01*
X105901949Y-38556034D01*
X105817118Y-38653936D01*
X105817116Y-38653939D01*
X105763303Y-38771771D01*
X105744867Y-38900000D01*
X102755133Y-38900000D01*
X102736697Y-38771774D01*
X102729907Y-38756907D01*
X102682883Y-38653939D01*
X102682881Y-38653936D01*
X102650648Y-38616737D01*
X102598049Y-38556033D01*
X102598048Y-38556032D01*
X102489069Y-38485996D01*
X102444831Y-38473007D01*
X102364772Y-38449500D01*
X102235228Y-38449500D01*
X102110931Y-38485996D01*
X102110929Y-38485996D01*
X102001951Y-38556032D01*
X102001949Y-38556034D01*
X101917118Y-38653936D01*
X101884536Y-38725279D01*
X101848685Y-38758656D01*
X101799732Y-38756907D01*
X101770894Y-38730690D01*
X101767769Y-38725278D01*
X101740495Y-38678036D01*
X101651964Y-38589505D01*
X101543536Y-38526905D01*
X101543535Y-38526904D01*
X101543532Y-38526903D01*
X101543533Y-38526903D01*
X101422605Y-38494500D01*
X101422601Y-38494500D01*
X101297399Y-38494500D01*
X101297394Y-38494500D01*
X101176467Y-38526903D01*
X101068034Y-38589506D01*
X100979506Y-38678034D01*
X100916903Y-38786467D01*
X100884500Y-38907394D01*
X100560000Y-38907394D01*
X100560000Y-38877947D01*
X100535790Y-38756240D01*
X100535789Y-38756238D01*
X100488298Y-38641582D01*
X100419353Y-38538399D01*
X100331600Y-38450646D01*
X100228417Y-38381701D01*
X100113760Y-38334209D01*
X100080000Y-38327493D01*
X100080000Y-38680191D01*
X100045796Y-38660444D01*
X99969496Y-38640000D01*
X99890504Y-38640000D01*
X99814204Y-38660444D01*
X99780000Y-38680191D01*
X99780000Y-38327494D01*
X99779999Y-38327493D01*
X99746239Y-38334209D01*
X99631582Y-38381701D01*
X99528399Y-38450646D01*
X99440646Y-38538399D01*
X99371701Y-38641582D01*
X99324210Y-38756238D01*
X99324209Y-38756240D01*
X99300000Y-38877947D01*
X99300000Y-39340000D01*
X99630000Y-39340000D01*
X99630000Y-39640000D01*
X99300000Y-39640000D01*
X99300000Y-39700000D01*
X98090639Y-39700000D01*
X98090525Y-38670443D01*
X98109265Y-38625189D01*
X98143413Y-38607411D01*
X98201893Y-38597100D01*
X98363589Y-38538246D01*
X98399276Y-38525258D01*
X98399276Y-38525257D01*
X98399281Y-38525256D01*
X98581195Y-38420228D01*
X98742107Y-38285207D01*
X98877128Y-38124295D01*
X98982156Y-37942381D01*
X99054000Y-37744993D01*
X99090475Y-37538128D01*
X99090475Y-37328072D01*
X99054000Y-37121207D01*
X99022018Y-37033338D01*
X98982158Y-36923823D01*
X98967334Y-36898147D01*
X98877128Y-36741905D01*
X98877123Y-36741899D01*
X98877122Y-36741897D01*
X98742110Y-36580996D01*
X98742103Y-36580989D01*
X98581202Y-36445977D01*
X98581198Y-36445975D01*
X98581195Y-36445972D01*
X98399281Y-36340944D01*
X98399276Y-36340941D01*
X98201895Y-36269100D01*
X98143385Y-36258782D01*
X98102073Y-36232463D01*
X98090500Y-36195755D01*
X98090500Y-34827947D01*
X99300000Y-34827947D01*
X99300000Y-35140000D01*
X99630000Y-35140000D01*
X99630000Y-35440000D01*
X99300000Y-35440000D01*
X99300000Y-35752052D01*
X99324209Y-35873759D01*
X99324210Y-35873761D01*
X99371701Y-35988417D01*
X99440646Y-36091600D01*
X99528399Y-36179353D01*
X99631582Y-36248298D01*
X99746233Y-36295787D01*
X99746243Y-36295790D01*
X99779999Y-36302505D01*
X99780000Y-36302505D01*
X99780000Y-35949808D01*
X99814204Y-35969556D01*
X99890504Y-35990000D01*
X99969496Y-35990000D01*
X100045796Y-35969556D01*
X100080000Y-35949808D01*
X100080000Y-36302505D01*
X100113756Y-36295790D01*
X100113766Y-36295787D01*
X100228417Y-36248298D01*
X100331600Y-36179353D01*
X100419353Y-36091600D01*
X100488298Y-35988417D01*
X100535789Y-35873761D01*
X100535790Y-35873759D01*
X100560000Y-35752052D01*
X100560000Y-35440000D01*
X100230000Y-35440000D01*
X100230000Y-35140000D01*
X100560000Y-35140000D01*
X100560000Y-34827947D01*
X107940000Y-34827947D01*
X107940000Y-35140000D01*
X108270000Y-35140000D01*
X108270000Y-35440000D01*
X107940000Y-35440000D01*
X107940000Y-35752052D01*
X107964209Y-35873759D01*
X107964210Y-35873761D01*
X108011701Y-35988417D01*
X108080646Y-36091600D01*
X108168399Y-36179353D01*
X108271582Y-36248298D01*
X108386233Y-36295787D01*
X108386243Y-36295790D01*
X108419999Y-36302505D01*
X108420000Y-36302505D01*
X108420000Y-35949808D01*
X108454204Y-35969556D01*
X108530504Y-35990000D01*
X108609496Y-35990000D01*
X108685796Y-35969556D01*
X108720000Y-35949808D01*
X108720000Y-36302505D01*
X108753756Y-36295790D01*
X108753766Y-36295787D01*
X108868417Y-36248298D01*
X108971600Y-36179353D01*
X109059353Y-36091600D01*
X109128298Y-35988417D01*
X109175789Y-35873761D01*
X109175790Y-35873759D01*
X109200000Y-35752052D01*
X109200000Y-35440000D01*
X108870000Y-35440000D01*
X108870000Y-35140000D01*
X109200000Y-35140000D01*
X109200000Y-34827947D01*
X109175790Y-34706240D01*
X109175789Y-34706238D01*
X109128298Y-34591582D01*
X109059353Y-34488399D01*
X108971600Y-34400646D01*
X108868417Y-34331701D01*
X108753760Y-34284209D01*
X108720000Y-34277493D01*
X108720000Y-34630191D01*
X108685796Y-34610444D01*
X108609496Y-34590000D01*
X108530504Y-34590000D01*
X108454204Y-34610444D01*
X108420000Y-34630191D01*
X108420000Y-34277494D01*
X108419999Y-34277493D01*
X108386239Y-34284209D01*
X108271582Y-34331701D01*
X108168399Y-34400646D01*
X108080646Y-34488399D01*
X108011701Y-34591582D01*
X107964210Y-34706238D01*
X107964209Y-34706240D01*
X107940000Y-34827947D01*
X100560000Y-34827947D01*
X100535790Y-34706240D01*
X100535789Y-34706238D01*
X100488298Y-34591582D01*
X100419353Y-34488399D01*
X100331600Y-34400646D01*
X100228417Y-34331701D01*
X100113760Y-34284209D01*
X100080000Y-34277493D01*
X100080000Y-34630191D01*
X100045796Y-34610444D01*
X99969496Y-34590000D01*
X99890504Y-34590000D01*
X99814204Y-34610444D01*
X99780000Y-34630191D01*
X99780000Y-34277494D01*
X99779999Y-34277493D01*
X99746239Y-34284209D01*
X99631582Y-34331701D01*
X99528399Y-34400646D01*
X99440646Y-34488399D01*
X99371701Y-34591582D01*
X99324210Y-34706238D01*
X99324209Y-34706240D01*
X99300000Y-34827947D01*
X98090500Y-34827947D01*
X98090500Y-34164500D01*
X98109245Y-34119245D01*
X98154500Y-34100500D01*
X110325500Y-34100500D01*
X110370755Y-34119245D01*
G37*
%TD.AperFunction*%
%TD*%
M02*
