%TF.GenerationSoftware,KiCad,Pcbnew,8.0.5-8.0.5-0~ubuntu24.04.1*%
%TF.CreationDate,2024-10-10T17:44:54+02:00*%
%TF.ProjectId,epi_ESP32_PD,6570695f-4553-4503-9332-5f50442e6b69,1_1*%
%TF.SameCoordinates,Original*%
%TF.FileFunction,Copper,L3,Inr*%
%TF.FilePolarity,Positive*%
%FSLAX46Y46*%
G04 Gerber Fmt 4.6, Leading zero omitted, Abs format (unit mm)*
G04 Created by KiCad (PCBNEW 8.0.5-8.0.5-0~ubuntu24.04.1) date 2024-10-10 17:44:54*
%MOMM*%
%LPD*%
G01*
G04 APERTURE LIST*
%TA.AperFunction,ComponentPad*%
%ADD10C,1.700000*%
%TD*%
%TA.AperFunction,ComponentPad*%
%ADD11O,1.700000X1.700000*%
%TD*%
%TA.AperFunction,ComponentPad*%
%ADD12R,1.700000X1.700000*%
%TD*%
%TA.AperFunction,ComponentPad*%
%ADD13O,1.000000X2.100000*%
%TD*%
%TA.AperFunction,ComponentPad*%
%ADD14O,1.000000X1.800000*%
%TD*%
%TA.AperFunction,ViaPad*%
%ADD15C,0.600000*%
%TD*%
%TA.AperFunction,Conductor*%
%ADD16C,0.250000*%
%TD*%
%TA.AperFunction,Conductor*%
%ADD17C,0.130000*%
%TD*%
G04 APERTURE END LIST*
D10*
%TO.N,+3.3V*%
%TO.C,J8*%
X97900000Y-71860000D03*
D11*
%TO.N,IO0*%
X97900000Y-74400000D03*
D12*
%TO.N,GND*%
X97900000Y-76940000D03*
%TD*%
D10*
%TO.N,+3.3V*%
%TO.C,J3*%
X110600000Y-47910000D03*
D11*
%TO.N,GND*%
X110600000Y-50450000D03*
%TO.N,+5V*%
X110600000Y-52990000D03*
%TO.N,EN*%
X110600000Y-55530000D03*
%TO.N,BOOT*%
X110600000Y-58070000D03*
%TO.N,IO8*%
X110600000Y-60610000D03*
%TO.N,IO7*%
X110600000Y-63150000D03*
%TO.N,IO6*%
X110600000Y-65690000D03*
%TD*%
D10*
%TO.N,VOUT*%
%TO.C,J7*%
X106640000Y-79860000D03*
D12*
%TO.N,GND*%
X106640000Y-82400000D03*
D11*
%TO.N,B*%
X104100000Y-79860000D03*
%TO.N,IO2_5V*%
X104100000Y-82400000D03*
%TO.N,W*%
X101560000Y-79860000D03*
%TO.N,IO3_5V*%
X101560000Y-82400000D03*
%TD*%
D10*
%TO.N,U0TXD*%
%TO.C,J1*%
X97900000Y-47910000D03*
D11*
%TO.N,U0RXD*%
X97900000Y-50450000D03*
%TO.N,IO0*%
X97900000Y-52990000D03*
%TO.N,IO1*%
X97900000Y-55530000D03*
%TO.N,IO2*%
X97900000Y-58070000D03*
%TO.N,IO3*%
X97900000Y-60610000D03*
%TO.N,IO4*%
X97900000Y-63150000D03*
%TO.N,IO5*%
X97900000Y-65690000D03*
%TD*%
D13*
%TO.N,GND*%
%TO.C,J2*%
X108570000Y-39490000D03*
D14*
X108570000Y-35290000D03*
D13*
X99930000Y-39490000D03*
D14*
X99930000Y-35290000D03*
%TD*%
D15*
%TO.N,+5V*%
X99485839Y-71914161D03*
X104000923Y-49800000D03*
%TO.N,GND*%
X106500000Y-65600000D03*
X100282280Y-64389187D03*
X106600000Y-48500000D03*
X103550000Y-76200000D03*
X102650937Y-63829741D03*
X101316848Y-62744207D03*
X102400000Y-69700000D03*
X102200000Y-62500000D03*
X100627768Y-63433287D03*
X105550923Y-44100000D03*
X106500000Y-64100000D03*
X106500000Y-59300000D03*
X99600000Y-69700000D03*
X106500000Y-64837500D03*
X106300000Y-71000000D03*
X101500000Y-54500000D03*
X104500000Y-72300000D03*
X100279886Y-65179886D03*
X105800000Y-48100000D03*
X100500000Y-54500000D03*
X101650000Y-76200000D03*
X101422885Y-65200000D03*
X102600000Y-76200000D03*
X101900000Y-64300000D03*
%TO.N,+3.3V*%
X104300000Y-62000000D03*
X99857536Y-79278365D03*
X107500000Y-77475000D03*
X103100000Y-71800000D03*
X99700000Y-74900000D03*
X109685840Y-56485840D03*
X105625000Y-53800000D03*
X107117246Y-68906905D03*
%TO.N,IO0*%
X104990839Y-63990839D03*
%TO.N,IO1*%
X104980383Y-64798262D03*
%TO.N,IO2*%
X104974663Y-65828262D03*
X101400000Y-70900000D03*
%TO.N,IO3*%
X103598043Y-66962534D03*
%TO.N,D+*%
X104029766Y-41469726D03*
X106630499Y-43529420D03*
X104581763Y-58507213D03*
%TO.N,D-*%
X104864794Y-41491581D03*
X106618954Y-42541847D03*
X105150922Y-58018785D03*
%TO.N,IO4*%
X103637172Y-67711515D03*
%TO.N,IO8*%
X107232601Y-66400000D03*
%TO.N,IO5*%
X103600000Y-68500000D03*
%TO.N,EN*%
X102667126Y-59632184D03*
X105452598Y-66406258D03*
%TO.N,BOOT*%
X106289882Y-63287499D03*
X101449721Y-61070001D03*
%TO.N,U0TXD*%
X106552903Y-61571365D03*
%TO.N,U0RXD*%
X107302347Y-61600297D03*
%TO.N,IO7*%
X99857536Y-76200511D03*
X106482598Y-66400000D03*
%TO.N,IO6*%
X104262771Y-77462771D03*
X106282978Y-68200000D03*
%TO.N,IO10*%
X105133029Y-70334500D03*
X107107114Y-68156336D03*
%TO.N,IO3_5V*%
X107400000Y-76400000D03*
%TO.N,IO2_5V*%
X102080000Y-74300000D03*
%TO.N,VOUT*%
X109900000Y-73600000D03*
X109900000Y-72700000D03*
%TO.N,Net-(JP1-B)*%
X106641583Y-45518323D03*
%TO.N,Net-(JP2-B)*%
X106654785Y-44506062D03*
%TO.N,Net-(JP3-A)*%
X102375000Y-45100000D03*
%TO.N,VIN*%
X106200000Y-38900000D03*
X102300000Y-38900000D03*
X106700000Y-41100000D03*
X101900000Y-41100000D03*
X104000000Y-55800000D03*
X107800000Y-71487500D03*
X107800000Y-70587500D03*
X98900000Y-45400000D03*
X106554676Y-47488645D03*
%TD*%
D16*
%TO.N,+5V*%
X104000923Y-49800000D02*
X104000923Y-49899077D01*
X99025000Y-54875000D02*
X99025000Y-71453322D01*
X99025000Y-71453322D02*
X99485839Y-71914161D01*
X104000923Y-49899077D02*
X99025000Y-54875000D01*
D17*
%TO.N,IO0*%
X98158943Y-74399970D02*
X99100030Y-74399970D01*
X105300000Y-67300000D02*
X105967598Y-66632402D01*
X105967598Y-64967598D02*
X104990839Y-63990839D01*
X105967598Y-66632402D02*
X105967598Y-64967598D01*
X105300000Y-68200000D02*
X105300000Y-67300000D01*
X99100030Y-74399970D02*
X105300000Y-68200000D01*
%TO.N,IO2*%
X104937598Y-67890722D02*
X104937598Y-65865327D01*
X104937598Y-65865327D02*
X104974663Y-65828262D01*
X101928320Y-70900000D02*
X104937598Y-67890722D01*
X101400000Y-70900000D02*
X101928320Y-70900000D01*
D16*
%TO.N,D+*%
X104575923Y-42015883D02*
X104575923Y-58501373D01*
X104029766Y-41469726D02*
X104575923Y-42015883D01*
X104575923Y-58501373D02*
X104581763Y-58507213D01*
D17*
%TO.N,D-*%
X104975923Y-41475923D02*
X104880452Y-41475923D01*
D16*
X106618954Y-42541847D02*
X104975923Y-42541847D01*
X104864794Y-41491581D02*
X104975923Y-41602710D01*
X104975923Y-41602710D02*
X104975923Y-57843786D01*
D17*
X104880452Y-41475923D02*
X104864794Y-41491581D01*
D16*
X104975923Y-57843786D02*
X105150922Y-58018785D01*
D17*
%TO.N,IO8*%
X110330112Y-61669888D02*
X110330112Y-60610062D01*
X107700000Y-65932601D02*
X107700000Y-64300000D01*
X107232601Y-66400000D02*
X107700000Y-65932601D01*
X107700000Y-64300000D02*
X110330112Y-61669888D01*
%TO.N,EN*%
X100934721Y-61283321D02*
X100934721Y-60856681D01*
X104171680Y-62700000D02*
X108404020Y-62700000D01*
X105452598Y-66406258D02*
X105489663Y-66369193D01*
X105187983Y-65313262D02*
X104753565Y-65313262D01*
X100934721Y-60856681D02*
X102159218Y-59632184D01*
X109100000Y-62004020D02*
X109100000Y-57800000D01*
X104753565Y-65313262D02*
X104300000Y-64859697D01*
X109100000Y-57800000D02*
X110328479Y-56571521D01*
X110328479Y-56571521D02*
X110328479Y-55530063D01*
X102159218Y-59632184D02*
X102667126Y-59632184D01*
X105489663Y-66369193D02*
X105489663Y-65614942D01*
X104300000Y-64859697D02*
X104300000Y-63871680D01*
X108404020Y-62700000D02*
X109100000Y-62004020D01*
X102900000Y-61428320D02*
X104171680Y-62700000D01*
X102013320Y-61585000D02*
X101236400Y-61585000D01*
X102900000Y-59865058D02*
X102900000Y-61428320D01*
X102667126Y-59632184D02*
X102900000Y-59865058D01*
X101236400Y-61585000D02*
X100934721Y-61283321D01*
X105489663Y-65614942D02*
X105187983Y-65313262D01*
X104300000Y-63871680D02*
X102013320Y-61585000D01*
%TO.N,BOOT*%
X106289882Y-63287499D02*
X104363199Y-63287499D01*
X109380000Y-62120000D02*
X109380000Y-59019127D01*
X109380000Y-59019127D02*
X110329065Y-58070062D01*
X104363199Y-63287499D02*
X102145701Y-61070001D01*
X102145701Y-61070001D02*
X101449721Y-61070001D01*
X108212501Y-63287499D02*
X109380000Y-62120000D01*
X106289882Y-63287499D02*
X108212501Y-63287499D01*
%TO.N,IO7*%
X109849938Y-63150062D02*
X110330236Y-63150062D01*
X108200000Y-66160921D02*
X108200000Y-64800000D01*
X100215000Y-73956680D02*
X100215000Y-75843047D01*
X105580000Y-68591680D02*
X100215000Y-73956680D01*
X105580000Y-67415980D02*
X105580000Y-68591680D01*
X107445921Y-66915000D02*
X108200000Y-66160921D01*
X106247598Y-66635000D02*
X106247598Y-66748382D01*
X106247598Y-66748382D02*
X105580000Y-67415980D01*
X106482598Y-66400000D02*
X106997598Y-66915000D01*
X100215000Y-75843047D02*
X99857536Y-76200511D01*
X106997598Y-66915000D02*
X107445921Y-66915000D01*
X108200000Y-64800000D02*
X109849938Y-63150062D01*
X106482598Y-66400000D02*
X106247598Y-66635000D01*
%TO.N,IO6*%
X106282978Y-68200000D02*
X106982978Y-67500000D01*
X106282978Y-69082978D02*
X105785000Y-69580956D01*
X108790000Y-67500000D02*
X110331005Y-65958995D01*
X110331005Y-65690000D02*
X110330883Y-65690000D01*
X106982978Y-67500000D02*
X108790000Y-67500000D01*
X110330883Y-65690000D02*
X110330821Y-65690062D01*
X105785000Y-69580956D02*
X105785000Y-75940542D01*
X110331005Y-65958995D02*
X110331005Y-65690000D01*
X105785000Y-75940542D02*
X104262771Y-77462771D01*
X106282978Y-68200000D02*
X106282978Y-69082978D01*
%TD*%
%TA.AperFunction,Conductor*%
%TO.N,VIN*%
G36*
X107862539Y-39619685D02*
G01*
X107908294Y-39672489D01*
X107919500Y-39724000D01*
X107919500Y-40104069D01*
X107919500Y-40104071D01*
X107919499Y-40104071D01*
X107944497Y-40229738D01*
X107944499Y-40229744D01*
X107993533Y-40348124D01*
X107993538Y-40348133D01*
X108064723Y-40454668D01*
X108064726Y-40454672D01*
X108155327Y-40545273D01*
X108155331Y-40545276D01*
X108261866Y-40616461D01*
X108261875Y-40616466D01*
X108288692Y-40627574D01*
X108380256Y-40665501D01*
X108380260Y-40665501D01*
X108380261Y-40665502D01*
X108505928Y-40690500D01*
X108505931Y-40690500D01*
X108634071Y-40690500D01*
X108718615Y-40673682D01*
X108759744Y-40665501D01*
X108878127Y-40616465D01*
X108984669Y-40545276D01*
X108984672Y-40545273D01*
X108988319Y-40541627D01*
X109049642Y-40508142D01*
X109119334Y-40513126D01*
X109175267Y-40554998D01*
X109199684Y-40620462D01*
X109200000Y-40629308D01*
X109200000Y-42176000D01*
X109180315Y-42243039D01*
X109127511Y-42288794D01*
X109076000Y-42300000D01*
X107062119Y-42300000D01*
X106995080Y-42280315D01*
X106968405Y-42257202D01*
X106917003Y-42197880D01*
X106910745Y-42193858D01*
X106808023Y-42127843D01*
X106808019Y-42127841D01*
X106808018Y-42127841D01*
X106683728Y-42091347D01*
X106683726Y-42091347D01*
X106554182Y-42091347D01*
X106554180Y-42091347D01*
X106429889Y-42127841D01*
X106429886Y-42127842D01*
X106429885Y-42127843D01*
X106395965Y-42149642D01*
X106320904Y-42197880D01*
X106298663Y-42223549D01*
X106239885Y-42261324D01*
X106204949Y-42266347D01*
X105375423Y-42266347D01*
X105308384Y-42246662D01*
X105262629Y-42193858D01*
X105251423Y-42142347D01*
X105251423Y-41756413D01*
X105262629Y-41704901D01*
X105301491Y-41619807D01*
X105319927Y-41491581D01*
X105301491Y-41363355D01*
X105247676Y-41245518D01*
X105162843Y-41147614D01*
X105053863Y-41077577D01*
X105053859Y-41077575D01*
X105053858Y-41077575D01*
X104929568Y-41041081D01*
X104929566Y-41041081D01*
X104800022Y-41041081D01*
X104800020Y-41041081D01*
X104675729Y-41077575D01*
X104675726Y-41077576D01*
X104675725Y-41077577D01*
X104621235Y-41112595D01*
X104566741Y-41147616D01*
X104550460Y-41166406D01*
X104491682Y-41204180D01*
X104421812Y-41204180D01*
X104363034Y-41166405D01*
X104363034Y-41166404D01*
X104327817Y-41125760D01*
X104307067Y-41112425D01*
X104218835Y-41055722D01*
X104218831Y-41055720D01*
X104218830Y-41055720D01*
X104094540Y-41019226D01*
X104094538Y-41019226D01*
X103964994Y-41019226D01*
X103964992Y-41019226D01*
X103840701Y-41055720D01*
X103840698Y-41055721D01*
X103840697Y-41055722D01*
X103806693Y-41077575D01*
X103731716Y-41125759D01*
X103646884Y-41223663D01*
X103646883Y-41223664D01*
X103593068Y-41341500D01*
X103574633Y-41469726D01*
X103593068Y-41597951D01*
X103646883Y-41715787D01*
X103646884Y-41715789D01*
X103731717Y-41813693D01*
X103840697Y-41883730D01*
X103964991Y-41920225D01*
X103964993Y-41920226D01*
X103964994Y-41920226D01*
X104039289Y-41920226D01*
X104106328Y-41939911D01*
X104126970Y-41956545D01*
X104258744Y-42088319D01*
X104292229Y-42149642D01*
X104287245Y-42219334D01*
X104245373Y-42275267D01*
X104179909Y-42299684D01*
X104171063Y-42300000D01*
X100424000Y-42300000D01*
X100356961Y-42280315D01*
X100311206Y-42227511D01*
X100300000Y-42176000D01*
X100300000Y-40640582D01*
X100319685Y-40573543D01*
X100340706Y-40549929D01*
X100340361Y-40549583D01*
X100344665Y-40545278D01*
X100344669Y-40545276D01*
X100435276Y-40454669D01*
X100506465Y-40348127D01*
X100555501Y-40229744D01*
X100580500Y-40104069D01*
X100580500Y-39724000D01*
X100600185Y-39656961D01*
X100652989Y-39611206D01*
X100704500Y-39600000D01*
X107795500Y-39600000D01*
X107862539Y-39619685D01*
G37*
%TD.AperFunction*%
%TD*%
%TA.AperFunction,Conductor*%
%TO.N,+3.3V*%
G36*
X110101171Y-66557825D02*
G01*
X110215273Y-66618814D01*
X110215275Y-66618814D01*
X110215278Y-66618816D01*
X110301967Y-66645112D01*
X110350309Y-66659776D01*
X110388175Y-66690850D01*
X110395732Y-66721006D01*
X110396986Y-72414016D01*
X110378251Y-72459275D01*
X110333000Y-72478030D01*
X110287741Y-72459295D01*
X110284618Y-72455941D01*
X110260603Y-72428226D01*
X110198049Y-72356033D01*
X110198048Y-72356032D01*
X110089069Y-72285996D01*
X110086109Y-72285127D01*
X109964772Y-72249500D01*
X109835228Y-72249500D01*
X109710931Y-72285996D01*
X109710929Y-72285996D01*
X109601951Y-72356032D01*
X109601949Y-72356034D01*
X109517118Y-72453936D01*
X109517116Y-72453939D01*
X109463303Y-72571771D01*
X109444867Y-72700000D01*
X109463303Y-72828228D01*
X109517116Y-72946060D01*
X109517118Y-72946063D01*
X109601949Y-73043965D01*
X109601951Y-73043967D01*
X109683165Y-73096160D01*
X109711101Y-73136396D01*
X109702404Y-73184601D01*
X109683165Y-73203840D01*
X109601951Y-73256032D01*
X109601949Y-73256034D01*
X109517118Y-73353936D01*
X109517116Y-73353939D01*
X109463303Y-73471771D01*
X109444867Y-73600000D01*
X109463303Y-73728228D01*
X109517116Y-73846060D01*
X109517118Y-73846063D01*
X109575823Y-73913814D01*
X109601951Y-73943967D01*
X109710931Y-74014004D01*
X109835228Y-74050500D01*
X109835229Y-74050500D01*
X109964771Y-74050500D01*
X109964772Y-74050500D01*
X110089069Y-74014004D01*
X110198049Y-73943967D01*
X110282882Y-73846063D01*
X110282882Y-73846062D01*
X110284943Y-73843684D01*
X110328745Y-73821758D01*
X110375222Y-73837227D01*
X110397148Y-73881029D01*
X110397311Y-73885581D01*
X110397941Y-76743965D01*
X110399398Y-83358505D01*
X110399442Y-83555486D01*
X110380707Y-83600745D01*
X110335456Y-83619500D01*
X98159506Y-83619500D01*
X98114251Y-83600755D01*
X98095506Y-83555507D01*
X98095378Y-82400000D01*
X100554659Y-82400000D01*
X100573975Y-82596132D01*
X100631187Y-82784730D01*
X100724087Y-82958533D01*
X100724090Y-82958538D01*
X100849117Y-83110883D01*
X101001462Y-83235910D01*
X101001466Y-83235912D01*
X101137683Y-83308722D01*
X101175273Y-83328814D01*
X101363868Y-83386024D01*
X101363866Y-83386024D01*
X101396142Y-83389202D01*
X101560000Y-83405341D01*
X101756132Y-83386024D01*
X101944727Y-83328814D01*
X102118538Y-83235910D01*
X102270883Y-83110883D01*
X102395910Y-82958538D01*
X102488814Y-82784727D01*
X102546024Y-82596132D01*
X102565341Y-82400000D01*
X103094659Y-82400000D01*
X103113975Y-82596132D01*
X103171187Y-82784730D01*
X103264087Y-82958533D01*
X103264090Y-82958538D01*
X103389117Y-83110883D01*
X103541462Y-83235910D01*
X103541466Y-83235912D01*
X103677683Y-83308722D01*
X103715273Y-83328814D01*
X103903868Y-83386024D01*
X103903866Y-83386024D01*
X103936142Y-83389202D01*
X104100000Y-83405341D01*
X104296132Y-83386024D01*
X104484727Y-83328814D01*
X104658538Y-83235910D01*
X104810883Y-83110883D01*
X104935910Y-82958538D01*
X105028814Y-82784727D01*
X105086024Y-82596132D01*
X105105341Y-82400000D01*
X105086024Y-82203868D01*
X105028814Y-82015273D01*
X104935910Y-81841462D01*
X104810883Y-81689117D01*
X104658538Y-81564090D01*
X104658533Y-81564087D01*
X104604448Y-81535178D01*
X105639500Y-81535178D01*
X105639500Y-83264821D01*
X105648233Y-83308722D01*
X105648234Y-83308724D01*
X105681494Y-83358502D01*
X105681496Y-83358504D01*
X105731278Y-83391767D01*
X105766446Y-83398762D01*
X105775179Y-83400500D01*
X105775180Y-83400500D01*
X107504821Y-83400500D01*
X107512104Y-83399050D01*
X107548722Y-83391767D01*
X107598504Y-83358504D01*
X107631767Y-83308722D01*
X107640500Y-83264820D01*
X107640500Y-81535180D01*
X107631767Y-81491278D01*
X107598504Y-81441496D01*
X107598502Y-81441494D01*
X107548724Y-81408234D01*
X107548722Y-81408233D01*
X107504821Y-81399500D01*
X107504820Y-81399500D01*
X105775180Y-81399500D01*
X105775179Y-81399500D01*
X105731277Y-81408233D01*
X105731275Y-81408234D01*
X105681497Y-81441494D01*
X105681494Y-81441497D01*
X105648234Y-81491275D01*
X105648233Y-81491277D01*
X105639500Y-81535178D01*
X104604448Y-81535178D01*
X104484730Y-81471187D01*
X104296131Y-81413975D01*
X104296133Y-81413975D01*
X104100000Y-81394659D01*
X103903867Y-81413975D01*
X103715269Y-81471187D01*
X103541466Y-81564087D01*
X103541461Y-81564090D01*
X103389117Y-81689116D01*
X103389116Y-81689117D01*
X103264090Y-81841461D01*
X103264087Y-81841466D01*
X103171187Y-82015269D01*
X103113975Y-82203867D01*
X103094659Y-82400000D01*
X102565341Y-82400000D01*
X102546024Y-82203868D01*
X102488814Y-82015273D01*
X102395910Y-81841462D01*
X102270883Y-81689117D01*
X102118538Y-81564090D01*
X102118533Y-81564087D01*
X101944730Y-81471187D01*
X101756131Y-81413975D01*
X101756133Y-81413975D01*
X101560000Y-81394659D01*
X101363867Y-81413975D01*
X101175269Y-81471187D01*
X101001466Y-81564087D01*
X101001461Y-81564090D01*
X100849117Y-81689116D01*
X100849116Y-81689117D01*
X100724090Y-81841461D01*
X100724087Y-81841466D01*
X100631187Y-82015269D01*
X100573975Y-82203867D01*
X100554659Y-82400000D01*
X98095378Y-82400000D01*
X98095096Y-79860000D01*
X100554659Y-79860000D01*
X100573975Y-80056132D01*
X100631187Y-80244730D01*
X100724087Y-80418533D01*
X100724090Y-80418538D01*
X100849117Y-80570883D01*
X101001462Y-80695910D01*
X101175273Y-80788814D01*
X101363868Y-80846024D01*
X101363866Y-80846024D01*
X101396142Y-80849202D01*
X101560000Y-80865341D01*
X101756132Y-80846024D01*
X101944727Y-80788814D01*
X102118538Y-80695910D01*
X102270883Y-80570883D01*
X102395910Y-80418538D01*
X102488814Y-80244727D01*
X102546024Y-80056132D01*
X102565341Y-79860000D01*
X103094659Y-79860000D01*
X103113975Y-80056132D01*
X103171187Y-80244730D01*
X103264087Y-80418533D01*
X103264090Y-80418538D01*
X103389117Y-80570883D01*
X103541462Y-80695910D01*
X103715273Y-80788814D01*
X103903868Y-80846024D01*
X103903866Y-80846024D01*
X103936142Y-80849202D01*
X104100000Y-80865341D01*
X104296132Y-80846024D01*
X104484727Y-80788814D01*
X104658538Y-80695910D01*
X104810883Y-80570883D01*
X104935910Y-80418538D01*
X105028814Y-80244727D01*
X105086024Y-80056132D01*
X105105341Y-79860000D01*
X105634659Y-79860000D01*
X105653975Y-80056132D01*
X105711187Y-80244730D01*
X105804087Y-80418533D01*
X105804090Y-80418538D01*
X105929117Y-80570883D01*
X106081462Y-80695910D01*
X106255273Y-80788814D01*
X106443868Y-80846024D01*
X106443866Y-80846024D01*
X106476142Y-80849202D01*
X106640000Y-80865341D01*
X106836132Y-80846024D01*
X107024727Y-80788814D01*
X107198538Y-80695910D01*
X107350883Y-80570883D01*
X107475910Y-80418538D01*
X107568814Y-80244727D01*
X107626024Y-80056132D01*
X107645341Y-79860000D01*
X107626024Y-79663868D01*
X107568814Y-79475273D01*
X107475910Y-79301462D01*
X107350883Y-79149117D01*
X107198538Y-79024090D01*
X107198533Y-79024087D01*
X107024730Y-78931187D01*
X106836131Y-78873975D01*
X106836133Y-78873975D01*
X106640000Y-78854659D01*
X106443867Y-78873975D01*
X106255269Y-78931187D01*
X106081466Y-79024087D01*
X106081461Y-79024090D01*
X105929117Y-79149116D01*
X105929116Y-79149117D01*
X105804090Y-79301461D01*
X105804087Y-79301466D01*
X105711187Y-79475269D01*
X105653975Y-79663867D01*
X105634659Y-79860000D01*
X105105341Y-79860000D01*
X105086024Y-79663868D01*
X105028814Y-79475273D01*
X104935910Y-79301462D01*
X104810883Y-79149117D01*
X104658538Y-79024090D01*
X104658533Y-79024087D01*
X104484730Y-78931187D01*
X104296131Y-78873975D01*
X104296133Y-78873975D01*
X104100000Y-78854659D01*
X103903867Y-78873975D01*
X103715269Y-78931187D01*
X103541466Y-79024087D01*
X103541461Y-79024090D01*
X103389117Y-79149116D01*
X103389116Y-79149117D01*
X103264090Y-79301461D01*
X103264087Y-79301466D01*
X103171187Y-79475269D01*
X103113975Y-79663867D01*
X103094659Y-79860000D01*
X102565341Y-79860000D01*
X102546024Y-79663868D01*
X102488814Y-79475273D01*
X102395910Y-79301462D01*
X102270883Y-79149117D01*
X102118538Y-79024090D01*
X102118533Y-79024087D01*
X101944730Y-78931187D01*
X101756131Y-78873975D01*
X101756133Y-78873975D01*
X101560000Y-78854659D01*
X101363867Y-78873975D01*
X101175269Y-78931187D01*
X101001466Y-79024087D01*
X101001461Y-79024090D01*
X100849117Y-79149116D01*
X100849116Y-79149117D01*
X100724090Y-79301461D01*
X100724087Y-79301466D01*
X100631187Y-79475269D01*
X100573975Y-79663867D01*
X100554659Y-79860000D01*
X98095096Y-79860000D01*
X98094993Y-78931186D01*
X98094890Y-78004506D01*
X98113630Y-77959250D01*
X98158883Y-77940500D01*
X98764821Y-77940500D01*
X98772104Y-77939050D01*
X98808722Y-77931767D01*
X98858504Y-77898504D01*
X98891767Y-77848722D01*
X98899050Y-77812104D01*
X98900500Y-77804821D01*
X98900500Y-76075178D01*
X98896691Y-76056032D01*
X98891767Y-76031278D01*
X98861511Y-75985996D01*
X98858505Y-75981497D01*
X98858502Y-75981494D01*
X98808724Y-75948234D01*
X98808722Y-75948233D01*
X98764821Y-75939500D01*
X98764820Y-75939500D01*
X98158654Y-75939500D01*
X98113399Y-75920755D01*
X98094654Y-75875507D01*
X98094604Y-75433960D01*
X98113344Y-75388703D01*
X98140026Y-75372709D01*
X98184874Y-75359104D01*
X98284727Y-75328814D01*
X98458538Y-75235910D01*
X98610883Y-75110883D01*
X98735910Y-74958538D01*
X98828814Y-74784727D01*
X98866379Y-74660891D01*
X98897454Y-74623027D01*
X98927623Y-74615470D01*
X99142893Y-74615470D01*
X99142896Y-74615470D01*
X99222101Y-74582662D01*
X99890245Y-73914518D01*
X99935500Y-73895773D01*
X99980755Y-73914518D01*
X99999500Y-73959773D01*
X99999500Y-75687249D01*
X99980755Y-75732504D01*
X99935500Y-75751249D01*
X99926397Y-75750598D01*
X99922312Y-75750011D01*
X99922308Y-75750011D01*
X99792764Y-75750011D01*
X99668467Y-75786507D01*
X99668465Y-75786507D01*
X99559487Y-75856543D01*
X99559485Y-75856545D01*
X99474654Y-75954447D01*
X99474652Y-75954450D01*
X99420839Y-76072282D01*
X99402403Y-76200511D01*
X99420839Y-76328739D01*
X99474652Y-76446571D01*
X99474654Y-76446574D01*
X99545406Y-76528228D01*
X99559487Y-76544478D01*
X99668467Y-76614515D01*
X99792764Y-76651011D01*
X99792765Y-76651011D01*
X99922307Y-76651011D01*
X99922308Y-76651011D01*
X100046605Y-76614515D01*
X100155585Y-76544478D01*
X100240418Y-76446574D01*
X100294233Y-76328737D01*
X100312669Y-76200511D01*
X100312596Y-76200000D01*
X101194867Y-76200000D01*
X101213303Y-76328228D01*
X101267116Y-76446060D01*
X101267118Y-76446063D01*
X101338311Y-76528226D01*
X101351951Y-76543967D01*
X101460931Y-76614004D01*
X101585228Y-76650500D01*
X101585229Y-76650500D01*
X101714771Y-76650500D01*
X101714772Y-76650500D01*
X101839069Y-76614004D01*
X101948049Y-76543967D01*
X102032882Y-76446063D01*
X102066784Y-76371829D01*
X102102634Y-76338451D01*
X102151587Y-76340200D01*
X102183216Y-76371829D01*
X102217116Y-76446060D01*
X102217118Y-76446063D01*
X102288311Y-76528226D01*
X102301951Y-76543967D01*
X102410931Y-76614004D01*
X102535228Y-76650500D01*
X102535229Y-76650500D01*
X102664771Y-76650500D01*
X102664772Y-76650500D01*
X102789069Y-76614004D01*
X102898049Y-76543967D01*
X102982882Y-76446063D01*
X103016784Y-76371829D01*
X103052634Y-76338451D01*
X103101587Y-76340200D01*
X103133216Y-76371829D01*
X103167116Y-76446060D01*
X103167118Y-76446063D01*
X103238311Y-76528226D01*
X103251951Y-76543967D01*
X103360931Y-76614004D01*
X103485228Y-76650500D01*
X103485229Y-76650500D01*
X103614771Y-76650500D01*
X103614772Y-76650500D01*
X103739069Y-76614004D01*
X103848049Y-76543967D01*
X103932882Y-76446063D01*
X103986697Y-76328226D01*
X104005133Y-76200000D01*
X103986697Y-76071774D01*
X103982513Y-76062613D01*
X103932883Y-75953939D01*
X103932881Y-75953936D01*
X103927939Y-75948233D01*
X103848049Y-75856033D01*
X103848048Y-75856032D01*
X103739069Y-75785996D01*
X103679100Y-75768388D01*
X103614772Y-75749500D01*
X103485228Y-75749500D01*
X103360931Y-75785996D01*
X103360929Y-75785996D01*
X103251951Y-75856032D01*
X103251949Y-75856034D01*
X103167118Y-75953936D01*
X103167116Y-75953939D01*
X103133216Y-76028170D01*
X103097365Y-76061548D01*
X103048413Y-76059799D01*
X103016784Y-76028170D01*
X102982883Y-75953939D01*
X102982881Y-75953936D01*
X102977939Y-75948233D01*
X102898049Y-75856033D01*
X102898048Y-75856032D01*
X102789069Y-75785996D01*
X102729100Y-75768388D01*
X102664772Y-75749500D01*
X102535228Y-75749500D01*
X102410931Y-75785996D01*
X102410929Y-75785996D01*
X102301951Y-75856032D01*
X102301949Y-75856034D01*
X102217118Y-75953936D01*
X102217116Y-75953939D01*
X102183216Y-76028170D01*
X102147365Y-76061548D01*
X102098413Y-76059799D01*
X102066784Y-76028170D01*
X102032883Y-75953939D01*
X102032881Y-75953936D01*
X102027939Y-75948233D01*
X101948049Y-75856033D01*
X101948048Y-75856032D01*
X101839069Y-75785996D01*
X101779100Y-75768388D01*
X101714772Y-75749500D01*
X101585228Y-75749500D01*
X101460931Y-75785996D01*
X101460929Y-75785996D01*
X101351951Y-75856032D01*
X101351949Y-75856034D01*
X101267118Y-75953936D01*
X101267116Y-75953939D01*
X101213303Y-76071771D01*
X101194867Y-76200000D01*
X100312596Y-76200000D01*
X100298325Y-76100749D01*
X100310439Y-76053290D01*
X100316420Y-76046389D01*
X100397690Y-75965120D01*
X100397690Y-75965119D01*
X100397692Y-75965118D01*
X100430500Y-75885913D01*
X100430500Y-75800182D01*
X100430500Y-74300000D01*
X101624867Y-74300000D01*
X101643303Y-74428228D01*
X101697116Y-74546060D01*
X101697118Y-74546063D01*
X101763806Y-74623027D01*
X101781951Y-74643967D01*
X101890931Y-74714004D01*
X102015228Y-74750500D01*
X102015229Y-74750500D01*
X102144771Y-74750500D01*
X102144772Y-74750500D01*
X102269069Y-74714004D01*
X102378049Y-74643967D01*
X102462882Y-74546063D01*
X102516697Y-74428226D01*
X102535133Y-74300000D01*
X102516697Y-74171774D01*
X102513934Y-74165725D01*
X102462883Y-74053939D01*
X102462881Y-74053936D01*
X102428279Y-74014003D01*
X102378049Y-73956033D01*
X102378048Y-73956032D01*
X102269069Y-73885996D01*
X102267656Y-73885581D01*
X102144772Y-73849500D01*
X102015228Y-73849500D01*
X101890931Y-73885996D01*
X101890929Y-73885996D01*
X101781951Y-73956032D01*
X101781949Y-73956034D01*
X101697118Y-74053936D01*
X101697116Y-74053939D01*
X101643303Y-74171771D01*
X101624867Y-74300000D01*
X100430500Y-74300000D01*
X100430500Y-74072453D01*
X100449245Y-74027198D01*
X102176443Y-72300000D01*
X104044867Y-72300000D01*
X104063303Y-72428228D01*
X104117116Y-72546060D01*
X104117118Y-72546063D01*
X104201951Y-72643967D01*
X104310931Y-72714004D01*
X104435228Y-72750500D01*
X104435229Y-72750500D01*
X104564771Y-72750500D01*
X104564772Y-72750500D01*
X104689069Y-72714004D01*
X104798049Y-72643967D01*
X104882882Y-72546063D01*
X104936697Y-72428226D01*
X104955133Y-72300000D01*
X104936697Y-72171774D01*
X104931422Y-72160224D01*
X104882883Y-72053939D01*
X104882881Y-72053936D01*
X104798050Y-71956034D01*
X104798048Y-71956032D01*
X104689069Y-71885996D01*
X104666884Y-71879482D01*
X104564772Y-71849500D01*
X104435228Y-71849500D01*
X104310931Y-71885996D01*
X104310929Y-71885996D01*
X104201951Y-71956032D01*
X104201949Y-71956034D01*
X104117118Y-72053936D01*
X104117116Y-72053939D01*
X104063303Y-72171771D01*
X104044867Y-72300000D01*
X102176443Y-72300000D01*
X103082368Y-71394075D01*
X105762693Y-68713751D01*
X105785891Y-68657744D01*
X105795500Y-68634546D01*
X105795500Y-68496943D01*
X105814245Y-68451688D01*
X105859500Y-68432943D01*
X105904755Y-68451688D01*
X105907868Y-68455032D01*
X105984927Y-68543965D01*
X105984931Y-68543969D01*
X106038078Y-68578123D01*
X106066015Y-68618359D01*
X106067478Y-68631964D01*
X106067478Y-68967205D01*
X106048733Y-69012460D01*
X105602308Y-69458884D01*
X105569500Y-69538089D01*
X105569500Y-69978689D01*
X105550755Y-70023944D01*
X105505500Y-70042689D01*
X105460245Y-70023944D01*
X105457132Y-70020601D01*
X105451275Y-70013843D01*
X105431078Y-69990533D01*
X105322098Y-69920496D01*
X105197801Y-69884000D01*
X105068257Y-69884000D01*
X104943960Y-69920496D01*
X104943958Y-69920496D01*
X104834980Y-69990532D01*
X104834978Y-69990534D01*
X104750147Y-70088436D01*
X104750145Y-70088439D01*
X104696332Y-70206271D01*
X104677896Y-70334500D01*
X104696332Y-70462728D01*
X104750145Y-70580560D01*
X104750147Y-70580563D01*
X104828115Y-70670545D01*
X104834980Y-70678467D01*
X104943960Y-70748504D01*
X105068257Y-70785000D01*
X105068258Y-70785000D01*
X105197800Y-70785000D01*
X105197801Y-70785000D01*
X105322098Y-70748504D01*
X105431078Y-70678467D01*
X105457132Y-70648398D01*
X105500933Y-70626472D01*
X105547410Y-70641940D01*
X105569337Y-70685742D01*
X105569500Y-70690309D01*
X105569500Y-75824768D01*
X105550755Y-75870023D01*
X104416980Y-77003797D01*
X104371725Y-77022542D01*
X104353696Y-77019950D01*
X104327543Y-77012271D01*
X104197999Y-77012271D01*
X104073702Y-77048767D01*
X104073700Y-77048767D01*
X103964722Y-77118803D01*
X103964720Y-77118805D01*
X103879889Y-77216707D01*
X103879887Y-77216710D01*
X103826074Y-77334542D01*
X103807638Y-77462771D01*
X103826074Y-77590999D01*
X103879887Y-77708831D01*
X103879889Y-77708834D01*
X103964722Y-77806738D01*
X104073702Y-77876775D01*
X104197999Y-77913271D01*
X104198000Y-77913271D01*
X104327542Y-77913271D01*
X104327543Y-77913271D01*
X104451840Y-77876775D01*
X104560820Y-77806738D01*
X104645653Y-77708834D01*
X104699468Y-77590997D01*
X104717904Y-77462771D01*
X104703560Y-77363009D01*
X104715674Y-77315550D01*
X104721647Y-77308656D01*
X105630304Y-76400000D01*
X106944867Y-76400000D01*
X106963303Y-76528228D01*
X107017116Y-76646060D01*
X107017118Y-76646063D01*
X107101951Y-76743967D01*
X107210931Y-76814004D01*
X107335228Y-76850500D01*
X107335229Y-76850500D01*
X107464771Y-76850500D01*
X107464772Y-76850500D01*
X107589069Y-76814004D01*
X107698049Y-76743967D01*
X107782882Y-76646063D01*
X107836697Y-76528226D01*
X107855133Y-76400000D01*
X107836697Y-76271774D01*
X107782882Y-76153937D01*
X107712129Y-76072282D01*
X107698050Y-76056034D01*
X107698048Y-76056032D01*
X107589069Y-75985996D01*
X107517953Y-75965115D01*
X107464772Y-75949500D01*
X107335228Y-75949500D01*
X107210931Y-75985996D01*
X107210929Y-75985996D01*
X107101951Y-76056032D01*
X107101949Y-76056034D01*
X107017118Y-76153936D01*
X107017116Y-76153939D01*
X106963303Y-76271771D01*
X106944867Y-76400000D01*
X105630304Y-76400000D01*
X105967692Y-76062613D01*
X106000500Y-75983407D01*
X106000500Y-75897676D01*
X106000500Y-71460241D01*
X106019245Y-71414986D01*
X106064500Y-71396241D01*
X106099099Y-71406400D01*
X106110931Y-71414004D01*
X106235228Y-71450500D01*
X106235229Y-71450500D01*
X106364771Y-71450500D01*
X106364772Y-71450500D01*
X106489069Y-71414004D01*
X106598049Y-71343967D01*
X106682882Y-71246063D01*
X106736697Y-71128226D01*
X106755133Y-71000000D01*
X106736697Y-70871774D01*
X106719246Y-70833563D01*
X106682883Y-70753939D01*
X106682881Y-70753936D01*
X106598050Y-70656034D01*
X106598048Y-70656032D01*
X106491409Y-70587500D01*
X107344867Y-70587500D01*
X107363303Y-70715728D01*
X107417116Y-70833560D01*
X107417118Y-70833563D01*
X107501949Y-70931465D01*
X107501951Y-70931467D01*
X107583165Y-70983660D01*
X107611101Y-71023896D01*
X107602404Y-71072101D01*
X107583165Y-71091340D01*
X107501951Y-71143532D01*
X107501949Y-71143534D01*
X107417118Y-71241436D01*
X107417116Y-71241439D01*
X107363303Y-71359271D01*
X107344867Y-71487500D01*
X107363303Y-71615728D01*
X107417116Y-71733560D01*
X107417118Y-71733563D01*
X107485026Y-71811935D01*
X107501951Y-71831467D01*
X107610931Y-71901504D01*
X107735228Y-71938000D01*
X107735229Y-71938000D01*
X107864771Y-71938000D01*
X107864772Y-71938000D01*
X107989069Y-71901504D01*
X108098049Y-71831467D01*
X108182882Y-71733563D01*
X108236697Y-71615726D01*
X108255133Y-71487500D01*
X108236697Y-71359274D01*
X108229706Y-71343967D01*
X108182883Y-71241439D01*
X108182881Y-71241436D01*
X108098050Y-71143534D01*
X108098048Y-71143532D01*
X108066658Y-71123359D01*
X108016833Y-71091338D01*
X107988898Y-71051104D01*
X107997595Y-71002899D01*
X108016832Y-70983661D01*
X108098049Y-70931467D01*
X108182882Y-70833563D01*
X108236697Y-70715726D01*
X108255133Y-70587500D01*
X108236697Y-70459274D01*
X108232233Y-70449500D01*
X108182883Y-70341439D01*
X108182881Y-70341436D01*
X108098050Y-70243534D01*
X108098048Y-70243532D01*
X107989069Y-70173496D01*
X107864772Y-70137000D01*
X107735228Y-70137000D01*
X107610931Y-70173496D01*
X107610929Y-70173496D01*
X107501951Y-70243532D01*
X107501949Y-70243534D01*
X107417118Y-70341436D01*
X107417116Y-70341439D01*
X107363303Y-70459271D01*
X107344867Y-70587500D01*
X106491409Y-70587500D01*
X106489069Y-70585996D01*
X106470555Y-70580560D01*
X106364772Y-70549500D01*
X106235228Y-70549500D01*
X106110931Y-70585996D01*
X106110930Y-70585996D01*
X106099100Y-70593599D01*
X106050894Y-70602295D01*
X106010659Y-70574358D01*
X106000500Y-70539758D01*
X106000500Y-69696729D01*
X106019245Y-69651474D01*
X106216783Y-69453936D01*
X106465670Y-69205049D01*
X106498478Y-69125844D01*
X106498478Y-69040113D01*
X106498478Y-68631964D01*
X106517223Y-68586709D01*
X106527878Y-68578123D01*
X106539991Y-68570339D01*
X106581027Y-68543967D01*
X106665596Y-68446367D01*
X106709395Y-68424442D01*
X106755872Y-68439910D01*
X106762330Y-68446368D01*
X106808802Y-68500000D01*
X106809065Y-68500303D01*
X106918045Y-68570340D01*
X107042342Y-68606836D01*
X107042343Y-68606836D01*
X107171885Y-68606836D01*
X107171886Y-68606836D01*
X107296183Y-68570340D01*
X107405163Y-68500303D01*
X107489996Y-68402399D01*
X107543811Y-68284562D01*
X107562247Y-68156336D01*
X107543811Y-68028110D01*
X107511598Y-67957575D01*
X107489997Y-67910275D01*
X107489995Y-67910272D01*
X107483742Y-67903056D01*
X107442998Y-67856034D01*
X107412998Y-67821411D01*
X107397529Y-67774934D01*
X107419455Y-67731132D01*
X107461366Y-67715500D01*
X108832863Y-67715500D01*
X108832866Y-67715500D01*
X108912071Y-67682692D01*
X110025748Y-66569013D01*
X110071003Y-66550269D01*
X110101171Y-66557825D01*
G37*
%TD.AperFunction*%
%TA.AperFunction,Conductor*%
G36*
X110370755Y-34119245D02*
G01*
X110389500Y-34164500D01*
X110389500Y-36195705D01*
X110370755Y-36240960D01*
X110336615Y-36258732D01*
X110278093Y-36269052D01*
X110278088Y-36269053D01*
X110080702Y-36340896D01*
X109990035Y-36393243D01*
X109898777Y-36445931D01*
X109898776Y-36445932D01*
X109898769Y-36445936D01*
X109737861Y-36580954D01*
X109737854Y-36580961D01*
X109602836Y-36741869D01*
X109602832Y-36741875D01*
X109602831Y-36741877D01*
X109602815Y-36741905D01*
X109497796Y-36923802D01*
X109425954Y-37121186D01*
X109425953Y-37121190D01*
X109425952Y-37121194D01*
X109389475Y-37328068D01*
X109389475Y-37538132D01*
X109425952Y-37745006D01*
X109425953Y-37745010D01*
X109425954Y-37745013D01*
X109497796Y-37942397D01*
X109497799Y-37942402D01*
X109602831Y-38124323D01*
X109602834Y-38124326D01*
X109602836Y-38124330D01*
X109737854Y-38285238D01*
X109737861Y-38285245D01*
X109898769Y-38420263D01*
X109898771Y-38420264D01*
X109898777Y-38420269D01*
X110080698Y-38525301D01*
X110080699Y-38525301D01*
X110080702Y-38525303D01*
X110165135Y-38556034D01*
X110278094Y-38597148D01*
X110334822Y-38607150D01*
X110336664Y-38607475D01*
X110377976Y-38633794D01*
X110389551Y-38670489D01*
X110391365Y-46901711D01*
X110372630Y-46946970D01*
X110345944Y-46962969D01*
X110223152Y-47000218D01*
X110052912Y-47091213D01*
X110052904Y-47091219D01*
X110020194Y-47118061D01*
X110368461Y-47466329D01*
X110292993Y-47509901D01*
X110199901Y-47602993D01*
X110156329Y-47678461D01*
X109808061Y-47330194D01*
X109781219Y-47362904D01*
X109781213Y-47362912D01*
X109690217Y-47533155D01*
X109690214Y-47533160D01*
X109634181Y-47717881D01*
X109634179Y-47717889D01*
X109615258Y-47910000D01*
X109634179Y-48102110D01*
X109634181Y-48102118D01*
X109690214Y-48286839D01*
X109690217Y-48286844D01*
X109781216Y-48457092D01*
X109781219Y-48457097D01*
X109808061Y-48489804D01*
X110156328Y-48141537D01*
X110199901Y-48217007D01*
X110292993Y-48310099D01*
X110368460Y-48353669D01*
X110020193Y-48701936D01*
X110020194Y-48701937D01*
X110052902Y-48728780D01*
X110052907Y-48728783D01*
X110223155Y-48819782D01*
X110223160Y-48819785D01*
X110346387Y-48857164D01*
X110384252Y-48888238D01*
X110391809Y-48918394D01*
X110391920Y-49420120D01*
X110373185Y-49465379D01*
X110346499Y-49481378D01*
X110215269Y-49521187D01*
X110041466Y-49614087D01*
X110041461Y-49614090D01*
X109889117Y-49739116D01*
X109889116Y-49739117D01*
X109764090Y-49891461D01*
X109764087Y-49891466D01*
X109671187Y-50065269D01*
X109613975Y-50253867D01*
X109594659Y-50450000D01*
X109613975Y-50646132D01*
X109671187Y-50834730D01*
X109764087Y-51008533D01*
X109764090Y-51008538D01*
X109889117Y-51160883D01*
X110041462Y-51285910D01*
X110041466Y-51285912D01*
X110215270Y-51378813D01*
X110215272Y-51378813D01*
X110215273Y-51378814D01*
X110346952Y-51418758D01*
X110384817Y-51449833D01*
X110392374Y-51479988D01*
X110392479Y-51959951D01*
X110373744Y-52005210D01*
X110347058Y-52021209D01*
X110215269Y-52061187D01*
X110041466Y-52154087D01*
X110041461Y-52154090D01*
X109889117Y-52279116D01*
X109889116Y-52279117D01*
X109764090Y-52431461D01*
X109764087Y-52431466D01*
X109671187Y-52605269D01*
X109613975Y-52793867D01*
X109594659Y-52990000D01*
X109613975Y-53186132D01*
X109671187Y-53374730D01*
X109764087Y-53548533D01*
X109764090Y-53548538D01*
X109889117Y-53700883D01*
X110041462Y-53825910D01*
X110041466Y-53825912D01*
X110215270Y-53918813D01*
X110215272Y-53918813D01*
X110215273Y-53918814D01*
X110347511Y-53958928D01*
X110385376Y-53990003D01*
X110392933Y-54020158D01*
X110393039Y-54499780D01*
X110374304Y-54545039D01*
X110347618Y-54561038D01*
X110215269Y-54601187D01*
X110041466Y-54694087D01*
X110041461Y-54694090D01*
X109889117Y-54819116D01*
X109889116Y-54819117D01*
X109764090Y-54971461D01*
X109764087Y-54971466D01*
X109671187Y-55145269D01*
X109613975Y-55333867D01*
X109594659Y-55530000D01*
X109613975Y-55726132D01*
X109671187Y-55914730D01*
X109764087Y-56088533D01*
X109764090Y-56088538D01*
X109889116Y-56240882D01*
X109889117Y-56240883D01*
X110041461Y-56365909D01*
X110041465Y-56365912D01*
X110079148Y-56386053D01*
X110110223Y-56423917D01*
X110112979Y-56442496D01*
X110112979Y-56455748D01*
X110094234Y-56501003D01*
X108917308Y-57677928D01*
X108884500Y-57757133D01*
X108884500Y-61888247D01*
X108865755Y-61933502D01*
X108333502Y-62465755D01*
X108288247Y-62484500D01*
X104287453Y-62484500D01*
X104242198Y-62465755D01*
X103347808Y-61571365D01*
X106097770Y-61571365D01*
X106116206Y-61699593D01*
X106170019Y-61817425D01*
X106170021Y-61817428D01*
X106254854Y-61915332D01*
X106363834Y-61985369D01*
X106488131Y-62021865D01*
X106488132Y-62021865D01*
X106617674Y-62021865D01*
X106617675Y-62021865D01*
X106741972Y-61985369D01*
X106850952Y-61915332D01*
X106866721Y-61897132D01*
X106910522Y-61875205D01*
X106956999Y-61890672D01*
X106963455Y-61897128D01*
X107004298Y-61944264D01*
X107113278Y-62014301D01*
X107237575Y-62050797D01*
X107237576Y-62050797D01*
X107367118Y-62050797D01*
X107367119Y-62050797D01*
X107491416Y-62014301D01*
X107600396Y-61944264D01*
X107685229Y-61846360D01*
X107739044Y-61728523D01*
X107757480Y-61600297D01*
X107739044Y-61472071D01*
X107736694Y-61466926D01*
X107685230Y-61354236D01*
X107685228Y-61354233D01*
X107660926Y-61326187D01*
X107600396Y-61256330D01*
X107600395Y-61256329D01*
X107491416Y-61186293D01*
X107367119Y-61149797D01*
X107237575Y-61149797D01*
X107113278Y-61186293D01*
X107113276Y-61186293D01*
X107004303Y-61256325D01*
X107004299Y-61256329D01*
X107004298Y-61256330D01*
X106988525Y-61274532D01*
X106944725Y-61296456D01*
X106898248Y-61280987D01*
X106891792Y-61274530D01*
X106850953Y-61227399D01*
X106850951Y-61227397D01*
X106741972Y-61157361D01*
X106693443Y-61143112D01*
X106617675Y-61120865D01*
X106488131Y-61120865D01*
X106363834Y-61157361D01*
X106363832Y-61157361D01*
X106254854Y-61227397D01*
X106254852Y-61227399D01*
X106170021Y-61325301D01*
X106170019Y-61325304D01*
X106116206Y-61443136D01*
X106097770Y-61571365D01*
X103347808Y-61571365D01*
X103134245Y-61357802D01*
X103115500Y-61312547D01*
X103115500Y-59822193D01*
X103115500Y-59822192D01*
X103106690Y-59800926D01*
X103104778Y-59765173D01*
X103103171Y-59764942D01*
X103103823Y-59760410D01*
X103122259Y-59632184D01*
X103103823Y-59503958D01*
X103050746Y-59387738D01*
X103050009Y-59386123D01*
X103050007Y-59386120D01*
X102975385Y-59300000D01*
X106044867Y-59300000D01*
X106063303Y-59428228D01*
X106117116Y-59546060D01*
X106117118Y-59546063D01*
X106195703Y-59636757D01*
X106201951Y-59643967D01*
X106310931Y-59714004D01*
X106435228Y-59750500D01*
X106435229Y-59750500D01*
X106564771Y-59750500D01*
X106564772Y-59750500D01*
X106689069Y-59714004D01*
X106798049Y-59643967D01*
X106882882Y-59546063D01*
X106936697Y-59428226D01*
X106955133Y-59300000D01*
X106936697Y-59171774D01*
X106904145Y-59100497D01*
X106882883Y-59053939D01*
X106882881Y-59053936D01*
X106870170Y-59039267D01*
X106798049Y-58956033D01*
X106798048Y-58956032D01*
X106689069Y-58885996D01*
X106564772Y-58849500D01*
X106435228Y-58849500D01*
X106310931Y-58885996D01*
X106310929Y-58885996D01*
X106201951Y-58956032D01*
X106201949Y-58956034D01*
X106117118Y-59053936D01*
X106117116Y-59053939D01*
X106063303Y-59171771D01*
X106044867Y-59300000D01*
X102975385Y-59300000D01*
X102965176Y-59288218D01*
X102965174Y-59288216D01*
X102856195Y-59218180D01*
X102731898Y-59181684D01*
X102602354Y-59181684D01*
X102478057Y-59218180D01*
X102478055Y-59218180D01*
X102369077Y-59288216D01*
X102369075Y-59288218D01*
X102284242Y-59386121D01*
X102283495Y-59387285D01*
X102282841Y-59387738D01*
X102281246Y-59389580D01*
X102280776Y-59389172D01*
X102243259Y-59415222D01*
X102229655Y-59416684D01*
X102116351Y-59416684D01*
X102037146Y-59449492D01*
X100752029Y-60734609D01*
X100752029Y-60734610D01*
X100719221Y-60813815D01*
X100719221Y-61240455D01*
X100719221Y-61326187D01*
X100752029Y-61405392D01*
X101114330Y-61767693D01*
X101160723Y-61786908D01*
X101160725Y-61786910D01*
X101160726Y-61786910D01*
X101183925Y-61796519D01*
X101193534Y-61800500D01*
X101193535Y-61800500D01*
X101279266Y-61800500D01*
X101897547Y-61800500D01*
X101942802Y-61819245D01*
X102088197Y-61964640D01*
X102106942Y-62009895D01*
X102088197Y-62055150D01*
X102060973Y-62071302D01*
X102044135Y-62076246D01*
X102010929Y-62085996D01*
X101901951Y-62156032D01*
X101901949Y-62156034D01*
X101817118Y-62253936D01*
X101817116Y-62253939D01*
X101763303Y-62371772D01*
X101763302Y-62371775D01*
X101758615Y-62404372D01*
X101733619Y-62446498D01*
X101686157Y-62458610D01*
X101646899Y-62437172D01*
X101614901Y-62400244D01*
X101614896Y-62400239D01*
X101505917Y-62330203D01*
X101381620Y-62293707D01*
X101252076Y-62293707D01*
X101127779Y-62330203D01*
X101127777Y-62330203D01*
X101018799Y-62400239D01*
X101018797Y-62400241D01*
X100933966Y-62498143D01*
X100933964Y-62498146D01*
X100880151Y-62615978D01*
X100861715Y-62744207D01*
X100880151Y-62872434D01*
X100910831Y-62939613D01*
X100912579Y-62988565D01*
X100879200Y-63024416D01*
X100830248Y-63026164D01*
X100818018Y-63020042D01*
X100816837Y-63019283D01*
X100692540Y-62982787D01*
X100562996Y-62982787D01*
X100438699Y-63019283D01*
X100438697Y-63019283D01*
X100329719Y-63089319D01*
X100329717Y-63089321D01*
X100244886Y-63187223D01*
X100244884Y-63187226D01*
X100191071Y-63305058D01*
X100172635Y-63433287D01*
X100191071Y-63561515D01*
X100244884Y-63679347D01*
X100244886Y-63679350D01*
X100329717Y-63777252D01*
X100329719Y-63777254D01*
X100403184Y-63824467D01*
X100431120Y-63864703D01*
X100422423Y-63912908D01*
X100382187Y-63940844D01*
X100350554Y-63939715D01*
X100347052Y-63938687D01*
X100217508Y-63938687D01*
X100093211Y-63975183D01*
X100093209Y-63975183D01*
X99984231Y-64045219D01*
X99984229Y-64045221D01*
X99899398Y-64143123D01*
X99899396Y-64143126D01*
X99845583Y-64260958D01*
X99827147Y-64389187D01*
X99845583Y-64517415D01*
X99899396Y-64635247D01*
X99899398Y-64635250D01*
X99984228Y-64733151D01*
X99986691Y-64735285D01*
X100008619Y-64779087D01*
X99993152Y-64825564D01*
X99985024Y-64832610D01*
X99985295Y-64832923D01*
X99981835Y-64835920D01*
X99897004Y-64933822D01*
X99897002Y-64933825D01*
X99843189Y-65051657D01*
X99824753Y-65179886D01*
X99843189Y-65308114D01*
X99897002Y-65425946D01*
X99897004Y-65425949D01*
X99966911Y-65506628D01*
X99981837Y-65523853D01*
X100090817Y-65593890D01*
X100215114Y-65630386D01*
X100215115Y-65630386D01*
X100344657Y-65630386D01*
X100344658Y-65630386D01*
X100468955Y-65593890D01*
X100577935Y-65523853D01*
X100662768Y-65425949D01*
X100716583Y-65308112D01*
X100732127Y-65200000D01*
X100967752Y-65200000D01*
X100986188Y-65328228D01*
X101040001Y-65446060D01*
X101040003Y-65446063D01*
X101107405Y-65523851D01*
X101124836Y-65543967D01*
X101233816Y-65614004D01*
X101358113Y-65650500D01*
X101358114Y-65650500D01*
X101487656Y-65650500D01*
X101487657Y-65650500D01*
X101611954Y-65614004D01*
X101720934Y-65543967D01*
X101805767Y-65446063D01*
X101859582Y-65328226D01*
X101878018Y-65200000D01*
X101859582Y-65071774D01*
X101852771Y-65056861D01*
X101805768Y-64953939D01*
X101805766Y-64953936D01*
X101788337Y-64933822D01*
X101720934Y-64856033D01*
X101696892Y-64840582D01*
X101668957Y-64800346D01*
X101677655Y-64752141D01*
X101717892Y-64724205D01*
X101749521Y-64725334D01*
X101835228Y-64750500D01*
X101835230Y-64750500D01*
X101964771Y-64750500D01*
X101964772Y-64750500D01*
X102089069Y-64714004D01*
X102198049Y-64643967D01*
X102282882Y-64546063D01*
X102336697Y-64428226D01*
X102355133Y-64300000D01*
X102355132Y-64299997D01*
X102355133Y-64299996D01*
X102355133Y-64295423D01*
X102356763Y-64295423D01*
X102367409Y-64253696D01*
X102409533Y-64228697D01*
X102453249Y-64238206D01*
X102461868Y-64243745D01*
X102586165Y-64280241D01*
X102586166Y-64280241D01*
X102715708Y-64280241D01*
X102715709Y-64280241D01*
X102840006Y-64243745D01*
X102948986Y-64173708D01*
X103033819Y-64075804D01*
X103087634Y-63957967D01*
X103106070Y-63829741D01*
X103087634Y-63701515D01*
X103077511Y-63679350D01*
X103033820Y-63583680D01*
X103033818Y-63583677D01*
X103031154Y-63580603D01*
X102948986Y-63485774D01*
X102948985Y-63485773D01*
X102840006Y-63415737D01*
X102715709Y-63379241D01*
X102586165Y-63379241D01*
X102461868Y-63415737D01*
X102461866Y-63415737D01*
X102352888Y-63485773D01*
X102352886Y-63485775D01*
X102268055Y-63583677D01*
X102268053Y-63583680D01*
X102214240Y-63701512D01*
X102205022Y-63765628D01*
X102195938Y-63828814D01*
X102195804Y-63829744D01*
X102195804Y-63834318D01*
X102194178Y-63834318D01*
X102183518Y-63876057D01*
X102141387Y-63901045D01*
X102097688Y-63891535D01*
X102089069Y-63885996D01*
X102081546Y-63883787D01*
X101964772Y-63849500D01*
X101835228Y-63849500D01*
X101710931Y-63885996D01*
X101710929Y-63885996D01*
X101601951Y-63956032D01*
X101601949Y-63956034D01*
X101517118Y-64053936D01*
X101517116Y-64053939D01*
X101463303Y-64171771D01*
X101444867Y-64300000D01*
X101463303Y-64428228D01*
X101517116Y-64546060D01*
X101517118Y-64546063D01*
X101601949Y-64643965D01*
X101601951Y-64643967D01*
X101625990Y-64659416D01*
X101653926Y-64699652D01*
X101645229Y-64747857D01*
X101604993Y-64775793D01*
X101573359Y-64774664D01*
X101487657Y-64749500D01*
X101358113Y-64749500D01*
X101233816Y-64785996D01*
X101233814Y-64785996D01*
X101124836Y-64856032D01*
X101124834Y-64856034D01*
X101040003Y-64953936D01*
X101040001Y-64953939D01*
X100986188Y-65071771D01*
X100967752Y-65200000D01*
X100732127Y-65200000D01*
X100735019Y-65179886D01*
X100716583Y-65051660D01*
X100713233Y-65044325D01*
X100662769Y-64933825D01*
X100662767Y-64933822D01*
X100577936Y-64835920D01*
X100575473Y-64833786D01*
X100553546Y-64789985D01*
X100569014Y-64743507D01*
X100577140Y-64736470D01*
X100576867Y-64736154D01*
X100580323Y-64733157D01*
X100580329Y-64733154D01*
X100665162Y-64635250D01*
X100718977Y-64517413D01*
X100737413Y-64389187D01*
X100718977Y-64260961D01*
X100717229Y-64257134D01*
X100665163Y-64143126D01*
X100665161Y-64143123D01*
X100656721Y-64133383D01*
X100580329Y-64045220D01*
X100580328Y-64045219D01*
X100506863Y-63998006D01*
X100478927Y-63957770D01*
X100487624Y-63909565D01*
X100527860Y-63881629D01*
X100559494Y-63882758D01*
X100562996Y-63883787D01*
X100562998Y-63883787D01*
X100692539Y-63883787D01*
X100692540Y-63883787D01*
X100816837Y-63847291D01*
X100925817Y-63777254D01*
X101010650Y-63679350D01*
X101064465Y-63561513D01*
X101082901Y-63433287D01*
X101064465Y-63305061D01*
X101033785Y-63237881D01*
X101032036Y-63188928D01*
X101065414Y-63153078D01*
X101114367Y-63151329D01*
X101126601Y-63157454D01*
X101127779Y-63158211D01*
X101252076Y-63194707D01*
X101252077Y-63194707D01*
X101381619Y-63194707D01*
X101381620Y-63194707D01*
X101505917Y-63158211D01*
X101614897Y-63088174D01*
X101699730Y-62990270D01*
X101753545Y-62872433D01*
X101758231Y-62839834D01*
X101783226Y-62797710D01*
X101830688Y-62785595D01*
X101869948Y-62807033D01*
X101898371Y-62839836D01*
X101901951Y-62843967D01*
X102010931Y-62914004D01*
X102135228Y-62950500D01*
X102135229Y-62950500D01*
X102264771Y-62950500D01*
X102264772Y-62950500D01*
X102389069Y-62914004D01*
X102498049Y-62843967D01*
X102582882Y-62746063D01*
X102634486Y-62633068D01*
X102670337Y-62599690D01*
X102719289Y-62601439D01*
X102737957Y-62614400D01*
X104065755Y-63942198D01*
X104084500Y-63987453D01*
X104084500Y-64816831D01*
X104084500Y-64902563D01*
X104117308Y-64981768D01*
X104608121Y-65472582D01*
X104626866Y-65517836D01*
X104611236Y-65559745D01*
X104591781Y-65582198D01*
X104591779Y-65582201D01*
X104537966Y-65700033D01*
X104519530Y-65828262D01*
X104537966Y-65956490D01*
X104591779Y-66074322D01*
X104591781Y-66074325D01*
X104676614Y-66172229D01*
X104692698Y-66182565D01*
X104720635Y-66222801D01*
X104722098Y-66236406D01*
X104722098Y-67774947D01*
X104703353Y-67820202D01*
X104137956Y-68385598D01*
X104092701Y-68404343D01*
X104047446Y-68385598D01*
X104034485Y-68366930D01*
X103982883Y-68253939D01*
X103982881Y-68253936D01*
X103903749Y-68162611D01*
X103888280Y-68116134D01*
X103910206Y-68072332D01*
X103917513Y-68066861D01*
X103935221Y-68055482D01*
X104020054Y-67957578D01*
X104073869Y-67839741D01*
X104092305Y-67711515D01*
X104073869Y-67583289D01*
X104020054Y-67465452D01*
X103935221Y-67367548D01*
X103935220Y-67367547D01*
X103931759Y-67364548D01*
X103933449Y-67362596D01*
X103910303Y-67329226D01*
X103919021Y-67281025D01*
X103924459Y-67273762D01*
X103980925Y-67208597D01*
X104034740Y-67090760D01*
X104053176Y-66962534D01*
X104034740Y-66834308D01*
X104028325Y-66820262D01*
X103980926Y-66716473D01*
X103980924Y-66716470D01*
X103896093Y-66618568D01*
X103896091Y-66618566D01*
X103787112Y-66548530D01*
X103710073Y-66525910D01*
X103662815Y-66512034D01*
X103533271Y-66512034D01*
X103408974Y-66548530D01*
X103408972Y-66548530D01*
X103299994Y-66618566D01*
X103299992Y-66618568D01*
X103215161Y-66716470D01*
X103215159Y-66716473D01*
X103161346Y-66834305D01*
X103142910Y-66962534D01*
X103161346Y-67090762D01*
X103215159Y-67208594D01*
X103215161Y-67208597D01*
X103299992Y-67306499D01*
X103303456Y-67309501D01*
X103301758Y-67311460D01*
X103324902Y-67344782D01*
X103316213Y-67392989D01*
X103310736Y-67400307D01*
X103254290Y-67465451D01*
X103254288Y-67465454D01*
X103200475Y-67583286D01*
X103182039Y-67711515D01*
X103200475Y-67839743D01*
X103254288Y-67957575D01*
X103254290Y-67957578D01*
X103333422Y-68048903D01*
X103348891Y-68095380D01*
X103326965Y-68139182D01*
X103319658Y-68144653D01*
X103313537Y-68148586D01*
X103301951Y-68156033D01*
X103301949Y-68156034D01*
X103301949Y-68156035D01*
X103217118Y-68253936D01*
X103217116Y-68253939D01*
X103163303Y-68371771D01*
X103144867Y-68500000D01*
X103163303Y-68628228D01*
X103217116Y-68746060D01*
X103217118Y-68746063D01*
X103301951Y-68843967D01*
X103410931Y-68914004D01*
X103460972Y-68928697D01*
X103499112Y-68959431D01*
X103504349Y-69008134D01*
X103488196Y-69035359D01*
X102937956Y-69585598D01*
X102892701Y-69604343D01*
X102847446Y-69585598D01*
X102834485Y-69566930D01*
X102782883Y-69453939D01*
X102782881Y-69453936D01*
X102698050Y-69356034D01*
X102698048Y-69356032D01*
X102589069Y-69285996D01*
X102464772Y-69249500D01*
X102335228Y-69249500D01*
X102210931Y-69285996D01*
X102210929Y-69285996D01*
X102101951Y-69356032D01*
X102101949Y-69356034D01*
X102017118Y-69453936D01*
X102017116Y-69453939D01*
X101963303Y-69571771D01*
X101944867Y-69700000D01*
X101963303Y-69828228D01*
X102017116Y-69946060D01*
X102017118Y-69946063D01*
X102100843Y-70042689D01*
X102101951Y-70043967D01*
X102210931Y-70114004D01*
X102260973Y-70128697D01*
X102299113Y-70159431D01*
X102304350Y-70208134D01*
X102288197Y-70235359D01*
X101871756Y-70651800D01*
X101826501Y-70670545D01*
X101781246Y-70651800D01*
X101778133Y-70648456D01*
X101698050Y-70556034D01*
X101698048Y-70556032D01*
X101589069Y-70485996D01*
X101511499Y-70463220D01*
X101464772Y-70449500D01*
X101335228Y-70449500D01*
X101210931Y-70485996D01*
X101210929Y-70485996D01*
X101101951Y-70556032D01*
X101101949Y-70556034D01*
X101017118Y-70653936D01*
X101017116Y-70653939D01*
X100963303Y-70771771D01*
X100944867Y-70900000D01*
X100963303Y-71028228D01*
X101017116Y-71146060D01*
X101017118Y-71146063D01*
X101099760Y-71241439D01*
X101101951Y-71243967D01*
X101210931Y-71314004D01*
X101335228Y-71350500D01*
X101335229Y-71350500D01*
X101464771Y-71350500D01*
X101464772Y-71350500D01*
X101589069Y-71314004D01*
X101698049Y-71243967D01*
X101782882Y-71146063D01*
X101782881Y-71146063D01*
X101782883Y-71146062D01*
X101783631Y-71144899D01*
X101784284Y-71144445D01*
X101785880Y-71142604D01*
X101786349Y-71143011D01*
X101823867Y-71116962D01*
X101837471Y-71115500D01*
X101925227Y-71115500D01*
X101970482Y-71134245D01*
X101989227Y-71179500D01*
X101970482Y-71224755D01*
X99029512Y-74165725D01*
X98984257Y-74184470D01*
X98927605Y-74184470D01*
X98882350Y-74165725D01*
X98866361Y-74139048D01*
X98828814Y-74015273D01*
X98828812Y-74015270D01*
X98828813Y-74015270D01*
X98735912Y-73841466D01*
X98735909Y-73841461D01*
X98610883Y-73689117D01*
X98610882Y-73689116D01*
X98458538Y-73564090D01*
X98458533Y-73564087D01*
X98284729Y-73471186D01*
X98186685Y-73441445D01*
X98139796Y-73427221D01*
X98101932Y-73396147D01*
X98094375Y-73365987D01*
X98094320Y-72872620D01*
X98113060Y-72827366D01*
X98139742Y-72811372D01*
X98276839Y-72769784D01*
X98447089Y-72678785D01*
X98447093Y-72678782D01*
X98479804Y-72651936D01*
X98131538Y-72303670D01*
X98207007Y-72260099D01*
X98300099Y-72167007D01*
X98343670Y-72091538D01*
X98691936Y-72439804D01*
X98718782Y-72407093D01*
X98718785Y-72407088D01*
X98809782Y-72236844D01*
X98809785Y-72236839D01*
X98865818Y-72052118D01*
X98865820Y-72052110D01*
X98884742Y-71859998D01*
X98884742Y-71857189D01*
X98903487Y-71811934D01*
X98948742Y-71793189D01*
X98993995Y-71811933D01*
X99013527Y-71831465D01*
X99016289Y-71834227D01*
X99035033Y-71879482D01*
X99034382Y-71888587D01*
X99030706Y-71914159D01*
X99049142Y-72042389D01*
X99102955Y-72160221D01*
X99102957Y-72160224D01*
X99169347Y-72236844D01*
X99187790Y-72258128D01*
X99296770Y-72328165D01*
X99421067Y-72364661D01*
X99421068Y-72364661D01*
X99550610Y-72364661D01*
X99550611Y-72364661D01*
X99674908Y-72328165D01*
X99783888Y-72258128D01*
X99868721Y-72160224D01*
X99922536Y-72042387D01*
X99940972Y-71914161D01*
X99922536Y-71785935D01*
X99914657Y-71768683D01*
X99868722Y-71668100D01*
X99868720Y-71668097D01*
X99783889Y-71570195D01*
X99783887Y-71570193D01*
X99674908Y-71500157D01*
X99607000Y-71480218D01*
X99550611Y-71463661D01*
X99550610Y-71463661D01*
X99451464Y-71463661D01*
X99406209Y-71444916D01*
X99319245Y-71357951D01*
X99300500Y-71312696D01*
X99300500Y-70160241D01*
X99319245Y-70114986D01*
X99364500Y-70096241D01*
X99399099Y-70106400D01*
X99410931Y-70114004D01*
X99535228Y-70150500D01*
X99535229Y-70150500D01*
X99664771Y-70150500D01*
X99664772Y-70150500D01*
X99789069Y-70114004D01*
X99898049Y-70043967D01*
X99982882Y-69946063D01*
X100036697Y-69828226D01*
X100055133Y-69700000D01*
X100036697Y-69571774D01*
X100021313Y-69538089D01*
X99982883Y-69453939D01*
X99982881Y-69453936D01*
X99898050Y-69356034D01*
X99898048Y-69356032D01*
X99789069Y-69285996D01*
X99664772Y-69249500D01*
X99535228Y-69249500D01*
X99410931Y-69285996D01*
X99410930Y-69285996D01*
X99399100Y-69293599D01*
X99350894Y-69302295D01*
X99310659Y-69274358D01*
X99300500Y-69239758D01*
X99300500Y-55015625D01*
X99319245Y-54970370D01*
X99595528Y-54694087D01*
X99951761Y-54337853D01*
X99997015Y-54319109D01*
X100042270Y-54337854D01*
X100061015Y-54383109D01*
X100060364Y-54392217D01*
X100044867Y-54499999D01*
X100063303Y-54628228D01*
X100117116Y-54746060D01*
X100117118Y-54746063D01*
X100186403Y-54826024D01*
X100201951Y-54843967D01*
X100310931Y-54914004D01*
X100435228Y-54950500D01*
X100435229Y-54950500D01*
X100564771Y-54950500D01*
X100564772Y-54950500D01*
X100689069Y-54914004D01*
X100798049Y-54843967D01*
X100882882Y-54746063D01*
X100936697Y-54628226D01*
X100936697Y-54628221D01*
X100937986Y-54623836D01*
X100939227Y-54624200D01*
X100961646Y-54586416D01*
X101009108Y-54574301D01*
X101051234Y-54599296D01*
X101061466Y-54623996D01*
X101062014Y-54623836D01*
X101063303Y-54628227D01*
X101117116Y-54746060D01*
X101117118Y-54746063D01*
X101186403Y-54826024D01*
X101201951Y-54843967D01*
X101310931Y-54914004D01*
X101435228Y-54950500D01*
X101435229Y-54950500D01*
X101564771Y-54950500D01*
X101564772Y-54950500D01*
X101689069Y-54914004D01*
X101798049Y-54843967D01*
X101882882Y-54746063D01*
X101936697Y-54628226D01*
X101955133Y-54500000D01*
X101936697Y-54371774D01*
X101912645Y-54319109D01*
X101882883Y-54253939D01*
X101882881Y-54253936D01*
X101798050Y-54156034D01*
X101798048Y-54156032D01*
X101689069Y-54085996D01*
X101600396Y-54059960D01*
X101564772Y-54049500D01*
X101435228Y-54049500D01*
X101310931Y-54085996D01*
X101310929Y-54085996D01*
X101201951Y-54156032D01*
X101201949Y-54156034D01*
X101117118Y-54253936D01*
X101117116Y-54253939D01*
X101063303Y-54371772D01*
X101062014Y-54376164D01*
X101060772Y-54375799D01*
X101038352Y-54413585D01*
X100990890Y-54425697D01*
X100948764Y-54400701D01*
X100938534Y-54376003D01*
X100937986Y-54376164D01*
X100936696Y-54371772D01*
X100882883Y-54253939D01*
X100882881Y-54253936D01*
X100798050Y-54156034D01*
X100798048Y-54156032D01*
X100689069Y-54085996D01*
X100600396Y-54059960D01*
X100564772Y-54049500D01*
X100435228Y-54049500D01*
X100399601Y-54059960D01*
X100350899Y-54054723D01*
X100320164Y-54016581D01*
X100325401Y-53967879D01*
X100336313Y-53953301D01*
X104020371Y-50269245D01*
X104061325Y-50252281D01*
X104061163Y-50251152D01*
X104065587Y-50250515D01*
X104065626Y-50250500D01*
X104065694Y-50250500D01*
X104065695Y-50250500D01*
X104189992Y-50214004D01*
X104201823Y-50206400D01*
X104250026Y-50197703D01*
X104290263Y-50225639D01*
X104300423Y-50260241D01*
X104300423Y-55340351D01*
X104281678Y-55385606D01*
X104236423Y-55404351D01*
X104201824Y-55394192D01*
X104189073Y-55385998D01*
X104189070Y-55385997D01*
X104189069Y-55385996D01*
X104064772Y-55349500D01*
X103935228Y-55349500D01*
X103810931Y-55385996D01*
X103810929Y-55385996D01*
X103701951Y-55456032D01*
X103701949Y-55456034D01*
X103617118Y-55553936D01*
X103617116Y-55553939D01*
X103563303Y-55671771D01*
X103544867Y-55800000D01*
X103563303Y-55928228D01*
X103617116Y-56046060D01*
X103617118Y-56046063D01*
X103701951Y-56143967D01*
X103810931Y-56214004D01*
X103935228Y-56250500D01*
X103935229Y-56250500D01*
X104064771Y-56250500D01*
X104064772Y-56250500D01*
X104189069Y-56214004D01*
X104201822Y-56205807D01*
X104250026Y-56197110D01*
X104290263Y-56225046D01*
X104300423Y-56259648D01*
X104300423Y-58120091D01*
X104284792Y-58162001D01*
X104198881Y-58261149D01*
X104198879Y-58261152D01*
X104145066Y-58378984D01*
X104126630Y-58507213D01*
X104145066Y-58635441D01*
X104198879Y-58753273D01*
X104198881Y-58753276D01*
X104283714Y-58851180D01*
X104392694Y-58921217D01*
X104516991Y-58957713D01*
X104516992Y-58957713D01*
X104646534Y-58957713D01*
X104646535Y-58957713D01*
X104770832Y-58921217D01*
X104879812Y-58851180D01*
X104964645Y-58753276D01*
X105018460Y-58635439D01*
X105034457Y-58524174D01*
X105059451Y-58482051D01*
X105097805Y-58469285D01*
X105215693Y-58469285D01*
X105215694Y-58469285D01*
X105339991Y-58432789D01*
X105448971Y-58362752D01*
X105533804Y-58264848D01*
X105587619Y-58147011D01*
X105606055Y-58018785D01*
X105587619Y-57890559D01*
X105579996Y-57873868D01*
X105533805Y-57772724D01*
X105533803Y-57772721D01*
X105448972Y-57674819D01*
X105448970Y-57674817D01*
X105339992Y-57604781D01*
X105339987Y-57604779D01*
X105297391Y-57592271D01*
X105259251Y-57561535D01*
X105251423Y-57530864D01*
X105251423Y-48277446D01*
X105270168Y-48232191D01*
X105315423Y-48213446D01*
X105360678Y-48232191D01*
X105373639Y-48250859D01*
X105417116Y-48346060D01*
X105417118Y-48346063D01*
X105501951Y-48443967D01*
X105610931Y-48514004D01*
X105735228Y-48550500D01*
X105735229Y-48550500D01*
X105864771Y-48550500D01*
X105864772Y-48550500D01*
X105989069Y-48514004D01*
X106049756Y-48475002D01*
X106097960Y-48466306D01*
X106138196Y-48494242D01*
X106147704Y-48519732D01*
X106152128Y-48550500D01*
X106163303Y-48628228D01*
X106217116Y-48746060D01*
X106217118Y-48746063D01*
X106301951Y-48843967D01*
X106410931Y-48914004D01*
X106535228Y-48950500D01*
X106535229Y-48950500D01*
X106664771Y-48950500D01*
X106664772Y-48950500D01*
X106789069Y-48914004D01*
X106898049Y-48843967D01*
X106982882Y-48746063D01*
X107036697Y-48628226D01*
X107055133Y-48500000D01*
X107036697Y-48371774D01*
X107033688Y-48365186D01*
X106982883Y-48253939D01*
X106982881Y-48253936D01*
X106898050Y-48156034D01*
X106898048Y-48156032D01*
X106789070Y-48085996D01*
X106708652Y-48062384D01*
X106664772Y-48049500D01*
X106664771Y-48049500D01*
X106663327Y-48049076D01*
X106625187Y-48018340D01*
X106619950Y-47969637D01*
X106650686Y-47931497D01*
X106663319Y-47926263D01*
X106743745Y-47902649D01*
X106852725Y-47832612D01*
X106937558Y-47734708D01*
X106991373Y-47616871D01*
X107009809Y-47488645D01*
X106991373Y-47360419D01*
X106987284Y-47351466D01*
X106937559Y-47242584D01*
X106937557Y-47242581D01*
X106852726Y-47144679D01*
X106852724Y-47144677D01*
X106743745Y-47074641D01*
X106741858Y-47074087D01*
X106619448Y-47038145D01*
X106489904Y-47038145D01*
X106365607Y-47074641D01*
X106365605Y-47074641D01*
X106256627Y-47144677D01*
X106256625Y-47144679D01*
X106171794Y-47242581D01*
X106171792Y-47242584D01*
X106117979Y-47360416D01*
X106099543Y-47488645D01*
X106117979Y-47616873D01*
X106125666Y-47633704D01*
X106127415Y-47682657D01*
X106094037Y-47718507D01*
X106045084Y-47720256D01*
X106032851Y-47714133D01*
X105989069Y-47685996D01*
X105864772Y-47649500D01*
X105735228Y-47649500D01*
X105610931Y-47685996D01*
X105610929Y-47685996D01*
X105501951Y-47756032D01*
X105501949Y-47756034D01*
X105417118Y-47853936D01*
X105417116Y-47853939D01*
X105373639Y-47949140D01*
X105337788Y-47982518D01*
X105288836Y-47980769D01*
X105255458Y-47944918D01*
X105251423Y-47922553D01*
X105251423Y-44560241D01*
X105270168Y-44514986D01*
X105315423Y-44496241D01*
X105350022Y-44506400D01*
X105361854Y-44514004D01*
X105486151Y-44550500D01*
X105486152Y-44550500D01*
X105615694Y-44550500D01*
X105615695Y-44550500D01*
X105739992Y-44514004D01*
X105848972Y-44443967D01*
X105933805Y-44346063D01*
X105987620Y-44228226D01*
X106006056Y-44100000D01*
X105987620Y-43971774D01*
X105982196Y-43959898D01*
X105933806Y-43853939D01*
X105933804Y-43853936D01*
X105848973Y-43756034D01*
X105848971Y-43756032D01*
X105739992Y-43685996D01*
X105615695Y-43649500D01*
X105486151Y-43649500D01*
X105361854Y-43685996D01*
X105361853Y-43685996D01*
X105350023Y-43693599D01*
X105301817Y-43702295D01*
X105261582Y-43674358D01*
X105251423Y-43639758D01*
X105251423Y-42881347D01*
X105270168Y-42836092D01*
X105315423Y-42817347D01*
X106232351Y-42817347D01*
X106277606Y-42836092D01*
X106280717Y-42839434D01*
X106320905Y-42885814D01*
X106429885Y-42955851D01*
X106498237Y-42975920D01*
X106536378Y-43006655D01*
X106541615Y-43055358D01*
X106510880Y-43093499D01*
X106498238Y-43098736D01*
X106441428Y-43115416D01*
X106332450Y-43185452D01*
X106332448Y-43185454D01*
X106247617Y-43283356D01*
X106247615Y-43283359D01*
X106193802Y-43401191D01*
X106175366Y-43529420D01*
X106193802Y-43657648D01*
X106247615Y-43775480D01*
X106247617Y-43775483D01*
X106332450Y-43873387D01*
X106441430Y-43943424D01*
X106497538Y-43959898D01*
X106535679Y-43990633D01*
X106540916Y-44039336D01*
X106510181Y-44077477D01*
X106497539Y-44082713D01*
X106465721Y-44092055D01*
X106465714Y-44092058D01*
X106356736Y-44162094D01*
X106356734Y-44162096D01*
X106271903Y-44259998D01*
X106271901Y-44260001D01*
X106218088Y-44377833D01*
X106199652Y-44506062D01*
X106218088Y-44634290D01*
X106271901Y-44752122D01*
X106271903Y-44752125D01*
X106356736Y-44850029D01*
X106465716Y-44920066D01*
X106563737Y-44948846D01*
X106601877Y-44979581D01*
X106607114Y-45028284D01*
X106576379Y-45066425D01*
X106563738Y-45071661D01*
X106533316Y-45080593D01*
X106452512Y-45104319D01*
X106343534Y-45174355D01*
X106343532Y-45174357D01*
X106258701Y-45272259D01*
X106258699Y-45272262D01*
X106204886Y-45390094D01*
X106186450Y-45518323D01*
X106204886Y-45646551D01*
X106258699Y-45764383D01*
X106258701Y-45764386D01*
X106301694Y-45814004D01*
X106343534Y-45862290D01*
X106452514Y-45932327D01*
X106576811Y-45968823D01*
X106576812Y-45968823D01*
X106706354Y-45968823D01*
X106706355Y-45968823D01*
X106830652Y-45932327D01*
X106939632Y-45862290D01*
X107024465Y-45764386D01*
X107078280Y-45646549D01*
X107096716Y-45518323D01*
X107078280Y-45390097D01*
X107024465Y-45272260D01*
X106939632Y-45174356D01*
X106939631Y-45174355D01*
X106830653Y-45104319D01*
X106766137Y-45085376D01*
X106732629Y-45075537D01*
X106694490Y-45044802D01*
X106689253Y-44996099D01*
X106719989Y-44957959D01*
X106732620Y-44952726D01*
X106843854Y-44920066D01*
X106952834Y-44850029D01*
X107037667Y-44752125D01*
X107091482Y-44634288D01*
X107109918Y-44506062D01*
X107091482Y-44377836D01*
X107076970Y-44346060D01*
X107037668Y-44260001D01*
X107037666Y-44259998D01*
X106952835Y-44162096D01*
X106952833Y-44162094D01*
X106843855Y-44092058D01*
X106787744Y-44075583D01*
X106749604Y-44044847D01*
X106744367Y-43996144D01*
X106775103Y-43958004D01*
X106787741Y-43952768D01*
X106819568Y-43943424D01*
X106928548Y-43873387D01*
X107013381Y-43775483D01*
X107067196Y-43657646D01*
X107085632Y-43529420D01*
X107067196Y-43401194D01*
X107013381Y-43283357D01*
X106928548Y-43185453D01*
X106928547Y-43185452D01*
X106819569Y-43115416D01*
X106751214Y-43095346D01*
X106713074Y-43064610D01*
X106707837Y-43015907D01*
X106738573Y-42977767D01*
X106751207Y-42972533D01*
X106808023Y-42955851D01*
X106917003Y-42885814D01*
X107001836Y-42787910D01*
X107055651Y-42670073D01*
X107074087Y-42541847D01*
X107074086Y-42541845D01*
X107074087Y-42541843D01*
X107072184Y-42528609D01*
X107084297Y-42481147D01*
X107126423Y-42456152D01*
X107135532Y-42455500D01*
X109075991Y-42455500D01*
X109076000Y-42455500D01*
X109109055Y-42451946D01*
X109160566Y-42440740D01*
X109229342Y-42406313D01*
X109282146Y-42360558D01*
X109287621Y-42355580D01*
X109329516Y-42286850D01*
X109349201Y-42219811D01*
X109355500Y-42176000D01*
X109355500Y-40629308D01*
X109355401Y-40623757D01*
X109355085Y-40614911D01*
X109345380Y-40566120D01*
X109345378Y-40566113D01*
X109320976Y-40500691D01*
X109320963Y-40500656D01*
X109318213Y-40493787D01*
X109268456Y-40430515D01*
X109212523Y-40388643D01*
X109212501Y-40388627D01*
X109206494Y-40384349D01*
X109206483Y-40384343D01*
X109205052Y-40383848D01*
X109204400Y-40383269D01*
X109202421Y-40382249D01*
X109202681Y-40381743D01*
X109168421Y-40351328D01*
X109165515Y-40302431D01*
X109166864Y-40298879D01*
X109195501Y-40229744D01*
X109220500Y-40104069D01*
X109220500Y-38875931D01*
X109220500Y-38875928D01*
X109195502Y-38750260D01*
X109195501Y-38750258D01*
X109195501Y-38750256D01*
X109146465Y-38631873D01*
X109146465Y-38631872D01*
X109075276Y-38525331D01*
X108984668Y-38434723D01*
X108878127Y-38363534D01*
X108771986Y-38319570D01*
X108759744Y-38314499D01*
X108759742Y-38314498D01*
X108759741Y-38314498D01*
X108759739Y-38314497D01*
X108634072Y-38289500D01*
X108634069Y-38289500D01*
X108505931Y-38289500D01*
X108505928Y-38289500D01*
X108380260Y-38314497D01*
X108380258Y-38314498D01*
X108261872Y-38363534D01*
X108155331Y-38434723D01*
X108064723Y-38525331D01*
X107993534Y-38631872D01*
X107944498Y-38750258D01*
X107944497Y-38750260D01*
X107919500Y-38875928D01*
X107919500Y-39388851D01*
X107900755Y-39434106D01*
X107855500Y-39452851D01*
X107841633Y-39450858D01*
X107841541Y-39451285D01*
X107839313Y-39450799D01*
X107839311Y-39450799D01*
X107795500Y-39444500D01*
X107795497Y-39444500D01*
X107492469Y-39444500D01*
X107447214Y-39425755D01*
X107428469Y-39380500D01*
X107447214Y-39335245D01*
X107468456Y-39314003D01*
X107520495Y-39261964D01*
X107583095Y-39153536D01*
X107615500Y-39032601D01*
X107615500Y-38907399D01*
X107613517Y-38900000D01*
X107583096Y-38786467D01*
X107583095Y-38786466D01*
X107583095Y-38786464D01*
X107520495Y-38678036D01*
X107431964Y-38589505D01*
X107323536Y-38526905D01*
X107323535Y-38526904D01*
X107323532Y-38526903D01*
X107323533Y-38526903D01*
X107202605Y-38494500D01*
X107202601Y-38494500D01*
X107077399Y-38494500D01*
X107077394Y-38494500D01*
X106956467Y-38526903D01*
X106848034Y-38589506D01*
X106759506Y-38678034D01*
X106729105Y-38730691D01*
X106690243Y-38760510D01*
X106641679Y-38754117D01*
X106615463Y-38725278D01*
X106582883Y-38653939D01*
X106582881Y-38653936D01*
X106550648Y-38616737D01*
X106498049Y-38556033D01*
X106498048Y-38556032D01*
X106389069Y-38485996D01*
X106344831Y-38473007D01*
X106264772Y-38449500D01*
X106135228Y-38449500D01*
X106010931Y-38485996D01*
X106010929Y-38485996D01*
X105901951Y-38556032D01*
X105901949Y-38556034D01*
X105817118Y-38653936D01*
X105817116Y-38653939D01*
X105763303Y-38771771D01*
X105744867Y-38900000D01*
X105763303Y-39028228D01*
X105817116Y-39146060D01*
X105817118Y-39146063D01*
X105901951Y-39243967D01*
X106010931Y-39314004D01*
X106028260Y-39319092D01*
X106066401Y-39349828D01*
X106071638Y-39398530D01*
X106040902Y-39436671D01*
X106010230Y-39444500D01*
X102489770Y-39444500D01*
X102444515Y-39425755D01*
X102425770Y-39380500D01*
X102444515Y-39335245D01*
X102471740Y-39319092D01*
X102489069Y-39314004D01*
X102598049Y-39243967D01*
X102682882Y-39146063D01*
X102736697Y-39028226D01*
X102755133Y-38900000D01*
X102736697Y-38771774D01*
X102729907Y-38756907D01*
X102682883Y-38653939D01*
X102682881Y-38653936D01*
X102650648Y-38616737D01*
X102598049Y-38556033D01*
X102598048Y-38556032D01*
X102489069Y-38485996D01*
X102444831Y-38473007D01*
X102364772Y-38449500D01*
X102235228Y-38449500D01*
X102110931Y-38485996D01*
X102110929Y-38485996D01*
X102001951Y-38556032D01*
X102001949Y-38556034D01*
X101917118Y-38653936D01*
X101884536Y-38725279D01*
X101848685Y-38758656D01*
X101799732Y-38756907D01*
X101770894Y-38730690D01*
X101767769Y-38725278D01*
X101740495Y-38678036D01*
X101651964Y-38589505D01*
X101543536Y-38526905D01*
X101543535Y-38526904D01*
X101543532Y-38526903D01*
X101543533Y-38526903D01*
X101422605Y-38494500D01*
X101422601Y-38494500D01*
X101297399Y-38494500D01*
X101297394Y-38494500D01*
X101176467Y-38526903D01*
X101068034Y-38589506D01*
X100979506Y-38678034D01*
X100916903Y-38786467D01*
X100884500Y-38907394D01*
X100884500Y-39032605D01*
X100916903Y-39153532D01*
X100916904Y-39153535D01*
X100916905Y-39153536D01*
X100969113Y-39243965D01*
X100979506Y-39261965D01*
X101052786Y-39335245D01*
X101071531Y-39380500D01*
X101052786Y-39425755D01*
X101007531Y-39444500D01*
X100704493Y-39444500D01*
X100671447Y-39448053D01*
X100671445Y-39448053D01*
X100658103Y-39450956D01*
X100609898Y-39442258D01*
X100581962Y-39402021D01*
X100580500Y-39388418D01*
X100580500Y-38875928D01*
X100555502Y-38750260D01*
X100555501Y-38750258D01*
X100555501Y-38750256D01*
X100506465Y-38631873D01*
X100506465Y-38631872D01*
X100435276Y-38525331D01*
X100344668Y-38434723D01*
X100238127Y-38363534D01*
X100131986Y-38319570D01*
X100119744Y-38314499D01*
X100119742Y-38314498D01*
X100119741Y-38314498D01*
X100119739Y-38314497D01*
X99994072Y-38289500D01*
X99994069Y-38289500D01*
X99865931Y-38289500D01*
X99865928Y-38289500D01*
X99740260Y-38314497D01*
X99740258Y-38314498D01*
X99621872Y-38363534D01*
X99515331Y-38434723D01*
X99424723Y-38525331D01*
X99353534Y-38631872D01*
X99304498Y-38750258D01*
X99304497Y-38750260D01*
X99279500Y-38875928D01*
X99279500Y-40104071D01*
X99304497Y-40229739D01*
X99304498Y-40229741D01*
X99353534Y-40348127D01*
X99424723Y-40454668D01*
X99515331Y-40545276D01*
X99621872Y-40616465D01*
X99652888Y-40629312D01*
X99740256Y-40665501D01*
X99740259Y-40665501D01*
X99740260Y-40665502D01*
X99865928Y-40690500D01*
X99865931Y-40690500D01*
X99994071Y-40690500D01*
X100041763Y-40681012D01*
X100068013Y-40675791D01*
X100116056Y-40685347D01*
X100143270Y-40726074D01*
X100144500Y-40738561D01*
X100144500Y-42176006D01*
X100148053Y-42209052D01*
X100148055Y-42209063D01*
X100159259Y-42260564D01*
X100159260Y-42260567D01*
X100193686Y-42329341D01*
X100193687Y-42329342D01*
X100239442Y-42382146D01*
X100244420Y-42387621D01*
X100313150Y-42429516D01*
X100380189Y-42449201D01*
X100424000Y-42455500D01*
X100424003Y-42455500D01*
X104171058Y-42455500D01*
X104171063Y-42455500D01*
X104173045Y-42455464D01*
X104176623Y-42455401D01*
X104178832Y-42455321D01*
X104185460Y-42455085D01*
X104194721Y-42453242D01*
X104223938Y-42447432D01*
X104271980Y-42456988D01*
X104299193Y-42497717D01*
X104300423Y-42510202D01*
X104300423Y-49339758D01*
X104281678Y-49385013D01*
X104236423Y-49403758D01*
X104201823Y-49393599D01*
X104189992Y-49385996D01*
X104186644Y-49385013D01*
X104065695Y-49349500D01*
X103936151Y-49349500D01*
X103811854Y-49385996D01*
X103811852Y-49385996D01*
X103702874Y-49456032D01*
X103702872Y-49456034D01*
X103618041Y-49553936D01*
X103618039Y-49553939D01*
X103564226Y-49671771D01*
X103545790Y-49800000D01*
X103561921Y-49912192D01*
X103549807Y-49959654D01*
X103543827Y-49966555D01*
X98868942Y-54641443D01*
X98791442Y-54718943D01*
X98749499Y-54820202D01*
X98749028Y-54822571D01*
X98747687Y-54824576D01*
X98747088Y-54826024D01*
X98746800Y-54825904D01*
X98721810Y-54863297D01*
X98673767Y-54872848D01*
X98636786Y-54850680D01*
X98610883Y-54819117D01*
X98610882Y-54819116D01*
X98458538Y-54694090D01*
X98458533Y-54694087D01*
X98284730Y-54601187D01*
X98278496Y-54599296D01*
X98152378Y-54561038D01*
X98137702Y-54556586D01*
X98099838Y-54525511D01*
X98092281Y-54495351D01*
X98092229Y-54024679D01*
X98110969Y-53979423D01*
X98137650Y-53963429D01*
X98284727Y-53918814D01*
X98458538Y-53825910D01*
X98610883Y-53700883D01*
X98735910Y-53548538D01*
X98828814Y-53374727D01*
X98886024Y-53186132D01*
X98905341Y-52990000D01*
X98886024Y-52793868D01*
X98828814Y-52605273D01*
X98735910Y-52431462D01*
X98610883Y-52279117D01*
X98458538Y-52154090D01*
X98458533Y-52154087D01*
X98284729Y-52061186D01*
X98137421Y-52016501D01*
X98099556Y-51985426D01*
X98091999Y-51955266D01*
X98091947Y-51484765D01*
X98110687Y-51439509D01*
X98137369Y-51423515D01*
X98183605Y-51409489D01*
X98284727Y-51378814D01*
X98458538Y-51285910D01*
X98610883Y-51160883D01*
X98735910Y-51008538D01*
X98828814Y-50834727D01*
X98886024Y-50646132D01*
X98905341Y-50450000D01*
X98886024Y-50253868D01*
X98885002Y-50250500D01*
X98868986Y-50197703D01*
X98828814Y-50065273D01*
X98735910Y-49891462D01*
X98610883Y-49739117D01*
X98458538Y-49614090D01*
X98458533Y-49614087D01*
X98284730Y-49521187D01*
X98137139Y-49476415D01*
X98099275Y-49445340D01*
X98091718Y-49415180D01*
X98091666Y-48944849D01*
X98110406Y-48899593D01*
X98137084Y-48883601D01*
X98284727Y-48838814D01*
X98458538Y-48745910D01*
X98610883Y-48620883D01*
X98735910Y-48468538D01*
X98828814Y-48294727D01*
X98886024Y-48106132D01*
X98905341Y-47910000D01*
X98886024Y-47713868D01*
X98828814Y-47525273D01*
X98820597Y-47509901D01*
X98742026Y-47362904D01*
X98735910Y-47351462D01*
X98610883Y-47199117D01*
X98544550Y-47144679D01*
X98458538Y-47074090D01*
X98458533Y-47074087D01*
X98284730Y-46981187D01*
X98136857Y-46936329D01*
X98098993Y-46905254D01*
X98091436Y-46875094D01*
X98091272Y-45400000D01*
X98444867Y-45400000D01*
X98463303Y-45528228D01*
X98517116Y-45646060D01*
X98517118Y-45646063D01*
X98601951Y-45743967D01*
X98710931Y-45814004D01*
X98835228Y-45850500D01*
X98835229Y-45850500D01*
X98964771Y-45850500D01*
X98964772Y-45850500D01*
X99089069Y-45814004D01*
X99198049Y-45743967D01*
X99282882Y-45646063D01*
X99336697Y-45528226D01*
X99355133Y-45400000D01*
X99336697Y-45271774D01*
X99282882Y-45153937D01*
X99236146Y-45100000D01*
X101919867Y-45100000D01*
X101938303Y-45228228D01*
X101992116Y-45346060D01*
X101992118Y-45346063D01*
X102076951Y-45443967D01*
X102185931Y-45514004D01*
X102310228Y-45550500D01*
X102310229Y-45550500D01*
X102439771Y-45550500D01*
X102439772Y-45550500D01*
X102564069Y-45514004D01*
X102673049Y-45443967D01*
X102757882Y-45346063D01*
X102811697Y-45228226D01*
X102830133Y-45100000D01*
X102811697Y-44971774D01*
X102788082Y-44920066D01*
X102757883Y-44853939D01*
X102757881Y-44853936D01*
X102673050Y-44756034D01*
X102673048Y-44756032D01*
X102564069Y-44685996D01*
X102439772Y-44649500D01*
X102310228Y-44649500D01*
X102185931Y-44685996D01*
X102185929Y-44685996D01*
X102076951Y-44756032D01*
X102076949Y-44756034D01*
X101992118Y-44853936D01*
X101992116Y-44853939D01*
X101938303Y-44971771D01*
X101919867Y-45100000D01*
X99236146Y-45100000D01*
X99198049Y-45056033D01*
X99198048Y-45056032D01*
X99089069Y-44985996D01*
X98993581Y-44957959D01*
X98964772Y-44949500D01*
X98835228Y-44949500D01*
X98710931Y-44985996D01*
X98710929Y-44985996D01*
X98601951Y-45056032D01*
X98601949Y-45056034D01*
X98517118Y-45153936D01*
X98517116Y-45153939D01*
X98463303Y-45271771D01*
X98444867Y-45400000D01*
X98091272Y-45400000D01*
X98090525Y-38670443D01*
X98109265Y-38625189D01*
X98143413Y-38607411D01*
X98201893Y-38597100D01*
X98363589Y-38538246D01*
X98399276Y-38525258D01*
X98399276Y-38525257D01*
X98399281Y-38525256D01*
X98581195Y-38420228D01*
X98742107Y-38285207D01*
X98877128Y-38124295D01*
X98982156Y-37942381D01*
X99054000Y-37744993D01*
X99090475Y-37538128D01*
X99090475Y-37328072D01*
X99054000Y-37121207D01*
X99022018Y-37033338D01*
X98982158Y-36923823D01*
X98967334Y-36898147D01*
X98877128Y-36741905D01*
X98877123Y-36741899D01*
X98877122Y-36741897D01*
X98742110Y-36580996D01*
X98742103Y-36580989D01*
X98581202Y-36445977D01*
X98581198Y-36445975D01*
X98581195Y-36445972D01*
X98399281Y-36340944D01*
X98399276Y-36340941D01*
X98201895Y-36269100D01*
X98143385Y-36258782D01*
X98102073Y-36232463D01*
X98090500Y-36195755D01*
X98090500Y-34825928D01*
X99279500Y-34825928D01*
X99279500Y-35754071D01*
X99304497Y-35879739D01*
X99304498Y-35879741D01*
X99353534Y-35998127D01*
X99424723Y-36104668D01*
X99515331Y-36195276D01*
X99621872Y-36266465D01*
X99628234Y-36269100D01*
X99740256Y-36315501D01*
X99740259Y-36315501D01*
X99740260Y-36315502D01*
X99865928Y-36340500D01*
X99865931Y-36340500D01*
X99994072Y-36340500D01*
X100119739Y-36315502D01*
X100119739Y-36315501D01*
X100119744Y-36315501D01*
X100238127Y-36266465D01*
X100344669Y-36195276D01*
X100435276Y-36104669D01*
X100506465Y-35998127D01*
X100555501Y-35879744D01*
X100580500Y-35754069D01*
X100580500Y-34825931D01*
X100580500Y-34825928D01*
X107919500Y-34825928D01*
X107919500Y-35754071D01*
X107944497Y-35879739D01*
X107944498Y-35879741D01*
X107993534Y-35998127D01*
X108064723Y-36104668D01*
X108155331Y-36195276D01*
X108261872Y-36266465D01*
X108268234Y-36269100D01*
X108380256Y-36315501D01*
X108380259Y-36315501D01*
X108380260Y-36315502D01*
X108505928Y-36340500D01*
X108505931Y-36340500D01*
X108634072Y-36340500D01*
X108759739Y-36315502D01*
X108759739Y-36315501D01*
X108759744Y-36315501D01*
X108878127Y-36266465D01*
X108984669Y-36195276D01*
X109075276Y-36104669D01*
X109146465Y-35998127D01*
X109195501Y-35879744D01*
X109220500Y-35754069D01*
X109220500Y-34825931D01*
X109220500Y-34825928D01*
X109195502Y-34700260D01*
X109195501Y-34700258D01*
X109195501Y-34700256D01*
X109146465Y-34581873D01*
X109146465Y-34581872D01*
X109075276Y-34475331D01*
X108984668Y-34384723D01*
X108878127Y-34313534D01*
X108782857Y-34274073D01*
X108759744Y-34264499D01*
X108759742Y-34264498D01*
X108759741Y-34264498D01*
X108759739Y-34264497D01*
X108634072Y-34239500D01*
X108634069Y-34239500D01*
X108505931Y-34239500D01*
X108505928Y-34239500D01*
X108380260Y-34264497D01*
X108380258Y-34264498D01*
X108261872Y-34313534D01*
X108155331Y-34384723D01*
X108064723Y-34475331D01*
X107993534Y-34581872D01*
X107944498Y-34700258D01*
X107944497Y-34700260D01*
X107919500Y-34825928D01*
X100580500Y-34825928D01*
X100555502Y-34700260D01*
X100555501Y-34700258D01*
X100555501Y-34700256D01*
X100506465Y-34581873D01*
X100506465Y-34581872D01*
X100435276Y-34475331D01*
X100344668Y-34384723D01*
X100238127Y-34313534D01*
X100142857Y-34274073D01*
X100119744Y-34264499D01*
X100119742Y-34264498D01*
X100119741Y-34264498D01*
X100119739Y-34264497D01*
X99994072Y-34239500D01*
X99994069Y-34239500D01*
X99865931Y-34239500D01*
X99865928Y-34239500D01*
X99740260Y-34264497D01*
X99740258Y-34264498D01*
X99621872Y-34313534D01*
X99515331Y-34384723D01*
X99424723Y-34475331D01*
X99353534Y-34581872D01*
X99304498Y-34700258D01*
X99304497Y-34700260D01*
X99279500Y-34825928D01*
X98090500Y-34825928D01*
X98090500Y-34164500D01*
X98109245Y-34119245D01*
X98154500Y-34100500D01*
X110325500Y-34100500D01*
X110370755Y-34119245D01*
G37*
%TD.AperFunction*%
%TA.AperFunction,Conductor*%
G36*
X98726101Y-66361373D02*
G01*
X98749192Y-66404573D01*
X98749500Y-66410846D01*
X98749500Y-71215800D01*
X98730755Y-71261055D01*
X98697161Y-71274969D01*
X98343669Y-71628460D01*
X98300099Y-71552993D01*
X98207007Y-71459901D01*
X98131537Y-71416328D01*
X98479805Y-71068061D01*
X98447097Y-71041219D01*
X98447092Y-71041216D01*
X98276846Y-70950217D01*
X98139517Y-70908559D01*
X98101652Y-70877484D01*
X98094096Y-70847326D01*
X98093638Y-66724251D01*
X98112378Y-66678995D01*
X98139057Y-66663002D01*
X98284727Y-66618814D01*
X98458538Y-66525910D01*
X98610883Y-66400883D01*
X98636027Y-66370244D01*
X98679227Y-66347154D01*
X98726101Y-66361373D01*
G37*
%TD.AperFunction*%
%TD*%
M02*
