%TF.GenerationSoftware,KiCad,Pcbnew,8.0.5-8.0.5-0~ubuntu24.04.1*%
%TF.CreationDate,2024-10-10T17:44:54+02:00*%
%TF.ProjectId,epi_ESP32_PD,6570695f-4553-4503-9332-5f50442e6b69,1_1*%
%TF.SameCoordinates,Original*%
%TF.FileFunction,Copper,L4,Bot*%
%TF.FilePolarity,Positive*%
%FSLAX46Y46*%
G04 Gerber Fmt 4.6, Leading zero omitted, Abs format (unit mm)*
G04 Created by KiCad (PCBNEW 8.0.5-8.0.5-0~ubuntu24.04.1) date 2024-10-10 17:44:54*
%MOMM*%
%LPD*%
G01*
G04 APERTURE LIST*
G04 Aperture macros list*
%AMFreePoly0*
4,1,19,0.500000,-0.750000,0.000000,-0.750000,0.000000,-0.744911,-0.071157,-0.744911,-0.207708,-0.704816,-0.327430,-0.627875,-0.420627,-0.520320,-0.479746,-0.390866,-0.500000,-0.250000,-0.500000,0.250000,-0.479746,0.390866,-0.420627,0.520320,-0.327430,0.627875,-0.207708,0.704816,-0.071157,0.744911,0.000000,0.744911,0.000000,0.750000,0.500000,0.750000,0.500000,-0.750000,0.500000,-0.750000,
$1*%
%AMFreePoly1*
4,1,19,0.000000,0.744911,0.071157,0.744911,0.207708,0.704816,0.327430,0.627875,0.420627,0.520320,0.479746,0.390866,0.500000,0.250000,0.500000,-0.250000,0.479746,-0.390866,0.420627,-0.520320,0.327430,-0.627875,0.207708,-0.704816,0.071157,-0.744911,0.000000,-0.744911,0.000000,-0.750000,-0.500000,-0.750000,-0.500000,0.750000,0.000000,0.750000,0.000000,0.744911,0.000000,0.744911,
$1*%
G04 Aperture macros list end*
%TA.AperFunction,ComponentPad*%
%ADD10C,1.700000*%
%TD*%
%TA.AperFunction,ComponentPad*%
%ADD11O,1.700000X1.700000*%
%TD*%
%TA.AperFunction,ComponentPad*%
%ADD12R,1.700000X1.700000*%
%TD*%
%TA.AperFunction,ComponentPad*%
%ADD13O,1.000000X2.100000*%
%TD*%
%TA.AperFunction,ComponentPad*%
%ADD14O,1.000000X1.800000*%
%TD*%
%TA.AperFunction,SMDPad,CuDef*%
%ADD15FreePoly0,270.000000*%
%TD*%
%TA.AperFunction,SMDPad,CuDef*%
%ADD16FreePoly1,270.000000*%
%TD*%
%TA.AperFunction,SMDPad,CuDef*%
%ADD17FreePoly0,180.000000*%
%TD*%
%TA.AperFunction,SMDPad,CuDef*%
%ADD18FreePoly1,180.000000*%
%TD*%
%TA.AperFunction,SMDPad,CuDef*%
%ADD19FreePoly0,0.000000*%
%TD*%
%TA.AperFunction,SMDPad,CuDef*%
%ADD20FreePoly1,0.000000*%
%TD*%
%TA.AperFunction,SMDPad,CuDef*%
%ADD21R,1.700000X1.700000*%
%TD*%
%TA.AperFunction,ViaPad*%
%ADD22C,0.600000*%
%TD*%
%TA.AperFunction,Conductor*%
%ADD23C,0.250000*%
%TD*%
%TA.AperFunction,Conductor*%
%ADD24C,1.000000*%
%TD*%
%TA.AperFunction,Conductor*%
%ADD25C,0.130000*%
%TD*%
%TA.AperFunction,Conductor*%
%ADD26C,0.150000*%
%TD*%
G04 APERTURE END LIST*
D10*
%TO.P,J8,1,Pin_1*%
%TO.N,+3.3V*%
X97900000Y-71860000D03*
D11*
%TO.P,J8,2,Pin_2*%
%TO.N,IO0*%
X97900000Y-74400000D03*
D12*
%TO.P,J8,3,Pin_3*%
%TO.N,GND*%
X97900000Y-76940000D03*
%TD*%
D10*
%TO.P,J3,1,Pin_1*%
%TO.N,+3.3V*%
X110600000Y-47910000D03*
D11*
%TO.P,J3,2,Pin_2*%
%TO.N,GND*%
X110600000Y-50450000D03*
%TO.P,J3,3,Pin_3*%
%TO.N,+5V*%
X110600000Y-52990000D03*
%TO.P,J3,4,Pin_4*%
%TO.N,EN*%
X110600000Y-55530000D03*
%TO.P,J3,5,Pin_5*%
%TO.N,BOOT*%
X110600000Y-58070000D03*
%TO.P,J3,6,Pin_6*%
%TO.N,IO8*%
X110600000Y-60610000D03*
%TO.P,J3,7,Pin_7*%
%TO.N,IO7*%
X110600000Y-63150000D03*
%TO.P,J3,8,Pin_8*%
%TO.N,IO6*%
X110600000Y-65690000D03*
%TD*%
D10*
%TO.P,J7,1,Pin_1*%
%TO.N,VOUT*%
X106640000Y-79860000D03*
D12*
%TO.P,J7,2,Pin_2*%
%TO.N,GND*%
X106640000Y-82400000D03*
D11*
%TO.P,J7,3,Pin_3*%
%TO.N,B*%
X104100000Y-79860000D03*
%TO.P,J7,4,Pin_4*%
%TO.N,IO2_5V*%
X104100000Y-82400000D03*
%TO.P,J7,5,Pin_5*%
%TO.N,W*%
X101560000Y-79860000D03*
%TO.P,J7,6,Pin_6*%
%TO.N,IO3_5V*%
X101560000Y-82400000D03*
%TD*%
D10*
%TO.P,J1,1,Pin_1*%
%TO.N,U0TXD*%
X97900000Y-47910000D03*
D11*
%TO.P,J1,2,Pin_2*%
%TO.N,U0RXD*%
X97900000Y-50450000D03*
%TO.P,J1,3,Pin_3*%
%TO.N,IO0*%
X97900000Y-52990000D03*
%TO.P,J1,4,Pin_4*%
%TO.N,IO1*%
X97900000Y-55530000D03*
%TO.P,J1,5,Pin_5*%
%TO.N,IO2*%
X97900000Y-58070000D03*
%TO.P,J1,6,Pin_6*%
%TO.N,IO3*%
X97900000Y-60610000D03*
%TO.P,J1,7,Pin_7*%
%TO.N,IO4*%
X97900000Y-63150000D03*
%TO.P,J1,8,Pin_8*%
%TO.N,IO5*%
X97900000Y-65690000D03*
%TD*%
D13*
%TO.P,J2,S1,SHIELD*%
%TO.N,GND*%
X108570000Y-39490000D03*
D14*
X108570000Y-35290000D03*
D13*
X99930000Y-39490000D03*
D14*
X99930000Y-35290000D03*
%TD*%
D15*
%TO.P,JP4,1,A*%
%TO.N,+5V*%
X103900000Y-54500000D03*
D16*
%TO.P,JP4,2,B*%
%TO.N,VIN*%
X103900000Y-55800000D03*
%TD*%
D17*
%TO.P,JP3,1,A*%
%TO.N,Net-(JP3-A)*%
X102550000Y-44400000D03*
D18*
%TO.P,JP3,2,B*%
%TO.N,VIN*%
X101250000Y-44400000D03*
%TD*%
D19*
%TO.P,JP1,1,A*%
%TO.N,VIN*%
X101250000Y-50600000D03*
D20*
%TO.P,JP1,2,B*%
%TO.N,Net-(JP1-B)*%
X102550000Y-50600000D03*
%TD*%
D19*
%TO.P,JP2,1,A*%
%TO.N,VIN*%
X101250000Y-47500000D03*
D20*
%TO.P,JP2,2,B*%
%TO.N,Net-(JP2-B)*%
X102550000Y-47500000D03*
%TD*%
D21*
%TO.P,J4,2,Pin_2*%
%TO.N,GND*%
X105800000Y-48900000D03*
%TD*%
D22*
%TO.N,+5V*%
X99485839Y-71914161D03*
X104000923Y-49800000D03*
%TO.N,GND*%
X106500000Y-65600000D03*
X100282280Y-64389187D03*
X106600000Y-48500000D03*
X103550000Y-76200000D03*
X102650937Y-63829741D03*
X101316848Y-62744207D03*
X102400000Y-69700000D03*
X102200000Y-62500000D03*
X100627768Y-63433287D03*
X105550923Y-44100000D03*
X106500000Y-64100000D03*
X106500000Y-59300000D03*
X99600000Y-69700000D03*
X106500000Y-64837500D03*
X106300000Y-71000000D03*
X101500000Y-54500000D03*
X104500000Y-72300000D03*
X100279886Y-65179886D03*
X105800000Y-48100000D03*
X100500000Y-54500000D03*
X101650000Y-76200000D03*
X101422885Y-65200000D03*
X102600000Y-76200000D03*
X101900000Y-64300000D03*
%TO.N,+3.3V*%
X104300000Y-62000000D03*
X99857536Y-79278365D03*
X107500000Y-77475000D03*
X103100000Y-71800000D03*
X99700000Y-74900000D03*
X109685840Y-56485840D03*
X105625000Y-53800000D03*
X107117246Y-68906905D03*
%TO.N,IO0*%
X104990839Y-63990839D03*
%TO.N,IO1*%
X104980383Y-64798262D03*
%TO.N,IO2*%
X104974663Y-65828262D03*
X101400000Y-70900000D03*
%TO.N,IO3*%
X103598043Y-66962534D03*
%TO.N,D+*%
X104029766Y-41469726D03*
X106630499Y-43529420D03*
X104581763Y-58507213D03*
%TO.N,D-*%
X104864794Y-41491581D03*
X106618954Y-42541847D03*
X105150922Y-58018785D03*
%TO.N,IO4*%
X103637172Y-67711515D03*
%TO.N,IO8*%
X107232601Y-66400000D03*
%TO.N,IO5*%
X103600000Y-68500000D03*
%TO.N,EN*%
X102667126Y-59632184D03*
X105452598Y-66406258D03*
%TO.N,BOOT*%
X106289882Y-63287499D03*
X101449721Y-61070001D03*
%TO.N,U0TXD*%
X106552903Y-61571365D03*
%TO.N,U0RXD*%
X107302347Y-61600297D03*
%TO.N,IO7*%
X99857536Y-76200511D03*
X106482598Y-66400000D03*
%TO.N,IO6*%
X104262771Y-77462771D03*
X106282978Y-68200000D03*
%TO.N,IO10*%
X105133029Y-70334500D03*
X107107114Y-68156336D03*
%TO.N,IO3_5V*%
X107400000Y-76400000D03*
%TO.N,IO2_5V*%
X102080000Y-74300000D03*
%TO.N,VOUT*%
X109900000Y-73600000D03*
X109900000Y-72700000D03*
%TO.N,Net-(JP1-B)*%
X106641583Y-45518323D03*
%TO.N,Net-(JP2-B)*%
X106654785Y-44506062D03*
%TO.N,Net-(JP3-A)*%
X102375000Y-45100000D03*
%TO.N,VIN*%
X106200000Y-38900000D03*
X102300000Y-38900000D03*
X106700000Y-41100000D03*
X101900000Y-41100000D03*
X104000000Y-55800000D03*
X107800000Y-71487500D03*
X107800000Y-70587500D03*
X98900000Y-45400000D03*
X106554676Y-47488645D03*
%TD*%
D23*
%TO.N,+5V*%
X103900000Y-49900923D02*
X104000923Y-49800000D01*
D24*
X103900000Y-54500000D02*
X103900000Y-49900923D01*
D25*
%TO.N,IO0*%
X103685000Y-61385000D02*
X99000000Y-56700000D01*
X99000000Y-56700000D02*
X99000000Y-53833513D01*
X104990839Y-63990839D02*
X104990839Y-61962519D01*
X99000000Y-53833513D02*
X98156457Y-52989970D01*
X104413320Y-61385000D02*
X103685000Y-61385000D01*
X104990839Y-61962519D02*
X104413320Y-61385000D01*
%TO.N,IO1*%
X98156782Y-56455777D02*
X98156782Y-55786782D01*
X104980383Y-64798262D02*
X104254942Y-64798262D01*
X103700000Y-64243320D02*
X103700000Y-61998995D01*
X104254942Y-64798262D02*
X103700000Y-64243320D01*
X103700000Y-61998995D02*
X98156782Y-56455777D01*
%TO.N,IO2*%
X103400000Y-64700000D02*
X103400000Y-62291960D01*
X104528262Y-65828262D02*
X103400000Y-64700000D01*
X103400000Y-62291960D02*
X99178010Y-58069970D01*
X104974663Y-65828262D02*
X104528262Y-65828262D01*
X99178010Y-58069970D02*
X98157047Y-58069970D01*
%TO.N,IO3*%
X101334214Y-66962534D02*
X99485000Y-65113320D01*
X99500000Y-61952658D02*
X98157342Y-60610000D01*
X99485000Y-64686680D02*
X99500000Y-64671680D01*
X103598043Y-66962534D02*
X101334214Y-66962534D01*
X99500000Y-64671680D02*
X99500000Y-61952658D01*
X99485000Y-65113320D02*
X99485000Y-64686680D01*
D23*
%TO.N,D+*%
X104029766Y-41469726D02*
X106089460Y-43529420D01*
X106089460Y-43529420D02*
X106630499Y-43529420D01*
D25*
%TO.N,IO4*%
X103637172Y-67711515D02*
X101461515Y-67711515D01*
X101461515Y-67711515D02*
X98157636Y-64407636D01*
X98157636Y-64407636D02*
X98157636Y-63149970D01*
%TO.N,IO5*%
X103600000Y-68500000D02*
X101600000Y-68500000D01*
X98789970Y-65689970D02*
X98157932Y-65689970D01*
X101600000Y-68500000D02*
X98789970Y-65689970D01*
%TO.N,U0TXD*%
X106552903Y-61571365D02*
X106271365Y-61571365D01*
X99000000Y-50700000D02*
X99000000Y-48754102D01*
X99900000Y-55200000D02*
X99900000Y-51600000D01*
X106271365Y-61571365D02*
X99900000Y-55200000D01*
X99000000Y-48754102D02*
X98155868Y-47909970D01*
X99900000Y-51600000D02*
X99000000Y-50700000D01*
%TO.N,U0RXD*%
X106900000Y-62100000D02*
X106175700Y-62100000D01*
X99480000Y-55404300D02*
X99480000Y-51773807D01*
X107302347Y-61600297D02*
X107302347Y-61697653D01*
X107302347Y-61697653D02*
X106900000Y-62100000D01*
X106175700Y-62100000D02*
X99480000Y-55404300D01*
X99480000Y-51773807D02*
X98156163Y-50449970D01*
%TO.N,IO10*%
X107107114Y-68156336D02*
X107107114Y-68188717D01*
X107107114Y-68188717D02*
X105133029Y-70162802D01*
X105133029Y-70162802D02*
X105133029Y-70334500D01*
%TO.N,IO3_5V*%
X107400000Y-76400000D02*
X106053862Y-76400000D01*
X102800000Y-81160000D02*
X101560000Y-82400000D01*
X102800000Y-79653862D02*
X102800000Y-81160000D01*
X106053862Y-76400000D02*
X102800000Y-79653862D01*
%TO.N,IO2_5V*%
X101118862Y-83465000D02*
X103035000Y-83465000D01*
X100495000Y-75885000D02*
X100495000Y-82841138D01*
X102080000Y-74300000D02*
X100495000Y-75885000D01*
X103035000Y-83465000D02*
X104100000Y-82400000D01*
X100495000Y-82841138D02*
X101118862Y-83465000D01*
D26*
%TO.N,Net-(JP1-B)*%
X106641583Y-45518323D02*
X106081677Y-45518323D01*
X102150000Y-49450000D02*
X102150000Y-50600000D01*
X106081677Y-45518323D02*
X102150000Y-49450000D01*
%TO.N,Net-(JP2-B)*%
X103675736Y-47500000D02*
X102150000Y-47500000D01*
X106654785Y-44520951D02*
X103675736Y-47500000D01*
X106654785Y-44506062D02*
X106654785Y-44520951D01*
D25*
%TO.N,Net-(JP3-A)*%
X102375000Y-45100000D02*
X102375000Y-44625000D01*
X102375000Y-44625000D02*
X102150000Y-44400000D01*
%TO.N,VIN*%
X100850000Y-47249998D02*
X100850000Y-47500000D01*
X98900000Y-45400000D02*
X98900000Y-44250000D01*
X106554676Y-47488645D02*
X107088645Y-47488645D01*
X98900000Y-44250000D02*
X101900000Y-41250000D01*
X101900000Y-41250000D02*
X101900000Y-41240192D01*
X101900000Y-41240192D02*
X101250000Y-41890192D01*
X101250000Y-41890192D02*
X101250000Y-50600000D01*
D24*
X104000000Y-55800000D02*
X107400000Y-55800000D01*
%TD*%
%TA.AperFunction,Conductor*%
%TO.N,GND*%
G36*
X107900000Y-83600000D02*
G01*
X105400000Y-83600000D01*
X105400000Y-81300000D01*
X107900000Y-81300000D01*
X107900000Y-83600000D01*
G37*
%TD.AperFunction*%
%TD*%
%TA.AperFunction,Conductor*%
%TO.N,GND*%
G36*
X105300000Y-76200000D02*
G01*
X100710500Y-76200000D01*
X100710500Y-76025624D01*
X100730185Y-75958585D01*
X100746814Y-75937947D01*
X101900617Y-74784144D01*
X101961938Y-74750661D01*
X102006013Y-74752252D01*
X102006447Y-74749238D01*
X102015226Y-74750500D01*
X102015228Y-74750500D01*
X102144773Y-74750500D01*
X102144773Y-74750499D01*
X102269069Y-74714004D01*
X102378049Y-74643967D01*
X102462882Y-74546063D01*
X102516697Y-74428226D01*
X102535133Y-74300000D01*
X102520755Y-74200000D01*
X105300000Y-74200000D01*
X105300000Y-76200000D01*
G37*
%TD.AperFunction*%
%TA.AperFunction,Conductor*%
G36*
X101624867Y-74300000D02*
G01*
X101634935Y-74370030D01*
X101624991Y-74439188D01*
X101599878Y-74475357D01*
X100400000Y-75675236D01*
X100400000Y-74200000D01*
X101639244Y-74200000D01*
X101624867Y-74300000D01*
G37*
%TD.AperFunction*%
%TD*%
%TA.AperFunction,Conductor*%
%TO.N,GND*%
G36*
X99107492Y-58304215D02*
G01*
X101337918Y-60534641D01*
X101356663Y-60579896D01*
X101337918Y-60625151D01*
X101310694Y-60641303D01*
X101293856Y-60646247D01*
X101260650Y-60655997D01*
X101151672Y-60726033D01*
X101151670Y-60726035D01*
X101066839Y-60823937D01*
X101066837Y-60823940D01*
X101013024Y-60941772D01*
X100994588Y-61070001D01*
X101013024Y-61198229D01*
X101066837Y-61316061D01*
X101066839Y-61316064D01*
X101151672Y-61413968D01*
X101260652Y-61484005D01*
X101384949Y-61520501D01*
X101384950Y-61520501D01*
X101514492Y-61520501D01*
X101514493Y-61520501D01*
X101638790Y-61484005D01*
X101747770Y-61413968D01*
X101832603Y-61316064D01*
X101861368Y-61253076D01*
X101884207Y-61203069D01*
X101920058Y-61169691D01*
X101969010Y-61171440D01*
X101987678Y-61184401D01*
X103165755Y-62362478D01*
X103184500Y-62407733D01*
X103184500Y-64657134D01*
X103184500Y-64742866D01*
X103217308Y-64822071D01*
X104345570Y-65950333D01*
X104406191Y-66010954D01*
X104485396Y-66043762D01*
X104537192Y-66043762D01*
X104582447Y-66062507D01*
X104591032Y-66073161D01*
X104591779Y-66074324D01*
X104666188Y-66160197D01*
X104676614Y-66172229D01*
X104785594Y-66242266D01*
X104909891Y-66278762D01*
X104941936Y-66278762D01*
X104987191Y-66297507D01*
X105005936Y-66342762D01*
X105005285Y-66351866D01*
X104997465Y-66406258D01*
X104997749Y-66408233D01*
X105015901Y-66534486D01*
X105069714Y-66652318D01*
X105069716Y-66652321D01*
X105135541Y-66728289D01*
X105154549Y-66750225D01*
X105263529Y-66820262D01*
X105387826Y-66856758D01*
X105387827Y-66856758D01*
X105517369Y-66856758D01*
X105517370Y-66856758D01*
X105641667Y-66820262D01*
X105750647Y-66750225D01*
X105835480Y-66652321D01*
X105889295Y-66534484D01*
X105904699Y-66427339D01*
X105916036Y-66408233D01*
X105915913Y-66408160D01*
X105903799Y-66378916D01*
X105889295Y-66278032D01*
X105875825Y-66248538D01*
X105835481Y-66160197D01*
X105835479Y-66160194D01*
X105750648Y-66062292D01*
X105750646Y-66062290D01*
X105641667Y-65992254D01*
X105619189Y-65985654D01*
X105517370Y-65955758D01*
X105517369Y-65955758D01*
X105485325Y-65955758D01*
X105440070Y-65937013D01*
X105421325Y-65891758D01*
X105421976Y-65882650D01*
X105423280Y-65873581D01*
X105429796Y-65828262D01*
X105411360Y-65700036D01*
X105399861Y-65674858D01*
X105357546Y-65582201D01*
X105357544Y-65582198D01*
X105272713Y-65484296D01*
X105272711Y-65484294D01*
X105163732Y-65414258D01*
X105039435Y-65377762D01*
X104909891Y-65377762D01*
X104785594Y-65414258D01*
X104785592Y-65414258D01*
X104676614Y-65484294D01*
X104676612Y-65484296D01*
X104634559Y-65532829D01*
X104590757Y-65554755D01*
X104544280Y-65539286D01*
X104540936Y-65536173D01*
X104109175Y-65104412D01*
X104090430Y-65059157D01*
X104109175Y-65013902D01*
X104154430Y-64995157D01*
X104178920Y-65000028D01*
X104212076Y-65013762D01*
X104212077Y-65013762D01*
X104297808Y-65013762D01*
X104542912Y-65013762D01*
X104588167Y-65032507D01*
X104596752Y-65043161D01*
X104597499Y-65044324D01*
X104673004Y-65131462D01*
X104682334Y-65142229D01*
X104791314Y-65212266D01*
X104915611Y-65248762D01*
X104915612Y-65248762D01*
X105045154Y-65248762D01*
X105045155Y-65248762D01*
X105169452Y-65212266D01*
X105278432Y-65142229D01*
X105363265Y-65044325D01*
X105417080Y-64926488D01*
X105435516Y-64798262D01*
X105417080Y-64670036D01*
X105407094Y-64648171D01*
X105363266Y-64552201D01*
X105363264Y-64552198D01*
X105278433Y-64454296D01*
X105278432Y-64454295D01*
X105274470Y-64451748D01*
X105246535Y-64411513D01*
X105255233Y-64363308D01*
X105274473Y-64344069D01*
X105288888Y-64334806D01*
X105373721Y-64236902D01*
X105427536Y-64119065D01*
X105445972Y-63990839D01*
X105427536Y-63862613D01*
X105426745Y-63860882D01*
X105373722Y-63744778D01*
X105373720Y-63744775D01*
X105288889Y-63646873D01*
X105288887Y-63646871D01*
X105235738Y-63612714D01*
X105207801Y-63572478D01*
X105206339Y-63558874D01*
X105206339Y-61919655D01*
X105206339Y-61919653D01*
X105173531Y-61840448D01*
X105112910Y-61779827D01*
X104535391Y-61202308D01*
X104456186Y-61169500D01*
X103800773Y-61169500D01*
X103755518Y-61150755D01*
X102773809Y-60169046D01*
X102755064Y-60123791D01*
X102773809Y-60078536D01*
X102801031Y-60062385D01*
X102856195Y-60046188D01*
X102965175Y-59976151D01*
X103050008Y-59878247D01*
X103103823Y-59760410D01*
X103122259Y-59632184D01*
X103103823Y-59503958D01*
X103103821Y-59503955D01*
X103103355Y-59502365D01*
X103103457Y-59501416D01*
X103103171Y-59499427D01*
X103103678Y-59499353D01*
X103108592Y-59453663D01*
X103146733Y-59422927D01*
X103195435Y-59428164D01*
X103210014Y-59439077D01*
X106053630Y-62282693D01*
X106100023Y-62301908D01*
X106100025Y-62301910D01*
X106100026Y-62301910D01*
X106121855Y-62310952D01*
X106132834Y-62315500D01*
X106132835Y-62315500D01*
X106218566Y-62315500D01*
X106685105Y-62315500D01*
X106730360Y-62334245D01*
X106749105Y-62379500D01*
X106748454Y-62388608D01*
X106744500Y-62416110D01*
X106744500Y-62952632D01*
X106725755Y-62997887D01*
X106680500Y-63016632D01*
X106635245Y-62997887D01*
X106632132Y-62994543D01*
X106587932Y-62943533D01*
X106587930Y-62943531D01*
X106478951Y-62873495D01*
X106354654Y-62836999D01*
X106225110Y-62836999D01*
X106100813Y-62873495D01*
X106100811Y-62873495D01*
X105991833Y-62943531D01*
X105991831Y-62943533D01*
X105907000Y-63041435D01*
X105906998Y-63041438D01*
X105853185Y-63159270D01*
X105834749Y-63287499D01*
X105853185Y-63415727D01*
X105906998Y-63533559D01*
X105907000Y-63533562D01*
X105975584Y-63612714D01*
X105991833Y-63631466D01*
X106100813Y-63701503D01*
X106225110Y-63737999D01*
X106225111Y-63737999D01*
X106354653Y-63737999D01*
X106354654Y-63737999D01*
X106478951Y-63701503D01*
X106587931Y-63631466D01*
X106632132Y-63580454D01*
X106675933Y-63558528D01*
X106722410Y-63573996D01*
X106744337Y-63617798D01*
X106744500Y-63622365D01*
X106744500Y-63864450D01*
X106748053Y-63897496D01*
X106748055Y-63897507D01*
X106759258Y-63949003D01*
X106759263Y-63949022D01*
X106769755Y-63980543D01*
X106769759Y-63980554D01*
X106769763Y-63980564D01*
X106769764Y-63980565D01*
X106782137Y-64007658D01*
X106787270Y-64025137D01*
X106796724Y-64090891D01*
X106796723Y-64109108D01*
X106787269Y-64174858D01*
X106782138Y-64192333D01*
X106769768Y-64219420D01*
X106769756Y-64219450D01*
X106759263Y-64250975D01*
X106759258Y-64250994D01*
X106748055Y-64302490D01*
X106748053Y-64302501D01*
X106744500Y-64335547D01*
X106744500Y-64601950D01*
X106748053Y-64634996D01*
X106748055Y-64635007D01*
X106759258Y-64686503D01*
X106759263Y-64686522D01*
X106768591Y-64714545D01*
X106769759Y-64718054D01*
X106769763Y-64718064D01*
X106769764Y-64718065D01*
X106782137Y-64745158D01*
X106787270Y-64762637D01*
X106796724Y-64828391D01*
X106796723Y-64846608D01*
X106787269Y-64912358D01*
X106782138Y-64929833D01*
X106769768Y-64956920D01*
X106769756Y-64956950D01*
X106759263Y-64988475D01*
X106759258Y-64988494D01*
X106748055Y-65039990D01*
X106748053Y-65040001D01*
X106744500Y-65073047D01*
X106744500Y-65364450D01*
X106748053Y-65397496D01*
X106748055Y-65397507D01*
X106759258Y-65449003D01*
X106759263Y-65449022D01*
X106769755Y-65480543D01*
X106769759Y-65480554D01*
X106769763Y-65480564D01*
X106769764Y-65480565D01*
X106782137Y-65507658D01*
X106787270Y-65525137D01*
X106796724Y-65590891D01*
X106796723Y-65609108D01*
X106787269Y-65674858D01*
X106782138Y-65692333D01*
X106769768Y-65719420D01*
X106769756Y-65719450D01*
X106759263Y-65750975D01*
X106759258Y-65750994D01*
X106748055Y-65802490D01*
X106748053Y-65802501D01*
X106744500Y-65835547D01*
X106744500Y-65835554D01*
X106744500Y-65862495D01*
X106744896Y-65873588D01*
X106745544Y-65882650D01*
X106746158Y-65891235D01*
X106750544Y-65908419D01*
X106743573Y-65956904D01*
X106704359Y-65986258D01*
X106670502Y-65985654D01*
X106547370Y-65949500D01*
X106417826Y-65949500D01*
X106293529Y-65985996D01*
X106293527Y-65985996D01*
X106184549Y-66056032D01*
X106184547Y-66056034D01*
X106099716Y-66153936D01*
X106099714Y-66153939D01*
X106045901Y-66271771D01*
X106030497Y-66378914D01*
X106019158Y-66398024D01*
X106019281Y-66398097D01*
X106031396Y-66427342D01*
X106045901Y-66528226D01*
X106045901Y-66528227D01*
X106045902Y-66528229D01*
X106099714Y-66646060D01*
X106099716Y-66646063D01*
X106163367Y-66719522D01*
X106184549Y-66743967D01*
X106293529Y-66814004D01*
X106417826Y-66850500D01*
X106417827Y-66850500D01*
X106547368Y-66850500D01*
X106547370Y-66850500D01*
X106671414Y-66814078D01*
X106720115Y-66819315D01*
X106750851Y-66857455D01*
X106750854Y-66891369D01*
X106751285Y-66891463D01*
X106750854Y-66893439D01*
X106750855Y-66893503D01*
X106750801Y-66893686D01*
X106750799Y-66893693D01*
X106744500Y-66937506D01*
X106744500Y-67583197D01*
X106750794Y-67626988D01*
X106750795Y-67626993D01*
X106770484Y-67694063D01*
X106772722Y-67701063D01*
X106772723Y-67701066D01*
X106803430Y-67746447D01*
X106813266Y-67794433D01*
X106798792Y-67824224D01*
X106724496Y-67909966D01*
X106680694Y-67931892D01*
X106634217Y-67916423D01*
X106627760Y-67909966D01*
X106581028Y-67856034D01*
X106581026Y-67856032D01*
X106472047Y-67785996D01*
X106347750Y-67749500D01*
X106218206Y-67749500D01*
X106093909Y-67785996D01*
X106093907Y-67785996D01*
X105984929Y-67856032D01*
X105984927Y-67856034D01*
X105900096Y-67953936D01*
X105900094Y-67953939D01*
X105846281Y-68071771D01*
X105827845Y-68200000D01*
X105846281Y-68328228D01*
X105900094Y-68446060D01*
X105900096Y-68446063D01*
X105984929Y-68543967D01*
X106093909Y-68614004D01*
X106209296Y-68647883D01*
X106247436Y-68678619D01*
X106252673Y-68727321D01*
X106236520Y-68754546D01*
X105125813Y-69865255D01*
X105080558Y-69884000D01*
X105068257Y-69884000D01*
X104943960Y-69920496D01*
X104943958Y-69920496D01*
X104834980Y-69990532D01*
X104834978Y-69990534D01*
X104750147Y-70088436D01*
X104750145Y-70088439D01*
X104696332Y-70206271D01*
X104677896Y-70334500D01*
X104696332Y-70462728D01*
X104750145Y-70580560D01*
X104750147Y-70580563D01*
X104813726Y-70653939D01*
X104834980Y-70678467D01*
X104943960Y-70748504D01*
X105068257Y-70785000D01*
X105068258Y-70785000D01*
X105197800Y-70785000D01*
X105197801Y-70785000D01*
X105322098Y-70748504D01*
X105431078Y-70678467D01*
X105515911Y-70580563D01*
X105569726Y-70462726D01*
X105588162Y-70334500D01*
X105569726Y-70206274D01*
X105569724Y-70206269D01*
X105533194Y-70126278D01*
X105531445Y-70077326D01*
X105546153Y-70054439D01*
X106579291Y-69021302D01*
X106624543Y-69002559D01*
X106669798Y-69021304D01*
X106682759Y-69039972D01*
X106734362Y-69152965D01*
X106734364Y-69152968D01*
X106801705Y-69230685D01*
X106817174Y-69277162D01*
X106807985Y-69305907D01*
X106770483Y-69367429D01*
X106750799Y-69434469D01*
X106744500Y-69478281D01*
X106744500Y-71876006D01*
X106748053Y-71909052D01*
X106748055Y-71909063D01*
X106759259Y-71960564D01*
X106759260Y-71960567D01*
X106793686Y-72029341D01*
X106808173Y-72046060D01*
X106839442Y-72082146D01*
X106844420Y-72087621D01*
X106913150Y-72129516D01*
X106980189Y-72149201D01*
X107024000Y-72155500D01*
X107701917Y-72155500D01*
X107747172Y-72174245D01*
X107765917Y-72219500D01*
X107763325Y-72237530D01*
X107750800Y-72280186D01*
X107750799Y-72280189D01*
X107744500Y-72324002D01*
X107744500Y-75968678D01*
X107725755Y-76013933D01*
X107680500Y-76032678D01*
X107645899Y-76022518D01*
X107589069Y-75985996D01*
X107549109Y-75974263D01*
X107464772Y-75949500D01*
X107335228Y-75949500D01*
X107210931Y-75985996D01*
X107210929Y-75985996D01*
X107101951Y-76056032D01*
X107101949Y-76056034D01*
X107017116Y-76153937D01*
X107016369Y-76155101D01*
X107015715Y-76155554D01*
X107014120Y-76157396D01*
X107013650Y-76156988D01*
X106976133Y-76183038D01*
X106962529Y-76184500D01*
X106010996Y-76184500D01*
X105987794Y-76194109D01*
X105987793Y-76194108D01*
X105931792Y-76217305D01*
X105931790Y-76217307D01*
X104800727Y-77348369D01*
X104755472Y-77367114D01*
X104710217Y-77348369D01*
X104697256Y-77329701D01*
X104645654Y-77216710D01*
X104645652Y-77216707D01*
X104560821Y-77118805D01*
X104560819Y-77118803D01*
X104451840Y-77048767D01*
X104327543Y-77012271D01*
X104197999Y-77012271D01*
X104073702Y-77048767D01*
X104073700Y-77048767D01*
X103964722Y-77118803D01*
X103964720Y-77118805D01*
X103879889Y-77216707D01*
X103879887Y-77216710D01*
X103826074Y-77334542D01*
X103807638Y-77462771D01*
X103826074Y-77590999D01*
X103879887Y-77708831D01*
X103879889Y-77708834D01*
X103964722Y-77806738D01*
X104073702Y-77876775D01*
X104123744Y-77891468D01*
X104161884Y-77922202D01*
X104167121Y-77970905D01*
X104150968Y-77998130D01*
X102677929Y-79471170D01*
X102617305Y-79531793D01*
X102615901Y-79533895D01*
X102613800Y-79535298D01*
X102612851Y-79536248D01*
X102612661Y-79536058D01*
X102575171Y-79561107D01*
X102527130Y-79551548D01*
X102501446Y-79516915D01*
X102488814Y-79475273D01*
X102488812Y-79475270D01*
X102488813Y-79475270D01*
X102395912Y-79301466D01*
X102395909Y-79301461D01*
X102270883Y-79149117D01*
X102270882Y-79149116D01*
X102118538Y-79024090D01*
X102118533Y-79024087D01*
X101944730Y-78931187D01*
X101756131Y-78873975D01*
X101756133Y-78873975D01*
X101560000Y-78854659D01*
X101363867Y-78873975D01*
X101175269Y-78931187D01*
X101001466Y-79024087D01*
X101001461Y-79024090D01*
X100849117Y-79149116D01*
X100849115Y-79149118D01*
X100823972Y-79179755D01*
X100780772Y-79202845D01*
X100733898Y-79188625D01*
X100710808Y-79145425D01*
X100710500Y-79139153D01*
X100710500Y-76200000D01*
X105300000Y-76200000D01*
X105300000Y-74200000D01*
X102520755Y-74200000D01*
X102516697Y-74171774D01*
X102462882Y-74053937D01*
X102378049Y-73956033D01*
X102378048Y-73956032D01*
X102269069Y-73885996D01*
X102144772Y-73849500D01*
X102015228Y-73849500D01*
X101890931Y-73885996D01*
X101890929Y-73885996D01*
X101781951Y-73956032D01*
X101781949Y-73956034D01*
X101697118Y-74053936D01*
X101697116Y-74053939D01*
X101643303Y-74171771D01*
X101639244Y-74200000D01*
X100400000Y-74200000D01*
X100400000Y-75675236D01*
X100372929Y-75702308D01*
X100312308Y-75762928D01*
X100277088Y-75847958D01*
X100275850Y-75847445D01*
X100252320Y-75882648D01*
X100204276Y-75892196D01*
X100168405Y-75871339D01*
X100155586Y-75856545D01*
X100155584Y-75856543D01*
X100046605Y-75786507D01*
X99922308Y-75750011D01*
X99792764Y-75750011D01*
X99668467Y-75786507D01*
X99668465Y-75786507D01*
X99559487Y-75856543D01*
X99559485Y-75856545D01*
X99474654Y-75954447D01*
X99474652Y-75954450D01*
X99420839Y-76072282D01*
X99402403Y-76200511D01*
X99420839Y-76328739D01*
X99474652Y-76446571D01*
X99474654Y-76446574D01*
X99559487Y-76544478D01*
X99668467Y-76614515D01*
X99792764Y-76651011D01*
X99792765Y-76651011D01*
X99922307Y-76651011D01*
X99922308Y-76651011D01*
X100046605Y-76614515D01*
X100155585Y-76544478D01*
X100167132Y-76531152D01*
X100210934Y-76509226D01*
X100257411Y-76524695D01*
X100279337Y-76568497D01*
X100279500Y-76573063D01*
X100279500Y-78905812D01*
X100260755Y-78951067D01*
X100215500Y-78969812D01*
X100170245Y-78951067D01*
X100167133Y-78947724D01*
X100155587Y-78934400D01*
X100155584Y-78934397D01*
X100046605Y-78864361D01*
X99922308Y-78827865D01*
X99792764Y-78827865D01*
X99668467Y-78864361D01*
X99668465Y-78864361D01*
X99559487Y-78934397D01*
X99559485Y-78934399D01*
X99474654Y-79032301D01*
X99474652Y-79032304D01*
X99420839Y-79150136D01*
X99402403Y-79278365D01*
X99420839Y-79406593D01*
X99474652Y-79524425D01*
X99474654Y-79524428D01*
X99559487Y-79622332D01*
X99668467Y-79692369D01*
X99792764Y-79728865D01*
X99792765Y-79728865D01*
X99922307Y-79728865D01*
X99922308Y-79728865D01*
X100046605Y-79692369D01*
X100155585Y-79622332D01*
X100167132Y-79609006D01*
X100210934Y-79587080D01*
X100257411Y-79602549D01*
X100279337Y-79646351D01*
X100279500Y-79650917D01*
X100279500Y-82884004D01*
X100312308Y-82963209D01*
X100859344Y-83510245D01*
X100878089Y-83555500D01*
X100859344Y-83600755D01*
X100814089Y-83619500D01*
X98159506Y-83619500D01*
X98114251Y-83600755D01*
X98095506Y-83555507D01*
X98095278Y-81499274D01*
X98094887Y-77984006D01*
X98113627Y-77938750D01*
X98158880Y-77920000D01*
X98762805Y-77920000D01*
X98800723Y-77912456D01*
X98800725Y-77912455D01*
X98843722Y-77883726D01*
X98843726Y-77883722D01*
X98872455Y-77840725D01*
X98872456Y-77840723D01*
X98880000Y-77802805D01*
X98880000Y-77090000D01*
X98377445Y-77090000D01*
X98400000Y-77005826D01*
X98400000Y-76874174D01*
X98377445Y-76790000D01*
X98880000Y-76790000D01*
X98880000Y-76077194D01*
X98872456Y-76039276D01*
X98872455Y-76039274D01*
X98843726Y-75996277D01*
X98843722Y-75996273D01*
X98800725Y-75967544D01*
X98800723Y-75967543D01*
X98762805Y-75960000D01*
X98158656Y-75960000D01*
X98113401Y-75941255D01*
X98094656Y-75896007D01*
X98094604Y-75433960D01*
X98113344Y-75388703D01*
X98140026Y-75372709D01*
X98213238Y-75350500D01*
X98284727Y-75328814D01*
X98458538Y-75235910D01*
X98610883Y-75110883D01*
X98735910Y-74958538D01*
X98767199Y-74900000D01*
X99244867Y-74900000D01*
X99263303Y-75028228D01*
X99317116Y-75146060D01*
X99317118Y-75146063D01*
X99394969Y-75235910D01*
X99401951Y-75243967D01*
X99510931Y-75314004D01*
X99635228Y-75350500D01*
X99635229Y-75350500D01*
X99764771Y-75350500D01*
X99764772Y-75350500D01*
X99889069Y-75314004D01*
X99998049Y-75243967D01*
X100082882Y-75146063D01*
X100136697Y-75028226D01*
X100155133Y-74900000D01*
X100136697Y-74771774D01*
X100130850Y-74758972D01*
X100082883Y-74653939D01*
X100082881Y-74653936D01*
X99998050Y-74556034D01*
X99998048Y-74556032D01*
X99889069Y-74485996D01*
X99764772Y-74449500D01*
X99635228Y-74449500D01*
X99510931Y-74485996D01*
X99510929Y-74485996D01*
X99401951Y-74556032D01*
X99401949Y-74556034D01*
X99317118Y-74653936D01*
X99317116Y-74653939D01*
X99263303Y-74771771D01*
X99244867Y-74900000D01*
X98767199Y-74900000D01*
X98828814Y-74784727D01*
X98886024Y-74596132D01*
X98905341Y-74400000D01*
X98886024Y-74203868D01*
X98876287Y-74171771D01*
X98840543Y-74053939D01*
X98828814Y-74015273D01*
X98735910Y-73841462D01*
X98610883Y-73689117D01*
X98458538Y-73564090D01*
X98458533Y-73564087D01*
X98284729Y-73471186D01*
X98186685Y-73441445D01*
X98139796Y-73427221D01*
X98101932Y-73396147D01*
X98094375Y-73365987D01*
X98094323Y-72894044D01*
X98113063Y-72848788D01*
X98139745Y-72832794D01*
X98284727Y-72788814D01*
X98458538Y-72695910D01*
X98610883Y-72570883D01*
X98735910Y-72418538D01*
X98828814Y-72244727D01*
X98886024Y-72056132D01*
X98900007Y-71914161D01*
X99030706Y-71914161D01*
X99049142Y-72042389D01*
X99102955Y-72160221D01*
X99102957Y-72160224D01*
X99187790Y-72258128D01*
X99296770Y-72328165D01*
X99421067Y-72364661D01*
X99421068Y-72364661D01*
X99550610Y-72364661D01*
X99550611Y-72364661D01*
X99674908Y-72328165D01*
X99783888Y-72258128D01*
X99868721Y-72160224D01*
X99922536Y-72042387D01*
X99940972Y-71914161D01*
X99924558Y-71800000D01*
X102644867Y-71800000D01*
X102663303Y-71928228D01*
X102717116Y-72046060D01*
X102717118Y-72046063D01*
X102801951Y-72143967D01*
X102910931Y-72214004D01*
X103035228Y-72250500D01*
X103035229Y-72250500D01*
X103164771Y-72250500D01*
X103164772Y-72250500D01*
X103289069Y-72214004D01*
X103398049Y-72143967D01*
X103482882Y-72046063D01*
X103536697Y-71928226D01*
X103555133Y-71800000D01*
X103536697Y-71671774D01*
X103535018Y-71668098D01*
X103482883Y-71553939D01*
X103482881Y-71553936D01*
X103398050Y-71456034D01*
X103398048Y-71456032D01*
X103289069Y-71385996D01*
X103164772Y-71349500D01*
X103035228Y-71349500D01*
X102910931Y-71385996D01*
X102910929Y-71385996D01*
X102801951Y-71456032D01*
X102801949Y-71456034D01*
X102717118Y-71553936D01*
X102717116Y-71553939D01*
X102663303Y-71671771D01*
X102644867Y-71800000D01*
X99924558Y-71800000D01*
X99922536Y-71785935D01*
X99870398Y-71671771D01*
X99868722Y-71668100D01*
X99868720Y-71668097D01*
X99783889Y-71570195D01*
X99783887Y-71570193D01*
X99674908Y-71500157D01*
X99550611Y-71463661D01*
X99421067Y-71463661D01*
X99296770Y-71500157D01*
X99296768Y-71500157D01*
X99187790Y-71570193D01*
X99187788Y-71570195D01*
X99102957Y-71668097D01*
X99102955Y-71668100D01*
X99049142Y-71785932D01*
X99030706Y-71914161D01*
X98900007Y-71914161D01*
X98905341Y-71860000D01*
X98886024Y-71663868D01*
X98828814Y-71475273D01*
X98818529Y-71456032D01*
X98735912Y-71301466D01*
X98735909Y-71301461D01*
X98610883Y-71149117D01*
X98610882Y-71149116D01*
X98458538Y-71024090D01*
X98458533Y-71024087D01*
X98284729Y-70931186D01*
X98181922Y-70900000D01*
X100944867Y-70900000D01*
X100963303Y-71028228D01*
X101017116Y-71146060D01*
X101017118Y-71146063D01*
X101101951Y-71243967D01*
X101210931Y-71314004D01*
X101335228Y-71350500D01*
X101335229Y-71350500D01*
X101464771Y-71350500D01*
X101464772Y-71350500D01*
X101589069Y-71314004D01*
X101698049Y-71243967D01*
X101782882Y-71146063D01*
X101836697Y-71028226D01*
X101855133Y-70900000D01*
X101836697Y-70771774D01*
X101826069Y-70748503D01*
X101782883Y-70653939D01*
X101782881Y-70653936D01*
X101698050Y-70556034D01*
X101698048Y-70556032D01*
X101589069Y-70485996D01*
X101464772Y-70449500D01*
X101335228Y-70449500D01*
X101210931Y-70485996D01*
X101210929Y-70485996D01*
X101101951Y-70556032D01*
X101101949Y-70556034D01*
X101017118Y-70653936D01*
X101017116Y-70653939D01*
X100963303Y-70771771D01*
X100944867Y-70900000D01*
X98181922Y-70900000D01*
X98139515Y-70887136D01*
X98101650Y-70856061D01*
X98094093Y-70825901D01*
X98093638Y-66724251D01*
X98112378Y-66678995D01*
X98139057Y-66663002D01*
X98284727Y-66618814D01*
X98458538Y-66525910D01*
X98610883Y-66400883D01*
X98735910Y-66248538D01*
X98802469Y-66124013D01*
X98840332Y-66092940D01*
X98889080Y-66097741D01*
X98904166Y-66108929D01*
X101477930Y-68682693D01*
X101524323Y-68701908D01*
X101524325Y-68701910D01*
X101524326Y-68701910D01*
X101547525Y-68711519D01*
X101557134Y-68715500D01*
X101557135Y-68715500D01*
X101642866Y-68715500D01*
X103162529Y-68715500D01*
X103207784Y-68734245D01*
X103216369Y-68744899D01*
X103217116Y-68746062D01*
X103301949Y-68843965D01*
X103301951Y-68843967D01*
X103410931Y-68914004D01*
X103535228Y-68950500D01*
X103535229Y-68950500D01*
X103664771Y-68950500D01*
X103664772Y-68950500D01*
X103789069Y-68914004D01*
X103898049Y-68843967D01*
X103982882Y-68746063D01*
X104036697Y-68628226D01*
X104055133Y-68500000D01*
X104036697Y-68371774D01*
X103983620Y-68255554D01*
X103982883Y-68253939D01*
X103982881Y-68253936D01*
X103903749Y-68162611D01*
X103888280Y-68116134D01*
X103910206Y-68072332D01*
X103917513Y-68066861D01*
X103935221Y-68055482D01*
X104020054Y-67957578D01*
X104073869Y-67839741D01*
X104092305Y-67711515D01*
X104073869Y-67583289D01*
X104020792Y-67467069D01*
X104020055Y-67465454D01*
X104020053Y-67465451D01*
X103935222Y-67367549D01*
X103931759Y-67364548D01*
X103933449Y-67362596D01*
X103910303Y-67329226D01*
X103919021Y-67281025D01*
X103924459Y-67273762D01*
X103980925Y-67208597D01*
X104034740Y-67090760D01*
X104053176Y-66962534D01*
X104034740Y-66834308D01*
X104031244Y-66826654D01*
X103980926Y-66716473D01*
X103980924Y-66716470D01*
X103896093Y-66618568D01*
X103896091Y-66618566D01*
X103787112Y-66548530D01*
X103739281Y-66534486D01*
X103662815Y-66512034D01*
X103533271Y-66512034D01*
X103408974Y-66548530D01*
X103408972Y-66548530D01*
X103299994Y-66618566D01*
X103299992Y-66618568D01*
X103215159Y-66716471D01*
X103214412Y-66717635D01*
X103213758Y-66718088D01*
X103212163Y-66719930D01*
X103211693Y-66719522D01*
X103174176Y-66745572D01*
X103160572Y-66747034D01*
X101449987Y-66747034D01*
X101404732Y-66728289D01*
X99719245Y-65042802D01*
X99700500Y-64997547D01*
X99700500Y-64763488D01*
X99705371Y-64738997D01*
X99715500Y-64714546D01*
X99715500Y-64628815D01*
X99715500Y-61909792D01*
X99682692Y-61830587D01*
X99622071Y-61769966D01*
X98860131Y-61008026D01*
X98841386Y-60962771D01*
X98844140Y-60944199D01*
X98886024Y-60806132D01*
X98905341Y-60610000D01*
X98886024Y-60413868D01*
X98828814Y-60225273D01*
X98735910Y-60051462D01*
X98610883Y-59899117D01*
X98458538Y-59774090D01*
X98458533Y-59774087D01*
X98284730Y-59681187D01*
X98138266Y-59636757D01*
X98100402Y-59605682D01*
X98092845Y-59575522D01*
X98092793Y-59104507D01*
X98111533Y-59059251D01*
X98138210Y-59043259D01*
X98284727Y-58998814D01*
X98458538Y-58905910D01*
X98610883Y-58780883D01*
X98735910Y-58628538D01*
X98828814Y-58454727D01*
X98866379Y-58330891D01*
X98897454Y-58293027D01*
X98927623Y-58285470D01*
X99062237Y-58285470D01*
X99107492Y-58304215D01*
G37*
%TD.AperFunction*%
%TA.AperFunction,Conductor*%
G36*
X107007784Y-76634245D02*
G01*
X107016369Y-76644899D01*
X107017116Y-76646062D01*
X107055499Y-76690358D01*
X107101951Y-76743967D01*
X107210931Y-76814004D01*
X107335228Y-76850500D01*
X107335229Y-76850500D01*
X107464771Y-76850500D01*
X107464772Y-76850500D01*
X107589069Y-76814004D01*
X107645900Y-76777480D01*
X107694104Y-76768783D01*
X107734340Y-76796720D01*
X107744500Y-76831321D01*
X107744500Y-76991778D01*
X107725755Y-77037033D01*
X107680500Y-77055778D01*
X107662470Y-77053186D01*
X107647420Y-77048767D01*
X107564772Y-77024500D01*
X107435228Y-77024500D01*
X107310931Y-77060996D01*
X107310929Y-77060996D01*
X107201951Y-77131032D01*
X107201949Y-77131034D01*
X107117118Y-77228936D01*
X107117116Y-77228939D01*
X107063303Y-77346771D01*
X107044867Y-77475000D01*
X107063303Y-77603228D01*
X107117116Y-77721060D01*
X107117118Y-77721063D01*
X107191354Y-77806738D01*
X107201951Y-77818967D01*
X107310931Y-77889004D01*
X107435228Y-77925500D01*
X107435229Y-77925500D01*
X107564770Y-77925500D01*
X107564772Y-77925500D01*
X107662472Y-77896813D01*
X107711172Y-77902050D01*
X107741908Y-77940190D01*
X107744500Y-77958221D01*
X107744500Y-78280500D01*
X107725755Y-78325755D01*
X107680500Y-78344500D01*
X105923993Y-78344500D01*
X105890947Y-78348053D01*
X105890936Y-78348055D01*
X105839435Y-78359259D01*
X105839432Y-78359260D01*
X105770658Y-78393686D01*
X105717866Y-78439431D01*
X105712379Y-78444420D01*
X105670483Y-78513150D01*
X105650799Y-78580190D01*
X105644500Y-78624002D01*
X105644500Y-79756935D01*
X105644192Y-79763208D01*
X105634659Y-79859999D01*
X105644192Y-79956790D01*
X105644500Y-79963063D01*
X105644500Y-80976006D01*
X105648053Y-81009052D01*
X105648055Y-81009063D01*
X105659259Y-81060564D01*
X105659260Y-81060567D01*
X105693686Y-81129341D01*
X105693687Y-81129342D01*
X105739442Y-81182146D01*
X105744420Y-81187621D01*
X105813150Y-81229516D01*
X105880189Y-81249201D01*
X105924000Y-81255500D01*
X105924003Y-81255500D01*
X110274867Y-81255500D01*
X110274874Y-81255500D01*
X110307945Y-81251943D01*
X110321332Y-81249029D01*
X110369538Y-81257718D01*
X110397481Y-81297950D01*
X110398946Y-81311550D01*
X110399442Y-83555486D01*
X110380707Y-83600745D01*
X110335456Y-83619500D01*
X103339773Y-83619500D01*
X103294518Y-83600755D01*
X103294205Y-83600000D01*
X105400000Y-83600000D01*
X107900000Y-83600000D01*
X107900000Y-81300000D01*
X105400000Y-81300000D01*
X105400000Y-83600000D01*
X103294205Y-83600000D01*
X103275773Y-83555500D01*
X103294518Y-83510245D01*
X103525748Y-83279014D01*
X103571003Y-83260269D01*
X103601171Y-83267825D01*
X103715273Y-83328814D01*
X103903868Y-83386024D01*
X103903866Y-83386024D01*
X103936142Y-83389202D01*
X104100000Y-83405341D01*
X104296132Y-83386024D01*
X104484727Y-83328814D01*
X104658538Y-83235910D01*
X104810883Y-83110883D01*
X104935910Y-82958538D01*
X105028814Y-82784727D01*
X105086024Y-82596132D01*
X105105341Y-82400000D01*
X105086024Y-82203868D01*
X105028814Y-82015273D01*
X105020597Y-81999901D01*
X104935912Y-81841466D01*
X104935909Y-81841461D01*
X104810883Y-81689117D01*
X104810882Y-81689116D01*
X104658538Y-81564090D01*
X104658533Y-81564087D01*
X104484730Y-81471187D01*
X104296131Y-81413975D01*
X104296133Y-81413975D01*
X104100000Y-81394659D01*
X103903867Y-81413975D01*
X103715269Y-81471187D01*
X103541466Y-81564087D01*
X103541461Y-81564090D01*
X103389117Y-81689116D01*
X103389116Y-81689117D01*
X103264090Y-81841461D01*
X103264087Y-81841466D01*
X103171187Y-82015269D01*
X103113975Y-82203867D01*
X103094659Y-82400000D01*
X103113975Y-82596132D01*
X103171186Y-82784728D01*
X103232173Y-82898826D01*
X103236974Y-82947573D01*
X103220985Y-82974250D01*
X102964482Y-83230755D01*
X102919227Y-83249500D01*
X102280846Y-83249500D01*
X102235591Y-83230755D01*
X102216846Y-83185500D01*
X102235591Y-83140245D01*
X102240245Y-83136027D01*
X102270883Y-83110883D01*
X102395910Y-82958538D01*
X102488814Y-82784727D01*
X102546024Y-82596132D01*
X102565341Y-82400000D01*
X102546024Y-82203868D01*
X102488814Y-82015273D01*
X102427825Y-81901171D01*
X102423025Y-81852425D01*
X102439014Y-81825748D01*
X102585609Y-81679153D01*
X102982692Y-81282071D01*
X102993698Y-81255500D01*
X103015500Y-81202866D01*
X103015500Y-80162952D01*
X103034245Y-80117697D01*
X103079500Y-80098952D01*
X103124755Y-80117697D01*
X103140744Y-80144374D01*
X103171186Y-80244727D01*
X103171187Y-80244729D01*
X103171186Y-80244729D01*
X103264087Y-80418533D01*
X103264090Y-80418538D01*
X103389117Y-80570883D01*
X103541462Y-80695910D01*
X103715273Y-80788814D01*
X103903868Y-80846024D01*
X103903866Y-80846024D01*
X103936142Y-80849202D01*
X104100000Y-80865341D01*
X104296132Y-80846024D01*
X104484727Y-80788814D01*
X104658538Y-80695910D01*
X104810883Y-80570883D01*
X104935910Y-80418538D01*
X105028814Y-80244727D01*
X105086024Y-80056132D01*
X105105341Y-79860000D01*
X105086024Y-79663868D01*
X105082095Y-79650917D01*
X105062730Y-79587080D01*
X105028814Y-79475273D01*
X104935910Y-79301462D01*
X104810883Y-79149117D01*
X104806384Y-79145425D01*
X104658538Y-79024090D01*
X104658533Y-79024087D01*
X104484730Y-78931187D01*
X104296131Y-78873975D01*
X104296133Y-78873975D01*
X104116137Y-78856248D01*
X104100000Y-78854659D01*
X104099999Y-78854659D01*
X104076960Y-78856928D01*
X104060554Y-78858543D01*
X104013681Y-78844325D01*
X103990590Y-78801125D01*
X104004809Y-78754251D01*
X104009027Y-78749597D01*
X104478125Y-78280500D01*
X106124381Y-76634245D01*
X106169636Y-76615500D01*
X106962529Y-76615500D01*
X107007784Y-76634245D01*
G37*
%TD.AperFunction*%
%TA.AperFunction,Conductor*%
G36*
X110370755Y-34119245D02*
G01*
X110389500Y-34164500D01*
X110389500Y-36195705D01*
X110370755Y-36240960D01*
X110336615Y-36258732D01*
X110278093Y-36269052D01*
X110278088Y-36269053D01*
X110080702Y-36340896D01*
X109990035Y-36393243D01*
X109898777Y-36445931D01*
X109898776Y-36445932D01*
X109898769Y-36445936D01*
X109737861Y-36580954D01*
X109737854Y-36580961D01*
X109602836Y-36741869D01*
X109602832Y-36741875D01*
X109602831Y-36741877D01*
X109602815Y-36741905D01*
X109497796Y-36923802D01*
X109425954Y-37121186D01*
X109425953Y-37121190D01*
X109425952Y-37121194D01*
X109389475Y-37328068D01*
X109389475Y-37538132D01*
X109425952Y-37745006D01*
X109425953Y-37745010D01*
X109425954Y-37745013D01*
X109497796Y-37942397D01*
X109497799Y-37942402D01*
X109602831Y-38124323D01*
X109602834Y-38124326D01*
X109602836Y-38124330D01*
X109737854Y-38285238D01*
X109737861Y-38285245D01*
X109898769Y-38420263D01*
X109898771Y-38420264D01*
X109898777Y-38420269D01*
X110080698Y-38525301D01*
X110080699Y-38525301D01*
X110080702Y-38525303D01*
X110212295Y-38573199D01*
X110278094Y-38597148D01*
X110334822Y-38607150D01*
X110336664Y-38607475D01*
X110377976Y-38633794D01*
X110389551Y-38670489D01*
X110391360Y-46880289D01*
X110372625Y-46925548D01*
X110345939Y-46941547D01*
X110215269Y-46981187D01*
X110041466Y-47074087D01*
X110041461Y-47074090D01*
X109889117Y-47199116D01*
X109889116Y-47199117D01*
X109764090Y-47351461D01*
X109764087Y-47351466D01*
X109671187Y-47525269D01*
X109613975Y-47713867D01*
X109594659Y-47910000D01*
X109613975Y-48106132D01*
X109671187Y-48294730D01*
X109764087Y-48468533D01*
X109764090Y-48468538D01*
X109889117Y-48620883D01*
X110041462Y-48745910D01*
X110041466Y-48745912D01*
X110215270Y-48838813D01*
X110215272Y-48838813D01*
X110215273Y-48838814D01*
X110346392Y-48878588D01*
X110384257Y-48909662D01*
X110391814Y-48939818D01*
X110391924Y-49441541D01*
X110373189Y-49486800D01*
X110346503Y-49502799D01*
X110223152Y-49540218D01*
X110052911Y-49631214D01*
X110052906Y-49631217D01*
X109903682Y-49753681D01*
X109903681Y-49753682D01*
X109781217Y-49902906D01*
X109781214Y-49902911D01*
X109690217Y-50073155D01*
X109690214Y-50073160D01*
X109634181Y-50257881D01*
X109634179Y-50257889D01*
X109630031Y-50299999D01*
X109630032Y-50300000D01*
X110122555Y-50300000D01*
X110100000Y-50384174D01*
X110100000Y-50515826D01*
X110122555Y-50600000D01*
X109630032Y-50600000D01*
X109634179Y-50642110D01*
X109634181Y-50642118D01*
X109690214Y-50826839D01*
X109690217Y-50826844D01*
X109781214Y-50997088D01*
X109781217Y-50997093D01*
X109903681Y-51146317D01*
X109903682Y-51146318D01*
X110052906Y-51268782D01*
X110052910Y-51268785D01*
X110223160Y-51359784D01*
X110346946Y-51397334D01*
X110384811Y-51428408D01*
X110392368Y-51458564D01*
X110392479Y-51959951D01*
X110373744Y-52005210D01*
X110347058Y-52021209D01*
X110215269Y-52061187D01*
X110041466Y-52154087D01*
X110041461Y-52154090D01*
X109889117Y-52279116D01*
X109889116Y-52279117D01*
X109764090Y-52431461D01*
X109764087Y-52431466D01*
X109671187Y-52605269D01*
X109613975Y-52793867D01*
X109594659Y-52990000D01*
X109613975Y-53186132D01*
X109671187Y-53374730D01*
X109764087Y-53548533D01*
X109764090Y-53548538D01*
X109889117Y-53700883D01*
X110041462Y-53825910D01*
X110041466Y-53825912D01*
X110215270Y-53918813D01*
X110215272Y-53918813D01*
X110215273Y-53918814D01*
X110347511Y-53958928D01*
X110385376Y-53990003D01*
X110392933Y-54020158D01*
X110393039Y-54499780D01*
X110374304Y-54545039D01*
X110347618Y-54561038D01*
X110215269Y-54601187D01*
X110041466Y-54694087D01*
X110041461Y-54694090D01*
X109889117Y-54819116D01*
X109889116Y-54819117D01*
X109764090Y-54971461D01*
X109764087Y-54971466D01*
X109671187Y-55145269D01*
X109613975Y-55333867D01*
X109594659Y-55530000D01*
X109613975Y-55726132D01*
X109671187Y-55914730D01*
X109685320Y-55941171D01*
X109690121Y-55989919D01*
X109659046Y-56027783D01*
X109628877Y-56035340D01*
X109621068Y-56035340D01*
X109496771Y-56071836D01*
X109496770Y-56071836D01*
X109454100Y-56099258D01*
X109405895Y-56107954D01*
X109365659Y-56080017D01*
X109355500Y-56045417D01*
X109355500Y-40629312D01*
X109355401Y-40623747D01*
X109355312Y-40621291D01*
X109355085Y-40614911D01*
X109345380Y-40566120D01*
X109345378Y-40566113D01*
X109320976Y-40500691D01*
X109320963Y-40500656D01*
X109318213Y-40493787D01*
X109272236Y-40435322D01*
X109268457Y-40430516D01*
X109212518Y-40388639D01*
X109210218Y-40387002D01*
X109206492Y-40384348D01*
X109206488Y-40384346D01*
X109206487Y-40384346D01*
X109185652Y-40377135D01*
X109149017Y-40344620D01*
X109146104Y-40295723D01*
X109147456Y-40292163D01*
X109175790Y-40223760D01*
X109175790Y-40223759D01*
X109200000Y-40102052D01*
X109200000Y-39640000D01*
X108870000Y-39640000D01*
X108870000Y-39340000D01*
X109200000Y-39340000D01*
X109200000Y-38877947D01*
X109175790Y-38756240D01*
X109175789Y-38756238D01*
X109128298Y-38641582D01*
X109059353Y-38538399D01*
X108971600Y-38450646D01*
X108868417Y-38381701D01*
X108753760Y-38334209D01*
X108720000Y-38327493D01*
X108720000Y-38680191D01*
X108685796Y-38660444D01*
X108609496Y-38640000D01*
X108530504Y-38640000D01*
X108454204Y-38660444D01*
X108420000Y-38680191D01*
X108420000Y-38327494D01*
X108412328Y-38321199D01*
X108383944Y-38315553D01*
X108356730Y-38274825D01*
X108355500Y-38262339D01*
X108355500Y-38124009D01*
X108355500Y-38124002D01*
X108355500Y-38124000D01*
X108351946Y-38090945D01*
X108340740Y-38039434D01*
X108306313Y-37970658D01*
X108260558Y-37917854D01*
X108255580Y-37912379D01*
X108213684Y-37886840D01*
X108186849Y-37870483D01*
X108157014Y-37861723D01*
X108119811Y-37850799D01*
X108076000Y-37844500D01*
X100424000Y-37844500D01*
X100423993Y-37844500D01*
X100390947Y-37848053D01*
X100390936Y-37848055D01*
X100339435Y-37859259D01*
X100339432Y-37859260D01*
X100270658Y-37893686D01*
X100217866Y-37939431D01*
X100212379Y-37944420D01*
X100170483Y-38013150D01*
X100155266Y-38064972D01*
X100150876Y-38079929D01*
X100150799Y-38080190D01*
X100144500Y-38124002D01*
X100144500Y-38262339D01*
X100125755Y-38307594D01*
X100082333Y-38325579D01*
X100080000Y-38327494D01*
X100080000Y-38680191D01*
X100045796Y-38660444D01*
X99969496Y-38640000D01*
X99890504Y-38640000D01*
X99814204Y-38660444D01*
X99780000Y-38680191D01*
X99780000Y-38327494D01*
X99779999Y-38327493D01*
X99746239Y-38334209D01*
X99631582Y-38381701D01*
X99528399Y-38450646D01*
X99440646Y-38538399D01*
X99371701Y-38641582D01*
X99324210Y-38756238D01*
X99324209Y-38756240D01*
X99300000Y-38877947D01*
X99300000Y-39340000D01*
X99630000Y-39340000D01*
X99630000Y-39640000D01*
X99300000Y-39640000D01*
X99300000Y-40102052D01*
X99324209Y-40223759D01*
X99324210Y-40223761D01*
X99371701Y-40338417D01*
X99440646Y-40441600D01*
X99528399Y-40529353D01*
X99631582Y-40598298D01*
X99746233Y-40645787D01*
X99746243Y-40645790D01*
X99779999Y-40652505D01*
X99780000Y-40652505D01*
X99780000Y-40299808D01*
X99814204Y-40319556D01*
X99890504Y-40340000D01*
X99969496Y-40340000D01*
X100045796Y-40319556D01*
X100080000Y-40299808D01*
X100080000Y-40652505D01*
X100087668Y-40658798D01*
X100116054Y-40664443D01*
X100143270Y-40705170D01*
X100144500Y-40717659D01*
X100144500Y-41676006D01*
X100148053Y-41709052D01*
X100148055Y-41709063D01*
X100159259Y-41760564D01*
X100159260Y-41760567D01*
X100193686Y-41829341D01*
X100199106Y-41835596D01*
X100239442Y-41882146D01*
X100244420Y-41887621D01*
X100313150Y-41929516D01*
X100380189Y-41949201D01*
X100424000Y-41955500D01*
X100735227Y-41955500D01*
X100780482Y-41974245D01*
X100799227Y-42019500D01*
X100780482Y-42064755D01*
X98717308Y-44127928D01*
X98684500Y-44207133D01*
X98684500Y-44968035D01*
X98665755Y-45013290D01*
X98655101Y-45021875D01*
X98601951Y-45056032D01*
X98601949Y-45056034D01*
X98517118Y-45153936D01*
X98517116Y-45153939D01*
X98463303Y-45271771D01*
X98444867Y-45400000D01*
X98463303Y-45528228D01*
X98517116Y-45646060D01*
X98517118Y-45646063D01*
X98601951Y-45743967D01*
X98710931Y-45814004D01*
X98835228Y-45850500D01*
X98835229Y-45850500D01*
X98964771Y-45850500D01*
X98964772Y-45850500D01*
X99089069Y-45814004D01*
X99198049Y-45743967D01*
X99282882Y-45646063D01*
X99336697Y-45528226D01*
X99355133Y-45400000D01*
X99336697Y-45271774D01*
X99335839Y-45269896D01*
X99282883Y-45153939D01*
X99282881Y-45153936D01*
X99198050Y-45056034D01*
X99198048Y-45056032D01*
X99144899Y-45021875D01*
X99116962Y-44981639D01*
X99115500Y-44968035D01*
X99115500Y-44365773D01*
X99134245Y-44320518D01*
X100925245Y-42529518D01*
X100970500Y-42510773D01*
X101015755Y-42529518D01*
X101034500Y-42574773D01*
X101034500Y-43482751D01*
X101015755Y-43528006D01*
X100997087Y-43540967D01*
X100956093Y-43559688D01*
X100956083Y-43559693D01*
X100835144Y-43637416D01*
X100835132Y-43637424D01*
X100801685Y-43666406D01*
X100801679Y-43666412D01*
X100707528Y-43775069D01*
X100707522Y-43775077D01*
X100683600Y-43812303D01*
X100683596Y-43812309D01*
X100623871Y-43943088D01*
X100611404Y-43985550D01*
X100611403Y-43985555D01*
X100596090Y-44092058D01*
X100590941Y-44127871D01*
X100590941Y-44172128D01*
X100593849Y-44192354D01*
X100594500Y-44201462D01*
X100594500Y-44598536D01*
X100593849Y-44607643D01*
X100590941Y-44627871D01*
X100590941Y-44672128D01*
X100611404Y-44814449D01*
X100623871Y-44856911D01*
X100683596Y-44987690D01*
X100683598Y-44987693D01*
X100683600Y-44987697D01*
X100693423Y-45002982D01*
X100707522Y-45024922D01*
X100707528Y-45024930D01*
X100801682Y-45133591D01*
X100835133Y-45162576D01*
X100835144Y-45162583D01*
X100956083Y-45240306D01*
X100956084Y-45240306D01*
X100956087Y-45240308D01*
X100996347Y-45258694D01*
X100996350Y-45258694D01*
X100997086Y-45259031D01*
X101030465Y-45294882D01*
X101034500Y-45317248D01*
X101034500Y-46582751D01*
X101015755Y-46628006D01*
X100997087Y-46640967D01*
X100956093Y-46659688D01*
X100956083Y-46659693D01*
X100835144Y-46737416D01*
X100835132Y-46737424D01*
X100801685Y-46766406D01*
X100801679Y-46766412D01*
X100707528Y-46875069D01*
X100707522Y-46875077D01*
X100683600Y-46912303D01*
X100683596Y-46912309D01*
X100623871Y-47043088D01*
X100614465Y-47075126D01*
X100611403Y-47085555D01*
X100602902Y-47144679D01*
X100590941Y-47227871D01*
X100590941Y-47272128D01*
X100593849Y-47292354D01*
X100594500Y-47301462D01*
X100594500Y-47698536D01*
X100593849Y-47707643D01*
X100590941Y-47727870D01*
X100590941Y-47772130D01*
X100609954Y-47904368D01*
X100611404Y-47914449D01*
X100623871Y-47956911D01*
X100683596Y-48087690D01*
X100683598Y-48087693D01*
X100683600Y-48087697D01*
X100693839Y-48103630D01*
X100707522Y-48124922D01*
X100707528Y-48124930D01*
X100801682Y-48233591D01*
X100835133Y-48262576D01*
X100835144Y-48262583D01*
X100956083Y-48340306D01*
X100956084Y-48340306D01*
X100956087Y-48340308D01*
X100996347Y-48358694D01*
X100996350Y-48358694D01*
X100997086Y-48359031D01*
X101030465Y-48394882D01*
X101034500Y-48417248D01*
X101034500Y-49682751D01*
X101015755Y-49728006D01*
X100997087Y-49740967D01*
X100956093Y-49759688D01*
X100956083Y-49759693D01*
X100835144Y-49837416D01*
X100835132Y-49837424D01*
X100801685Y-49866406D01*
X100801679Y-49866412D01*
X100707528Y-49975069D01*
X100707522Y-49975077D01*
X100683600Y-50012303D01*
X100683596Y-50012309D01*
X100623871Y-50143088D01*
X100611404Y-50185550D01*
X100590941Y-50327871D01*
X100590941Y-50372128D01*
X100593849Y-50392354D01*
X100594500Y-50401462D01*
X100594500Y-50798536D01*
X100593849Y-50807643D01*
X100590941Y-50827870D01*
X100590941Y-50872130D01*
X100608908Y-50997093D01*
X100611404Y-51014449D01*
X100623871Y-51056911D01*
X100683596Y-51187690D01*
X100683598Y-51187693D01*
X100683600Y-51187697D01*
X100685371Y-51190452D01*
X100707522Y-51224922D01*
X100707528Y-51224930D01*
X100801682Y-51333591D01*
X100835133Y-51362576D01*
X100835144Y-51362583D01*
X100956083Y-51440306D01*
X100956084Y-51440306D01*
X100956087Y-51440308D01*
X100996347Y-51458694D01*
X101134302Y-51499201D01*
X101134307Y-51499201D01*
X101134308Y-51499202D01*
X101178104Y-51505499D01*
X101178109Y-51505500D01*
X101178111Y-51505500D01*
X101749997Y-51505500D01*
X101750000Y-51505500D01*
X101785618Y-51495956D01*
X101827748Y-51484668D01*
X101827748Y-51484667D01*
X101827750Y-51484667D01*
X101854745Y-51457672D01*
X101900000Y-51438927D01*
X101945255Y-51457672D01*
X101972251Y-51484668D01*
X102026495Y-51499202D01*
X102050000Y-51505500D01*
X102050003Y-51505500D01*
X102621891Y-51505500D01*
X102621893Y-51505499D01*
X102665698Y-51499201D01*
X102803653Y-51458694D01*
X102843913Y-51440308D01*
X102964867Y-51362576D01*
X102998318Y-51333591D01*
X103092472Y-51224930D01*
X103116400Y-51187697D01*
X103127283Y-51163865D01*
X103163134Y-51130487D01*
X103212086Y-51132235D01*
X103245465Y-51168086D01*
X103249500Y-51190452D01*
X103249500Y-53950456D01*
X103230755Y-53995711D01*
X103227411Y-53998824D01*
X103166412Y-54051679D01*
X103166406Y-54051685D01*
X103137424Y-54085132D01*
X103137416Y-54085144D01*
X103059693Y-54206083D01*
X103059692Y-54206087D01*
X103041305Y-54246349D01*
X103000800Y-54384298D01*
X103000797Y-54384308D01*
X102994500Y-54428104D01*
X102994500Y-54999997D01*
X102994501Y-55000006D01*
X103015331Y-55077748D01*
X103042328Y-55104745D01*
X103061073Y-55150000D01*
X103042328Y-55195255D01*
X103015331Y-55222251D01*
X102994501Y-55299993D01*
X102994500Y-55300002D01*
X102994500Y-55871895D01*
X103000797Y-55915691D01*
X103000798Y-55915697D01*
X103000799Y-55915698D01*
X103041306Y-56053653D01*
X103057237Y-56088538D01*
X103059692Y-56093912D01*
X103059693Y-56093916D01*
X103133138Y-56208198D01*
X103137424Y-56214867D01*
X103166409Y-56248318D01*
X103275069Y-56342471D01*
X103275077Y-56342477D01*
X103287508Y-56350465D01*
X103312303Y-56366400D01*
X103312307Y-56366402D01*
X103312309Y-56366403D01*
X103407199Y-56409738D01*
X103443088Y-56426128D01*
X103485555Y-56438597D01*
X103627870Y-56459059D01*
X103627872Y-56459059D01*
X103672129Y-56459059D01*
X103672130Y-56459059D01*
X103682684Y-56457541D01*
X103692357Y-56456151D01*
X103701464Y-56455500D01*
X104098536Y-56455500D01*
X104107643Y-56456151D01*
X104117315Y-56457541D01*
X104127870Y-56459059D01*
X104127871Y-56459059D01*
X104172128Y-56459059D01*
X104172130Y-56459059D01*
X104227131Y-56451150D01*
X104236239Y-56450500D01*
X106680500Y-56450500D01*
X106725755Y-56469245D01*
X106744500Y-56514500D01*
X106744500Y-59064450D01*
X106748053Y-59097496D01*
X106748055Y-59097507D01*
X106759258Y-59149003D01*
X106759263Y-59149022D01*
X106769755Y-59180543D01*
X106769759Y-59180554D01*
X106769763Y-59180564D01*
X106769764Y-59180565D01*
X106782137Y-59207658D01*
X106787270Y-59225137D01*
X106796724Y-59290891D01*
X106796723Y-59309108D01*
X106787269Y-59374858D01*
X106782138Y-59392333D01*
X106769768Y-59419420D01*
X106769756Y-59419450D01*
X106759263Y-59450975D01*
X106759258Y-59450994D01*
X106748055Y-59502490D01*
X106748053Y-59502501D01*
X106744500Y-59535547D01*
X106744500Y-61072610D01*
X106725755Y-61117865D01*
X106680500Y-61136610D01*
X106662473Y-61134018D01*
X106617675Y-61120865D01*
X106488131Y-61120865D01*
X106363834Y-61157361D01*
X106363833Y-61157361D01*
X106284425Y-61208393D01*
X106236220Y-61217089D01*
X106204570Y-61199807D01*
X103511976Y-58507213D01*
X104126630Y-58507213D01*
X104145066Y-58635441D01*
X104198879Y-58753273D01*
X104198881Y-58753276D01*
X104283714Y-58851180D01*
X104392694Y-58921217D01*
X104516991Y-58957713D01*
X104516992Y-58957713D01*
X104646534Y-58957713D01*
X104646535Y-58957713D01*
X104770832Y-58921217D01*
X104879812Y-58851180D01*
X104964645Y-58753276D01*
X105018460Y-58635439D01*
X105034457Y-58524174D01*
X105059451Y-58482051D01*
X105097805Y-58469285D01*
X105215693Y-58469285D01*
X105215694Y-58469285D01*
X105339991Y-58432789D01*
X105448971Y-58362752D01*
X105533804Y-58264848D01*
X105587619Y-58147011D01*
X105606055Y-58018785D01*
X105587619Y-57890559D01*
X105580772Y-57875567D01*
X105533805Y-57772724D01*
X105533803Y-57772721D01*
X105448972Y-57674819D01*
X105448970Y-57674817D01*
X105339991Y-57604781D01*
X105215694Y-57568285D01*
X105086150Y-57568285D01*
X104961853Y-57604781D01*
X104961851Y-57604781D01*
X104852873Y-57674817D01*
X104852871Y-57674819D01*
X104768040Y-57772721D01*
X104768038Y-57772724D01*
X104714225Y-57890556D01*
X104714225Y-57890559D01*
X104698227Y-58001823D01*
X104673234Y-58043947D01*
X104634880Y-58056713D01*
X104516991Y-58056713D01*
X104392694Y-58093209D01*
X104392692Y-58093209D01*
X104283714Y-58163245D01*
X104283712Y-58163247D01*
X104198881Y-58261149D01*
X104198879Y-58261152D01*
X104145066Y-58378984D01*
X104126630Y-58507213D01*
X103511976Y-58507213D01*
X100134245Y-55129482D01*
X100115500Y-55084227D01*
X100115500Y-51557136D01*
X100115500Y-51557134D01*
X100082692Y-51477929D01*
X100022071Y-51417308D01*
X99234245Y-50629482D01*
X99215500Y-50584227D01*
X99215500Y-48711238D01*
X99215500Y-48711236D01*
X99182692Y-48632031D01*
X99122071Y-48571410D01*
X98859795Y-48309134D01*
X98841050Y-48263879D01*
X98843804Y-48245306D01*
X98886024Y-48106132D01*
X98905341Y-47910000D01*
X98886024Y-47713868D01*
X98882762Y-47703116D01*
X98870101Y-47661377D01*
X98828814Y-47525273D01*
X98735910Y-47351462D01*
X98610883Y-47199117D01*
X98544550Y-47144679D01*
X98458538Y-47074090D01*
X98458533Y-47074087D01*
X98284730Y-46981187D01*
X98136857Y-46936329D01*
X98098993Y-46905254D01*
X98091436Y-46875094D01*
X98090525Y-38670443D01*
X98109265Y-38625189D01*
X98143413Y-38607411D01*
X98201893Y-38597100D01*
X98399152Y-38525303D01*
X98399276Y-38525258D01*
X98399276Y-38525257D01*
X98399281Y-38525256D01*
X98581195Y-38420228D01*
X98742107Y-38285207D01*
X98877128Y-38124295D01*
X98982156Y-37942381D01*
X99054000Y-37744993D01*
X99090475Y-37538128D01*
X99090475Y-37328072D01*
X99054000Y-37121207D01*
X99022018Y-37033338D01*
X98982158Y-36923823D01*
X98967334Y-36898147D01*
X98877128Y-36741905D01*
X98877123Y-36741899D01*
X98877122Y-36741897D01*
X98742110Y-36580996D01*
X98742103Y-36580989D01*
X98581202Y-36445977D01*
X98581198Y-36445975D01*
X98581195Y-36445972D01*
X98399281Y-36340944D01*
X98399276Y-36340941D01*
X98201895Y-36269100D01*
X98143385Y-36258782D01*
X98102073Y-36232463D01*
X98090500Y-36195755D01*
X98090500Y-34827947D01*
X99300000Y-34827947D01*
X99300000Y-35140000D01*
X99630000Y-35140000D01*
X99630000Y-35440000D01*
X99300000Y-35440000D01*
X99300000Y-35752052D01*
X99324209Y-35873759D01*
X99324210Y-35873761D01*
X99371701Y-35988417D01*
X99440646Y-36091600D01*
X99528399Y-36179353D01*
X99631582Y-36248298D01*
X99746233Y-36295787D01*
X99746243Y-36295790D01*
X99779999Y-36302505D01*
X99780000Y-36302505D01*
X99780000Y-35949808D01*
X99814204Y-35969556D01*
X99890504Y-35990000D01*
X99969496Y-35990000D01*
X100045796Y-35969556D01*
X100080000Y-35949808D01*
X100080000Y-36302505D01*
X100113756Y-36295790D01*
X100113766Y-36295787D01*
X100228417Y-36248298D01*
X100331600Y-36179353D01*
X100419353Y-36091600D01*
X100488298Y-35988417D01*
X100535789Y-35873761D01*
X100535790Y-35873759D01*
X100560000Y-35752052D01*
X100560000Y-35440000D01*
X100230000Y-35440000D01*
X100230000Y-35140000D01*
X100560000Y-35140000D01*
X100560000Y-34827947D01*
X107940000Y-34827947D01*
X107940000Y-35140000D01*
X108270000Y-35140000D01*
X108270000Y-35440000D01*
X107940000Y-35440000D01*
X107940000Y-35752052D01*
X107964209Y-35873759D01*
X107964210Y-35873761D01*
X108011701Y-35988417D01*
X108080646Y-36091600D01*
X108168399Y-36179353D01*
X108271582Y-36248298D01*
X108386233Y-36295787D01*
X108386243Y-36295790D01*
X108419999Y-36302505D01*
X108420000Y-36302505D01*
X108420000Y-35949808D01*
X108454204Y-35969556D01*
X108530504Y-35990000D01*
X108609496Y-35990000D01*
X108685796Y-35969556D01*
X108720000Y-35949808D01*
X108720000Y-36302505D01*
X108753756Y-36295790D01*
X108753766Y-36295787D01*
X108868417Y-36248298D01*
X108971600Y-36179353D01*
X109059353Y-36091600D01*
X109128298Y-35988417D01*
X109175789Y-35873761D01*
X109175790Y-35873759D01*
X109200000Y-35752052D01*
X109200000Y-35440000D01*
X108870000Y-35440000D01*
X108870000Y-35140000D01*
X109200000Y-35140000D01*
X109200000Y-34827947D01*
X109175790Y-34706240D01*
X109175789Y-34706238D01*
X109128298Y-34591582D01*
X109059353Y-34488399D01*
X108971600Y-34400646D01*
X108868417Y-34331701D01*
X108753760Y-34284209D01*
X108720000Y-34277493D01*
X108720000Y-34630191D01*
X108685796Y-34610444D01*
X108609496Y-34590000D01*
X108530504Y-34590000D01*
X108454204Y-34610444D01*
X108420000Y-34630191D01*
X108420000Y-34277494D01*
X108419999Y-34277493D01*
X108386239Y-34284209D01*
X108271582Y-34331701D01*
X108168399Y-34400646D01*
X108080646Y-34488399D01*
X108011701Y-34591582D01*
X107964210Y-34706238D01*
X107964209Y-34706240D01*
X107940000Y-34827947D01*
X100560000Y-34827947D01*
X100535790Y-34706240D01*
X100535789Y-34706238D01*
X100488298Y-34591582D01*
X100419353Y-34488399D01*
X100331600Y-34400646D01*
X100228417Y-34331701D01*
X100113760Y-34284209D01*
X100080000Y-34277493D01*
X100080000Y-34630191D01*
X100045796Y-34610444D01*
X99969496Y-34590000D01*
X99890504Y-34590000D01*
X99814204Y-34610444D01*
X99780000Y-34630191D01*
X99780000Y-34277494D01*
X99779999Y-34277493D01*
X99746239Y-34284209D01*
X99631582Y-34331701D01*
X99528399Y-34400646D01*
X99440646Y-34488399D01*
X99371701Y-34591582D01*
X99324210Y-34706238D01*
X99324209Y-34706240D01*
X99300000Y-34827947D01*
X98090500Y-34827947D01*
X98090500Y-34164500D01*
X98109245Y-34119245D01*
X98154500Y-34100500D01*
X110325500Y-34100500D01*
X110370755Y-34119245D01*
G37*
%TD.AperFunction*%
%TA.AperFunction,Conductor*%
G36*
X106256909Y-45762568D02*
G01*
X106260022Y-45765912D01*
X106333318Y-45850500D01*
X106343534Y-45862290D01*
X106452514Y-45932327D01*
X106576811Y-45968823D01*
X106576812Y-45968823D01*
X106680500Y-45968823D01*
X106725755Y-45987568D01*
X106744500Y-46032823D01*
X106744500Y-46989369D01*
X106725755Y-47034624D01*
X106680500Y-47053369D01*
X106662470Y-47050777D01*
X106652361Y-47047809D01*
X106619448Y-47038145D01*
X106489904Y-47038145D01*
X106365607Y-47074641D01*
X106365605Y-47074641D01*
X106256627Y-47144677D01*
X106256625Y-47144679D01*
X106171794Y-47242581D01*
X106171792Y-47242584D01*
X106117979Y-47360416D01*
X106099543Y-47488645D01*
X106117979Y-47616873D01*
X106155942Y-47700000D01*
X104600000Y-47700000D01*
X104600000Y-50000000D01*
X106700000Y-50000000D01*
X106700000Y-49885325D01*
X106716055Y-49888519D01*
X106743270Y-49929247D01*
X106744500Y-49941734D01*
X106744500Y-55085500D01*
X106725755Y-55130755D01*
X106680500Y-55149500D01*
X104848848Y-55149500D01*
X104803593Y-55130755D01*
X104784848Y-55085500D01*
X104787029Y-55068935D01*
X104805499Y-55000004D01*
X104805500Y-54999997D01*
X104805500Y-54428109D01*
X104805499Y-54428104D01*
X104799202Y-54384308D01*
X104799201Y-54384307D01*
X104799201Y-54384302D01*
X104758694Y-54246347D01*
X104740308Y-54206087D01*
X104740306Y-54206084D01*
X104740306Y-54206083D01*
X104662583Y-54085144D01*
X104662575Y-54085132D01*
X104633591Y-54051682D01*
X104572589Y-53998824D01*
X104550663Y-53955022D01*
X104550500Y-53950456D01*
X104550500Y-53800000D01*
X105169867Y-53800000D01*
X105188303Y-53928228D01*
X105242116Y-54046060D01*
X105242118Y-54046063D01*
X105326951Y-54143967D01*
X105435931Y-54214004D01*
X105560228Y-54250500D01*
X105560229Y-54250500D01*
X105689771Y-54250500D01*
X105689772Y-54250500D01*
X105814069Y-54214004D01*
X105923049Y-54143967D01*
X106007882Y-54046063D01*
X106061697Y-53928226D01*
X106080133Y-53800000D01*
X106061697Y-53671774D01*
X106007882Y-53553937D01*
X105923049Y-53456033D01*
X105923048Y-53456032D01*
X105814069Y-53385996D01*
X105689772Y-53349500D01*
X105560228Y-53349500D01*
X105435931Y-53385996D01*
X105435929Y-53385996D01*
X105326951Y-53456032D01*
X105326949Y-53456034D01*
X105242118Y-53553936D01*
X105242116Y-53553939D01*
X105188303Y-53671771D01*
X105169867Y-53800000D01*
X104550500Y-53800000D01*
X104550500Y-49836851D01*
X104525502Y-49711183D01*
X104525501Y-49711181D01*
X104525501Y-49711179D01*
X104476465Y-49592796D01*
X104476465Y-49592795D01*
X104405276Y-49486254D01*
X104314668Y-49395646D01*
X104208127Y-49324457D01*
X104112857Y-49284996D01*
X104089744Y-49275422D01*
X104089742Y-49275421D01*
X104089741Y-49275421D01*
X104089739Y-49275420D01*
X103964072Y-49250423D01*
X103964069Y-49250423D01*
X103835931Y-49250423D01*
X103835928Y-49250423D01*
X103710260Y-49275420D01*
X103710258Y-49275421D01*
X103591872Y-49324457D01*
X103485331Y-49395646D01*
X103394723Y-49486254D01*
X103323534Y-49592795D01*
X103274498Y-49711181D01*
X103274497Y-49711183D01*
X103249500Y-49836851D01*
X103249500Y-50009547D01*
X103230755Y-50054802D01*
X103185500Y-50073547D01*
X103140245Y-50054802D01*
X103127284Y-50036134D01*
X103116403Y-50012309D01*
X103116402Y-50012307D01*
X103116400Y-50012303D01*
X103098259Y-49984075D01*
X103092477Y-49975077D01*
X103092471Y-49975069D01*
X103070749Y-49950000D01*
X102998318Y-49866409D01*
X102964867Y-49837424D01*
X102964855Y-49837416D01*
X102843916Y-49759693D01*
X102843913Y-49759692D01*
X102803653Y-49741306D01*
X102802498Y-49740967D01*
X102716668Y-49715765D01*
X102665698Y-49700799D01*
X102665697Y-49700798D01*
X102665691Y-49700797D01*
X102621895Y-49694500D01*
X102621889Y-49694500D01*
X102439500Y-49694500D01*
X102394245Y-49675755D01*
X102375500Y-49630500D01*
X102375500Y-49569915D01*
X102394245Y-49524660D01*
X106156337Y-45762568D01*
X106201592Y-45743823D01*
X106211654Y-45743823D01*
X106256909Y-45762568D01*
G37*
%TD.AperFunction*%
%TA.AperFunction,Conductor*%
G36*
X103781156Y-41845465D02*
G01*
X103840697Y-41883730D01*
X103964994Y-41920226D01*
X104064141Y-41920226D01*
X104109395Y-41938970D01*
X105933401Y-43762977D01*
X105949268Y-43769549D01*
X105949269Y-43769550D01*
X105949270Y-43769550D01*
X106034660Y-43804920D01*
X106243896Y-43804920D01*
X106289151Y-43823665D01*
X106292262Y-43827007D01*
X106332450Y-43873387D01*
X106441430Y-43943424D01*
X106497538Y-43959898D01*
X106535679Y-43990633D01*
X106540916Y-44039336D01*
X106510181Y-44077477D01*
X106497539Y-44082713D01*
X106465721Y-44092055D01*
X106465714Y-44092058D01*
X106356736Y-44162094D01*
X106356734Y-44162096D01*
X106271903Y-44259998D01*
X106271901Y-44260001D01*
X106218088Y-44377833D01*
X106218088Y-44377836D01*
X106199652Y-44506062D01*
X106214088Y-44606471D01*
X106201975Y-44653932D01*
X106195995Y-44660833D01*
X103601076Y-47255755D01*
X103555821Y-47274500D01*
X103271220Y-47274500D01*
X103225965Y-47255755D01*
X103207871Y-47219608D01*
X103204925Y-47199117D01*
X103188597Y-47085555D01*
X103176128Y-47043088D01*
X103147858Y-46981186D01*
X103116403Y-46912309D01*
X103116402Y-46912307D01*
X103116400Y-46912303D01*
X103095826Y-46880289D01*
X103092477Y-46875077D01*
X103092471Y-46875069D01*
X102998318Y-46766409D01*
X102964867Y-46737424D01*
X102952495Y-46729473D01*
X102843916Y-46659693D01*
X102843913Y-46659692D01*
X102803653Y-46641306D01*
X102802498Y-46640967D01*
X102734675Y-46621052D01*
X102665698Y-46600799D01*
X102665697Y-46600798D01*
X102665691Y-46600797D01*
X102621895Y-46594500D01*
X102621889Y-46594500D01*
X102050000Y-46594500D01*
X102049998Y-46594500D01*
X102049993Y-46594501D01*
X101972251Y-46615331D01*
X101945255Y-46642328D01*
X101900000Y-46661073D01*
X101854745Y-46642328D01*
X101827748Y-46615331D01*
X101750006Y-46594501D01*
X101750002Y-46594500D01*
X101750000Y-46594500D01*
X101749997Y-46594500D01*
X101529500Y-46594500D01*
X101484245Y-46575755D01*
X101465500Y-46530500D01*
X101465500Y-45369500D01*
X101484245Y-45324245D01*
X101529500Y-45305500D01*
X101749997Y-45305500D01*
X101750000Y-45305500D01*
X101789627Y-45294882D01*
X101827748Y-45284668D01*
X101827748Y-45284667D01*
X101827750Y-45284667D01*
X101854745Y-45257672D01*
X101900000Y-45238927D01*
X101945255Y-45257672D01*
X101949046Y-45261463D01*
X101962007Y-45280131D01*
X101992116Y-45346062D01*
X101992118Y-45346064D01*
X102076949Y-45443965D01*
X102076951Y-45443967D01*
X102185931Y-45514004D01*
X102310228Y-45550500D01*
X102310229Y-45550500D01*
X102439771Y-45550500D01*
X102439772Y-45550500D01*
X102564069Y-45514004D01*
X102673049Y-45443967D01*
X102757882Y-45346063D01*
X102786319Y-45283793D01*
X102817948Y-45252165D01*
X102843913Y-45240308D01*
X102964867Y-45162576D01*
X102998318Y-45133591D01*
X103092472Y-45024930D01*
X103116400Y-44987697D01*
X103176128Y-44856912D01*
X103188597Y-44814445D01*
X103209059Y-44672130D01*
X103209059Y-44627870D01*
X103206151Y-44607643D01*
X103205500Y-44598536D01*
X103205500Y-44201462D01*
X103206151Y-44192354D01*
X103209059Y-44172128D01*
X103209059Y-44127871D01*
X103203910Y-44092058D01*
X103188597Y-43985555D01*
X103176128Y-43943088D01*
X103144296Y-43873387D01*
X103116403Y-43812309D01*
X103116402Y-43812307D01*
X103116400Y-43812303D01*
X103100465Y-43787508D01*
X103092477Y-43775077D01*
X103092471Y-43775069D01*
X103081993Y-43762977D01*
X102998318Y-43666409D01*
X102964867Y-43637424D01*
X102952495Y-43629473D01*
X102843916Y-43559693D01*
X102843913Y-43559692D01*
X102803653Y-43541306D01*
X102802498Y-43540967D01*
X102734675Y-43521052D01*
X102665698Y-43500799D01*
X102665697Y-43500798D01*
X102665691Y-43500797D01*
X102621895Y-43494500D01*
X102621889Y-43494500D01*
X102050000Y-43494500D01*
X102049998Y-43494500D01*
X102049993Y-43494501D01*
X101972251Y-43515331D01*
X101945255Y-43542328D01*
X101900000Y-43561073D01*
X101854745Y-43542328D01*
X101827748Y-43515331D01*
X101750006Y-43494501D01*
X101750002Y-43494500D01*
X101750000Y-43494500D01*
X101749997Y-43494500D01*
X101529500Y-43494500D01*
X101484245Y-43475755D01*
X101465500Y-43430500D01*
X101465500Y-42019500D01*
X101484245Y-41974245D01*
X101529500Y-41955500D01*
X103492383Y-41955500D01*
X103492394Y-41955500D01*
X103514524Y-41953917D01*
X103549460Y-41948894D01*
X103611401Y-41925791D01*
X103670179Y-41888016D01*
X103676309Y-41883867D01*
X103697204Y-41858559D01*
X103740470Y-41835596D01*
X103781156Y-41845465D01*
G37*
%TD.AperFunction*%
%TD*%
%TA.AperFunction,Conductor*%
%TO.N,VOUT*%
G36*
X110340006Y-72219685D02*
G01*
X110385761Y-72272489D01*
X110396967Y-72323973D01*
X110397385Y-74222129D01*
X110398555Y-79531791D01*
X110398874Y-80975973D01*
X110379204Y-81043016D01*
X110326410Y-81088783D01*
X110274874Y-81100000D01*
X105924000Y-81100000D01*
X105856961Y-81080315D01*
X105811206Y-81027511D01*
X105800000Y-80976000D01*
X105800000Y-78624000D01*
X105819685Y-78556961D01*
X105872489Y-78511206D01*
X105924000Y-78500000D01*
X107900000Y-78500000D01*
X107900000Y-77710554D01*
X107911206Y-77659042D01*
X107936697Y-77603226D01*
X107955133Y-77475000D01*
X107936697Y-77346774D01*
X107936696Y-77346770D01*
X107911206Y-77290956D01*
X107900000Y-77239444D01*
X107900000Y-72324000D01*
X107919685Y-72256961D01*
X107972489Y-72211206D01*
X108024000Y-72200000D01*
X110272967Y-72200000D01*
X110340006Y-72219685D01*
G37*
%TD.AperFunction*%
%TD*%
%TA.AperFunction,Conductor*%
%TO.N,GND*%
G36*
X106175478Y-47742775D02*
G01*
X106172548Y-47744112D01*
X106187785Y-47795994D01*
X106168104Y-47863034D01*
X106115302Y-47908792D01*
X106063785Y-47920000D01*
X106050000Y-47920000D01*
X106050000Y-49880000D01*
X106662806Y-49880000D01*
X106700000Y-49872601D01*
X106700000Y-50000000D01*
X104600000Y-50000000D01*
X104600000Y-49762806D01*
X104819999Y-49762806D01*
X104827541Y-49800720D01*
X104827542Y-49800722D01*
X104856275Y-49843724D01*
X104899277Y-49872457D01*
X104899279Y-49872458D01*
X104937193Y-49880000D01*
X105550000Y-49880000D01*
X105550000Y-49150000D01*
X104820000Y-49150000D01*
X104820000Y-49762806D01*
X104819999Y-49762806D01*
X104600000Y-49762806D01*
X104600000Y-48037193D01*
X104820000Y-48037193D01*
X104820000Y-48650000D01*
X105550000Y-48650000D01*
X105550000Y-47920000D01*
X104937194Y-47920000D01*
X104899279Y-47927541D01*
X104899277Y-47927542D01*
X104856275Y-47956275D01*
X104827542Y-47999277D01*
X104827541Y-47999279D01*
X104820000Y-48037193D01*
X104600000Y-48037193D01*
X104600000Y-47700000D01*
X106155943Y-47700000D01*
X106175478Y-47742775D01*
G37*
%TD.AperFunction*%
%TD*%
%TA.AperFunction,Conductor*%
%TO.N,VIN*%
G36*
X107993533Y-40348124D02*
G01*
X107993538Y-40348133D01*
X108064723Y-40454668D01*
X108064726Y-40454672D01*
X108155327Y-40545273D01*
X108155331Y-40545276D01*
X108261866Y-40616461D01*
X108261875Y-40616466D01*
X108288692Y-40627574D01*
X108380256Y-40665501D01*
X108380260Y-40665501D01*
X108380261Y-40665502D01*
X108505928Y-40690500D01*
X108505931Y-40690500D01*
X108634071Y-40690500D01*
X108718615Y-40673682D01*
X108759744Y-40665501D01*
X108878127Y-40616465D01*
X108984669Y-40545276D01*
X108984672Y-40545273D01*
X108988319Y-40541627D01*
X109049642Y-40508142D01*
X109119334Y-40513126D01*
X109175267Y-40554998D01*
X109199684Y-40620462D01*
X109200000Y-40629308D01*
X109200000Y-71876000D01*
X109180315Y-71943039D01*
X109127511Y-71988794D01*
X109076000Y-72000000D01*
X107024000Y-72000000D01*
X106956961Y-71980315D01*
X106911206Y-71927511D01*
X106900000Y-71876000D01*
X106900000Y-69478279D01*
X106919685Y-69411240D01*
X106972489Y-69365485D01*
X107041647Y-69355541D01*
X107045811Y-69356447D01*
X107052473Y-69357405D01*
X107052474Y-69357405D01*
X107182019Y-69357405D01*
X107182019Y-69357404D01*
X107306315Y-69320909D01*
X107415295Y-69250872D01*
X107500128Y-69152968D01*
X107553943Y-69035131D01*
X107572379Y-68906905D01*
X107553943Y-68778679D01*
X107500128Y-68660842D01*
X107485966Y-68644498D01*
X107453453Y-68606975D01*
X107424429Y-68543418D01*
X107434373Y-68474260D01*
X107453450Y-68444575D01*
X107489996Y-68402399D01*
X107543811Y-68284562D01*
X107562247Y-68156336D01*
X107543811Y-68028110D01*
X107489996Y-67910273D01*
X107405163Y-67812369D01*
X107296183Y-67742332D01*
X107296179Y-67742330D01*
X107296178Y-67742330D01*
X107171888Y-67705836D01*
X107171886Y-67705836D01*
X107042342Y-67705836D01*
X107042335Y-67705836D01*
X107041632Y-67705937D01*
X107040930Y-67705836D01*
X107033474Y-67705836D01*
X107033474Y-67704763D01*
X106972475Y-67695985D01*
X106919677Y-67650224D01*
X106900000Y-67583197D01*
X106900000Y-66937504D01*
X106919685Y-66870465D01*
X106972489Y-66824710D01*
X107041647Y-66814766D01*
X107058934Y-66818527D01*
X107167826Y-66850499D01*
X107167828Y-66850500D01*
X107167829Y-66850500D01*
X107297374Y-66850500D01*
X107297374Y-66850499D01*
X107421670Y-66814004D01*
X107530650Y-66743967D01*
X107615483Y-66646063D01*
X107669298Y-66528226D01*
X107687734Y-66400000D01*
X107669298Y-66271774D01*
X107615483Y-66153937D01*
X107530650Y-66056033D01*
X107421670Y-65985996D01*
X107421666Y-65985994D01*
X107421665Y-65985994D01*
X107297375Y-65949500D01*
X107297373Y-65949500D01*
X107167829Y-65949500D01*
X107058933Y-65981473D01*
X106989063Y-65981472D01*
X106930286Y-65943696D01*
X106901262Y-65880140D01*
X106900000Y-65862495D01*
X106900000Y-65835554D01*
X106911206Y-65784042D01*
X106936697Y-65728226D01*
X106955133Y-65600000D01*
X106936697Y-65471774D01*
X106936696Y-65471770D01*
X106911206Y-65415956D01*
X106900000Y-65364444D01*
X106900000Y-65073054D01*
X106911206Y-65021542D01*
X106936697Y-64965726D01*
X106955133Y-64837500D01*
X106936697Y-64709274D01*
X106936696Y-64709270D01*
X106911206Y-64653456D01*
X106900000Y-64601944D01*
X106900000Y-64335554D01*
X106911206Y-64284042D01*
X106936697Y-64228226D01*
X106955133Y-64100000D01*
X106936697Y-63971774D01*
X106936696Y-63971770D01*
X106911206Y-63915956D01*
X106900000Y-63864444D01*
X106900000Y-62416109D01*
X106919685Y-62349070D01*
X106972489Y-62303315D01*
X106976530Y-62301555D01*
X107022071Y-62282692D01*
X107217647Y-62087116D01*
X107278970Y-62053631D01*
X107305328Y-62050797D01*
X107367120Y-62050797D01*
X107367120Y-62050796D01*
X107491416Y-62014301D01*
X107600396Y-61944264D01*
X107685229Y-61846360D01*
X107739044Y-61728523D01*
X107757480Y-61600297D01*
X107739044Y-61472071D01*
X107685229Y-61354234D01*
X107600396Y-61256330D01*
X107491416Y-61186293D01*
X107491412Y-61186291D01*
X107491411Y-61186291D01*
X107367121Y-61149797D01*
X107367119Y-61149797D01*
X107237575Y-61149797D01*
X107237573Y-61149797D01*
X107113280Y-61186291D01*
X107091037Y-61200586D01*
X107023997Y-61220269D01*
X106956958Y-61200583D01*
X106911204Y-61147778D01*
X106900000Y-61096269D01*
X106900000Y-59535554D01*
X106911206Y-59484042D01*
X106936697Y-59428226D01*
X106955133Y-59300000D01*
X106936697Y-59171774D01*
X106936696Y-59171770D01*
X106911206Y-59115956D01*
X106900000Y-59064444D01*
X106900000Y-48887963D01*
X106919685Y-48820924D01*
X106930277Y-48806773D01*
X106982882Y-48746063D01*
X107036697Y-48628226D01*
X107055133Y-48500000D01*
X107036697Y-48371774D01*
X106982882Y-48253937D01*
X106982880Y-48253935D01*
X106982879Y-48253932D01*
X106930286Y-48193235D01*
X106901262Y-48129679D01*
X106900000Y-48112034D01*
X106900000Y-45953259D01*
X106919685Y-45886220D01*
X106934275Y-45869383D01*
X106933824Y-45868993D01*
X107024462Y-45764390D01*
X107024462Y-45764388D01*
X107024465Y-45764386D01*
X107078280Y-45646549D01*
X107096716Y-45518323D01*
X107078280Y-45390097D01*
X107024465Y-45272260D01*
X106939632Y-45174356D01*
X106933824Y-45167653D01*
X106935688Y-45166037D01*
X106905021Y-45118314D01*
X106900000Y-45083385D01*
X106900000Y-44951692D01*
X106919685Y-44884653D01*
X106947234Y-44857107D01*
X106946133Y-44855836D01*
X106952831Y-44850031D01*
X106952831Y-44850030D01*
X106952834Y-44850029D01*
X107037667Y-44752125D01*
X107091482Y-44634288D01*
X107109918Y-44506062D01*
X107091482Y-44377836D01*
X107037667Y-44259999D01*
X106952834Y-44162095D01*
X106952833Y-44162094D01*
X106946134Y-44156290D01*
X106947881Y-44154273D01*
X106911198Y-44111925D01*
X106900000Y-44060431D01*
X106900000Y-43952582D01*
X106919685Y-43885543D01*
X106930287Y-43871380D01*
X107013378Y-43775487D01*
X107013378Y-43775485D01*
X107013381Y-43775483D01*
X107067196Y-43657646D01*
X107085632Y-43529420D01*
X107067196Y-43401194D01*
X107013381Y-43283357D01*
X106987874Y-43253920D01*
X106930286Y-43187458D01*
X106901262Y-43123901D01*
X106900000Y-43106256D01*
X106900000Y-42951686D01*
X106919685Y-42884647D01*
X106930286Y-42870484D01*
X107001836Y-42787910D01*
X107055651Y-42670073D01*
X107074087Y-42541847D01*
X107055651Y-42413621D01*
X107001836Y-42295784D01*
X106930285Y-42213209D01*
X106901262Y-42149654D01*
X106900000Y-42132008D01*
X106900000Y-41800000D01*
X106900000Y-40300000D01*
X107973600Y-40300000D01*
X107993533Y-40348124D01*
G37*
%TD.AperFunction*%
%TD*%
%TA.AperFunction,Conductor*%
%TO.N,VIN*%
G36*
X108143039Y-38019685D02*
G01*
X108188794Y-38072489D01*
X108200000Y-38124000D01*
X108200000Y-38339417D01*
X108180315Y-38406456D01*
X108159293Y-38430071D01*
X108159638Y-38430416D01*
X108064726Y-38525327D01*
X108064723Y-38525331D01*
X107993538Y-38631866D01*
X107993533Y-38631875D01*
X107944499Y-38750255D01*
X107944497Y-38750261D01*
X107919500Y-38875928D01*
X107919500Y-38875931D01*
X107919500Y-40104069D01*
X107919500Y-40104071D01*
X107919499Y-40104071D01*
X107944497Y-40229738D01*
X107944499Y-40229744D01*
X107993533Y-40348124D01*
X107993538Y-40348133D01*
X108064723Y-40454668D01*
X108064726Y-40454672D01*
X108155327Y-40545273D01*
X108155331Y-40545276D01*
X108200000Y-40575123D01*
X108200000Y-41800000D01*
X105412147Y-41800000D01*
X105345108Y-41780315D01*
X105299353Y-41727511D01*
X105289409Y-41658353D01*
X105299353Y-41624488D01*
X105301491Y-41619807D01*
X105319927Y-41491581D01*
X105301491Y-41363355D01*
X105247676Y-41245518D01*
X105162843Y-41147614D01*
X105053863Y-41077577D01*
X105053859Y-41077575D01*
X105053858Y-41077575D01*
X104929568Y-41041081D01*
X104929566Y-41041081D01*
X104800022Y-41041081D01*
X104800020Y-41041081D01*
X104675729Y-41077575D01*
X104675726Y-41077576D01*
X104675725Y-41077577D01*
X104621235Y-41112595D01*
X104566741Y-41147616D01*
X104550460Y-41166406D01*
X104491682Y-41204180D01*
X104421812Y-41204180D01*
X104363034Y-41166405D01*
X104363034Y-41166404D01*
X104327817Y-41125760D01*
X104307067Y-41112425D01*
X104218835Y-41055722D01*
X104218831Y-41055720D01*
X104218830Y-41055720D01*
X104094540Y-41019226D01*
X104094538Y-41019226D01*
X103964994Y-41019226D01*
X103964992Y-41019226D01*
X103840701Y-41055720D01*
X103840698Y-41055721D01*
X103840697Y-41055722D01*
X103806693Y-41077575D01*
X103731716Y-41125759D01*
X103646884Y-41223663D01*
X103646883Y-41223664D01*
X103593068Y-41341500D01*
X103574633Y-41469726D01*
X103593068Y-41597951D01*
X103601168Y-41615688D01*
X103605187Y-41624487D01*
X103605188Y-41624488D01*
X103615132Y-41693646D01*
X103586108Y-41757202D01*
X103527330Y-41794977D01*
X103492394Y-41800000D01*
X100424000Y-41800000D01*
X100356961Y-41780315D01*
X100311206Y-41727511D01*
X100300000Y-41676000D01*
X100300000Y-40640582D01*
X100319685Y-40573543D01*
X100340706Y-40549929D01*
X100340361Y-40549583D01*
X100344665Y-40545278D01*
X100344669Y-40545276D01*
X100435276Y-40454669D01*
X100506465Y-40348127D01*
X100555501Y-40229744D01*
X100580500Y-40104069D01*
X100580500Y-38907399D01*
X100884500Y-38907399D01*
X100884500Y-39032601D01*
X100916905Y-39153536D01*
X100979505Y-39261964D01*
X101068036Y-39350495D01*
X101176464Y-39413095D01*
X101297399Y-39445500D01*
X101297401Y-39445500D01*
X101422599Y-39445500D01*
X101422601Y-39445500D01*
X101543536Y-39413095D01*
X101651964Y-39350495D01*
X101740495Y-39261964D01*
X101803095Y-39153536D01*
X101835500Y-39032601D01*
X101835500Y-38907399D01*
X106664500Y-38907399D01*
X106664500Y-39032601D01*
X106696905Y-39153536D01*
X106759505Y-39261964D01*
X106848036Y-39350495D01*
X106956464Y-39413095D01*
X107077399Y-39445500D01*
X107077401Y-39445500D01*
X107202599Y-39445500D01*
X107202601Y-39445500D01*
X107323536Y-39413095D01*
X107431964Y-39350495D01*
X107520495Y-39261964D01*
X107583095Y-39153536D01*
X107615500Y-39032601D01*
X107615500Y-38907399D01*
X107583095Y-38786464D01*
X107520495Y-38678036D01*
X107431964Y-38589505D01*
X107323536Y-38526905D01*
X107323537Y-38526905D01*
X107283224Y-38516103D01*
X107202601Y-38494500D01*
X107077399Y-38494500D01*
X106996775Y-38516103D01*
X106956463Y-38526905D01*
X106848037Y-38589504D01*
X106848034Y-38589506D01*
X106759506Y-38678034D01*
X106759504Y-38678037D01*
X106696905Y-38786463D01*
X106696905Y-38786464D01*
X106664500Y-38907399D01*
X101835500Y-38907399D01*
X101803095Y-38786464D01*
X101740495Y-38678036D01*
X101651964Y-38589505D01*
X101543536Y-38526905D01*
X101543537Y-38526905D01*
X101503224Y-38516103D01*
X101422601Y-38494500D01*
X101297399Y-38494500D01*
X101216775Y-38516103D01*
X101176463Y-38526905D01*
X101068037Y-38589504D01*
X101068034Y-38589506D01*
X100979506Y-38678034D01*
X100979504Y-38678037D01*
X100916905Y-38786463D01*
X100916905Y-38786464D01*
X100884500Y-38907399D01*
X100580500Y-38907399D01*
X100580500Y-38875931D01*
X100580500Y-38875928D01*
X100555502Y-38750261D01*
X100555501Y-38750260D01*
X100555501Y-38750256D01*
X100506465Y-38631873D01*
X100506464Y-38631872D01*
X100506461Y-38631866D01*
X100435276Y-38525331D01*
X100435273Y-38525327D01*
X100340362Y-38430416D01*
X100341353Y-38429424D01*
X100306001Y-38377525D01*
X100300000Y-38339417D01*
X100300000Y-38124000D01*
X100319685Y-38056961D01*
X100372489Y-38011206D01*
X100424000Y-38000000D01*
X108076000Y-38000000D01*
X108143039Y-38019685D01*
G37*
%TD.AperFunction*%
%TD*%
M02*
